<svg width="270" height="270" viewBox="0 0 270 270" fill="none" xmlns="http://www.w3.org/2000/svg">
<g clip-path="url(#clip0_8167_7771)">
<rect width="270" height="270" rx="20" fill="black"/>
<path d="M99.7064 106L96.6636 94.4714H75.2778L72.2778 106H59.1636L77.2064 45.1429H95.6778L113.678 106H99.7064ZM77.8064 84.9143H94.2207L86.7636 54.7857H85.6064L77.8064 84.9143ZM194.836 106L191.793 94.4714H170.407L167.407 106H154.293L172.336 45.1429H190.807L208.807 106H194.836ZM172.936 84.9143H189.35L181.893 54.7857H180.736L172.936 84.9143ZM147.271 222L144.228 210.471H122.842L119.842 222H106.728L124.771 161.143H143.242L161.242 222H147.271ZM125.371 200.914H141.785L134.328 170.786H133.171L125.371 200.914Z" fill="white"/>
</g>
<defs>
<clipPath id="clip0_8167_7771">
<rect width="270" height="270" fill="white"/>
</clipPath>
</defs>
</svg>
