<svg width="270" height="270" viewBox="0 0 270 270" fill="none" xmlns="http://www.w3.org/2000/svg">
<g clip-path="url(#clip0_7402_9478)">
<rect width="270" height="270" rx="20" fill="black"/>
<path d="M84.3636 84.0571L97.9064 106H112.478L98.2064 83.1571C107.121 81.6571 111.749 75.2714 111.749 64.7714C111.749 51.7 105.406 45.1429 91.5636 45.1429H63.7493V106H77.0778V84.0571H84.3636ZM88.3493 54.9143C95.8921 54.9143 98.8493 57.5714 98.8493 64.9C98.8493 72.2286 95.7207 74.9286 88.2207 74.9286H77.0778V54.9143H88.3493ZM181.893 107.286C197.879 107.286 206.793 100.343 206.793 88.4286C206.793 78.1 201.093 73.2143 188.707 70.8143L179.964 69.1429C173.321 67.8143 170.707 65.6714 170.707 61.3C170.707 56.5 174.65 53.8429 182.064 53.8429C189.693 53.8429 193.079 56.5 194.236 63.0571L206.579 61.8571C205.25 50.1571 197.579 43.8571 182.107 43.8571C166.464 43.8571 158.15 50.8 158.15 62.2C158.15 72.4857 164.45 78.0571 175.55 80.2429L184.979 82.0857C191.193 83.2857 193.936 84.9571 193.936 89.5C193.936 94.5571 189.65 97.3 182.279 97.3C173.921 97.3 170.107 94.6429 168.907 88L156.307 89.2C157.464 101.114 165.264 107.286 181.893 107.286ZM79.735 222H93.1064V171.9H113.206V161.143H59.635V171.9H79.735V222ZM174.864 222H188.236V171.9H208.336V161.143H154.764V171.9H174.864V222Z" fill="white"/>
</g>
<defs>
<clipPath id="clip0_7402_9478">
<rect width="270" height="270" fill="white"/>
</clipPath>
</defs>
</svg>
