<?xml version="1.0" encoding="UTF-8"?>
<svg xmlns="http://www.w3.org/2000/svg" xmlns:xlink="http://www.w3.org/1999/xlink" width="141.7" height="141.7" viewBox="0 0 141.7 141.7">
<path fill-rule="evenodd" fill="rgb(0%, 0%, 0%)" fill-opacity="1" d="M 79.964844 95.285156 C 73.453125 107.0625 68.324219 114.265625 57.933594 114.265625 C 46.574219 114.265625 33.550781 109.832031 33.550781 95.839844 C 33.550781 81.707031 43.25 77.414062 55.855469 77.414062 L 55.855469 95.007812 L 79.964844 95.007812 L 79.964844 42.359375 L 56.273438 42.359375 C 56.273438 47.625 52.53125 49.703125 46.851562 49.703125 C 42.277344 49.703125 38.539062 46.101562 38.539062 41.113281 C 38.539062 27.675781 59.320312 27.121094 68.742188 27.121094 C 80.933594 27.121094 94.511719 31.414062 96.453125 45.132812 C 97.007812 48.871094 97.007812 53.167969 97.007812 58.433594 L 97.007812 89.191406 L 110.445312 102.492188 L 98.253906 114.960938 C 98.253906 114.960938 85.230469 102.492188 79.964844 95.285156 Z M 79.964844 95.285156 "/>
</svg>
