<?xml version="1.0" encoding="UTF-8"?>
<svg id="Layer_1" xmlns="http://www.w3.org/2000/svg" version="1.1" viewBox="0 0 141.7 141.7">
  <!-- Generator: Adobe Illustrator 29.1.0, SVG Export Plug-In . SVG Version: 2.1.0 Build 142)  -->
  <path d="M79.964,91.285c-6.511,11.777-11.638,18.981-22.029,18.981-11.361,0-24.384-4.434-24.384-18.426,0-14.133,9.698-18.427,22.306-18.427v17.595h24.107v-52.648h-23.692c0,5.265-3.741,7.343-9.421,7.343-4.573,0-8.313-3.602-8.313-8.59,0-13.439,20.782-13.993,30.204-13.993,12.193,0,25.77,4.295,27.71,18.011.554,3.741.554,8.036.554,13.301v30.758l13.44,13.301-12.193,12.469s-13.024-12.469-18.289-19.673Z"/>
</svg>