<?xml version="1.0" encoding="UTF-8"?>
<svg id="Layer_1" xmlns="http://www.w3.org/2000/svg" version="1.1" viewBox="0 0 141.7 141.7">
  <!-- Generator: Adobe Illustrator 29.1.0, SVG Export Plug-In . SVG Version: 2.1.0 Build 142)  -->
  <path id="bm" d="M33.688,93.889c0,10.719,9.718,17.15,21.438,17.15,14.721,0,20.294-10.004,20.294-10.004,0,0-2.858,1.429-7.575,1.429-7.146.214-12.148-5.931-12.148-14.006,0-6.574,2.144-11.148,5.717-14.935l6.717-.572c12.863-.715,17.007-.715,25.297-.715l3.573-11.076c7.861-23.796,1.501-39.803-15.292-39.803-9.075,0-16.436,6.145-21.795,13.434,14.292.715,20.437,7.146,24.01,18.222l1.786,5.431-9.504,5.145c-5.788,3.001-10.933,6.003-14.721,9.933-14.22,1.644-27.798,7.503-27.798,20.437M56.555,34.65c-12.291,0-23.582,4.073-23.296,4.43l15.721,16.864s3.859-11.433,11.005-21.08c-1.048-.191-2.168-.262-3.359-.214M109.292,107.467l-15.721-35.301-15.149,35.301h30.87Z"/>
</svg>