<?xml version="1.0" encoding="UTF-8"?>
<svg xmlns="http://www.w3.org/2000/svg" xmlns:xlink="http://www.w3.org/1999/xlink" width="141.7" height="141.7" viewBox="0 0 141.7 141.7">
<path fill-rule="evenodd" fill="rgb(0%, 0%, 0%)" fill-opacity="1" d="M 32.6875 97.890625 C 32.6875 108.609375 42.40625 115.039062 54.125 115.039062 C 68.847656 115.039062 74.421875 105.035156 74.421875 105.035156 C 74.421875 105.035156 71.5625 106.464844 66.84375 106.464844 C 59.699219 106.679688 54.695312 100.53125 54.695312 92.457031 C 54.695312 85.882812 56.839844 81.308594 60.414062 77.523438 L 67.132812 76.949219 C 79.992188 76.234375 84.136719 76.234375 92.429688 76.234375 L 96 65.160156 C 103.863281 41.363281 97.503906 25.355469 80.710938 25.355469 C 71.632812 25.355469 64.273438 31.503906 58.914062 38.789062 C 73.207031 39.507812 79.351562 45.9375 82.925781 57.011719 L 84.710938 62.445312 L 75.207031 67.589844 C 69.417969 70.589844 64.273438 73.59375 60.484375 77.523438 C 46.265625 79.164062 32.6875 85.023438 32.6875 97.960938 Z M 55.554688 38.648438 C 43.265625 38.648438 31.972656 42.722656 32.257812 43.078125 L 47.980469 59.945312 C 47.980469 59.945312 51.839844 48.511719 58.984375 38.863281 C 57.9375 38.671875 56.816406 38.601562 55.625 38.648438 Z M 108.292969 111.46875 L 92.570312 76.164062 L 77.421875 111.46875 Z M 108.292969 111.46875 "/>
</svg>
