<?xml version="1.0" encoding="UTF-8"?>
<svg id="Layer_1" xmlns="http://www.w3.org/2000/svg" version="1.1" viewBox="0 0 141.7 141.7">
  <!-- Generator: Adobe Illustrator 29.2.1, SVG Export Plug-In . SVG Version: 2.1.0 Build 116)  -->
  <path d="M109.801,37.219c-.6,9-3.3,22.499-4.499,38.699-.15,2.399-.75,7.199.149,9.6.601,1.8,1.65,1.649,3.3,1.8,2.25.3,3.75,1.35,3.75,3.749,0,9.75-21.899,18.45-30.148,18.45-13.35,0-6.899-12.75-11.699-12.75-3.9,0-11.25,13.499-26.699,13.499-13.8,0-19.5-12.149-18.899-24.299,1.2-26.999,18-52.197,41.098-54.297,10.5-1.05,14.7,6.15,19.049,6.15,1.65,0,4.35-1.65,5.7-2.4,4.199-2.1,8.1-3.9,12.749-3.9,4.2,0,6.45,1.5,6.149,5.7ZM79.353,53.119c0-1.95-.6-4.95-3-4.8-7.95.6-17.999,22.949-17.849,32.548,0,2.25.45,6.149,3.45,5.85,7.95-.6,17.699-26.099,17.399-33.598Z"/>
</svg>