<?xml version="1.0" encoding="UTF-8"?>
<svg xmlns="http://www.w3.org/2000/svg" xmlns:xlink="http://www.w3.org/1999/xlink" width="141.7" height="141.7" viewBox="0 0 141.7 141.7">
<path fill-rule="nonzero" fill="rgb(0%, 0%, 0%)" fill-opacity="1" d="M 81.351562 53.117188 C 81.351562 51.167969 80.753906 48.167969 78.351562 48.320312 C 70.402344 48.917969 60.351562 71.265625 60.503906 80.867188 C 60.503906 83.117188 60.953125 87.015625 63.953125 86.714844 C 71.902344 86.117188 81.652344 60.617188 81.351562 53.117188 M 111.800781 37.21875 C 111.203125 46.21875 108.5 59.71875 107.300781 75.917969 C 107.152344 78.316406 106.550781 83.117188 107.453125 85.515625 C 108.050781 87.316406 109.101562 87.167969 110.75 87.316406 C 113 87.617188 114.5 88.667969 114.5 91.066406 C 114.5 100.816406 92.601562 109.515625 84.351562 109.515625 C 71.003906 109.515625 77.453125 96.765625 72.652344 96.765625 C 68.753906 96.765625 61.402344 110.265625 45.953125 110.265625 C 32.15625 110.265625 26.453125 98.117188 27.054688 85.964844 C 28.253906 58.96875 45.054688 33.769531 68.152344 31.667969 C 78.652344 30.621094 82.851562 37.820312 87.203125 37.820312 C 88.851562 37.820312 91.550781 36.167969 92.902344 35.417969 C 97.101562 33.320312 101 31.519531 105.652344 31.519531 C 109.851562 31.519531 112.101562 33.019531 111.800781 37.21875 "/>
</svg>
