<?xml version="1.0" encoding="UTF-8"?>
<svg id="Layer_1" xmlns="http://www.w3.org/2000/svg" version="1.1" viewBox="0 0 141.7 141.7">
  <!-- Generator: Adobe Illustrator 29.0.1, SVG Export Plug-In . SVG Version: 2.1.0 Build 192)  -->
  <path d="M78.7,93.6l-13,18.3c-1.6.5-2.8.8-4.3.8-5.7,0-13.3-1.4-18.2-4.8-5.3-3.9-8.4-10.9-8.4-17.4s4.2-14.3,10.6-18.8l6.7-4.7v10.1c0,9,7.5,16.5,16.6,16.5h10.1ZM99.9,112.5c-12.1-1.6-22.4-13.2-22.4-25.5v-19.7h-25.9l24.7-16.9c-3.7-7.8-10.2-8.4-17.4-8.5h-6.7l12.9-18.3c2-.5,4.2-.8,6.5-.8,15.1,0,27.3,12.3,27.3,27.3v34.5c0,6.7,7.1,10.6,13.2,10.6l-12.3,17.4Z"/>
</svg>