<?xml version="1.0" encoding="UTF-8"?>
<svg xmlns="http://www.w3.org/2000/svg" xmlns:xlink="http://www.w3.org/1999/xlink" width="141.7" height="141.7" viewBox="0 0 141.7 141.7">
<path fill-rule="nonzero" fill="rgb(0%, 0%, 0%)" fill-opacity="1" d="M 66.609375 95.523438 C 57.460938 95.523438 50.015625 88.082031 50.015625 79.082031 L 50.015625 69.3125 L 75.449219 69.3125 L 75.449219 89.011719 C 75.449219 91.21875 75.789062 93.410156 76.40625 95.523438 Z M 96.855469 86.527344 L 96.855469 52.097656 C 96.855469 37.050781 84.601562 24.800781 69.558594 24.800781 C 67.230469 24.800781 65.058594 25.109375 63.042969 25.574219 L 50.171875 43.878906 L 56.839844 43.878906 C 63.976562 44.03125 70.488281 44.652344 74.210938 52.40625 L 49.550781 69.3125 L 49.574219 69.3125 L 43.34375 73.65625 C 36.988281 78.152344 32.800781 84.511719 32.800781 92.421875 C 32.800781 98.933594 35.902344 105.914062 41.175781 109.792969 C 45.984375 113.207031 53.582031 114.601562 59.320312 114.601562 C 60.871094 114.601562 62.113281 114.289062 63.664062 113.824219 L 76.488281 95.8125 C 79.378906 105.289062 87.96875 113.1875 97.785156 114.445312 L 110.039062 97.074219 C 103.988281 97.074219 96.855469 93.195312 96.855469 86.527344 "/>
</svg>
