<?xml version="1.0" encoding="UTF-8"?>
<svg id="Layer_1" xmlns="http://www.w3.org/2000/svg" version="1.1" viewBox="0 0 141.7 141.7">
  <!-- Generator: Adobe Illustrator 29.0.1, SVG Export Plug-In . SVG Version: 2.1.0 Build 192)  -->
  <path d="M98,110h-5.3l-8.2-8.1c-3.5,5.2-10.6,9.3-20.4,9.3s-25-8.9-25-24.4,15.3-23,27-24.1c2.7-.3,5.5-.9,7.6-1.7,3.9-1.6,6.3-4.9,6.3-8.8,0-5.9-5.5-9.8-10.9-9.8s-11.6,4.8-11.6,11v2.3h-17.3c-.9-2.7-1.2-5.9-1.1-8.6.9-13.7,15.3-22.9,29.8-22.9s29.1,13.4,29.1,29.9v55.9ZM79.8,66.5c-.8,1.7-4,3.5-7.2,4.1-1.7.4-6.3,1.5-7.9,2.3-3.7,1.6-7.3,4.5-7.3,9.7s4.8,10.4,10.9,10.2c4.9,0,11.4-4.7,11.4-12.2v-14.1Z"/>
</svg>