<?xml version="1.0" encoding="UTF-8"?>
<svg xmlns="http://www.w3.org/2000/svg" xmlns:xlink="http://www.w3.org/1999/xlink" width="141.7" height="141.7" viewBox="0 0 141.7 141.7">
<path fill-rule="evenodd" fill="rgb(0%, 0%, 0%)" fill-opacity="1" d="M 98.765625 114.097656 L 93.328125 114.097656 L 84.914062 105.789062 C 81.324219 111.125 74.039062 115.328125 63.984375 115.328125 C 53.929688 115.328125 38.335938 106.199219 38.335938 90.296875 C 38.335938 74.394531 54.03125 66.699219 66.035156 65.570312 C 68.808594 65.261719 71.679688 64.648438 73.835938 63.824219 C 77.835938 62.183594 80.296875 58.796875 80.296875 54.796875 C 80.296875 48.742188 74.65625 44.742188 69.113281 44.742188 C 63.574219 44.742188 57.214844 49.667969 57.214844 56.027344 L 57.214844 58.390625 L 39.464844 58.390625 C 38.539062 55.617188 38.230469 52.335938 38.335938 49.566406 C 39.257812 35.507812 54.03125 26.070312 68.910156 26.070312 C 83.785156 26.070312 98.765625 39.816406 98.765625 56.746094 Z M 80.09375 69.46875 C 79.269531 71.210938 75.988281 73.058594 72.707031 73.675781 C 70.960938 74.085938 66.242188 75.214844 64.601562 76.035156 C 60.804688 77.675781 57.109375 80.652344 57.109375 85.988281 C 57.109375 91.320312 62.035156 96.65625 68.292969 96.453125 C 73.320312 96.453125 79.988281 91.628906 79.988281 83.933594 L 79.988281 69.46875 Z M 80.09375 69.46875 "/>
</svg>
