<?xml version="1.0" encoding="UTF-8"?>
<svg id="Layer_1" xmlns="http://www.w3.org/2000/svg" version="1.1" viewBox="0 0 141.7 141.7">
  <!-- Generator: Adobe Illustrator 29.1.0, SVG Export Plug-In . SVG Version: 2.1.0 Build 142)  -->
  <path d="M103.1,79.4c-1.8-.6-2.1-1.7-2.1-3.1l.2-12.8c.2-10.8-2.7-22-17-28.9l-11.7-5.6c-3.1-1.5-5.8-2.5-8.6-2.5-4.7,0-8.7,3.7-8.7,8.5h0c0,1.8.5,3.1,1.5,4.7.5.7.7,1.2.7,1.9s-.6,1.6-2.2,2.2c-16.4,5.8-22.1,20.2-22.1,31.3s9.1,28.1,23.9,28.1,13.1-3.7,17.3-9.4c.9-1.2,1.6-2.1,3.1-2.1s2.5,1.5,3,3c1.6,5.3,5.3,8.6,10.8,8.6s6.9-2.2,8-3.2l6.3-6.5c1.6-1.8,3.2-3.7,3.2-6.6s-1.8-6.4-5.6-7.6M67.5,85.1c-9,0-16.3-7.2-16.4-16.1v-.3c-.1-9,7.1-16.4,16.1-16.5h.3c9.3,0,16.5,7.2,16.5,16.5,0,9-7.2,16.3-16.2,16.4h-.3"/>
</svg>