<?xml version="1.0" encoding="UTF-8"?>
<svg xmlns="http://www.w3.org/2000/svg" xmlns:xlink="http://www.w3.org/1999/xlink" width="141.7" height="141.7" viewBox="0 0 141.7 141.7">
<path fill-rule="evenodd" fill="rgb(0%, 0%, 0%)" fill-opacity="1" d="M 106.882812 87.105469 C 104.871094 86.433594 104.539062 85.203125 104.539062 83.640625 L 104.761719 69.335938 C 104.984375 57.265625 101.742188 44.75 85.761719 37.039062 L 72.6875 30.78125 C 69.222656 29.105469 66.207031 27.984375 63.078125 27.984375 C 57.824219 27.984375 53.355469 32.121094 53.355469 37.484375 C 53.355469 39.496094 53.914062 40.949219 55.03125 42.738281 C 55.589844 43.519531 55.8125 44.078125 55.8125 44.859375 C 55.8125 45.644531 55.144531 46.648438 53.355469 47.320312 C 35.027344 53.800781 28.65625 69.894531 28.65625 82.300781 C 28.65625 94.703125 38.828125 113.703125 55.367188 113.703125 C 71.90625 113.703125 70.003906 109.566406 74.699219 103.195312 C 75.707031 101.855469 76.488281 100.851562 78.164062 100.851562 C 79.839844 100.851562 80.957031 102.527344 81.515625 104.203125 C 83.304688 110.125 87.441406 113.8125 93.585938 113.8125 C 99.734375 113.8125 101.296875 111.355469 102.527344 110.238281 L 109.566406 102.972656 C 111.355469 100.960938 113.144531 98.839844 113.144531 95.597656 C 113.144531 92.355469 111.132812 88.445312 106.882812 87.105469 M 67.101562 93.472656 C 57.042969 93.472656 48.882812 85.429688 48.773438 75.480469 L 48.773438 75.144531 C 48.660156 65.089844 56.707031 56.820312 66.765625 56.707031 L 67.101562 56.707031 C 77.492188 56.707031 85.539062 64.753906 85.539062 75.144531 C 85.539062 85.203125 77.492188 93.363281 67.4375 93.472656 Z M 67.101562 93.472656 "/>
</svg>
