<?xml version="1.0" encoding="UTF-8"?>
<svg id="Layer_1" xmlns="http://www.w3.org/2000/svg" version="1.1" viewBox="0 0 141.7 141.7">
  <!-- Generator: Adobe Illustrator 30.2.1, SVG Export Plug-In . SVG Version: 2.1.1 Build 1)  -->
  <path d="M51.683,113.688c9.024,0,18.983-6.068,25.206-23.028l-.622,21.472h33.92c-3.112-8.247-5.757-25.206-5.757-34.075l.311-12.448c.934-24.429-12.292-36.409-37.032-36.409-10.736,0-21.317,2.956-29.563,5.757l-1.4,34.853c7.469-8.091,18.671-13.226,27.229-13.226,5.446,0,9.802,2.178,11.203,7.157l-10.114,3.579c-23.339,8.247-30.341,17.427-30.341,28.63,0,9.958,6.379,17.738,16.96,17.738ZM61.019,93.461c-4.668,0-8.247-3.423-8.247-8.247,0-4.979,2.801-8.713,7.157-8.713,4.979,0,12.759,4.357,16.649,10.114-3.423,3.734-10.892,6.846-15.56,6.846Z"/>
</svg>