<?xml version="1.0" encoding="UTF-8"?>
<svg id="Layer_1" xmlns="http://www.w3.org/2000/svg" version="1.1" viewBox="0 0 141.7 141.7">
  <!-- Generator: Adobe Illustrator 29.1.0, SVG Export Plug-In . SVG Version: 2.1.0 Build 142)  -->
  <path d="M36.7,47.5c1.8-3.1,3.9-6,6.4-8.5s5.2-4.7,8.2-6.6c3-1.8,6.2-3.2,9.5-4.2,3.3-1,6.7-1.5,10.1-1.5s7.9.7,11.2,2.1c3.3,1.4,6.1,3.4,8.5,6.1,2.3,2.7,4.2,5.8,5.4,9.5,1.3,3.7,1.9,7.8,1.9,12.4s0,2.3-.1,3.5-.2,2.3-.4,3.5c3.3,1.3,6.4,2.8,9.3,4.5s5.6,3.5,8.1,5.6l-5.4,6.2c-4-3.3-8.5-6.1-13.7-8.4-1.3,5-3.2,9.8-5.7,14.6-2.5,4.7-5.5,8.9-9,12.6s-7.4,6.6-11.7,8.8c-4.3,2.2-9,3.3-13.9,3.3s-6.8-.6-9.5-1.8c-2.8-1.2-5.1-2.9-7-5.1s-3.4-4.7-4.4-7.7-1.5-6.1-1.5-9.7.8-8.4,2.4-12,3.9-6.6,6.9-9.1,6.7-4.4,11.1-5.7c4.4-1.3,9.3-2,14.9-2s7.1.3,10.7.8,7.1,1.3,10.7,2.3c0-.6.1-1.3.2-2v-2c0-7.1-1.7-12.7-5.1-16.7s-8.1-6.1-14.2-6.1c-3.234,0-5.3.4-8,1.2-2.7.8-5.1,2-7.5,3.4-2.3,1.5-4.5,3.3-6.4,5.3s-3.5,4.4-4.7,7l-7.3-3.9h0v.3ZM88.3,68.9c-3.3-1.1-6.6-1.9-9.9-2.5-3.3-.5-6.7-.8-10-.8-8.5,0-15.2,1.8-20,5.5s-7.2,8.8-7.2,15.3,1.4,9.1,4.2,12.2,6.5,4.7,11.1,4.7,6.9-1,10.3-2.9,6.4-4.5,9.2-7.7c2.8-3.2,5.3-6.9,7.4-11s3.7-8.4,4.8-12.9h0l.1.1ZM102.8,82.6c.5,1.9,1.1,3.9,2,6s1.8,4.3,2.9,6.4,2.2,4.1,3.4,6c1.3,1.9,2.5,3.6,3.9,5.2l-7.4,3.6c-1.1-1.5-2.2-3.2-3.3-5.1-1.1-1.9-2.1-3.9-3.2-6-1-2.1-1.9-4.2-2.7-6.4-.8-2.2-1.5-4.3-2.2-6.4l6.6-3.4h0v.1Z"/>
</svg>