<?xml version="1.0" encoding="UTF-8"?>
<svg xmlns="http://www.w3.org/2000/svg" xmlns:xlink="http://www.w3.org/1999/xlink" width="141.7" height="141.7" viewBox="0 0 141.7 141.7">
<path fill-rule="evenodd" fill="rgb(0%, 0%, 0%)" fill-opacity="1" d="M 33.699219 49.5 C 35.5 46.398438 37.601562 43.5 40.101562 41 C 42.601562 38.5 45.300781 36.300781 48.300781 34.398438 C 51.300781 32.601562 54.5 31.199219 57.800781 30.199219 C 61.101562 29.199219 64.5 28.699219 67.898438 28.699219 C 71.300781 28.699219 75.800781 29.398438 79.101562 30.800781 C 82.398438 32.199219 85.199219 34.199219 87.601562 36.898438 C 89.898438 39.601562 91.800781 42.699219 93 46.398438 C 94.300781 50.101562 94.898438 54.199219 94.898438 58.800781 C 94.898438 63.398438 94.898438 61.101562 94.800781 62.300781 C 94.699219 63.5 94.601562 64.601562 94.398438 65.800781 C 97.699219 67.101562 100.800781 68.601562 103.699219 70.300781 C 106.601562 72 109.300781 73.800781 111.800781 75.898438 L 106.398438 82.101562 C 102.398438 78.800781 97.898438 76 92.699219 73.699219 C 91.398438 78.699219 89.5 83.5 87 88.300781 C 84.5 93 81.5 97.199219 78 100.898438 C 74.5 104.601562 70.601562 107.5 66.300781 109.699219 C 62 111.898438 57.300781 113 52.398438 113 C 47.5 113 45.601562 112.398438 42.898438 111.199219 C 40.101562 110 37.800781 108.300781 35.898438 106.101562 C 34 103.898438 32.5 101.398438 31.5 98.398438 C 30.5 95.398438 30 92.300781 30 88.699219 C 30 85.101562 30.800781 80.300781 32.398438 76.699219 C 34 73.101562 36.300781 70.101562 39.300781 67.601562 C 42.300781 65.101562 46 63.199219 50.398438 61.898438 C 54.800781 60.601562 59.699219 59.898438 65.300781 59.898438 C 70.898438 59.898438 72.398438 60.199219 76 60.699219 C 79.601562 61.199219 83.101562 62 86.699219 63 C 86.699219 62.398438 86.800781 61.699219 86.898438 61 L 86.898438 59 C 86.898438 51.898438 85.199219 46.300781 81.800781 42.300781 C 78.398438 38.300781 73.699219 36.199219 67.601562 36.199219 C 64.367188 36.199219 62.300781 36.601562 59.601562 37.398438 C 56.898438 38.199219 54.5 39.398438 52.101562 40.800781 C 49.800781 42.300781 47.601562 44.101562 45.699219 46.101562 C 43.800781 48.101562 42.199219 50.5 41 53.101562 L 33.699219 49.199219 Z M 85.300781 70.898438 C 82 69.800781 78.699219 69 75.398438 68.398438 C 72.101562 67.898438 68.699219 67.601562 65.398438 67.601562 C 56.898438 67.601562 50.199219 69.398438 45.398438 73.101562 C 40.601562 76.800781 38.199219 81.898438 38.199219 88.398438 C 38.199219 94.898438 39.601562 97.5 42.398438 100.601562 C 45.199219 103.699219 48.898438 105.300781 53.5 105.300781 C 58.101562 105.300781 60.398438 104.300781 63.800781 102.398438 C 67.199219 100.5 70.199219 97.898438 73 94.699219 C 75.800781 91.5 78.300781 87.800781 80.398438 83.699219 C 82.5 79.601562 84.101562 75.300781 85.199219 70.800781 Z M 99.800781 84.601562 C 100.300781 86.5 100.898438 88.5 101.800781 90.601562 C 102.699219 92.699219 103.601562 94.898438 104.699219 97 C 105.800781 99.101562 106.898438 101.101562 108.101562 103 C 109.398438 104.898438 110.601562 106.601562 112 108.199219 L 104.601562 111.800781 C 103.5 110.300781 102.398438 108.601562 101.300781 106.699219 C 100.199219 104.800781 99.199219 102.800781 98.101562 100.699219 C 97.101562 98.601562 96.199219 96.5 95.398438 94.300781 C 94.601562 92.101562 93.898438 90 93.199219 87.898438 L 99.800781 84.5 Z M 99.800781 84.601562 "/>
</svg>
