<?xml version="1.0" encoding="UTF-8"?>
<svg id="Layer_1" xmlns="http://www.w3.org/2000/svg" version="1.1" viewBox="0 0 141.7 141.7">
  <!-- Generator: Adobe Illustrator 29.2.1, SVG Export Plug-In . SVG Version: 2.1.0 Build 116)  -->
  <path d="M73.57,98.471c-4.349,5.55-10.949,7.949-19.499,7.949-15,0-22.949-7.499-22.949-19.499,0-12.749,9-22.499,35.549-22.499h6.899v-3c0-3-1.35-4.35-3.599-4.35s-3.75,1.65-4.05,3.9h-32.549c1.35-16.5,14.399-28.049,39.148-28.049,24.149,0,36.148,10.95,36.148,32.249v39.748h-35.099v-6.449ZM43.572,73.722c0,1.2-.9,2.1-2.1,2.1-.45,0-.75-.15-.9-.3-.75.6-1.35,1.2-1.8,1.95,0,1.05-.6,1.649-1.35,1.8-1.2,2.25-1.8,4.8-1.8,7.649,0,9.6,6.9,14.999,18.449,14.999,8.7,0,13.35-2.25,17.999-8.549h6v7.049h26.099v-29.698c-.3.6-.899,1.05-1.649,1.05-1.2,0-1.65-.9-1.95-2.1-.3-1.2-.899-2.1-2.1-2.1s-1.8.9-2.1,2.1c-.301,1.2-.75,2.1-1.95,2.1s-1.8-.9-2.1-2.1c-.301-1.2-.75-2.1-1.95-2.1s-1.8.9-2.101,2.1c-.3,1.2-.899,2.1-2.1,2.1s-1.649-.9-1.95-2.1c-.3-1.2-.899-2.1-2.1-2.1-1.05,0-1.649.9-1.95,2.1-.3,1.2-.899,2.1-2.1,2.1-1.8,0-2.1-2.1-2.399-3.149h-3.3c-.301,1.05-.601,3.149-2.4,3.149s-2.1-2.1-2.399-3.149h-3.45c-.3,1.05-.6,3.149-2.4,3.149-1.5,0-1.8-1.649-2.25-2.85l-3.6.45c-.3,1.05-.899,2.399-2.25,2.399-1.05,0-1.5-.75-1.8-1.649-3.3.75-6,1.8-8.25,3.149v.45ZM37.272,85.571c.3,0,.45.149.45.449s-.15.45-.45.45-.45-.149-.45-.45.15-.449.45-.449ZM41.322,80.921c.6,0,1.05.45,1.05,1.05s-.45,1.051-1.05,1.051-1.05-.45-1.05-1.051.45-1.05,1.05-1.05ZM41.772,53.322c0-.3-.15-.45-.45-.45s-.45.15-.45.45.15.45.45.45.45-.15.45-.45ZM45.372,76.271c.9,0,1.5.6,1.5,1.5s-.6,1.5-1.5,1.5-1.5-.601-1.5-1.5.6-1.5,1.5-1.5ZM45.372,85.571c.3,0,.45.149.45.449s-.15.45-.45.45-.45-.149-.45-.45.15-.449.45-.449ZM49.572,71.771c1.2,0,2.101.9,2.101,2.1s-.9,2.101-2.101,2.101-2.1-.9-2.1-2.101.9-2.1,2.1-2.1ZM49.422,80.921c.6,0,1.05.45,1.05,1.05s-.45,1.051-1.05,1.051-1.05-.45-1.05-1.051.45-1.05,1.05-1.05ZM49.872,53.322c0-.3-.149-.45-.449-.45s-.45.15-.45.45.15.45.45.45.449-.15.449-.45ZM53.622,76.271c.9,0,1.5.6,1.5,1.5s-.6,1.5-1.5,1.5-1.5-.601-1.5-1.5.601-1.5,1.5-1.5ZM53.622,85.571c.301,0,.45.149.45.449s-.149.45-.45.45-.449-.149-.449-.45.149-.449.449-.449ZM57.671,71.621c1.2,0,2.101.9,2.101,2.1s-.9,2.1-2.101,2.1-2.1-.899-2.1-2.1.9-2.1,2.1-2.1ZM57.671,80.921c.601,0,1.05.45,1.05,1.05s-.449,1.051-1.05,1.051-1.05-.45-1.05-1.051.45-1.05,1.05-1.05ZM58.122,53.322c0-.3-.149-.45-.45-.45s-.449.15-.449.45.149.45.449.45.45-.15.45-.45ZM77.771,86.471c-3.3,3.15-6.6,3.9-9.299,3.9-6.3,0-8.55-3.601-8.55-7.65,0-3.6,1.8-5.999,4.65-7.199-.601-.45-.9-1.05-.9-1.8,0-1.2.9-2.1,2.1-2.1s2.101.9,2.101,2.1c0,.3,0,.6-.15.899.9-.149,1.95-.3,4.2-.3v-.6c0-1.2.899-2.1,2.1-2.1s2.1.9,2.1,2.1v.6h1.95v1.95c.9,0,1.5.6,1.5,1.5s-.6,1.5-1.5,1.5v6.3c.3,0,.45.149.45.449s-.15.45-.45.45h-.3ZM73.57,78.371h-2.849c-4.649,0-6.3,2.1-6.3,4.35,0,2.101,1.35,3.601,4.2,3.601,1.949,0,3.899-.75,4.949-1.8v-6.15ZM65.771,52.872c-.6,0-.6.6-.3.9.3-.15.601-.3.75-.45,0-.3-.3-.45-.45-.45ZM74.32,53.473c0-.45-.149-.6-.45-.6s-.449.15-.449.3l.899.3ZM79.12,57.372c0-.6-.45-1.05-1.05-1.05-.3,0-.6.15-.75.45.15.45.3,1.05.45,1.65.899,0,1.35-.45,1.35-1.05ZM78.07,67.722c1.2,0,2.1-.9,2.1-2.1s-.899-2.1-2.1-2.1v4.2ZM82.12,71.621c1.2,0,2.1.9,2.1,2.1s-.899,2.1-2.1,2.1-2.1-.899-2.1-2.1.899-2.1,2.1-2.1ZM83.62,61.572c0-.9-.6-1.5-1.5-1.5s-1.5.6-1.5,1.5.601,1.5,1.5,1.5,1.5-.6,1.5-1.5ZM82.12,80.921c.601,0,1.05.45,1.05,1.05s-.449,1.051-1.05,1.051-1.05-.45-1.05-1.051.45-1.05,1.05-1.05ZM82.57,53.322c0-.3-.15-.45-.45-.45s-.45.15-.45.45.15.45.45.45.45-.15.45-.45ZM88.27,65.622c0-1.2-.899-2.1-2.1-2.1s-2.1.9-2.1,2.1.899,2.1,2.1,2.1,2.1-.9,2.1-2.1ZM86.17,76.271c.9,0,1.5.6,1.5,1.5s-.6,1.5-1.5,1.5-1.5-.601-1.5-1.5.601-1.5,1.5-1.5ZM87.22,57.372c0-.6-.449-1.05-1.05-1.05s-1.05.45-1.05,1.05.45,1.05,1.05,1.05,1.05-.45,1.05-1.05ZM86.17,85.571c.3,0,.45.149.45.449s-.15.45-.45.45-.45-.149-.45-.45.15-.449.45-.449ZM90.37,71.621c1.2,0,2.1.9,2.1,2.1s-.899,2.1-2.1,2.1-2.101-.899-2.101-2.1.9-2.1,2.101-2.1ZM91.87,61.572c0-.9-.601-1.5-1.5-1.5s-1.5.6-1.5,1.5.6,1.5,1.5,1.5,1.5-.6,1.5-1.5ZM90.37,80.921c.6,0,1.05.45,1.05,1.05s-.45,1.051-1.05,1.051-1.05-.45-1.05-1.051.449-1.05,1.05-1.05ZM90.82,53.322c0-.3-.15-.45-.45-.45s-.45.15-.45.45.15.45.45.45.45-.15.45-.45ZM96.52,65.622c0-1.2-.899-2.1-2.1-2.1s-2.1.9-2.1,2.1.899,2.1,2.1,2.1,2.1-.9,2.1-2.1ZM94.42,76.271c.899,0,1.5.6,1.5,1.5s-.601,1.5-1.5,1.5-1.5-.601-1.5-1.5.6-1.5,1.5-1.5ZM95.47,57.372c0-.6-.45-1.05-1.05-1.05s-1.05.45-1.05,1.05.449,1.05,1.05,1.05,1.05-.45,1.05-1.05ZM94.42,85.571c.3,0,.45.149.45.449s-.15.45-.45.45-.45-.149-.45-.45.15-.449.45-.449ZM98.47,71.621c1.2,0,2.1.9,2.1,2.1s-.899,2.1-2.1,2.1-2.1-.899-2.1-2.1.899-2.1,2.1-2.1ZM99.97,61.572c0-.9-.601-1.5-1.5-1.5s-1.5.6-1.5,1.5.6,1.5,1.5,1.5,1.5-.6,1.5-1.5ZM98.47,80.921c.6,0,1.05.45,1.05,1.05s-.45,1.051-1.05,1.051-1.05-.45-1.05-1.051.449-1.05,1.05-1.05ZM98.92,53.322c0-.3-.15-.45-.45-.45s-.45.15-.45.45.15.45.45.45.45-.15.45-.45ZM104.169,64.422c-.3-.6-.899-.9-1.649-.9-1.2,0-2.1.9-2.1,2.1s.899,2.1,2.1,2.1c.75,0,1.35-.3,1.649-.9v-2.4ZM102.369,76.271c.9,0,1.5.6,1.5,1.5s-.6,1.5-1.5,1.5-1.5-.601-1.5-1.5.601-1.5,1.5-1.5ZM103.27,56.622c-.15-.15-.45-.3-.75-.3-.6,0-1.05.45-1.05,1.05s.45,1.05,1.199,1.05c.45,0,.9-.3.9-.6l-.3-1.2ZM102.52,85.571c.3,0,.45.149.45.449s-.15.45-.45.45-.45-.149-.45-.45.15-.449.45-.449Z"/>
</svg>