<?xml version="1.0" encoding="UTF-8"?>
<svg id="Layer_1" xmlns="http://www.w3.org/2000/svg" version="1.1" viewBox="0 0 141.7 141.7">
  <!-- Generator: Adobe Illustrator 29.2.1, SVG Export Plug-In . SVG Version: 2.1.0 Build 116)  -->
  <path d="M31.123,86.921c0-12.749,9-22.499,35.549-22.499h6.899v-3c0-3-1.35-4.35-3.599-4.35s-3.75,1.65-4.05,3.9h-32.549c1.35-16.5,14.399-28.049,39.148-28.049,24.149,0,36.148,10.95,36.148,32.249v39.748h-35.099v-6.449c-4.349,5.55-10.949,7.949-19.499,7.949-15,0-22.949-7.499-22.949-19.499ZM55.722,104.02l4.8-6.45c6.6,0,11.249-1.35,15.449-5.699v10.649l16.35-3.3v-35.999c0-12.75-7.05-19.5-21-19.5l.9-8.399c-21.449.15-33.598,9.3-35.998,23.249l16.2-3.3c2.399-4.35,7.499-9.149,18.749-9.149l-.9,8.549c3.299.15,5.7,1.95,5.7,6.75v5.399h-9.299c-23.699,0-33.148,8.25-33.148,20.099,0,10.8,7.35,17.1,20.549,17.1h1.65ZM48.972,84.821c0-7.05,5.55-12.3,19.799-12.3h12.149l-4.949,5.85v7.35c-2.101,2.101-5.25,3-9,3l-4.8,6.45h-.75c-8.1,0-12.449-3.9-12.449-10.35ZM73.57,84.521v-6.15h-2.849c-4.649,0-6.3,2.1-6.3,4.35,0,2.101,1.35,3.601,4.2,3.601,1.949,0,3.899-.75,4.949-1.8Z"/>
</svg>