<?xml version="1.0" encoding="UTF-8"?>
<svg xmlns="http://www.w3.org/2000/svg" xmlns:xlink="http://www.w3.org/1999/xlink" width="141.7" height="141.7" viewBox="0 0 141.7 141.7">
<path fill-rule="nonzero" fill="rgb(0%, 0%, 0%)" fill-opacity="1" d="M 53.929688 70.652344 C 53.929688 68.339844 55.625 66.179688 60.410156 66.179688 L 63.339844 66.179688 L 63.339844 72.507812 C 62.261719 73.585938 60.253906 74.359375 58.25 74.359375 C 55.316406 74.359375 53.929688 72.816406 53.929688 70.652344 M 46.675781 110.617188 L 25.539062 89.480469 C 29.550781 93.027344 35.414062 95.03125 43.28125 95.03125 C 52.078125 95.03125 58.867188 92.566406 63.339844 86.855469 L 63.339844 93.488281 L 99.445312 93.488281 L 99.445312 52.601562 C 99.445312 42.574219 96.824219 34.859375 91.730469 29.304688 L 113.023438 50.597656 C 118.578125 56.152344 121.203125 64.019531 121.203125 74.359375 L 121.203125 115.246094 L 85.097656 115.246094 L 81.855469 112.007812 C 77.535156 115.246094 71.828125 116.789062 65.039062 116.789062 C 56.859375 116.789062 50.6875 114.628906 46.675781 110.617188 M 21.988281 48.28125 L 55.472656 48.28125 C 55.78125 45.96875 57.324219 44.269531 59.636719 44.269531 C 61.953125 44.269531 63.339844 45.660156 63.339844 48.746094 L 63.339844 51.828125 L 56.242188 51.828125 C 44.363281 51.828125 35.257812 53.992188 30.476562 56.769531 Z M 21.988281 48.28125 "/>
</svg>
