<?xml version="1.0" encoding="UTF-8"?>
<svg xmlns="http://www.w3.org/2000/svg" xmlns:xlink="http://www.w3.org/1999/xlink" width="141.7" height="141.7" viewBox="0 0 141.7 141.7">
<path fill-rule="nonzero" fill="rgb(0%, 0%, 0%)" fill-opacity="1" d="M 73.816406 86.53125 L 73.816406 79.960938 L 70.777344 79.960938 C 65.808594 79.960938 64.046875 82.203125 64.046875 84.605469 C 64.046875 86.847656 65.488281 88.453125 68.535156 88.453125 C 70.613281 88.453125 72.695312 87.648438 73.816406 86.53125 M 47.550781 86.847656 C 47.550781 79.324219 53.476562 73.714844 68.695312 73.714844 L 81.664062 73.714844 L 76.378906 79.960938 L 76.378906 87.808594 C 74.136719 90.050781 70.777344 91.011719 66.769531 91.011719 L 61.644531 97.898438 L 60.84375 97.898438 C 52.199219 97.898438 47.550781 93.734375 47.550781 86.847656 M 54.761719 107.347656 L 59.886719 100.460938 C 66.929688 100.460938 71.894531 99.019531 76.378906 94.378906 L 76.378906 105.746094 L 93.835938 102.222656 L 93.835938 63.789062 C 93.835938 50.171875 86.308594 42.964844 71.414062 42.964844 L 72.375 34 C 49.472656 34.160156 36.503906 43.929688 33.9375 58.824219 L 51.238281 55.296875 C 53.796875 50.65625 59.242188 45.53125 71.253906 45.53125 L 70.292969 54.660156 C 73.816406 54.816406 76.378906 56.742188 76.378906 61.867188 L 76.378906 67.628906 L 66.453125 67.628906 C 41.144531 67.628906 31.058594 76.4375 31.058594 89.089844 C 31.058594 100.621094 38.90625 107.347656 52.996094 107.347656 Z M 28.492188 89.089844 C 28.492188 75.476562 38.101562 65.066406 66.453125 65.066406 L 73.816406 65.066406 L 73.816406 61.867188 C 73.816406 58.664062 72.375 57.21875 69.972656 57.21875 C 67.574219 57.21875 65.96875 58.980469 65.652344 61.382812 L 30.894531 61.382812 C 32.335938 43.765625 46.269531 31.433594 72.695312 31.433594 C 98.480469 31.433594 111.292969 43.128906 111.292969 65.867188 L 111.292969 108.308594 L 73.816406 108.308594 L 73.816406 101.421875 C 69.171875 107.347656 62.128906 109.910156 52.996094 109.910156 C 36.980469 109.910156 28.492188 101.90625 28.492188 89.089844 "/>
</svg>
