<?xml version="1.0" encoding="UTF-8"?>
<svg xmlns="http://www.w3.org/2000/svg" xmlns:xlink="http://www.w3.org/1999/xlink" width="141.7" height="141.7" viewBox="0 0 141.7 141.7">
<path fill-rule="nonzero" fill="rgb(0%, 0%, 0%)" fill-opacity="1" d="M 104.726562 87.648438 C 105.046875 87.648438 105.210938 87.808594 105.210938 88.128906 C 105.210938 88.453125 105.046875 88.609375 104.726562 88.609375 C 104.40625 88.609375 104.246094 88.453125 104.246094 88.128906 C 104.246094 87.808594 104.40625 87.648438 104.726562 87.648438 M 105.527344 56.742188 C 105.367188 56.578125 105.046875 56.417969 104.726562 56.417969 C 104.089844 56.417969 103.605469 56.898438 103.605469 57.542969 C 103.605469 58.179688 104.089844 58.664062 104.886719 58.664062 C 105.367188 58.664062 105.847656 58.339844 105.847656 58.019531 Z M 104.566406 77.71875 C 105.527344 77.71875 106.167969 78.359375 106.167969 79.324219 C 106.167969 80.28125 105.527344 80.921875 104.566406 80.921875 C 103.605469 80.921875 102.964844 80.28125 102.964844 79.324219 C 102.964844 78.359375 103.605469 77.71875 104.566406 77.71875 M 106.488281 65.066406 C 106.167969 64.425781 105.527344 64.105469 104.726562 64.105469 C 103.445312 64.105469 102.484375 65.066406 102.484375 66.347656 C 102.484375 67.628906 103.445312 68.589844 104.726562 68.589844 C 105.527344 68.589844 106.167969 68.269531 106.488281 67.628906 Z M 100.882812 53.214844 C 100.882812 52.894531 100.722656 52.734375 100.402344 52.734375 C 100.085938 52.734375 99.921875 52.894531 99.921875 53.214844 C 99.921875 53.539062 100.085938 53.699219 100.402344 53.699219 C 100.722656 53.699219 100.882812 53.539062 100.882812 53.214844 M 100.402344 82.683594 C 101.042969 82.683594 101.523438 83.164062 101.523438 83.804688 C 101.523438 84.449219 101.042969 84.925781 100.402344 84.925781 C 99.761719 84.925781 99.28125 84.449219 99.28125 83.804688 C 99.28125 83.164062 99.761719 82.683594 100.402344 82.683594 M 102.003906 62.023438 C 102.003906 61.0625 101.363281 60.421875 100.402344 60.421875 C 99.441406 60.421875 98.800781 61.0625 98.800781 62.023438 C 98.800781 62.984375 99.441406 63.628906 100.402344 63.628906 C 101.363281 63.628906 102.003906 62.984375 102.003906 62.023438 M 100.402344 72.753906 C 101.683594 72.753906 102.644531 73.714844 102.644531 75 C 102.644531 76.28125 101.683594 77.238281 100.402344 77.238281 C 99.121094 77.238281 98.160156 76.28125 98.160156 75 C 98.160156 73.714844 99.121094 72.753906 100.402344 72.753906 M 96.082031 87.648438 C 96.398438 87.648438 96.558594 87.808594 96.558594 88.128906 C 96.558594 88.453125 96.398438 88.609375 96.082031 88.609375 C 95.757812 88.609375 95.597656 88.453125 95.597656 88.128906 C 95.597656 87.808594 95.757812 87.648438 96.082031 87.648438 M 97.199219 57.542969 C 97.199219 56.898438 96.71875 56.417969 96.082031 56.417969 C 95.4375 56.417969 94.960938 56.898438 94.960938 57.542969 C 94.960938 58.179688 95.4375 58.664062 96.082031 58.664062 C 96.71875 58.664062 97.199219 58.179688 97.199219 57.542969 M 96.082031 77.71875 C 97.039062 77.71875 97.679688 78.359375 97.679688 79.324219 C 97.679688 80.28125 97.039062 80.921875 96.082031 80.921875 C 95.117188 80.921875 94.476562 80.28125 94.476562 79.324219 C 94.476562 78.359375 95.117188 77.71875 96.082031 77.71875 M 98.320312 66.347656 C 98.320312 65.066406 97.359375 64.105469 96.082031 64.105469 C 94.796875 64.105469 93.839844 65.066406 93.839844 66.347656 C 93.839844 67.628906 94.796875 68.589844 96.082031 68.589844 C 97.359375 68.589844 98.320312 67.628906 98.320312 66.347656 M 92.234375 53.214844 C 92.234375 52.894531 92.074219 52.734375 91.753906 52.734375 C 91.433594 52.734375 91.273438 52.894531 91.273438 53.214844 C 91.273438 53.539062 91.433594 53.699219 91.753906 53.699219 C 92.074219 53.699219 92.234375 53.539062 92.234375 53.214844 M 91.753906 82.683594 C 92.394531 82.683594 92.875 83.164062 92.875 83.804688 C 92.875 84.449219 92.394531 84.925781 91.753906 84.925781 C 91.113281 84.925781 90.632812 84.449219 90.632812 83.804688 C 90.632812 83.164062 91.113281 82.683594 91.753906 82.683594 M 93.355469 62.023438 C 93.355469 61.0625 92.714844 60.421875 91.753906 60.421875 C 90.792969 60.421875 90.152344 61.0625 90.152344 62.023438 C 90.152344 62.984375 90.792969 63.628906 91.753906 63.628906 C 92.714844 63.628906 93.355469 62.984375 93.355469 62.023438 M 91.753906 72.753906 C 93.035156 72.753906 93.996094 73.714844 93.996094 75 C 93.996094 76.28125 93.035156 77.238281 91.753906 77.238281 C 90.472656 77.238281 89.511719 76.28125 89.511719 75 C 89.511719 73.714844 90.472656 72.753906 91.753906 72.753906 M 87.269531 87.648438 C 87.589844 87.648438 87.75 87.808594 87.75 88.128906 C 87.75 88.453125 87.589844 88.609375 87.269531 88.609375 C 86.949219 88.609375 86.789062 88.453125 86.789062 88.128906 C 86.789062 87.808594 86.949219 87.648438 87.269531 87.648438 M 88.390625 57.542969 C 88.390625 56.898438 87.910156 56.417969 87.269531 56.417969 C 86.628906 56.417969 86.148438 56.898438 86.148438 57.542969 C 86.148438 58.179688 86.628906 58.664062 87.269531 58.664062 C 87.910156 58.664062 88.390625 58.179688 88.390625 57.542969 M 87.269531 77.71875 C 88.230469 77.71875 88.871094 78.359375 88.871094 79.324219 C 88.871094 80.28125 88.230469 80.921875 87.269531 80.921875 C 86.308594 80.921875 85.667969 80.28125 85.667969 79.324219 C 85.667969 78.359375 86.308594 77.71875 87.269531 77.71875 M 89.511719 66.347656 C 89.511719 65.066406 88.550781 64.105469 87.269531 64.105469 C 85.988281 64.105469 85.027344 65.066406 85.027344 66.347656 C 85.027344 67.628906 85.988281 68.589844 87.269531 68.589844 C 88.550781 68.589844 89.511719 67.628906 89.511719 66.347656 M 83.425781 53.214844 C 83.425781 52.894531 83.265625 52.734375 82.945312 52.734375 C 82.625 52.734375 82.464844 52.894531 82.464844 53.214844 C 82.464844 53.539062 82.625 53.699219 82.945312 53.699219 C 83.265625 53.699219 83.425781 53.539062 83.425781 53.214844 M 82.945312 82.683594 C 83.589844 82.683594 84.066406 83.164062 84.066406 83.804688 C 84.066406 84.449219 83.589844 84.925781 82.945312 84.925781 C 82.304688 84.925781 81.824219 84.449219 81.824219 83.804688 C 81.824219 83.164062 82.304688 82.683594 82.945312 82.683594 M 84.546875 62.023438 C 84.546875 61.0625 83.90625 60.421875 82.945312 60.421875 C 81.984375 60.421875 81.34375 61.0625 81.34375 62.023438 C 81.34375 62.984375 81.984375 63.628906 82.945312 63.628906 C 83.90625 63.628906 84.546875 62.984375 84.546875 62.023438 M 82.945312 72.753906 C 84.226562 72.753906 85.1875 73.714844 85.1875 75 C 85.1875 76.28125 84.226562 77.238281 82.945312 77.238281 C 81.664062 77.238281 80.707031 76.28125 80.707031 75 C 80.707031 73.714844 81.664062 72.753906 82.945312 72.753906 M 78.621094 68.589844 C 79.902344 68.589844 80.863281 67.628906 80.863281 66.347656 C 80.863281 65.066406 79.902344 64.105469 78.621094 64.105469 Z M 79.742188 57.542969 C 79.742188 56.898438 79.261719 56.417969 78.621094 56.417969 C 78.300781 56.417969 77.980469 56.578125 77.820312 56.898438 C 77.980469 57.378906 78.140625 58.019531 78.300781 58.664062 C 79.261719 58.664062 79.742188 58.179688 79.742188 57.542969 M 74.617188 53.375 C 74.617188 52.894531 74.460938 52.734375 74.136719 52.734375 C 73.816406 52.734375 73.65625 52.894531 73.65625 53.054688 Z M 65.488281 52.734375 C 64.847656 52.734375 64.847656 53.375 65.167969 53.699219 C 65.488281 53.539062 65.8125 53.375 65.96875 53.214844 C 65.96875 52.894531 65.648438 52.734375 65.488281 52.734375 M 73.816406 79.960938 L 70.773438 79.960938 C 65.8125 79.960938 64.046875 82.203125 64.046875 84.605469 C 64.046875 86.847656 65.488281 88.453125 68.53125 88.453125 C 70.613281 88.453125 72.695312 87.648438 73.816406 86.53125 Z M 78.300781 88.609375 C 74.777344 91.972656 71.253906 92.773438 68.375 92.773438 C 61.644531 92.773438 59.242188 88.929688 59.242188 84.605469 C 59.242188 80.761719 61.164062 78.203125 64.210938 76.917969 C 63.566406 76.4375 63.25 75.796875 63.25 75 C 63.25 73.714844 64.210938 72.753906 65.488281 72.753906 C 66.769531 72.753906 67.730469 73.714844 67.730469 75 C 67.730469 75.316406 67.730469 75.636719 67.570312 75.957031 C 68.53125 75.796875 69.652344 75.636719 72.054688 75.636719 L 72.054688 75 C 72.054688 73.714844 73.015625 72.753906 74.296875 72.753906 C 75.582031 72.753906 76.539062 73.714844 76.539062 75 L 76.539062 75.636719 L 78.621094 75.636719 L 78.621094 77.71875 C 79.585938 77.71875 80.222656 78.359375 80.222656 79.324219 C 80.222656 80.28125 79.585938 80.921875 78.621094 80.921875 L 78.621094 87.648438 C 78.941406 87.648438 79.101562 87.808594 79.101562 88.128906 C 79.101562 88.453125 78.941406 88.609375 78.621094 88.609375 Z M 57.320312 53.214844 C 57.320312 52.894531 57.160156 52.734375 56.839844 52.734375 C 56.519531 52.734375 56.359375 52.894531 56.359375 53.214844 C 56.359375 53.539062 56.519531 53.699219 56.839844 53.699219 C 57.160156 53.699219 57.320312 53.539062 57.320312 53.214844 M 56.839844 82.683594 C 57.480469 82.683594 57.960938 83.164062 57.960938 83.804688 C 57.960938 84.449219 57.480469 84.925781 56.839844 84.925781 C 56.199219 84.925781 55.71875 84.449219 55.71875 83.804688 C 55.71875 83.164062 56.199219 82.683594 56.839844 82.683594 M 56.839844 72.753906 C 58.125 72.753906 59.085938 73.714844 59.085938 75 C 59.085938 76.28125 58.125 77.238281 56.839844 77.238281 C 55.5625 77.238281 54.597656 76.28125 54.597656 75 C 54.597656 73.714844 55.5625 72.753906 56.839844 72.753906 M 52.515625 87.648438 C 52.839844 87.648438 53 87.808594 53 88.128906 C 53 88.453125 52.839844 88.609375 52.515625 88.609375 C 52.195312 88.609375 52.035156 88.453125 52.035156 88.128906 C 52.035156 87.808594 52.195312 87.648438 52.515625 87.648438 M 52.515625 77.71875 C 53.476562 77.71875 54.117188 78.359375 54.117188 79.324219 C 54.117188 80.28125 53.476562 80.921875 52.515625 80.921875 C 51.558594 80.921875 50.914062 80.28125 50.914062 79.324219 C 50.914062 78.359375 51.558594 77.71875 52.515625 77.71875 M 48.511719 53.214844 C 48.511719 52.894531 48.351562 52.734375 48.03125 52.734375 C 47.714844 52.734375 47.550781 52.894531 47.550781 53.214844 C 47.550781 53.539062 47.714844 53.699219 48.03125 53.699219 C 48.351562 53.699219 48.511719 53.539062 48.511719 53.214844 M 48.03125 82.683594 C 48.671875 82.683594 49.152344 83.164062 49.152344 83.804688 C 49.152344 84.449219 48.671875 84.925781 48.03125 84.925781 C 47.390625 84.925781 46.910156 84.449219 46.910156 83.804688 C 46.910156 83.164062 47.390625 82.683594 48.03125 82.683594 M 48.191406 72.914062 C 49.472656 72.914062 50.4375 73.878906 50.4375 75.15625 C 50.4375 76.4375 49.472656 77.398438 48.191406 77.398438 C 46.910156 77.398438 45.949219 76.4375 45.949219 75.15625 C 45.949219 73.878906 46.910156 72.914062 48.191406 72.914062 M 43.707031 87.648438 C 44.027344 87.648438 44.1875 87.808594 44.1875 88.128906 C 44.1875 88.453125 44.027344 88.609375 43.707031 88.609375 C 43.386719 88.609375 43.226562 88.453125 43.226562 88.128906 C 43.226562 87.808594 43.386719 87.648438 43.707031 87.648438 M 43.707031 77.71875 C 44.667969 77.71875 45.308594 78.359375 45.308594 79.324219 C 45.308594 80.28125 44.667969 80.921875 43.707031 80.921875 C 42.75 80.921875 42.105469 80.28125 42.105469 79.324219 C 42.105469 78.359375 42.75 77.71875 43.707031 77.71875 M 39.863281 53.214844 C 39.863281 52.894531 39.707031 52.734375 39.382812 52.734375 C 39.0625 52.734375 38.902344 52.894531 38.902344 53.214844 C 38.902344 53.539062 39.0625 53.699219 39.382812 53.699219 C 39.707031 53.699219 39.863281 53.539062 39.863281 53.214844 M 39.382812 82.683594 C 40.023438 82.683594 40.507812 83.164062 40.507812 83.804688 C 40.507812 84.449219 40.023438 84.925781 39.382812 84.925781 C 38.742188 84.925781 38.261719 84.449219 38.261719 83.804688 C 38.261719 83.164062 38.742188 82.683594 39.382812 82.683594 M 35.058594 87.648438 C 35.382812 87.648438 35.542969 87.808594 35.542969 88.128906 C 35.542969 88.453125 35.382812 88.609375 35.058594 88.609375 C 34.738281 88.609375 34.582031 88.453125 34.582031 88.128906 C 34.582031 87.808594 34.738281 87.648438 35.058594 87.648438 M 41.785156 75 C 41.785156 76.28125 40.824219 77.238281 39.542969 77.238281 C 39.0625 77.238281 38.742188 77.078125 38.582031 76.917969 C 37.78125 77.558594 37.140625 78.203125 36.660156 79.003906 C 36.660156 80.125 36.019531 80.761719 35.21875 80.921875 C 33.9375 83.328125 33.296875 86.046875 33.296875 89.089844 C 33.296875 99.339844 40.667969 105.105469 53 105.105469 C 62.285156 105.105469 67.253906 102.703125 72.214844 95.976562 L 78.621094 95.976562 L 78.621094 103.503906 L 106.488281 103.503906 L 106.488281 71.792969 C 106.167969 72.433594 105.527344 72.914062 104.726562 72.914062 C 103.445312 72.914062 102.964844 71.953125 102.644531 70.671875 C 102.324219 69.390625 101.683594 68.429688 100.402344 68.429688 C 99.121094 68.429688 98.480469 69.390625 98.160156 70.671875 C 97.839844 71.953125 97.359375 72.914062 96.082031 72.914062 C 94.796875 72.914062 94.15625 71.953125 93.839844 70.671875 C 93.515625 69.390625 93.035156 68.429688 91.753906 68.429688 C 90.472656 68.429688 89.835938 69.390625 89.511719 70.671875 C 89.191406 71.953125 88.550781 72.914062 87.269531 72.914062 C 85.988281 72.914062 85.507812 71.953125 85.1875 70.671875 C 84.867188 69.390625 84.226562 68.429688 82.945312 68.429688 C 81.824219 68.429688 81.183594 69.390625 80.863281 70.671875 C 80.542969 71.953125 79.902344 72.914062 78.621094 72.914062 C 76.699219 72.914062 76.378906 70.671875 76.058594 69.550781 L 72.535156 69.550781 C 72.214844 70.671875 71.894531 72.914062 69.972656 72.914062 C 68.054688 72.914062 67.730469 70.671875 67.410156 69.550781 L 63.726562 69.550781 C 63.40625 70.671875 63.089844 72.914062 61.164062 72.914062 C 59.5625 72.914062 59.242188 71.15625 58.761719 69.871094 L 54.917969 70.351562 C 54.597656 71.472656 53.960938 72.914062 52.515625 72.914062 C 51.394531 72.914062 50.914062 72.117188 50.59375 71.15625 C 47.070312 71.953125 44.1875 73.078125 41.785156 74.515625 Z M 73.816406 101.421875 C 69.171875 107.347656 62.128906 109.910156 53 109.910156 C 36.980469 109.910156 28.492188 101.90625 28.492188 89.089844 C 28.492188 75.476562 38.101562 65.066406 66.449219 65.066406 L 73.816406 65.066406 L 73.816406 61.867188 C 73.816406 58.664062 72.375 57.21875 69.972656 57.21875 C 67.570312 57.21875 65.96875 58.980469 65.648438 61.382812 L 30.894531 61.382812 C 32.335938 43.765625 46.269531 31.433594 72.695312 31.433594 C 98.480469 31.433594 111.292969 43.125 111.292969 65.867188 L 111.292969 108.308594 L 73.816406 108.308594 Z M 73.816406 101.421875 "/>
</svg>
