<?xml version="1.0" encoding="UTF-8"?>
<svg id="Layer_1" xmlns="http://www.w3.org/2000/svg" version="1.1" viewBox="0 0 141.7 141.7">
  <!-- Generator: Adobe Illustrator 29.2.1, SVG Export Plug-In . SVG Version: 2.1.0 Build 116)  -->
  <path d="M23.373,50.972h32.549c.3-2.25,1.8-3.9,4.05-3.9s3.6,1.35,3.6,4.35v3h-6.899c-11.55,0-20.399,2.1-25.049,4.8l-8.25-8.25ZM47.372,111.569l-20.549-20.549c3.899,3.449,9.6,5.399,17.249,5.399,8.55,0,15.149-2.399,19.499-7.949v6.449h35.098v-39.748c0-9.75-2.55-17.249-7.499-22.649l20.698,20.699c5.4,5.4,7.95,13.049,7.95,23.099v39.748h-35.099l-3.149-3.149c-4.2,3.149-9.75,4.649-16.349,4.649-7.95,0-13.949-2.1-17.85-6ZM54.421,72.721c0-2.25,1.65-4.349,6.3-4.349h2.85v6.15c-1.05,1.05-3,1.8-4.949,1.8-2.851,0-4.2-1.5-4.2-3.601Z"/>
</svg>