<?xml version="1.0" encoding="UTF-8"?>
<svg id="Layer_1" xmlns="http://www.w3.org/2000/svg" version="1.1" viewBox="0 0 141.7 141.7">
  <!-- Generator: Adobe Illustrator 29.2.1, SVG Export Plug-In . SVG Version: 2.1.0 Build 116)  -->
  <path d="M71.123,28.97c5.598,0,10.324.727,14.174,2.175,3.85,1.451,6.949,3.501,9.301,6.15,2.348,2.651,4.023,5.801,5.025,9.45.998,3.651,1.5,7.676,1.5,12.075v48.75c-1.201.201-2.877.476-5.025.825-2.152.352-4.576.675-7.275.975s-5.625.574-8.775.825c-3.15.248-6.275.375-9.375.375-4.4,0-8.451-.45-12.15-1.351-3.699-.899-6.899-2.324-9.599-4.274s-4.8-4.523-6.3-7.726c-1.5-3.199-2.25-7.05-2.25-11.55,0-4.298.874-7.999,2.625-11.1,1.748-3.098,4.125-5.599,7.125-7.5,3-1.898,6.499-3.3,10.5-4.2,3.998-.9,8.197-1.35,12.599-1.35,1.398,0,2.85.075,4.35.225,1.5.15,2.926.352,4.275.6,1.35.251,2.523.476,3.525.675.998.202,1.699.352,2.1.45v-3.9c0-2.299-.252-4.575-.75-6.825-.502-2.25-1.402-4.25-2.701-6-1.301-1.749-3.074-3.15-5.324-4.2s-5.176-1.575-8.775-1.575c-4.6,0-8.625.326-12.074.975-3.451.652-6.026,1.327-7.725,2.025l-1.65-11.55c1.8-.799,4.8-1.575,9-2.325,4.199-.75,8.748-1.125,13.65-1.125ZM72.322,98.87c3.301,0,6.225-.075,8.775-.225,2.549-.15,4.674-.425,6.375-.825v-23.25c-1.002-.499-2.625-.923-4.875-1.275-2.25-.349-4.977-.525-8.176-.525-2.1,0-4.326.15-6.673.45-2.352.3-4.5.926-6.451,1.875-1.949.952-3.576,2.25-4.875,3.9-1.301,1.65-1.949,3.825-1.949,6.525,0,5.001,1.598,8.475,4.799,10.425,3.199,1.95,7.551,2.925,13.05,2.925Z"/>
</svg>