<?xml version="1.0" encoding="UTF-8"?>
<svg xmlns="http://www.w3.org/2000/svg" xmlns:xlink="http://www.w3.org/1999/xlink" width="141.7" height="141.7" viewBox="0 0 141.7 141.7">
<path fill-rule="nonzero" fill="rgb(0%, 0%, 0%)" fill-opacity="1" d="M 70.382812 100.988281 C 73.808594 100.988281 76.84375 100.910156 79.496094 100.753906 C 82.140625 100.597656 84.347656 100.3125 86.113281 99.894531 L 86.113281 75.753906 C 85.074219 75.238281 83.390625 74.796875 81.050781 74.429688 C 78.714844 74.070312 75.882812 73.886719 72.5625 73.886719 C 70.382812 73.886719 68.070312 74.042969 65.632812 74.351562 C 63.191406 74.664062 60.960938 75.3125 58.933594 76.300781 C 56.910156 77.289062 55.222656 78.636719 53.871094 80.347656 C 52.523438 82.0625 51.847656 84.320312 51.847656 87.125 C 51.847656 92.316406 53.507812 95.925781 56.832031 97.949219 C 60.152344 99.972656 64.671875 100.988281 70.382812 100.988281 M 69.136719 28.40625 C 74.949219 28.40625 79.859375 29.160156 83.855469 30.664062 C 87.851562 32.167969 91.070312 34.300781 93.511719 37.050781 C 95.949219 39.800781 97.691406 43.074219 98.730469 46.863281 C 99.769531 50.652344 100.289062 54.832031 100.289062 59.402344 L 100.289062 110.019531 C 99.039062 110.230469 97.300781 110.515625 95.070312 110.878906 C 92.835938 111.242188 90.320312 111.578125 87.515625 111.890625 C 84.710938 112.199219 81.675781 112.484375 78.402344 112.746094 C 75.132812 113.003906 71.886719 113.136719 68.667969 113.136719 C 64.101562 113.136719 59.894531 112.667969 56.050781 111.734375 C 52.210938 110.800781 48.890625 109.320312 46.085938 107.292969 C 43.28125 105.269531 41.101562 102.597656 39.542969 99.273438 C 37.988281 95.949219 37.207031 91.953125 37.207031 87.28125 C 37.207031 82.816406 38.117188 78.972656 39.933594 75.753906 C 41.75 72.539062 44.214844 69.941406 47.332031 67.964844 C 50.445312 65.996094 54.078125 64.539062 58.234375 63.605469 C 62.386719 62.671875 66.746094 62.203125 71.316406 62.203125 C 72.769531 62.203125 74.277344 62.28125 75.832031 62.4375 C 77.390625 62.59375 78.871094 62.800781 80.273438 63.058594 C 81.675781 63.320312 82.894531 63.554688 83.933594 63.761719 C 84.96875 63.96875 85.699219 64.125 86.113281 64.226562 L 86.113281 60.179688 C 86.113281 57.792969 85.851562 55.429688 85.335938 53.09375 C 84.816406 50.757812 83.878906 48.679688 82.53125 46.863281 C 81.179688 45.046875 79.339844 43.589844 77.003906 42.5 C 74.664062 41.410156 71.628906 40.867188 67.890625 40.867188 C 63.113281 40.867188 58.933594 41.203125 55.355469 41.878906 C 51.769531 42.554688 49.097656 43.253906 47.332031 43.980469 L 45.617188 31.988281 C 47.488281 31.15625 50.601562 30.351562 54.964844 29.574219 C 59.324219 28.792969 64.046875 28.40625 69.136719 28.40625 "/>
</svg>
