<?xml version="1.0" encoding="UTF-8"?>
<svg xmlns="http://www.w3.org/2000/svg" xmlns:xlink="http://www.w3.org/1999/xlink" width="141.7" height="141.7" viewBox="0 0 141.7 141.7">
<path fill-rule="nonzero" fill="rgb(0%, 0%, 0%)" fill-opacity="1" d="M 55.25 111.882812 C 66.273438 111.882812 75.152344 107.113281 82.390625 98.398438 C 78.277344 82.113281 66.601562 73.726562 53.277344 73.726562 C 41.4375 73.726562 31.898438 79.480469 31.898438 91.488281 C 31.898438 103 40.777344 111.882812 55.25 111.882812 M 30.25 91.488281 C 30.25 75.863281 41.4375 63.855469 61.832031 63.855469 C 76.796875 63.855469 87.980469 67.3125 96.039062 73.398438 C 98.179688 67.640625 100.316406 61.226562 102.125 54.316406 L 31.898438 54.316406 L 31.898438 29.648438 L 110.351562 29.648438 L 103.769531 54.316406 C 101.796875 61.71875 99.660156 68.296875 97.355469 74.546875 C 107.554688 82.9375 111.996094 96.09375 111.996094 111.882812 L 84.035156 111.882812 C 84.035156 107.605469 83.703125 103.824219 82.882812 100.207031 C 75.316406 108.921875 66.273438 113.527344 55.25 113.527344 C 39.957031 113.527344 30.25 103.824219 30.25 91.488281 "/>
</svg>
