<?xml version="1.0" encoding="UTF-8"?>
<svg id="Layer_1" xmlns="http://www.w3.org/2000/svg" version="1.1" viewBox="0 0 141.7 141.7">
  <!-- Generator: Adobe Illustrator 29.2.1, SVG Export Plug-In . SVG Version: 2.1.0 Build 116)  -->
  <path d="M110.877,71.682c0,28.715-8.166,37.562-18.101,37.562-6.669,0-12.521-3.947-12.521-13.609v-26.675h-6.805c0,19.733-6.533,40.284-27.9,40.284-11.704,0-20.005-6.941-20.005-17.284,0-15.379,16.739-21.503,35.656-23.544-19.189-.953-29.94-5.036-29.94-16.195,0-12.657,11.568-20.55,30.077-20.55,19.87,0,32.527,9.663,32.527,31.301v28.58c0,4.491,1.905,6.124,4.491,6.124,3.811,0,11.159-3.402,11.159-27.491,0-12.929-2.178-24.633-5.035-37.153h1.36c2.723,12.521,5.036,23.68,5.036,38.65ZM80.256,64.333c0-10.207-4.083-21.094-23.409-21.094-11.432,0-19.461,3.946-19.461,11.568,0,9.39,10.207,12.792,34.704,12.792h8.166v-3.266ZM72.09,68.96c-23,0-33.615,6.805-33.615,17.828,0,7.35,4.763,10.888,11.84,10.888,14.698,0,21.775-11.432,21.775-28.716Z"/>
</svg>