<?xml version="1.0" encoding="UTF-8"?>
<svg xmlns="http://www.w3.org/2000/svg" xmlns:xlink="http://www.w3.org/1999/xlink" width="141.7" height="141.7" viewBox="0 0 141.7 141.7">
<path fill-rule="nonzero" fill="rgb(0%, 0%, 0%)" fill-opacity="1" d="M 74.195312 68.917969 C 50.570312 68.917969 39.667969 75.910156 39.667969 87.230469 C 39.667969 94.78125 44.558594 98.414062 51.828125 98.414062 C 66.925781 98.414062 74.195312 86.671875 74.195312 68.917969 M 82.582031 64.167969 C 82.582031 53.683594 78.390625 42.5 58.539062 42.5 C 46.796875 42.5 38.546875 46.554688 38.546875 54.382812 C 38.546875 64.027344 49.03125 67.519531 74.195312 67.519531 L 82.582031 67.519531 Z M 114.035156 71.714844 C 114.035156 101.210938 105.648438 110.296875 95.445312 110.296875 C 88.59375 110.296875 82.582031 106.242188 82.582031 96.320312 L 82.582031 68.917969 L 75.59375 68.917969 C 75.59375 89.1875 68.882812 110.296875 46.933594 110.296875 C 34.914062 110.296875 26.386719 103.167969 26.386719 92.542969 C 26.386719 76.746094 43.582031 70.457031 63.011719 68.359375 C 43.300781 67.382812 32.257812 63.1875 32.257812 51.726562 C 32.257812 38.722656 44.140625 30.617188 63.152344 30.617188 C 83.5625 30.617188 96.5625 40.542969 96.5625 62.769531 L 96.5625 92.125 C 96.5625 96.738281 98.519531 98.414062 101.175781 98.414062 C 105.089844 98.414062 112.636719 94.921875 112.636719 70.175781 C 112.636719 56.898438 110.402344 44.875 107.464844 32.015625 L 108.863281 32.015625 C 111.660156 44.875 114.035156 56.339844 114.035156 71.714844 "/>
</svg>
