<?xml version="1.0" encoding="UTF-8"?>
<svg xmlns="http://www.w3.org/2000/svg" xmlns:xlink="http://www.w3.org/1999/xlink" width="141.7" height="141.7" viewBox="0 0 141.7 141.7">
<path fill-rule="nonzero" fill="rgb(0%, 0%, 0%)" fill-opacity="1" d="M 82.132812 70.925781 C 82.132812 60.171875 78.660156 54.214844 68.234375 54.214844 C 57.8125 54.214844 54.335938 60.171875 54.335938 70.925781 C 54.335938 81.679688 57.8125 87.636719 68.234375 87.636719 C 78.660156 87.636719 82.132812 81.679688 82.132812 70.925781 M 39.445312 70.925781 C 39.445312 37.835938 46.394531 22.78125 61.285156 22.78125 C 76.011719 22.78125 82.132812 37.503906 82.296875 69.769531 L 89.082031 24.597656 L 97.023438 24.597656 L 97.023438 117.253906 L 89.082031 117.253906 L 82.296875 72.085938 C 82.132812 104.347656 76.011719 119.074219 61.285156 119.074219 C 46.394531 119.074219 39.445312 104.019531 39.445312 70.925781 "/>
</svg>
