<?xml version="1.0" encoding="UTF-8"?>
<svg id="Layer_1" xmlns="http://www.w3.org/2000/svg" version="1.1" viewBox="0 0 141.7 141.7">
  <!-- Generator: Adobe Illustrator 29.2.1, SVG Export Plug-In . SVG Version: 2.1.0 Build 116)  -->
  <path d="M31.93,91.158c0-15.365,10.999-27.172,31.055-27.172,14.718,0,25.717,3.397,33.642,9.381,2.103-5.661,4.205-11.969,5.984-18.763H33.548v-24.261h77.151l-6.47,24.261c-1.941,7.279-4.044,13.748-6.309,19.895,10.028,8.249,14.396,21.188,14.396,36.716h-27.496c0-4.205-.324-7.926-1.133-11.483-7.439,8.572-16.335,13.101-27.172,13.101-15.042,0-24.585-9.543-24.585-21.674ZM56.515,111.215c10.837,0,19.571-4.69,26.687-13.263-4.043-16.013-15.527-24.262-28.627-24.262-11.646,0-21.027,5.661-21.027,17.468,0,11.322,8.734,20.057,22.967,20.057Z"/>
</svg>