<?xml version="1.0" encoding="UTF-8"?>
<svg xmlns="http://www.w3.org/2000/svg" xmlns:xlink="http://www.w3.org/1999/xlink" width="141.7" height="141.7" viewBox="0 0 141.7 141.7">
<path fill-rule="evenodd" fill="rgb(0%, 0%, 0%)" fill-opacity="1" d="M 29.777344 70.738281 C 29.777344 79.480469 31.164062 86.941406 33.828125 93.015625 C 36.597656 99.089844 40.117188 103.566406 44.59375 106.65625 C 48.75 109.535156 53.761719 111.136719 58.875 111.242188 C 66.230469 111.242188 71.453125 107.828125 74.542969 101.007812 C 76.140625 104.632812 78.382812 107.191406 81.046875 108.789062 C 84.03125 110.496094 87.335938 111.347656 90.742188 111.242188 C 95.648438 111.242188 99.484375 109.960938 102.46875 107.511719 C 105.453125 105.058594 107.691406 100.796875 109.183594 94.933594 C 110.675781 89.070312 111.421875 81.078125 111.421875 70.847656 C 111.421875 60.71875 110.675781 52.726562 109.183594 46.757812 C 107.691406 40.894531 105.453125 36.738281 102.46875 34.179688 C 99.484375 31.621094 95.542969 30.449219 90.742188 30.449219 C 85.949219 30.449219 83.921875 31.195312 81.257812 32.796875 C 78.59375 34.394531 76.460938 36.84375 74.757812 40.257812 C 71.667969 33.648438 66.335938 30.449219 58.875 30.449219 C 51.414062 30.449219 48.964844 31.941406 44.59375 34.925781 C 40.117188 37.910156 36.597656 42.386719 33.828125 48.464844 C 31.058594 54.539062 29.777344 62 29.777344 70.847656 Z M 66.976562 49.636719 L 71.347656 49.636719 L 71.347656 91.84375 L 66.976562 91.84375 Z M 66.976562 49.636719 "/>
</svg>
