<?xml version="1.0" encoding="UTF-8"?>
<svg xmlns="http://www.w3.org/2000/svg" xmlns:xlink="http://www.w3.org/1999/xlink" width="141.7" height="141.7" viewBox="0 0 141.7 141.7">
<path fill-rule="evenodd" fill="rgb(0%, 0%, 0%)" fill-opacity="1" d="M 104.019531 55.542969 C 104.019531 37.171875 98.074219 29.5 73.113281 29.5 C 48.152344 29.5 49.339844 30.148438 38.859375 31.011719 C 38.320312 42.683594 38.859375 54.027344 40.265625 65.699219 L 71.816406 64.726562 L 71.816406 72.832031 L 40.265625 71.640625 C 37.996094 76.074219 36.484375 83.203125 36.484375 90.226562 C 36.484375 107.300781 44.585938 113.136719 53.230469 113.136719 C 61.875 113.136719 68.574219 104.816406 71.492188 91.417969 L 71.492188 111.515625 C 82.082031 112.8125 92.886719 112.8125 103.585938 111.515625 C 104.019531 88.605469 103.910156 92.929688 103.910156 55.542969 Z M 104.019531 55.542969 "/>
</svg>
