<?xml version="1.0" encoding="UTF-8"?>
<svg id="Layer_1" xmlns="http://www.w3.org/2000/svg" version="1.1" viewBox="0 0 141.7 141.7">
  <!-- Generator: Adobe Illustrator 29.0.1, SVG Export Plug-In . SVG Version: 2.1.0 Build 192)  -->
  <path d="M60.9,114.3c-11.7,0-17.1-7.2-15.9-18.6l1.3-13.9c1.3-11.9,8.7-15.9,19.4-20.2,9.4-3.8,15.9-6.2,16.7-13.4l1-10.5c1.3-12,.2-18.9-9.4-18.9s-11.7,5.2-13.1,17.1l-1.5,14.6h-6.5l1.7-15.6c1-10,7.7-16.7,19.4-16.7s17.9,6,16.6,18.6l-7.2,68.6c-.7,5.5-.2,7.5,2.5,7.5s3.8-2.2,4.4-7l3.3-31.8h.8l-3.3,31.8c-.5,5-.8,8.4-7.4,8.4s-7.7-3.5-7.4-7.9c-2.8,3.3-6.5,8-15.6,8ZM81.9,52.9c-3.2,4.2-6.9,5.7-15.4,9.2-8.7,3.7-11.9,7.4-13.2,19.9l-1.3,12.7c-1.2,11.7-.5,18.7,9.2,18.7s14.9-5,16.1-16.7l4.7-43.8Z"/>
</svg>