<?xml version="1.0" encoding="UTF-8"?>
<svg xmlns="http://www.w3.org/2000/svg" xmlns:xlink="http://www.w3.org/1999/xlink" width="141.7" height="141.7" viewBox="0 0 141.7 141.7">
<path fill-rule="evenodd" fill="rgb(0%, 0%, 0%)" fill-opacity="1" d="M 61.410156 116.042969 C 50.394531 116.042969 45.308594 109.265625 46.441406 98.53125 L 47.664062 85.445312 C 48.886719 74.238281 55.855469 70.472656 65.929688 66.425781 C 74.78125 62.847656 80.898438 60.585938 81.652344 53.808594 L 82.59375 43.921875 C 83.820312 32.625 82.78125 26.125 73.742188 26.125 C 64.703125 26.125 62.726562 31.023438 61.410156 42.226562 L 59.996094 55.972656 L 53.878906 55.972656 L 55.476562 41.285156 C 56.417969 31.871094 62.726562 25.5625 73.742188 25.5625 C 84.757812 25.5625 90.597656 31.210938 89.375 43.074219 L 82.59375 107.664062 C 81.933594 112.84375 82.40625 114.726562 84.949219 114.726562 C 87.492188 114.726562 88.527344 112.652344 89.089844 108.132812 L 92.199219 78.195312 L 92.949219 78.195312 L 89.84375 108.132812 C 89.375 112.84375 89.089844 116.042969 82.875 116.042969 C 76.664062 116.042969 75.625 112.75 75.910156 108.605469 C 73.273438 111.710938 69.789062 116.136719 61.222656 116.136719 Z M 81.183594 58.234375 C 78.167969 62.1875 74.6875 63.601562 66.683594 66.894531 C 58.492188 70.378906 55.476562 73.863281 54.253906 85.632812 L 53.03125 97.589844 C 51.898438 108.605469 52.558594 115.195312 61.691406 115.195312 C 70.824219 115.195312 75.71875 110.488281 76.851562 99.472656 L 81.277344 58.234375 Z M 81.183594 58.234375 "/>
</svg>
