<?xml version="1.0" encoding="UTF-8" standalone="no"?>
<svg
   width="141.7"
   height="141.7"
   viewBox="0 0 141.7 141.7"
   version="1.1"
   id="svg1"
   sodipodi:docname="CubicType_Andily.svg"
   inkscape:version="1.4.2 (ebf0e940, 2025-05-08)"
   xmlns:inkscape="http://www.inkscape.org/namespaces/inkscape"
   xmlns:sodipodi="http://sodipodi.sourceforge.net/DTD/sodipodi-0.dtd"
   xmlns="http://www.w3.org/2000/svg"
   xmlns:svg="http://www.w3.org/2000/svg">
  <defs
     id="defs1" />
  <sodipodi:namedview
     id="namedview1"
     pagecolor="#ffffff"
     bordercolor="#666666"
     borderopacity="1.0"
     inkscape:showpageshadow="2"
     inkscape:pageopacity="0.0"
     inkscape:pagecheckerboard="0"
     inkscape:deskcolor="#d1d1d1"
     inkscape:zoom="2.7385505"
     inkscape:cx="43.818801"
     inkscape:cy="74.309383"
     inkscape:window-width="1472"
     inkscape:window-height="824"
     inkscape:window-x="0"
     inkscape:window-y="38"
     inkscape:window-maximized="0"
     inkscape:current-layer="svg1" />
  <path
     d="m 63.40084,112.60022 q -12.12659,0 -17.843411,-5.89006 -5.716821,-6.06329 -5.716821,-14.725142 0,-4.850636 1.73237,-9.528035 1.905607,-4.850636 4.850636,-7.795665 5.890058,-5.716821 12.992775,-8.66185 7.275954,-2.945029 15.244856,-2.945029 h 9.874509 v -0.692948 q 0,-10.39422 -4.677399,-14.725145 -4.504162,-4.330925 -16.457515,-4.330925 -10.220983,0 -20.78844,5.890058 l -1.73237,-1.73237 15.071619,-15.764567 q 8.315376,-2.598555 15.244856,-2.598555 14.551908,0 22.174336,6.409769 7.795669,6.409769 7.795669,18.363122 0,34.300926 0.69294,56.302022 l -18.016644,1.3859 0.346474,-10.56746 z M 55.778412,83.149931 q 0,6.236532 5.890058,10.913931 5.890058,4.504162 14.205434,4.504162 3.984451,0 8.315376,-0.519711 l 0.346474,-23.733469 q -9.528035,-1.905607 -15.937804,-1.905607 -5.890058,0 -10.567457,1.385896 -2.252081,3.637977 -2.252081,9.354798 z"
     id="text1"
     style="font-size:173.237px;line-height:1.25;font-family:'Andily Lab 20260204';-inkscape-font-specification:'Andily Lab 20260204, Normal';text-align:center;text-anchor:middle;stroke-width:0.999999"
     aria-label="a" />
</svg>
