<?xml version="1.0" encoding="UTF-8"?>
<svg xmlns="http://www.w3.org/2000/svg" xmlns:xlink="http://www.w3.org/1999/xlink" width="141.7" height="141.7" viewBox="0 0 141.7 141.7">
<path fill-rule="nonzero" fill="rgb(0%, 0%, 0%)" fill-opacity="1" d="M 73.496094 59.390625 C 73.496094 57.53125 72.671875 52.371094 66.890625 52.371094 C 61.730469 52.371094 58.628906 57.53125 58.628906 62.28125 C 58.628906 66 60.488281 69.300781 65.03125 69.300781 C 70.609375 69.300781 73.496094 64.550781 73.496094 59.390625 M 98.691406 60.628906 C 103.4375 60.628906 107.363281 56.5 111.078125 51.542969 C 112.9375 49.066406 115.003906 47 118.097656 47 C 121.195312 47 122.640625 49.066406 122.640625 51.957031 C 122.640625 58.148438 114.382812 105.4375 87.125 105.4375 C 79.488281 105.4375 74.117188 102.546875 70.8125 96.558594 C 65.859375 103.371094 58.628906 106.054688 50.578125 106.054688 C 34.058594 106.054688 24.765625 91.808594 24.765625 77.355469 C 24.765625 52.164062 43.96875 35.644531 62.761719 35.644531 C 68.953125 35.644531 74.738281 37.503906 78.867188 40.394531 C 81.34375 38.742188 84.648438 37.707031 87.332031 37.707031 C 91.667969 37.707031 94.765625 40.1875 94.765625 43.902344 C 94.765625 46.585938 93.527344 50.097656 93.527344 53.816406 C 93.527344 58.148438 95.179688 60.628906 98.691406 60.628906 "/>
</svg>
