<?xml version="1.0" encoding="UTF-8"?>
<svg id="Layer_1" xmlns="http://www.w3.org/2000/svg" version="1.1" viewBox="0 0 141.7 141.7">
  <!-- Generator: Adobe Illustrator 29.2.1, SVG Export Plug-In . SVG Version: 2.1.0 Build 116)  -->
  <path d="M100.42,58.921c5.077,0,9.273-4.416,13.246-9.714,1.988-2.65,4.196-4.857,7.506-4.857s4.857,2.207,4.857,5.298c0,6.623-8.83,57.182-37.974,57.182-8.169,0-13.909-3.091-17.442-9.493-5.299,7.285-13.026,10.156-21.637,10.156-17.662,0-27.597-15.234-27.597-30.689,0-26.935,20.532-44.597,40.624-44.597,6.623,0,12.805,1.987,17.221,5.078,2.649-1.767,6.182-2.871,9.052-2.871,4.636,0,7.948,2.649,7.948,6.624,0,2.87-1.324,6.623-1.324,10.598,0,4.636,1.765,7.285,5.52,7.285ZM73.484,57.597c0-1.988-.883-7.506-7.065-7.506-5.519,0-8.831,5.518-8.831,10.597,0,3.975,1.987,7.506,6.844,7.506,5.961,0,9.052-5.077,9.052-10.597Z"/>
</svg>