<?xml version="1.0" encoding="UTF-8"?>
<svg id="Layer_1" xmlns="http://www.w3.org/2000/svg" version="1.1" viewBox="0 0 141.7 141.7">
  <!-- Generator: Adobe Illustrator 29.2.1, SVG Export Plug-In . SVG Version: 2.1.0 Build 116)  -->
  <path d="M98.408,60.744c4.695,0,8.575-4.083,12.249-8.982,1.838-2.45,3.88-4.491,6.941-4.491s4.491,2.041,4.491,4.899c0,6.124-8.165,52.877-35.115,52.877-7.554,0-12.862-2.858-16.129-8.778-4.9,6.736-12.045,9.391-20.008,9.391-16.332,0-25.52-14.087-25.52-28.379,0-24.907,18.987-41.24,37.566-41.24,6.124,0,11.841,1.838,15.924,4.696,2.45-1.634,5.716-2.654,8.371-2.654,4.287,0,7.349,2.45,7.349,6.125,0,2.654-1.224,6.124-1.224,9.8,0,4.287,1.632,6.736,5.104,6.736ZM73.5,59.519c0-1.838-.816-6.941-6.533-6.941-5.104,0-8.166,5.103-8.166,9.799,0,3.675,1.838,6.941,6.329,6.941,5.512,0,8.37-4.695,8.37-9.799Z"/>
</svg>