<?xml version="1.0" encoding="UTF-8"?>
<svg id="Layer_1" xmlns="http://www.w3.org/2000/svg" version="1.1" viewBox="0 0 141.7 141.7">
  <!-- Generator: Adobe Illustrator 29.1.0, SVG Export Plug-In . SVG Version: 2.1.0 Build 142)  -->
  <path d="M39.792,87.663c0-8.641,4.849-14.284,11.55-19.045h-.353c-5.731,0-8.817-5.202-8.817-9.963s3.086-7.142,6.172-7.142,5.026,2.469,5.026,5.026-2.116,5.378-5.996,5.731c-.529,2.469.617,4.761,4.056,4.761s6.789-3.086,6.789-8.112l-14.019-30.419v-.794h25.834c18.34,0,27.862,9.258,27.862,22.572v59.515h-.794l-6.965-14.019c-4.849,8.464-11.903,14.019-23.63,14.019s-26.804-8.641-26.804-22.131h.088ZM68.712,108.118c8.641,0,14.019-6.525,14.019-18.34v-48.141c0-7.847-4.761-12.344-12.52-12.344h-10.228v29.625c0,1.94-.529,3.615-1.323,5.026,1.587-.794,3.086-1.587,4.585-2.469,5.731-3.086,14.636-7.142,14.636-15.43s-1.499-4.761-2.733-4.761c-.176,3.439-2.645,5.378-5.026,5.378s-4.585-1.94-4.585-4.761,2.292-5.378,5.819-5.378,8.112,3.086,8.112,9.434-3.703,10.228-14.284,18.075c-6.701,4.849-9.258,9.963-9.258,19.486v9.611c0,10.581,5.731,14.989,12.873,14.989h-.088Z"/>
</svg>