<?xml version="1.0" encoding="UTF-8"?>
<svg xmlns="http://www.w3.org/2000/svg" xmlns:xlink="http://www.w3.org/1999/xlink" width="141.7" height="141.7" viewBox="0 0 141.7 141.7">
<path fill-rule="evenodd" fill="rgb(0%, 0%, 0%)" fill-opacity="1" d="M 38.957031 90.207031 C 38.957031 81.320312 43.945312 75.511719 50.839844 70.613281 L 50.476562 70.613281 C 44.578125 70.613281 41.40625 65.261719 41.40625 60.363281 C 41.40625 55.464844 44.578125 53.015625 47.753906 53.015625 C 50.929688 53.015625 52.925781 55.554688 52.925781 58.1875 C 52.925781 60.816406 50.75 63.71875 46.757812 64.082031 C 46.210938 66.625 47.390625 68.980469 50.929688 68.980469 C 54.46875 68.980469 57.914062 65.804688 57.914062 60.636719 L 43.492188 29.339844 L 43.492188 28.523438 L 70.070312 28.523438 C 88.9375 28.523438 98.734375 38.046875 98.734375 51.746094 L 98.734375 112.976562 L 97.917969 112.976562 L 90.753906 98.554688 C 85.761719 107.261719 78.507812 112.976562 66.441406 112.976562 C 54.375 112.976562 38.863281 104.085938 38.863281 90.207031 Z M 68.710938 111.253906 C 77.597656 111.253906 83.132812 104.539062 83.132812 92.382812 L 83.132812 42.855469 C 83.132812 34.78125 78.234375 30.15625 70.25 30.15625 L 59.726562 30.15625 L 59.726562 60.632812 C 59.726562 62.628906 59.183594 64.355469 58.367188 65.804688 C 60 64.988281 61.542969 64.171875 63.085938 63.265625 C 68.980469 60.089844 78.144531 55.917969 78.144531 47.390625 C 78.144531 38.863281 76.601562 42.492188 75.332031 42.492188 C 75.148438 46.03125 72.609375 48.023438 70.160156 48.023438 C 67.710938 48.023438 65.441406 46.027344 65.441406 43.125 C 65.441406 40.222656 67.800781 37.59375 71.429688 37.59375 C 75.058594 37.59375 79.773438 40.769531 79.773438 47.300781 C 79.773438 53.832031 75.964844 57.824219 65.078125 65.894531 C 58.183594 70.882812 55.554688 76.148438 55.554688 85.945312 L 55.554688 95.832031 C 55.554688 106.71875 61.453125 111.253906 68.800781 111.253906 L 68.707031 111.253906 Z M 68.710938 111.253906 "/>
</svg>
