<?xml version="1.0" encoding="UTF-8"?>
<svg id="Layer_1" xmlns="http://www.w3.org/2000/svg" version="1.1" viewBox="0 0 141.7 141.7">
  <!-- Generator: Adobe Illustrator 29.0.1, SVG Export Plug-In . SVG Version: 2.1.0 Build 192)  -->
  <path d="M71.2,119.9c-4.8,0-8.6-1.3-11.3-3.9-2.7-2.6-4.1-6.3-4.1-11v-34.7c0-3.1.9-5.6,2.6-7.3,1.7-1.7,4.2-2.6,7.3-2.6h16.5v-7.1c0-1.2-.4-2.2-1.1-2.9s-1.8-1.1-3.1-1.1h-20.8v-28.2h14.2c4.7,0,8.5,1.3,11.2,3.9,2.7,2.6,4.1,6.2,4.1,10.9v69.2c0,4.7-1.4,8.4-4.1,11-2.7,2.6-6.5,3.9-11.4,3.9ZM71.2,115.5c3.7,0,6.4-.9,8.3-2.7,1.9-1.8,2.8-4.4,2.8-7.9v-9.6c-.9.4-1.9.5-2.8.5h-16.4c-1,0-1.9-.2-2.8-.5v9.6c0,3.5.9,6.1,2.8,7.9s4.6,2.7,8.2,2.7ZM79.4,91.5c1.9,0,2.8-.9,2.8-2.8v-9.1h-19.3c-1.9,0-2.8,1-2.8,3v6.1c0,1.9.9,2.8,2.8,2.8h16.4ZM60.1,75.9c1-.4,1.9-.6,2.8-.6h19.3v-10.6h-16.5c-1.9,0-3.3.4-4.2,1.4-.9.9-1.4,2.3-1.4,4.2v5.6h0ZM82.3,35.8c0-3.4-.9-5.9-2.8-7.7-1.9-1.8-4.6-2.7-8.1-2.7h-9.8v19.5h16.4c1.6,0,3.1.4,4.3,1.1v-10.3Z"/>
</svg>