<?xml version="1.0" encoding="UTF-8"?>
<svg id="Layer_1" xmlns="http://www.w3.org/2000/svg" version="1.1" viewBox="0 0 141.7 141.7">
  <!-- Generator: Adobe Illustrator 29.0.1, SVG Export Plug-In . SVG Version: 2.1.0 Build 192)  -->
  <path d="M35.9,90.2c0-9.8,5.5-16.2,13.1-21.6h-.4c-6.5,0-10-5.9-10-11.3s3.5-8.1,7-8.1,5.7,2.8,5.7,5.7-2.4,6.1-6.8,6.5c-.6,2.8.7,5.4,4.6,5.4s7.7-3.5,7.7-9.2l-15.9-34.5v-.9h29.3c20.8,0,31.6,10.5,31.6,25.6v67.5h-.9l-7.9-15.9c-5.5,9.6-13.5,15.9-26.8,15.9s-30.4-9.8-30.4-25.1ZM68.7,113.4c9.8,0,15.9-7.4,15.9-20.8v-54.6c0-8.9-5.4-14-14.2-14h-11.6v33.6c0,2.2-.6,4.1-1.5,5.7,1.8-.9,3.5-1.8,5.2-2.8,6.5-3.5,16.6-8.1,16.6-17.5s-1.7-5.4-3.1-5.4c-.2,3.9-3,6.1-5.7,6.1s-5.2-2.2-5.2-5.4,2.6-6.1,6.6-6.1,9.2,3.5,9.2,10.7-4.2,11.6-16.2,20.5c-7.6,5.5-10.5,11.3-10.5,22.1v10.9c0,12,6.5,17,14.6,17Z"/>
</svg>