<?xml version="1.0" encoding="UTF-8"?>
<svg xmlns="http://www.w3.org/2000/svg" xmlns:xlink="http://www.w3.org/1999/xlink" width="141.7" height="141.7" viewBox="0 0 141.7 141.7">
<path fill-rule="evenodd" fill="rgb(0%, 0%, 0%)" fill-opacity="1" d="M 70.300781 114.101562 C 86.800781 114.101562 100.601562 100.398438 100.601562 83.898438 C 100.601562 75.296875 98.199219 67.800781 94.898438 60.398438 L 79.300781 24.800781 L 60.101562 24.800781 L 73.300781 55 C 72.199219 54.800781 71.398438 54.800781 70.5 54.800781 C 54 54.800781 40.300781 68.601562 40.300781 84.300781 C 40.300781 100 53.800781 114 70.300781 114 Z M 70.398438 97.300781 C 63.199219 97.300781 57.601562 91.699219 57.601562 84.398438 C 57.601562 77.101562 63.199219 71.5 70.398438 71.5 C 77.601562 71.5 83.199219 77 83.199219 84.398438 C 83.199219 91.800781 77.601562 97.300781 70.398438 97.300781 "/>
</svg>
