<?xml version="1.0" encoding="UTF-8"?>
<svg xmlns="http://www.w3.org/2000/svg" xmlns:xlink="http://www.w3.org/1999/xlink" width="141.7" height="141.7" viewBox="0 0 141.7 141.7">
<path fill-rule="evenodd" fill="rgb(0%, 0%, 0%)" fill-opacity="1" d="M 71.199219 119.175781 C 66.46875 119.175781 62.726562 117.894531 60.066406 115.332031 C 57.40625 112.769531 56.027344 109.125 56.027344 104.496094 L 56.027344 70.304688 C 56.027344 67.25 56.914062 64.785156 58.589844 63.109375 C 60.265625 61.433594 62.726562 60.546875 65.78125 60.546875 L 82.039062 60.546875 L 82.039062 53.550781 C 82.039062 52.371094 81.644531 51.386719 80.957031 50.695312 C 80.265625 50.003906 79.183594 49.613281 77.902344 49.613281 L 57.40625 49.613281 L 57.40625 21.824219 L 71.398438 21.824219 C 76.027344 21.824219 79.773438 23.105469 82.433594 25.667969 C 85.09375 28.230469 86.472656 31.777344 86.472656 36.410156 L 86.472656 104.59375 C 86.472656 109.222656 85.09375 112.871094 82.433594 115.433594 C 79.773438 117.996094 76.027344 119.277344 71.199219 119.277344 Z M 71.199219 114.839844 C 74.847656 114.839844 77.507812 113.953125 79.378906 112.179688 C 81.25 110.40625 82.136719 107.84375 82.136719 104.394531 L 82.136719 94.9375 C 81.25 95.332031 80.265625 95.429688 79.378906 95.429688 L 63.21875 95.429688 C 62.234375 95.429688 61.347656 95.230469 60.460938 94.9375 L 60.460938 104.394531 C 60.460938 107.84375 61.347656 110.40625 63.21875 112.179688 C 65.089844 113.953125 67.75 114.839844 71.300781 114.839844 Z M 79.28125 91.191406 C 81.152344 91.191406 82.039062 90.304688 82.039062 88.433594 L 82.039062 79.46875 L 63.023438 79.46875 C 61.152344 79.46875 60.265625 80.453125 60.265625 82.421875 L 60.265625 88.433594 C 60.265625 90.304688 61.152344 91.191406 63.023438 91.191406 Z M 60.265625 75.820312 C 61.25 75.425781 62.136719 75.230469 63.023438 75.230469 L 82.039062 75.230469 L 82.039062 64.785156 L 65.78125 64.785156 C 63.910156 64.785156 62.53125 65.179688 61.644531 66.164062 C 60.753906 67.050781 60.265625 68.429688 60.265625 70.304688 Z M 82.136719 36.308594 C 82.136719 32.960938 81.25 30.496094 79.378906 28.722656 C 77.507812 26.949219 74.847656 26.0625 71.398438 26.0625 L 61.742188 26.0625 L 61.742188 45.277344 L 77.902344 45.277344 C 79.476562 45.277344 80.957031 45.671875 82.136719 46.359375 L 82.136719 36.210938 Z M 82.136719 36.308594 "/>
</svg>
