<?xml version="1.0" encoding="UTF-8"?>
<svg xmlns="http://www.w3.org/2000/svg" xmlns:xlink="http://www.w3.org/1999/xlink" width="141.7" height="141.7" viewBox="0 0 141.7 141.7">
<path fill-rule="evenodd" fill="rgb(0%, 0%, 0%)" fill-opacity="1" d="M 97.144531 97.214844 C 95.601562 97.214844 94.675781 96.90625 94.160156 96.1875 C 93.648438 95.363281 93.441406 94.335938 93.441406 93.410156 L 93.441406 51.761719 C 93.441406 44.355469 91.078125 38.496094 86.449219 34.175781 C 81.820312 29.855469 75.652344 27.800781 67.9375 27.800781 C 60.222656 27.800781 58.683594 28.726562 54.980469 30.679688 C 51.378906 32.429688 48.296875 35.101562 46.03125 38.394531 C 43.875 41.476562 42.742188 45.179688 42.84375 48.984375 C 42.84375 51.761719 43.359375 54.125 44.285156 56.183594 C 45.109375 58.136719 46.546875 59.78125 48.296875 60.914062 C 50.042969 62.042969 52.101562 62.660156 54.257812 62.558594 C 56.113281 62.558594 57.757812 62.148438 59.300781 61.429688 C 60.738281 60.707031 61.972656 59.578125 62.898438 58.136719 C 63.722656 56.699219 64.234375 54.949219 64.234375 53.304688 C 64.234375 51.660156 64.03125 50.21875 63.515625 48.777344 C 63.105469 47.542969 62.488281 46.414062 61.5625 45.386719 C 61.972656 44.460938 62.488281 43.738281 63.308594 43.226562 C 64.132812 42.710938 65.058594 42.503906 66.085938 42.503906 C 67.628906 42.503906 68.964844 43.121094 70.199219 44.355469 C 71.433594 45.589844 72.050781 47.855469 72.050781 51.042969 C 72.050781 54.230469 71.332031 57.003906 69.890625 58.960938 C 68.347656 60.914062 66.496094 62.558594 64.234375 63.792969 C 61.871094 65.128906 59.402344 66.363281 56.832031 67.597656 C 54.15625 68.832031 51.691406 70.375 49.425781 72.226562 C 46.957031 74.179688 45.109375 76.75 43.769531 79.628906 C 42.332031 82.714844 41.507812 86.726562 41.507812 91.765625 C 41.507812 96.804688 43.152344 103.898438 46.339844 107.808594 C 49.632812 111.613281 53.847656 113.566406 59.300781 113.566406 C 64.75 113.566406 66.394531 112.640625 69.378906 110.6875 C 72.050781 108.941406 74.3125 106.574219 75.855469 103.488281 C 76.472656 105.648438 77.296875 107.398438 78.632812 108.734375 C 80.175781 110.378906 82.128906 111.511719 84.1875 112.128906 C 86.449219 112.847656 88.8125 113.15625 91.488281 113.15625 C 94.160156 113.15625 93.851562 113.15625 95.085938 112.949219 L 98.890625 112.539062 L 98.890625 97.214844 L 97.039062 97.214844 Z M 72.152344 93.617188 C 72.152344 95.054688 71.742188 96.1875 71.023438 97.113281 C 70.300781 98.039062 69.171875 98.449219 67.9375 98.449219 C 66.703125 98.449219 65.367188 97.730469 64.648438 96.1875 C 63.925781 94.644531 63.617188 92.382812 63.617188 89.296875 C 63.617188 86.210938 63.824219 84.875 64.441406 83.125 C 64.957031 81.480469 65.675781 79.835938 66.496094 78.398438 C 67.320312 77.058594 68.246094 75.824219 69.273438 74.695312 C 70.199219 73.664062 71.230469 72.636719 72.152344 71.710938 Z M 72.152344 93.617188 "/>
</svg>
