<?xml version="1.0" encoding="UTF-8"?>
<svg xmlns="http://www.w3.org/2000/svg" xmlns:xlink="http://www.w3.org/1999/xlink" width="141.7" height="141.7" viewBox="0 0 141.7 141.7">
<path fill-rule="nonzero" fill="rgb(0%, 0%, 0%)" fill-opacity="1" d="M 75.984375 58.207031 C 75.984375 53.785156 71.246094 52.679688 64.925781 52.679688 C 56.398438 52.679688 52.292969 56.941406 52.292969 65.3125 C 52.292969 70.683594 55.449219 73.054688 61.769531 73.054688 C 71.558594 73.054688 75.984375 68.472656 75.984375 58.207031 M 45.972656 58.207031 C 45.972656 46.835938 51.027344 41.625 61.769531 41.625 C 72.667969 41.625 77.5625 46.675781 77.5625 58.207031 C 77.5625 69.261719 72.507812 74.632812 61.769531 74.632812 C 50.554688 74.632812 45.972656 69.734375 45.972656 58.207031 M 72.351562 99.269531 C 75.351562 98.167969 78.035156 97.058594 80.089844 97.058594 C 82.300781 97.058594 84.351562 98.480469 86.089844 99.585938 C 88.300781 101.167969 90.511719 102.746094 93.988281 102.746094 C 100.148438 102.746094 104.097656 89.164062 104.097656 64.839844 C 104.097656 39.570312 93.039062 28.515625 68.402344 28.515625 C 45.027344 28.515625 32.863281 40.675781 32.863281 63.890625 C 32.863281 89.636719 41.550781 102.746094 58.609375 102.746094 C 63.191406 102.746094 68.085938 100.851562 72.351562 99.269531 M 31.285156 63.890625 C 31.285156 39.726562 44.238281 26.933594 68.402344 26.933594 C 100.9375 26.933594 110.414062 46.835938 110.414062 74.316406 C 110.414062 99.269531 106.304688 113.800781 98.726562 113.800781 C 94.777344 113.800781 92.09375 111.90625 89.882812 110.328125 C 88.144531 109.222656 86.566406 108.117188 84.828125 108.117188 C 83.089844 108.117188 80.71875 109.0625 77.5625 110.167969 C 73.457031 111.75 68.242188 113.800781 63.347656 113.800781 C 42.5 113.800781 31.285156 91.53125 31.285156 63.890625 "/>
</svg>
