<?xml version="1.0" encoding="UTF-8"?>
<svg xmlns="http://www.w3.org/2000/svg" xmlns:xlink="http://www.w3.org/1999/xlink" width="141.7" height="141.7" viewBox="0 0 141.7 141.7">
<path fill-rule="nonzero" fill="rgb(0%, 0%, 0%)" fill-opacity="1" d="M 70.238281 65.140625 C 56.585938 65.140625 46.3125 71.78125 44.683594 76.289062 C 44.058594 77.917969 44.558594 78.292969 50.195312 76.914062 C 73.871094 70.902344 82.640625 67.769531 82.640625 67.769531 C 81.011719 66.644531 78.632812 65.140625 70.238281 65.140625 M 130.617188 74.910156 L 87.273438 87.4375 C 83.390625 88.566406 81.636719 87.4375 83.765625 84.808594 L 95.917969 70.023438 L 34.539062 86.9375 C 28.902344 88.441406 26.769531 87.5625 26.769531 84.933594 C 26.769531 81.800781 29.277344 75.035156 39.421875 69.023438 C 39.421875 69.023438 33.035156 71.527344 19.753906 75.035156 L 5.476562 78.792969 C 5.476562 78.792969 5.476562 73.78125 11.613281 72.03125 L 19.253906 69.773438 C 50.445312 61.007812 58.085938 59.878906 70.238281 59.878906 C 83.015625 59.878906 87.652344 63.886719 89.40625 66.140625 L 111.074219 60.128906 C 114.582031 59.128906 116.335938 60.753906 114.582031 62.886719 L 102.179688 77.792969 L 136.753906 68.273438 C 136.753906 68.273438 136.753906 73.15625 130.617188 74.910156 "/>
</svg>
