<?xml version="1.0" encoding="UTF-8"?>
<svg id="Layer_1" xmlns="http://www.w3.org/2000/svg" version="1.1" viewBox="0 0 141.7 141.7">
  <!-- Generator: Adobe Illustrator 30.2.1, SVG Export Plug-In . SVG Version: 2.1.1 Build 1)  -->
  <path d="M134.563,74.982l-46.218,13.357c-4.14,1.202-6.01,0-3.74-2.806l12.956-15.762-65.452,18.033c-6.011,1.603-8.282.668-8.282-2.138,0-3.34,2.672-10.553,13.491-16.964,0,0-6.812,2.672-20.971,6.411l-15.227,4.007s0-5.343,6.545-7.213l8.148-2.405c33.26-9.35,41.408-10.553,54.365-10.553,13.624,0,18.567,4.274,20.437,6.679l23.108-6.411c3.74-1.069,5.61.667,3.74,2.939l-13.224,15.895,36.867-10.152s0,5.209-6.545,7.08ZM70.18,64.562c-14.56,0-25.513,7.08-27.25,11.888-.668,1.737-.133,2.138,5.877.668,25.246-6.411,34.596-9.751,34.596-9.751-1.736-1.203-4.274-2.806-13.223-2.806Z"/>
</svg>