<?xml version="1.0" encoding="UTF-8"?>
<svg id="Layer_1" xmlns="http://www.w3.org/2000/svg" version="1.1" viewBox="0 0 141.7 141.7">
  <!-- Generator: Adobe Illustrator 29.2.1, SVG Export Plug-In . SVG Version: 2.1.0 Build 116)  -->
  <path d="M133.035,74.955l-45.104,13.035c-4.041,1.173-5.865,0-3.649-2.738l12.644-15.382-63.875,17.599c-5.866,1.564-8.082.652-8.082-2.086,0-3.259,2.607-10.298,13.166-16.555,0,0-6.648,2.607-20.466,6.257l-14.861,3.911s0-5.215,6.387-7.039l7.952-2.347c32.459-9.125,40.411-10.298,53.056-10.298,13.296,0,18.119,4.171,19.945,6.518l22.551-6.257c3.65-1.043,5.475.651,3.65,2.868l-12.906,15.512,35.979-9.907s0,5.084-6.387,6.909ZM70.203,64.786c-14.209,0-24.898,6.909-26.593,11.602-.652,1.695-.13,2.086,5.736.652,24.638-6.257,33.762-9.516,33.762-9.516-1.694-1.174-4.171-2.738-12.905-2.738Z"/>
</svg>