<?xml version="1.0" encoding="UTF-8"?>
<svg id="Layer_1" xmlns="http://www.w3.org/2000/svg" version="1.1" viewBox="0 0 141.7 141.7">
  <!-- Generator: Adobe Illustrator 29.2.1, SVG Export Plug-In . SVG Version: 2.1.0 Build 116)  -->
  <path d="M29.286,63.893c0-24.164,12.951-36.958,37.116-36.958,32.535,0,42.012,19.9,42.012,47.381,0,24.955-4.107,39.486-11.688,39.486-3.949,0-6.634-1.895-8.844-3.475-1.738-1.106-3.317-2.212-5.054-2.212s-4.107.948-7.266,2.054c-4.106,1.579-9.318,3.633-14.214,3.633-20.848,0-32.062-22.27-32.062-49.909ZM70.35,99.271c3.001-1.105,5.686-2.211,7.739-2.211,2.211,0,4.264,1.421,6.001,2.527,2.212,1.579,4.423,3.159,7.897,3.159,6.16,0,10.108-13.583,10.108-37.905,0-25.27-11.056-36.326-35.694-36.326-23.375,0-35.537,12.161-35.537,35.378,0,25.744,8.687,38.853,25.744,38.853,4.58,0,9.476-1.895,13.741-3.475ZM43.974,58.207c0-11.372,5.054-16.584,15.794-16.584,10.898,0,15.794,5.054,15.794,16.584,0,11.055-5.054,16.425-15.794,16.425-11.214,0-15.794-4.896-15.794-16.425ZM73.982,58.207c0-4.422-4.738-5.528-11.055-5.528-8.529,0-12.635,4.264-12.635,12.635,0,5.371,3.158,7.74,9.476,7.74,9.792,0,14.214-4.581,14.214-14.847Z"/>
</svg>