<?xml version="1.0" encoding="UTF-8"?>
<svg xmlns="http://www.w3.org/2000/svg" xmlns:xlink="http://www.w3.org/1999/xlink" width="141.7" height="141.7" viewBox="0 0 141.7 141.7">
<path fill-rule="evenodd" fill="rgb(0%, 0%, 0%)" fill-opacity="1" d="M 55.992188 113.472656 C 66.730469 113.472656 75.386719 108.160156 80.582031 101.003906 C 80.464844 104.699219 80.695312 108.851562 80.929688 111.277344 L 104.132812 111.277344 L 104.707031 108.738281 C 102.976562 104.121094 103.4375 97.195312 105.515625 87.496094 L 110.710938 63.140625 C 115.445312 40.859375 101.589844 28.625 78.15625 28.625 C 54.722656 28.625 40.0625 39.472656 37.753906 56.097656 L 62.109375 56.097656 C 63.265625 49.519531 68.460938 44.785156 77.003906 44.785156 C 85.542969 44.785156 88.316406 48.480469 88.316406 53.789062 C 88.316406 59.097656 83.007812 61.640625 75.964844 62.214844 L 59.457031 63.488281 C 41.449219 64.871094 30.363281 73.53125 30.363281 89.230469 C 30.363281 104.929688 39.832031 113.472656 55.992188 113.472656 M 54.609375 87.382812 C 54.609375 80.570312 60.609375 78.148438 68 77.222656 L 74.808594 76.414062 C 77.003906 76.070312 78.964844 75.722656 80.464844 75.375 C 84.390625 74.453125 86.121094 72.953125 86.121094 69.375 L 86.121094 67.410156 C 86.46875 62.910156 90.277344 59.445312 94.78125 59.792969 C 98.820312 60.023438 102.167969 63.371094 102.398438 67.410156 C 102.398438 71.914062 98.703125 75.609375 94.203125 75.609375 L 88.894531 75.609375 C 86.929688 75.492188 85.199219 76.761719 84.738281 78.722656 L 84.507812 79.53125 C 81.734375 89.921875 74.464844 96.5 65.226562 96.5 C 55.992188 96.5 54.375 92.808594 54.375 87.152344 Z M 54.609375 87.382812 "/>
</svg>
