<?xml version="1.0" encoding="UTF-8"?>
<svg id="Layer_1" xmlns="http://www.w3.org/2000/svg" version="1.1" viewBox="0 0 141.7 141.7">
  <!-- Generator: Adobe Illustrator 29.0.1, SVG Export Plug-In . SVG Version: 2.1.0 Build 192)  -->
  <path d="M56,104.6c9.3,0,16.8-4.6,21.3-10.8-.1,3.2.1,6.8.3,8.9h20.1l.5-2.2c-1.5-4-1.1-10,.7-18.4l4.5-21.1c4.1-19.3-7.9-29.9-28.2-29.9s-33,9.4-35,23.8h21.1c1-5.7,5.5-9.8,12.9-9.8s9.8,3.2,9.8,7.8-4.6,6.8-10.7,7.3l-14.3,1.1c-15.6,1.2-25.2,8.7-25.2,22.3s8.2,21,22.2,21M54.8,82c0-5.9,5.2-8,11.6-8.8l5.9-.7c1.9-.3,3.6-.6,4.9-.9,3.4-.8,4.9-2.1,4.9-5.2v-1.7c.3-3.9,3.6-6.9,7.5-6.6,3.5.2,6.4,3.1,6.6,6.6,0,3.9-3.2,7.1-7.1,7.1h-4.6c-1.7-.1-3.2,1-3.6,2.7l-.2.7c-2.4,9-8.7,14.7-16.7,14.7s-9.4-3.2-9.4-8.1"/>
</svg>