<?xml version="1.0" encoding="UTF-8"?>
<svg xmlns="http://www.w3.org/2000/svg" xmlns:xlink="http://www.w3.org/1999/xlink" width="141.7" height="141.7" viewBox="0 0 141.7 141.7">
<path fill-rule="evenodd" fill="rgb(0%, 0%, 0%)" fill-opacity="1" d="M 71.832031 29.199219 L 31.378906 29.199219 L 31.378906 31.394531 C 31.378906 47.179688 40.699219 55.074219 57.144531 55.074219 L 91.347656 55.074219 L 91.347656 66.257812 L 58.347656 66.257812 C 43 66.257812 34.449219 76.125 34.449219 90.265625 C 34.449219 104.410156 43.65625 113.949219 59.882812 113.949219 C 76.109375 113.949219 85.976562 106.492188 91.347656 95.308594 L 91.347656 111.425781 L 120.621094 111.425781 L 120.621094 109.34375 C 120.621094 94.871094 112.726562 86.539062 98.585938 85.332031 L 98.585938 57.265625 C 98.585938 39.726562 91.347656 29.308594 71.722656 29.308594 Z M 42.890625 85.113281 C 42.890625 82.042969 45.082031 78.863281 47.164062 76.890625 C 49.90625 74.261719 55.609375 72.945312 59.773438 72.945312 L 91.347656 72.945312 L 91.347656 85.113281 Z M 42.890625 85.113281 "/>
</svg>
