<?xml version="1.0" encoding="UTF-8"?>
<svg id="Layer_1" xmlns="http://www.w3.org/2000/svg" version="1.1" viewBox="0 0 141.7 141.7">
  <!-- Generator: Adobe Illustrator 29.0.1, SVG Export Plug-In . SVG Version: 2.1.0 Build 192)  -->
  <path d="M70.2,29.2h-36.9v2c0,14.4,8.5,21.6,23.5,21.6h31.2v10.2h-30.1c-14,0-21.8,9-21.8,21.9s8.4,21.6,23.2,21.6,23.8-6.8,28.7-17v14.7h26.7v-1.9c0-13.2-7.2-20.8-20.1-21.9v-25.6c0-16-6.6-25.5-24.5-25.5M43.8,80.2c0-2.8,2-5.7,3.9-7.5,2.5-2.4,7.7-3.6,11.5-3.6h28.8v11.1h-44.2Z"/>
</svg>