<?xml version="1.0" encoding="UTF-8"?>
<svg id="Layer_1" xmlns="http://www.w3.org/2000/svg" version="1.1" viewBox="0 0 141.7 141.7">
  <!-- Generator: Adobe Illustrator 29.0.1, SVG Export Plug-In . SVG Version: 2.1.0 Build 192)  -->
  <path d="M76.2,103.4c4.1-2.3,6.7-6.1,7.9-11.4.5,4.9,2,8.4,4.5,10.4,2.5,2,5.7,3,9.6,3,3.5,0,6.5-.4,9.1-1.3v-29.8c-1.3.4-2.6.8-4,1-1.4.2-3,.3-4.6.2-.2-3.3,0-6.8.6-10.3.7-3.6,1-7.6,1-12,0-5.3-.9-9.8-2.7-13.7-1.8-3.9-4.8-6.9-9.1-9.1-4.3-2.2-10.2-3.3-17.7-3.3-12.3,0-21.1,2.7-26.5,8.5-5.4,5.8-8,14.2-8,25.4h15.1c-.4-3,0-5.2,1.5-6.6,1.4-1.5,4.8-2.2,10.2-2.2,7.4,0,12.3.8,14.8,2.3,2.4,1.3,4,3.7,4.2,6.4-12.1,0-21.4.8-28.1,2.4-6.7,1.5-11.4,4.1-14,7.7s-4,8.4-4,14.5c0,7,2,12.3,6,16.1s9.7,5.6,17.2,5.6,13.1-1.1,17.2-3.4M54.4,75.6c1.6-.7,4.6-1.2,9-1.5,4.4-.3,10.6-.3,18.6,0v2.5c-.4,1.1-1.2,2.1-2.2,2.8-1.1.8-2.9,1.5-5.4,1.9-2.5.5-6.1.7-10.7.7-4.5,0-7.6-.3-9.3-1-1.6-.6-2.5-1.5-2.5-2.7,0-1.1.8-1.9,2.5-2.7"/>
</svg>