<?xml version="1.0" encoding="UTF-8"?>
<svg xmlns="http://www.w3.org/2000/svg" xmlns:xlink="http://www.w3.org/1999/xlink" width="141.7" height="141.7" viewBox="0 0 141.7 141.7">
<path fill-rule="evenodd" fill="rgb(0%, 0%, 0%)" fill-opacity="1" d="M 77.289062 109.726562 C 81.664062 107.269531 84.226562 102.789062 85.507812 97.132812 C 86.039062 102.359375 87.640625 106.097656 90.308594 108.230469 C 92.976562 110.367188 96.394531 111.433594 100.554688 111.433594 C 104.292969 111.433594 107.492188 111.007812 110.269531 110.046875 L 110.269531 78.238281 C 108.882812 78.667969 107.492188 79.09375 106 79.308594 C 104.503906 79.519531 102.796875 79.628906 101.089844 79.519531 C 100.875 76 101.089844 72.261719 101.730469 68.527344 C 102.476562 64.683594 102.796875 60.414062 102.796875 55.71875 C 102.796875 50.0625 101.835938 45.257812 99.917969 41.097656 C 97.992188 36.933594 94.792969 33.730469 90.203125 31.382812 C 85.613281 29.035156 79.316406 27.859375 71.3125 27.859375 C 58.183594 27.859375 48.789062 30.742188 43.027344 36.933594 C 37.261719 43.125 34.488281 52.089844 34.488281 64.042969 L 50.605469 64.042969 C 50.179688 60.84375 50.605469 58.496094 52.207031 57 C 53.699219 55.398438 57.328125 54.652344 63.09375 54.652344 C 70.992188 54.652344 76.222656 55.503906 78.890625 57.105469 C 81.449219 58.496094 83.15625 61.054688 83.371094 63.9375 C 70.457031 63.9375 60.53125 64.792969 53.378906 66.5 C 46.226562 68.101562 41.210938 70.875 38.4375 74.71875 C 35.660156 78.558594 34.167969 83.683594 34.167969 90.195312 C 34.167969 97.664062 36.300781 103.324219 40.570312 107.378906 C 44.839844 111.433594 50.925781 113.355469 58.929688 113.355469 C 66.933594 113.355469 72.910156 112.179688 77.289062 109.726562 M 53.804688 79.628906 C 55.515625 78.878906 58.714844 78.347656 63.414062 78.027344 C 68.109375 77.707031 74.726562 77.707031 83.265625 78.027344 L 83.265625 80.695312 C 82.839844 81.867188 81.984375 82.9375 80.917969 83.683594 C 79.742188 84.539062 77.820312 85.285156 75.152344 85.710938 C 72.484375 86.246094 68.644531 86.457031 63.734375 86.457031 C 58.929688 86.457031 55.621094 86.136719 53.804688 85.390625 C 52.097656 84.75 51.136719 83.789062 51.136719 82.507812 C 51.136719 81.335938 51.992188 80.480469 53.804688 79.628906 "/>
</svg>
