<?xml version="1.0" encoding="UTF-8"?>
<svg id="Layer_1" xmlns="http://www.w3.org/2000/svg" version="1.1" viewBox="0 0 141.7 141.7">
  <!-- Generator: Adobe Illustrator 29.0.1, SVG Export Plug-In . SVG Version: 2.1.0 Build 192)  -->
  <path d="M116.3,82.8c-5.2.3-10-.2-14.8-1.5-1.5-20.8-.2-31.6,8-47.1l-.3-.5c-19.8-.2-41.5-3.3-58.4-7.9-.3,4.4-3.8,13.9-8,22.1-3.8,7.1-9.1,15.9-10.6,23.9l.5.3,9.5-1.2c-.8-3.1-1.3-8.7,0-12.3,6.9-1,13.1-1.6,19-1.6s11.8.7,17.1,2c.2,2.1.3,4.3.3,6.2-14.4,6.9-33.3,10.3-47.3,12l-.2.6c5.4,10,10.3,26.2,13.2,37.2l.7.2c10-9.5,20.3-15.6,31.3-20-.8,4.3-2,8.7-3.3,13.1,11.1.3,27,2.6,35.7,5.4,1.3-10,3.4-20.3,8-30.7l-.5-.5ZM77.5,88.2c-2.6,1-5.3,2.1-8.2,3.6-1.3-4.8-3.3-9.7-5.9-13.8,4.9-1.8,10-3.6,15.3-6.1,0,5.7-.5,11-1.2,16.2Z"/>
</svg>