<?xml version="1.0" encoding="UTF-8"?>
<svg id="Layer_1" xmlns="http://www.w3.org/2000/svg" version="1.1" viewBox="0 0 141.7 141.7">
  <!-- Generator: Adobe Illustrator 29.1.0, SVG Export Plug-In . SVG Version: 2.1.0 Build 142)  -->
  <path d="M112.749,81.77c-4.765.275-9.163-.183-13.561-1.374-1.374-19.058-.183-28.954,7.33-43.156l-.275-.458c-18.142-.183-38.025-3.024-53.51-7.238-.275,4.032-3.482,12.736-7.33,20.249-3.482,6.505-8.338,14.569-9.712,21.899l.458.275,8.704-1.1c-.733-2.84-1.191-7.971,0-11.27,6.322-.916,12.003-1.466,17.409-1.466s10.812.641,15.668,1.833c.183,1.924.275,3.94.275,5.681-13.194,6.322-30.511,9.437-43.339,10.995l-.183.55c4.948,9.163,9.437,24.006,12.095,34.085l.641.183c9.163-8.704,18.6-14.294,28.679-18.325-.733,3.94-1.833,7.971-3.024,12.003,10.17.275,24.739,2.382,32.71,4.948,1.191-9.163,3.115-18.6,7.33-28.129l-.458-.458.092.275ZM77.199,86.718c-2.382.916-4.856,1.924-7.513,3.299-1.191-4.398-3.024-8.888-5.406-12.644,4.49-1.649,9.163-3.299,14.019-5.589,0,5.223-.458,10.079-1.1,14.843v.092Z"/>
</svg>