<?xml version="1.0" encoding="UTF-8"?>
<svg xmlns="http://www.w3.org/2000/svg" xmlns:xlink="http://www.w3.org/1999/xlink" width="141.7" height="141.7" viewBox="0 0 141.7 141.7">
<path fill-rule="evenodd" fill="rgb(0%, 0%, 0%)" fill-opacity="1" d="M 111.742188 81.933594 C 106.871094 82.214844 102.375 81.75 97.875 80.53125 C 96.472656 61.046875 97.691406 50.929688 105.371094 36.410156 L 105.089844 35.941406 C 86.542969 35.757812 66.21875 32.851562 50.386719 28.542969 C 50.105469 32.667969 46.824219 41.5625 42.894531 49.246094 C 39.332031 55.894531 34.367188 64.140625 32.964844 71.632812 L 33.433594 71.914062 L 42.328125 70.789062 C 41.582031 67.886719 41.113281 62.640625 42.328125 59.265625 C 48.792969 58.332031 54.601562 57.769531 60.128906 57.769531 C 65.652344 57.769531 71.179688 58.425781 76.144531 59.644531 C 76.332031 61.609375 76.425781 63.671875 76.425781 65.449219 C 62.9375 71.914062 45.234375 75.097656 32.121094 76.691406 L 31.933594 77.253906 C 36.992188 86.621094 41.582031 101.792969 44.296875 112.097656 L 44.953125 112.285156 C 54.320312 103.386719 63.96875 97.671875 74.273438 93.550781 C 73.523438 97.578125 72.398438 101.699219 71.179688 105.820312 C 81.578125 106.101562 96.472656 108.257812 104.621094 110.882812 C 105.839844 101.511719 107.804688 91.867188 112.113281 82.125 L 111.644531 81.65625 L 111.738281 81.9375 Z M 75.398438 86.992188 C 72.964844 87.929688 70.433594 88.960938 67.71875 90.367188 C 66.5 85.871094 64.625 81.28125 62.191406 77.441406 C 66.78125 75.753906 71.558594 74.066406 76.523438 71.726562 C 76.523438 77.066406 76.054688 82.03125 75.398438 86.898438 Z M 75.398438 86.992188 "/>
</svg>
