<?xml version="1.0" encoding="UTF-8"?>
<svg xmlns="http://www.w3.org/2000/svg" xmlns:xlink="http://www.w3.org/1999/xlink" width="141.7" height="141.7" viewBox="0 0 141.7 141.7">
<path fill-rule="evenodd" fill="rgb(0%, 0%, 0%)" fill-opacity="1" d="M 74.898438 76.601562 C 74 73.5 72.101562 70 64 70 C 48.898438 70 32.300781 84.699219 32.300781 99.101562 C 32.300781 108.675781 36.101562 112.300781 42.199219 112.300781 C 55.199219 112.5 67.5 93.601562 67.5 93.601562 L 67.699219 93.601562 C 67.699219 93.601562 66.300781 97.601562 66.300781 103 C 66.300781 108.398438 69.398438 112.199219 73.898438 112.199219 C 83.601562 112.199219 94.898438 99 103.199219 84.300781 L 102 83.601562 C 94 96.398438 83.300781 110.300781 73.699219 110.300781 C 70.636719 110.300781 69.699219 108.601562 69.699219 106.5 C 69.699219 102.5 74.699219 94.699219 78 90 L 94.300781 66.398438 C 99 59.601562 103 50.300781 103 44.898438 C 103 36.601562 97.601562 28.800781 88.398438 28.800781 C 79.199219 28.800781 58.199219 43 57.898438 54.800781 C 57.898438 57.898438 59.300781 59.5 61.699219 59.5 C 65.5 59.5 71.898438 51.699219 71.898438 45.800781 C 71.898438 39.898438 70.199219 39.398438 70.199219 39.398438 C 70.199219 39.398438 71.398438 37.5 74.898438 35.199219 C 79.398438 32.398438 84.601562 30.199219 88.101562 30.199219 C 94.199219 30.199219 96.800781 33.300781 96.800781 37.5 C 96.800781 41.699219 94.199219 48.101562 87.800781 57.601562 L 75.300781 76.5 L 74.800781 76.5 L 74.898438 76.5 Z M 66.699219 71.898438 C 70.300781 71.898438 73.101562 74 73.101562 77.800781 C 73.101562 81.601562 69.300781 89.101562 63.699219 96 C 56.898438 104.5 49.101562 110.601562 43.601562 110.601562 C 40.488281 110.601562 39.601562 108.5 39.601562 105.398438 C 39.601562 102.300781 44.101562 93.101562 49.300781 85.601562 C 54.5 78 60.398438 71.898438 66.800781 71.898438 Z M 66.699219 71.898438 "/>
</svg>
