<?xml version="1.0" encoding="UTF-8"?>
<svg id="Layer_1" xmlns="http://www.w3.org/2000/svg" version="1.1" viewBox="0 0 141.7 141.7">
  <!-- Generator: Adobe Illustrator 29.0.1, SVG Export Plug-In . SVG Version: 2.1.0 Build 192)  -->
  <path d="M77.9,72.6c-.9-3.1-2.8-6.6-10.9-6.6-15.1,0-31.7,14.7-31.7,29.1,0,9.5745,3.8,13.2,9.9,13.2,13,.2,25.3-18.7,25.3-18.7h.2s-1.4,4-1.4,9.4,3.1,9.2,7.6,9.2c9.7,0,21-13.2,29.3-27.9l-1.2-.7c-8,12.8-18.7,26.7-28.3,26.7-3.0617,0-4-1.7-4-3.8,0-4,5-11.8,8.3-16.5l16.3-23.6c4.7-6.8,8.7-16.1,8.7-21.5,0-8.3-5.4-16.1-14.6-16.1s-30.2,14.2-30.5,26c0,3.1,1.4,4.7,3.8,4.7,3.8,0,10.2-7.8,10.2-13.7s-1.7-6.4-1.7-6.4c0,0,1.2-1.9,4.7-4.2,4.5-2.8,9.7-5,13.2-5,6.1,0,8.7,3.1,8.7,7.3s-2.6,10.6-9,20.1l-12.5,18.9h-.5.1v.1ZM69.7,67.9c3.6,0,6.4,2.1,6.4,5.9s-3.8,11.3-9.4,18.2c-6.8,8.5-14.6,14.6-20.1,14.6-3.1102,0-4-2.1-4-5.2s4.5-12.3,9.7-19.8c5.2-7.6,11.1-13.7,17.5-13.7"/>
</svg>