<?xml version="1.0" encoding="UTF-8"?>
<svg id="Layer_1" xmlns="http://www.w3.org/2000/svg" version="1.1" viewBox="0 0 141.7 141.7">
  <!-- Generator: Adobe Illustrator 29.0.1, SVG Export Plug-In . SVG Version: 2.1.0 Build 192)  -->
  <path d="M65.3,99.5c3.5,0,7-3.6,10-5.3,0,1,.2,1.6.5,1.9.5.6,1.2,1,2,1,1.3,0,2.4-1.1,2.5-2.4,0-.7-.4-1.1-.5-1.6-.3-.9-.3-3.1-.3-7.3v-37.6c0-1.3-.7-2.6-1.8-3.5,2.6,0,6.7.9,6.7,2.9l-.2,44.7c0,4.3,3.4,7.4,8,7.4s10.6-2.8,14.6-7.1c1-1.1,1-2.2,0-3.7-.7-1.2-1.5-1.7-2.6-1.5l-3.1.2c-1.2,0-2.3-2-2.4-5.2l.2-34.2c.2-11.1-9.6-17.8-25.4-17.8s-37.8,9.5-37.8,21.5,4.9,10.3,11.9,10.3,12.2-4.5,12.2-11.3-.7-4.8-1.7-6.3c-.4-.8-1.2-1.4-2.1-1.5-.9-.2-1.8-.1-2.6.4-4.5,2-6.8,3.9-7.8,6.5-.5,1.2,0,2.7,1.3,3.2,1.2.5,2.7,0,3.2-1.3,0-.1.1-.3.1-.4.4-1.2,1.7-2.4,4.5-4v3.3c.1,4-2.6,6.4-7.1,6.4s-7-2.2-7-5.4c0-8.8,15.2-16.6,32.9-16.6s20.6,4.8,20.6,12.9l-.2,34.2c0,5.4,2.2,8.7,7,9.4-2.7,1.9-5.8,3.1-8.6,3.1s-3.1-.9-3.1-2.4l.2-45c0-4.3-6.6-7.4-13.3-7.4s-2.2.2-3.3.3c-1.2.1-1.8,1.1-1.8,2.6s.7,2,1.8,3.4c1.2.5,2,1.3,2,2.2v40.7c-.7.4-1.5.9-2.7,1.9-2.5,2.1-4.6,3.6-6.7,3.9-2.4,0-4.5-3.9-4.5-9s.6-5.1,1.5-7c.6-1.5.5-2.3-.5-3.8-.7-1.2-1.8-1.5-3.2-1.1-8,2.4-12.3,6.9-12.3,13s.8,5.2,1.9,7.7c-4.2-1.7-6.6-5.3-6.6-9.9,0-8.1,10-15,28.2-19,1.2-.2,2-1.2,2.1-2.4,0-1.4-1.1-2.4-2.5-2.5-.2,0-.4,0-.6.2-20.6,4.6-32.1,12.9-32.1,23.8s4.9,13.3,12.5,14.8c1.4.3,2.3-.3,3.1-1.5.7-1.2,1-2.1.5-3.7-.9-2.4-1.4-4.9-1.5-7.5,0-3.4,2.2-6.1,6.4-8.1-1.1,2.2-1.7,4.6-1.7,7,0,7.7,3.6,14,9.5,13.9"/>
</svg>