<?xml version="1.0" encoding="UTF-8"?>
<svg id="Layer_1" xmlns="http://www.w3.org/2000/svg" version="1.1" viewBox="0 0 141.7 141.7">
  <!-- Generator: Adobe Illustrator 29.0.1, SVG Export Plug-In . SVG Version: 2.1.0 Build 192)  -->
  <path d="M102.5,107.2c5.8,0,11.1-5.4,11.1-9.8s-8.2-10.8-14-24.2c-5.1-11.9-5.9-17.5-1.5-24.8,4.6-7.4,10.3-11.3,5.8-15.8-3.1-3.1-11.9-.5-20.4,3.6-6.6-5-13.5-7.6-23.9-7.6-15.2,0-24.5,5.7-25.4,10.3-.7,3.4,1.6,5.9,7.3,5.8,6.3-.3,15.4-.9,23.1,2.2-28.7,15.8-41.3,49-27.9,59,8.9,6.6,32.1-2.8,43.9-21,4.2,15,13.2,22.4,22,22.4M57.3,84.3c-3.8-2.7-2-9.6,4.2-17.3,4.7-5.9,8.5-9.3,12.5-12,3.6,6.6,2.7,15.5-2,22.1-5.4,7.4-11.1,9.7-14.7,7.1"/>
</svg>