<?xml version='1.0' encoding='UTF-8'?>
<svg xmlns="http://www.w3.org/2000/svg" width="141.73px" height="141.73px" x="0px" y="0px" viewBox="0 0 141.73 141.73" enable-background="new 0 0 141.73 141.73"><path fill="#fff" d="M103.56 108.62c6.01 0 11.47-5.6 11.47-10.21 0-4.76-8.54-11.2-14.55-25.04-5.32-12.3-6.16-18.18-1.54-25.73 4.76-7.7 10.63-11.75 6.02-16.37-3.22-3.21-12.31-.56-21.12 3.78-6.86-5.17-13.99-7.83-24.76-7.83-15.8 0-25.45 5.87-26.3 10.63-.69 3.5 1.68 6.15 7.56 6.01 6.57-.28 15.95-.98 23.92 2.24-29.8 16.36-42.8 50.77-28.96 61.12 9.24 6.85 33.3-2.94 45.46-21.82 4.33 15.53 13.7 23.22 22.8 23.22M56.7 84.84c-3.91-2.8-2.1-9.93 4.34-17.9 4.9-6.15 8.81-9.65 13-12.45 3.78 6.85 2.8 16.08-2.1 22.94-5.58 7.7-11.46 10.07-15.24 7.41"/></svg>