<?xml version="1.0" encoding="UTF-8"?>
<svg id="Layer_1" xmlns="http://www.w3.org/2000/svg" version="1.1" viewBox="0 0 141.7 141.7">
  <!-- Generator: Adobe Illustrator 29.0.1, SVG Export Plug-In . SVG Version: 2.1.0 Build 192)  -->
  <path d="M82.8,36.4h-5.9v9h9v-9h-3ZM69.3,36.4h-5.9v9h8.9v-9h-3ZM55.8,36.4h-5.9v9h9v-9h-3ZM96.2,49.9h-5.9v9h8.9v-9h-3ZM96.2,63.3h-5.9v8.9h8.9v-9h-3ZM82.8,63.3h-5.9v8.9h9v-9h-3ZM69.3,63.3h-5.9v8.9h8.9v-9h-3ZM55.8,63.3h-5.9v8.9h9v-9h-3ZM96.2,76.8h-5.9v8.9h8.9v-8.9h-3ZM42.4,76.8h-5.9v8.9h9v-8.9h-3ZM82.8,90.3h-5.9v8.9h9v-8.9h-3ZM69.3,90.3h-5.9v8.9h8.9v-8.9h-3ZM55.8,90.3h-5.9v8.9h9v-8.9h-3Z"/>
</svg>