<?xml version='1.0' encoding='UTF-8'?>
<svg xmlns="http://www.w3.org/2000/svg" width="141.73px" height="141.73px" x="0px" y="0px" viewBox="0 0 141.73 141.73" enable-background="new 0 0 141.73 141.73"><path fill="#fff" d="M32.29 67.87q0 12.36 3.84 20.88t10.14 12.78a23.5 23.5 0 0 0 13.37 4.26q10.32 0 14.65-9.6 2.27 5.04 6.12 7.32a17.6 17.6 0 0 0 9.12 2.28q6.84 0 11.04-3.54t6.3-11.82 2.1-22.56-2.1-22.57q-2.1-8.26-6.3-11.82-4.2-3.53-11.04-3.53-5.16 0-8.94 2.21-3.78 2.23-6.06 7.03-4.33-9.24-14.89-9.24-7.2 0-13.43 4.2-6.24 4.2-10.09 12.72-3.83 8.52-3.83 21m34.92-19.8h4.08v39.6H67.2Zm0 0"/></svg>