<?xml version='1.0' encoding='UTF-8'?>
<svg xmlns="http://www.w3.org/2000/svg" width="141.73px" height="141.73px" x="0px" y="0px" viewBox="0 0 141.73 141.73" enable-background="new 0 0 141.73 141.73"><path fill="#fff" d="M82.78 36.4h-5.93v8.96h8.96V36.4Zm-13.47 0H63.4v8.96h8.95V36.4Zm-13.46 0h-5.92v8.96h8.95V36.4Zm40.4 13.47h-5.93v8.95h8.95v-8.95Zm0 13.47h-5.93v8.95h8.95v-8.95Zm-13.47 0h-5.93v8.95h8.96v-8.95Zm-13.47 0H63.4v8.95h8.95v-8.95Zm-13.46 0h-5.92v8.95h8.95v-8.95Zm40.4 13.46h-5.93v8.95h8.95V76.8Zm-53.87 0h-5.92v8.95h8.95V76.8Zm40.4 13.47h-5.93v8.95h8.96v-8.95Zm-13.47 0H63.4v8.95h8.95v-8.95Zm-13.46 0h-5.92v8.95h8.95v-8.95Zm0 0"/></svg>