<?xml version='1.0' encoding='UTF-8'?>
<svg xmlns="http://www.w3.org/2000/svg" width="141.73px" height="141.73px" x="0px" y="0px" viewBox="0 0 141.73 141.73" enable-background="new 0 0 141.73 141.73"><path fill="#fff" d="m98.19 109.67 12.02-12.3-13.25-13.12V53.91c0-5.19 0-9.42-.55-13.11-1.91-13.53-15.3-17.77-27.33-17.77-9.3 0-29.8.55-29.8 13.8 0 4.92 3.7 8.47 8.2 8.47 5.61 0 9.3-2.04 9.3-7.24h23.37V90H56.37V72.64c-12.43 0-22 4.23-22 18.17 0 13.8 12.84 18.18 24.05 18.18 10.25 0 15.3-7.11 21.73-18.72 5.2 7.1 18.04 19.4 18.04 19.4"/></svg>