<?xml version='1.0' encoding='UTF-8'?>
<svg xmlns="http://www.w3.org/2000/svg" width="141.73px" height="141.73px" x="0px" y="0px" viewBox="0 0 141.73 141.73" enable-background="new 0 0 141.73 141.73"><path fill="#fff" d="M70.2 29.24H33.3v1.95c0 14.4 8.54 21.6 23.54 21.6h31.2v10.2H57.9c-13.95 0-21.75 9-21.75 21.9 0 11.7 8.4 21.6 23.25 21.6 11.85 0 23.85-6.75 28.65-16.95v14.7h26.7v-1.95c0-13.2-7.2-20.85-20.1-21.9V54.74c0-16.05-6.6-25.5-24.45-25.5m-26.4 51c0-2.85 1.95-5.7 3.9-7.5 2.55-2.4 7.65-3.6 11.55-3.6h28.8v11.1Zm0 0"/></svg>