<?xml version="1.0" encoding="UTF-8"?>
<svg id="Layer_1" xmlns="http://www.w3.org/2000/svg" version="1.1" viewBox="0 0 141.7 141.7">
  <!-- Generator: Adobe Illustrator 29.0.1, SVG Export Plug-In . SVG Version: 2.1.0 Build 192)  -->
  <path d="M97.1,87.3v-37.4c0-12.9-7.5-19.5-20.7-19.5s-17.1,2.8-24.6,7.2c-7.4,4.3-12.9,10.3-14.2,18h20.1v-17.8c1.8-.6,4-.9,6.2-.9,7.8,0,12.4,3.3,12.4,11.5v13.3c-6.3,1.5-14.1,3.6-22.3,7.2-9.6,4.2-15.9,9.8-15.9,18.6s7.5,17.1,18.2,17.1,17.1-5.7,20.5-12.2c1.8,5.7,6.9,11.2,15.6,11.2h12.9v-16.5h-8.1ZM68.3,93.3c-6,0-9.6-4.5-9.6-12.8s2.1-9.3,5.7-11.4c3.4-1.9,7.3-3.3,11.8-4.5v26c-2.3,1.8-5.1,2.8-7.9,2.7"/>
</svg>