<?xml version='1.0' encoding='UTF-8'?>
<svg xmlns="http://www.w3.org/2000/svg" width="141.73px" height="141.73px" x="0px" y="0px" viewBox="0 0 141.73 141.73" enable-background="new 0 0 141.73 141.73"><path fill="#fff" d="M65.28 99.5c3.51 0 7.03-3.58 9.96-5.26q.09 1.44.51 1.9a2.5 2.5 0 0 0 1.98 1.02 2.5 2.5 0 0 0 2.49-2.41c0-.66-.37-1.1-.51-1.61-.3-.88-.3-3.08-.3-7.33V48.17c0-1.32-.73-2.57-1.75-3.52 2.56 0 6.66.88 6.66 2.86l-.15 44.67c0 4.33 3.37 7.4 7.99 7.4 4.98 0 10.62-2.85 14.57-7.1 1.03-1.1 1.03-2.2 0-3.74q-1-1.75-2.56-1.54l-3.08.15c-1.24 0-2.34-1.97-2.41-5.2l.21-34.2c.15-11.14-9.59-17.8-25.41-17.8-20.65 0-37.8 9.52-37.8 21.53 0 6.08 4.91 10.33 11.87 10.33 7.25 0 12.16-4.54 12.16-11.28 0-2.12-.73-4.76-1.68-6.3a2.6 2.6 0 0 0-2.13-1.47 3.2 3.2 0 0 0-2.56.37c-4.47 1.98-6.81 3.88-7.77 6.52a2.44 2.44 0 1 0 4.61 1.54c.37-1.17 1.7-2.42 4.48-3.96l.14 3.3c0 3.95-2.7 6.37-7.25 6.37-4.32 0-6.96-2.2-6.96-5.42 0-8.79 15.17-16.63 32.89-16.63 13.26 0 20.58 4.84 20.58 12.9l-.22 34.2c0 5.42 2.2 8.72 6.96 9.38-2.71 1.9-5.79 3.07-8.64 3.07-2.05 0-3.08-.95-3.08-2.42l.15-45.04c0-4.32-6.6-7.4-13.33-7.4-1.1 0-2.2.15-3.3.3-1.17.14-1.83 1.1-1.83 2.56 0 2.05.66 2.05 1.76 3.37 1.17.51 1.98 1.32 1.98 2.2v40.65c-.74.36-1.54.95-2.71 1.9-2.5 2.12-4.62 3.59-6.67 3.88-2.42-.07-4.47-3.95-4.47-9 0-2.5.59-5.14 1.47-7.04.58-1.54.51-2.34-.51-3.8q-1.12-1.77-3.23-1.1c-7.98 2.41-12.3 6.95-12.3 12.96 0 2.12.8 5.2 1.9 7.69-4.17-1.69-6.6-5.27-6.6-9.89 0-8.06 9.97-15.01 28.2-19.04a2.5 2.5 0 0 0 2.06-2.42 2.57 2.57 0 0 0-2.49-2.49c-.15 0-.44.07-.59.15C47.92 65.23 36.5 73.5 36.5 84.42c0 7.54 4.9 13.26 12.46 14.8 1.39.29 2.26-.3 3.14-1.47.74-1.24.96-2.12.45-3.66A25 25 0 0 1 51 86.62c0-3.37 2.2-6.08 6.44-8.06a16 16 0 0 0-1.68 7.03c0 7.7 3.58 14 9.52 13.92"/></svg>