<?xml version="1.0" encoding="UTF-8"?>
<svg id="Layer_1" xmlns="http://www.w3.org/2000/svg" version="1.1" viewBox="0 0 141.7 141.7">
  <!-- Generator: Adobe Illustrator 29.0.1, SVG Export Plug-In . SVG Version: 2.1.0 Build 192)  -->
  <path d="M100.9,29.6c-1.2-3.6-5.4-3.6-8.1-3-7.3.8-12.5,5.9-18,10.5-3,2.6-5.8,4.5-8.7,6.9-1.4,1.2-2.8,2.4-4.2,3.4q-2.4,2-4.8,3.8c-3,2.4-4.8,5.2-8.3,7.3-3.6,2-5.8,5.1-8.9,8.3-2.8,2.8-5.2,5.9-8.5,8.3-3.4,2.6-5.9,3.4-5.9,8.9q.2,1.8.4,3.8c.2,2.4,2,2.2,2.6,4,1,2.4-.6,6.3-.6,9.1,0,7.9,8.7,10.7,14.8,6.9,2.8-1.6,6.3-2.8,8.9-5.1,1.6-1.2,2.6-2.8,4-3.8,1.6-1.4,3.2-2,4.8-3.4,3-2.6,5.9-5.3,8.5-7.9,3-2.8,5.9-5.4,9.7-6.3,2.6,5.7,1,9.5,4.8,13.9,4,4.8,10.1,6.1,13.9,5.7,3-.2,4.7-.4,7.1-1.8,2.6-1.4,4.4-4.4,6.7-5.7,3.4-1.8,4.2-4.2,4.2-6.5s-.6-4.9-1.4-7.3c-3.8,2.6-6.9,4.8-9.9,4.4-4.4-.8-6.5-4.8-6.9-8.3-.4-4-.2-6.5-.2-10.5s.4-8.1-5.3-8.1c-7.1-.2-14.4,9.5-20,14.4-4,3.2-6.5,5.5-10.5,8.3-4.5,3.2-7.7,6.5-10.9,6.9-1.6-1.4-.2-2.8.6-3.8q1.6-2.2,3.4-4.4c2.8-3.4,6.1-6.1,8.3-8.5,5.7-5.9,10.3-11.3,16.2-16.6,6.1-5.5,11.7-11.3,16.4-15.4,3.2-3,6.5-5.8,5.7-8.5"/>
</svg>