<?xml version='1.0' encoding='UTF-8'?>
<svg xmlns="http://www.w3.org/2000/svg" width="141.73px" height="141.73px" x="0px" y="0px" viewBox="0 0 141.73 141.73" enable-background="new 0 0 141.73 141.73"><path fill="#fff" d="M69.67 32.18c-9.3 0-21.6 4.5-27.3 17.1l13.65 6c3.6-7.95 8.85-9.6 13.65-9.6 7.35 0 12.45 4.65 12.45 11.7v6.15c-3.75-2.4-8.25-3.45-12.75-3.45-13.35 0-24.6 9.3-24.6 24.15v19.5h51.6V59.78c0-19.05-11.4-27.6-26.7-27.6M59.02 85.43c0-6.9 3.44-12.3 11.55-12.3 5.55 0 11.55 3.15 11.55 12.3v4.8h-23.1Zm0 0"/></svg>