<?xml version='1.0' encoding='UTF-8'?>
<svg xmlns="http://www.w3.org/2000/svg" width="141.73px" height="141.73px" x="0px" y="0px" viewBox="0 0 141.73 141.73" enable-background="new 0 0 141.73 141.73"><path fill="#fff" d="M70.52 106.36q4.47-2.8 6.86-8.32h-.87q.8 4.06 3.02 6.39a12.6 12.6 0 0 0 5.45 3.34q3.24 1.02 7.09 1.02 1.74 0 3.52-.22l3.67-.43v-14.9h-1.81q-2.18 0-2.88-.98a4.7 4.7 0 0 1-.69-2.73V49.05q0-10.83-6.75-17.09-6.77-6.25-17.96-6.25-7.12 0-12.64 2.8A22 22 0 0 0 47.87 36a18 18 0 0 0-3.12 10.29q0 4 1.42 6.97a11 11 0 0 0 3.92 4.62 10.3 10.3 0 0 0 5.78 1.63q2.7 0 4.87-1.12a8.7 8.7 0 0 0 3.46-3.16 9 9 0 0 0 1.26-4.73q0-2.32-.72-4.36a9 9 0 0 0-1.9-3.27q.53-1.38 1.71-2.1 1.2-.74 2.66-.73 2.18 0 3.96 1.81 1.78 1.82 1.78 6.54 0 4.88-2.14 7.7a17 17 0 0 1-5.49 4.7 132 132 0 0 1-7.16 3.67 36 36 0 0 0-7.16 4.5 20 20 0 0 0-5.48 7.2q-2.15 4.5-2.15 11.84 0 9.96 4.72 15.56 4.73 5.6 12.58 5.6 5.38 0 9.85-2.8m-4.7-14.1q-1-2.22-1-6.65 0-3.42.75-6A19 19 0 0 1 67.61 75a25 25 0 0 1 2.69-3.6q1.41-1.56 2.8-2.87v21.29q0 2.1-1.1 3.38a3.7 3.7 0 0 1-2.97 1.27q-2.18 0-3.2-2.21"/></svg>