<?xml version='1.0' encoding='UTF-8'?>
<svg xmlns="http://www.w3.org/2000/svg" width="141.73px" height="141.73px" x="0px" y="0px" viewBox="0 0 141.73 141.73" enable-background="new 0 0 141.73 141.73"><path fill="#fff" d="M62.2 111.8c-5.79 0-8.83-3.49-8.83-10.79V90.52c0-12.32 6.4-17.19 18.4-28.44V33.95c0-4.87-1.21-6.1-6.23-6.1-7.9 0-9.88 3.36-9.88 8.68 0 6.39 2.58 12.01 15.05 24.64h-14.6c-3.04-7.3-3.95-15.97-3.95-22.97 0-9.58 7.45-20.68 17.03-20.68 8.82 0 13.23 4.71 13.23 12.47v62.35c0 8.21 1.52 9.13 3.2 9.13 1.36 0 2.43-.92 2.58-5.93l.46-26.62h2.13l.45 26.01c.15 9.58-1.36 16.88-8.51 16.88-6.24 0-8.98-4.41-7.15-26l-1.52-.31c-2.28 22.66-6.09 26.3-11.86 26.3m4.4-11.1c3.35 0 5.18-9.27 5.18-23.26V65.27c-6.7 6.39-7.76 10.2-7.76 16.58v15.2c0 2.75 1.07 3.66 2.59 3.66"/></svg>