<?xml version='1.0' encoding='UTF-8'?>
<svg xmlns="http://www.w3.org/2000/svg" width="141.73px" height="141.73px" x="0px" y="0px" viewBox="0 0 141.73 141.73" enable-background="new 0 0 141.73 141.73"><path fill="#fff" d="M75.37 32.18H40.7v12.75h34.66c9.3 0 16.95 7.65 16.95 17.1v8.7h-4.05c-3-11.7-13.8-20.7-26.56-20.7-15 0-27.44 12.45-27.44 27.15a27.6 27.6 0 0 0 27.44 27.6c12.9 0 23.7-9 26.56-21.3h4.05v21.3h12.9V62.03c0-16.5-13.5-29.85-29.85-29.85m-13.8 60c-7.8 0-14.55-6.6-14.55-15 0-7.65 6.75-14.4 14.55-14.4 8.25 0 14.85 6.75 14.85 14.4 0 8.4-6.6 15-14.85 15"/></svg>