<?xml version='1.0' encoding='UTF-8'?>
<svg xmlns="http://www.w3.org/2000/svg" width="141.73px" height="141.73px" x="0px" y="0px" viewBox="0 0 141.73 141.73" enable-background="new 0 0 141.73 141.73"><path fill="#fff" d="M100.91 29.57c-1.2-3.64-5.45-3.64-8.08-3.03-7.28.8-12.53 5.85-18 10.5-3.03 2.63-5.85 4.45-8.69 6.88a63 63 0 0 1-4.24 3.44c-2.43 2.02-2.43 2.02-4.85 3.84-3.03 2.42-4.85 5.25-8.3 7.27-3.63 2.03-5.85 5.06-8.89 8.3-2.82 2.82-5.25 5.86-8.48 8.28-3.44 2.63-5.87 3.44-5.87 8.9.2 1.82.2 1.82.4 3.84.2 2.42 2.03 2.22 2.63 4.04 1.01 2.42-.6 6.27-.6 9.1 0 7.88 8.69 10.71 14.76 6.87 2.83-1.62 6.26-2.83 8.89-5.05 1.62-1.22 2.63-2.84 4.04-3.84 1.62-1.42 3.24-2.03 4.85-3.44q4.56-3.95 8.5-7.89c3.03-2.83 5.86-5.45 9.7-6.26 2.62 5.66 1 9.5 4.85 13.95 4.04 4.85 10.1 6.06 13.95 5.66 3.03-.2 4.65-.4 7.07-1.82 2.63-1.42 4.45-4.45 6.68-5.66 3.43-1.83 4.24-4.25 4.24-6.47 0-2.43-.6-4.86-1.42-7.28-3.84 2.63-6.87 4.85-9.9 4.45-4.45-.81-6.47-4.85-6.87-8.3-.4-4.03-.2-6.46-.2-10.5 0-3.03.4-8.09-5.26-8.09-7.08-.2-14.36 9.5-20.02 14.35-4.04 3.24-6.46 5.46-10.5 8.3-4.46 3.23-7.69 6.46-10.92 6.87-1.62-1.42-.2-2.83.6-3.85 1.62-2.22 1.62-2.22 3.44-4.44 2.83-3.44 6.06-6.07 8.29-8.5 5.66-5.86 10.31-11.31 16.17-16.57 6.07-5.46 11.73-11.32 16.37-15.37 3.24-3.03 6.47-5.85 5.66-8.48"/></svg>