<?xml version="1.0" encoding="UTF-8"?>
<svg id="Layer_1" xmlns="http://www.w3.org/2000/svg" version="1.1" viewBox="0 0 141.7 141.7">
  <!-- Generator: Adobe Illustrator 29.0.1, SVG Export Plug-In . SVG Version: 2.1.0 Build 192)  -->
  <path d="M32.3,67.9c0,8.2,1.3,15.2,3.8,20.9,2.6,5.7,5.9,9.9,10.1,12.8,3.9,2.7,8.6,4.2,13.4,4.3,6.9,0,11.8-3.2,14.7-9.6,1.5,3.4,3.6,5.8,6.1,7.3,2.8,1.6,5.9,2.4,9.1,2.3,4.6,0,8.2-1.2,11-3.5s4.9-6.3,6.3-11.8c1.4-5.5,2.1-13,2.1-22.6,0-9.5-.7-17-2.1-22.6-1.4-5.5-3.5-9.4-6.3-11.8-2.8-2.4-6.5-3.5-11-3.5s-6.4.7-8.9,2.2c-2.5,1.5-4.5,3.8-6.1,7-2.9-6.2-7.9-9.2-14.9-9.2s-9.3,1.4-13.4,4.2c-4.2,2.8-7.5,7-10.1,12.7-2.6,5.7-3.8,12.7-3.8,21M67.2,48.1h4.1v39.6h-4.1v-39.6Z"/>
</svg>