<?xml version="1.0" encoding="UTF-8"?>
<svg id="Layer_1" xmlns="http://www.w3.org/2000/svg" version="1.1" viewBox="0 0 141.7 141.7">
  <!-- Generator: Adobe Illustrator 29.0.1, SVG Export Plug-In . SVG Version: 2.1.0 Build 192)  -->
  <path d="M87.9,50.1l-7.8,10.3-2.1-.7-14.6,5.4-18.3-1.4,4.5,2.8-11,8.6-6.9,9.1,10.9,5.1-10.5,3.2,8.9,1,4.7,12.7,7.2,2.1,11.3,1.8,6.1-10.3,1.8,4.9,7.7-15,5.5,9.3,16.1,6.8-5-15,4-15.7,2.7-18.1-6.5-15.2,1.4-7.4v-1.8c-.1,0-17.1-2.1-17.1-2.1v-4.4l-20.7,2.8-13.2-2.4-7.4,8.1,12.5,12.3,10.2-8.3,11.3,4.7,2.7,3,11.5,3.7ZM66.3,66.5l22.4-1.7-10.2,16.8-6.5,5.4-3.2,1.6-3.1,1.4-6.1-.4-3.5-4.7,5.8-9.6,7.7,1-3.1-9.8Z"/>
</svg>