<?xml version='1.0' encoding='UTF-8'?>
<svg xmlns="http://www.w3.org/2000/svg" width="141.73px" height="141.73px" x="0px" y="0px" viewBox="0 0 141.73 141.73" enable-background="new 0 0 141.73 141.73"><path fill="#fff" d="M45.07 103.53c1.11 0 5.75-4.12 14.1-9.68 11.51-7.53 15.6-12.37 16.9-12.37.55 0 9.83 19.72 11.68 21.34.56.54 10.96 3.22 13.18 3.22 1.12 0 1.12.18 1.12-1.07 0-4.67-4.09-14.89-4.09-30.31 0-18.47 3.16-26 3.16-27.25 0-2.16-14.85-19.55-17.82-19.55-.55 0-5.2 3.05-5.75 3.05-.93 0-3.71-3.23-5.2-3.23-.74 0-2.41 2.15-3.53 3.23-4.27 4.3-7.79 7.17-7.79 7.89 0 .9.37 2.5.37 2.5 0 1.62-21.72 25.47-21.72 49.68 0 10.04 3.16 12.55 5.39 12.55m19.3-51.28c.37 0 .93 3.4 1.67 5.73.19.72 1.12 2.7 1.12 3.95 0 .18-5.2 5.02-14.11 13.09-.56.36-.75.9-.75 0 0-8.6 11.88-22.77 12.07-22.77"/></svg>