<?xml version='1.0' encoding='UTF-8'?>
<svg xmlns="http://www.w3.org/2000/svg" width="141.73px" height="141.73px" x="0px" y="0px" viewBox="0 0 141.73 141.73" enable-background="new 0 0 141.73 141.73"><path fill="#fff" d="M72.3 111.1c16.5 0 30.29-13.66 30.29-30.16 0-9.3-2.4-16.05-5.7-23.55L81.3 21.84H62.1L75.29 52c-1.05-.15-1.95-.15-2.85-.15-16.5 0-30.15 13.8-30.15 29.55 0 16.2 13.5 29.7 30 29.7m.15-16.8c-7.2 0-12.75-5.55-12.75-12.9s5.55-12.9 12.75-12.9S85.2 74.04 85.2 81.4s-5.55 12.9-12.75 12.9"/></svg>