<?xml version='1.0' encoding='UTF-8'?>
<svg xmlns="http://www.w3.org/2000/svg" width="141.73px" height="141.73px" x="0px" y="0px" viewBox="0 0 141.73 141.73" enable-background="new 0 0 141.73 141.73"><path fill="#fff" d="M82.56 104.77c19.76 0 28.82-33.49 28.82-42.4 0-3.44-1.23-5.23-3.43-5.64-3.02 6.59-6.3 14.41-11.25 20.32 0-16.88 2.6-30.34 7.55-39.53-3.57-3.43-9.6-5.9-15.37-5.9-4.67 0-8.24 1.23-11.54 3.29 3.85 2.33 7.96 6.73 10.98 10.57l-.27.27C77.75 35.73 68.83 31.62 61.3 31.62c-18.67 0-28.7 24.29-28.7 45.43 0 14.82 4.95 27.72 14 27.72 13.18 0 22.66-27.17 30.2-56h.28c-2.6 12.77-5.77 26.63-10.43 37.75 1.5 9.06 5.49 18.25 15.92 18.25m-21.41-30.2c3.98-18.1 8.1-28.95 11.39-30.33-3.02 9.88-6.86 22.1-11.12 30.34Zm0 0"/></svg>