<?xml version='1.0' encoding='UTF-8'?>
<svg xmlns="http://www.w3.org/2000/svg" width="141.73px" height="141.73px" x="0px" y="0px" viewBox="0 0 141.73 141.73" enable-background="new 0 0 141.73 141.73"><path fill="#fff" d="M76.23 103.43q6.14-3.4 7.88-11.36.74 7.42 4.53 10.38 3.78 2.97 9.56 2.97 5.25 0 9.08-1.35V74.22q-1.88.67-4.01 1.01-2.14.34-4.62.19-.37-4.95.6-10.35.98-5.4.98-12 0-7.88-2.66-13.73-2.66-5.84-9.08-9.11t-17.74-3.34q-18.45-.15-26.5 8.48-8.07 8.63-8 25.35h15.08q-.6-4.43 1.5-6.6 2.1-2.18 10.2-2.18 11.03 0 14.81 2.29a8.3 8.3 0 0 1 4.24 6.41q-18.08.07-28.13 2.4Q43.9 65.36 39.9 70.7t-4.01 14.48q0 10.43 6 16.05t17.17 5.62q11.03 0 17.18-3.41M54.4 75.61q2.47-1.1 9-1.54 6.53-.45 18.6-.08v2.48a6 6 0 0 1-2.17 2.81q-1.66 1.24-5.44 1.95-3.78.72-10.69.71-6.82 0-9.3-.97-2.47-.97-2.47-2.7 0-1.58 2.47-2.66"/></svg>