<?xml version="1.0" encoding="UTF-8"?>
<svg id="Layer_1" xmlns="http://www.w3.org/2000/svg" version="1.1" viewBox="0 0 141.7 141.7">
  <!-- Generator: Adobe Illustrator 29.0.1, SVG Export Plug-In . SVG Version: 2.1.0 Build 192)  -->
  <path d="M61.3,105.3c12.9,0,20.7-5.2,25.1-13h1.2l1.6,11.1h13.4v-46.1c0-18.6-9.4-26.8-31.1-26.8s-29.4,8.9-32.1,21.2l16.2,1.7c1.9-6.4,5.5-10.5,15.5-10.5s15.2,3.9,15.2,13.2v4.7l-25,2.7c-17.8,2-24.7,9.2-24.7,21.5s9,20.4,24.7,20.4M66.6,93.6c-8.9,0-13.1-3.4-13.1-10s3.4-9.5,13-10.6l19.9-2.4v6.3c0,9.9-7.6,16.7-19.8,16.7"/>
</svg>