<?xml version='1.0' encoding='UTF-8'?>
<svg xmlns="http://www.w3.org/2000/svg" width="141.73px" height="141.73px" x="0px" y="0px" viewBox="0 0 141.73 141.73" enable-background="new 0 0 141.73 141.73"><path fill="#fff" d="m87.95 50.11-7.79 10.34-2.12-.71-14.58 5.38L45.2 63.7l4.53 2.83-11.05 8.64-6.93 9.06 10.9 5.1-10.48 3.25 8.92.99 4.67 12.74 7.22 2.12 11.32 1.84 6.1-10.33 1.83 4.95 7.65-15 5.52 9.34 16.14 6.8-4.96-15.01 3.97-15.71 2.68-18.12-6.5-15.15 1.4-7.36-.13-1.84L81 30.72v-4.4l-20.67 2.84-13.16-2.4-7.36 8.06 12.45 12.32 10.2-8.35 11.32 4.67 2.69 2.97ZM66.29 66.53l22.36-1.7-10.19 16.85-6.51 5.38-3.25 1.55-3.12 1.42-6.09-.42-3.54-4.68 5.8-9.62 7.65 1Zm0 0"/></svg>