<?xml version="1.0" encoding="UTF-8"?>
<svg id="Layer_1" xmlns="http://www.w3.org/2000/svg" version="1.1" viewBox="0 0 141.7 141.7">
  <!-- Generator: Adobe Illustrator 29.0.1, SVG Export Plug-In . SVG Version: 2.1.0 Build 192)  -->
  <path d="M76.5,84.3l-31,.7c-10.6.2-19.2,4.2-19.2,13.8s7.8,15.3,14.8,15.3,18.8-8.9,24.3-13.6l11.8-10.1c4.2-3.6,7.7-2.8,7.7,3.8v6.2c0,7.3,4.7,13.6,14.6,13.6s16.5-10.3,13.9-23.8l-10.9-57.9c-1.6-8.2-6.5-13.3-13.7-13.3s-12.2,3.1-22.6,11.4l-24.2,19.2c-5.5,4.5-9.2,9.1-9.2,14.3,0,7.5,5.8,13.3,12.9,13.3s11.2-1.6,15-9.5l14.6-29.8c1.8-3.7,6.1-12.9,11.2-13.8,5-1,8.3,3.2,7.4,9.9l-5.2,42.6c-.7,6.1-5.3,7.5-12.1,7.6"/>
</svg>