<?xml version="1.0" encoding="UTF-8"?>
<svg xmlns="http://www.w3.org/2000/svg" xmlns:xlink="http://www.w3.org/1999/xlink" width="141.7" height="141.7" viewBox="0 0 141.7 141.7">
<path fill-rule="evenodd" fill="rgb(0%, 0%, 0%)" fill-opacity="1" d="M 89.867188 52.277344 L 81.699219 63.0625 L 79.5 62.332031 L 64.210938 67.984375 L 45.046875 66.519531 L 49.761719 69.449219 L 38.242188 78.457031 L 31.015625 87.984375 L 42.429688 93.324219 L 31.433594 96.675781 L 40.753906 97.722656 L 45.675781 111.023438 L 53.214844 113.222656 L 65.050781 115.105469 L 71.4375 104.320312 L 73.320312 109.453125 L 81.382812 93.746094 L 87.144531 103.484375 L 104.003906 110.605469 L 98.765625 94.898438 L 102.957031 78.457031 L 105.785156 59.503906 L 98.976562 43.585938 L 100.441406 35.839844 L 100.441406 33.953125 C 100.335938 33.953125 82.535156 31.753906 82.535156 31.753906 L 82.535156 27.144531 L 60.859375 30.078125 L 47.039062 27.566406 L 39.289062 36.046875 L 52.378906 48.925781 L 63.058594 40.234375 L 74.890625 45.15625 L 77.71875 48.300781 L 89.761719 52.171875 Z M 67.25 69.449219 L 90.703125 67.671875 L 80.023438 85.261719 L 73.214844 90.917969 L 69.867188 92.59375 L 66.621094 94.058594 L 60.234375 93.640625 L 56.566406 88.71875 L 62.640625 78.664062 L 70.703125 79.714844 L 67.457031 69.449219 Z M 67.25 69.449219 "/>
</svg>
