<?xml version='1.0' encoding='UTF-8'?>
<svg xmlns="http://www.w3.org/2000/svg" width="141.73px" height="141.73px" x="0px" y="0px" viewBox="0 0 141.73 141.73" enable-background="new 0 0 141.73 141.73"><path fill="#fff" d="M60.96 105.79c10.96 0 17.4-3.75 21.6-8.25h.6c3.46 5.25 10.36 8.25 18.6 8.25 11.4 0 17.1-4.2 17.1-11.85 0-4.95-2.7-8.1-6.6-8.1-1.94 0-3.3.45-4.94.45-2.1 0-3.6-1.05-3.6-3.45 0-7.35.74-19.5.74-26.4 0-18.3-12.9-28.8-34.34-28.8-25.2 0-40.95 18.45-40.95 42.15 0 23.1 12.45 36 31.8 36m6.6-19.65c-8.55 0-12.45-6.6-12.45-16.2 0-11.4 4.5-18.45 12.9-18.45 6.9 0 10.05 3.75 10.05 10.35l-.15 20.25c-2.55 2.25-5.4 4.05-10.35 4.05"/></svg>