<?xml version='1.0' encoding='UTF-8'?>
<svg xmlns="http://www.w3.org/2000/svg" width="141.73px" height="141.73px" x="0px" y="0px" viewBox="0 0 141.73 141.73" enable-background="new 0 0 141.73 141.73"><path fill="#fff" d="m76.49 84.27-31.03.72c-10.58.24-19.24 4.2-19.24 13.83 0 11.3 7.82 15.27 14.8 15.27 9.85 0 18.75-8.9 24.28-13.59L77.1 90.4c4.2-3.6 7.7-2.77 7.7 3.85v6.25c0 7.34 4.69 13.59 14.55 13.59 12.39 0 16.47-10.34 13.95-23.8l-10.95-57.86c-1.56-8.17-6.49-13.34-13.7-13.34-7.82 0-12.15 3.12-22.61 11.42L41.86 49.75c-5.54 4.45-9.15 9.14-9.15 14.31 0 7.46 5.78 13.35 12.87 13.35 4.45 0 11.19-1.56 15.03-9.5L75.16 38.1c1.8-3.73 6.14-12.87 11.2-13.83 5.04-.96 8.29 3.24 7.44 9.86L88.63 76.7c-.72 6.13-5.29 7.46-12.14 7.58"/></svg>