<?xml version="1.0" encoding="UTF-8"?>
<svg id="Layer_1" xmlns="http://www.w3.org/2000/svg" version="1.1" viewBox="0 0 141.7 141.7">
  <!-- Generator: Adobe Illustrator 29.0.1, SVG Export Plug-In . SVG Version: 2.1.0 Build 192)  -->
  <path d="M61,105.8c11,0,17.4-3.8,21.6-8.2h.6c3.5,5.2,10.4,8.2,18.6,8.2s17.1-4.2,17.1-11.8-2.7-8.1-6.6-8.1-3.3.4-4.9.4-3.6-1.1-3.6-3.4c0-7.3.7-19.5.7-26.4,0-18.3-12.9-28.8-34.3-28.8s-41,18.5-41,42.2,12.5,36,31.8,36M67.6,86.1c-8.5,0-12.5-6.6-12.5-16.2s4.5-18.5,12.9-18.5,10.1,3.8,10.1,10.4l-.2,20.2c-2.6,2.2-5.4,4.1-10.3,4.1"/>
</svg>