<?xml version="1.0" encoding="UTF-8"?>
<svg id="Layer_1" xmlns="http://www.w3.org/2000/svg" version="1.1" viewBox="0 0 141.7 141.7">
  <!-- Generator: Adobe Illustrator 29.0.1, SVG Export Plug-In . SVG Version: 2.1.0 Build 192)  -->
  <path d="M45.1,103.5c1.1,0,5.8-4.1,14.1-9.7,11.5-7.5,15.6-12.4,16.9-12.4s9.8,19.7,11.7,21.3c.6.5,11,3.2,13.2,3.2s1.1.2,1.1-1.1c0-4.7-4.1-14.9-4.1-30.3s3.2-26,3.2-27.2c0-2.2-14.8-19.5-17.8-19.5s-5.2,3-5.8,3c-.9,0-3.7-3.2-5.2-3.2s-2.4,2.1-3.5,3.2c-4.3,4.3-7.8,7.2-7.8,7.9s.4,2.5.4,2.5c0,1.6-21.7,25.5-21.7,49.7s3.2,12.6,5.4,12.6M64.4,52.3c.4,0,.9,3.4,1.7,5.7.2.7,1.1,2.7,1.1,4s-5.2,5-14.1,13.1c-.6.4-.8.9-.8,0,0-8.6,11.9-22.8,12.1-22.8"/>
</svg>