<?xml version='1.0' encoding='UTF-8'?>
<svg xmlns="http://www.w3.org/2000/svg" width="141.73px" height="141.73px" x="0px" y="0px" viewBox="0 0 141.73 141.73" enable-background="new 0 0 141.73 141.73"><path fill="#fff" d="m78.29 108.5 22.84-1.5-2.61-22.58c.27-7.44.82-19.69.82-29.74 0-10.6-.41-20.78-1.23-28.76a84 84 0 0 0-11.57-.69c-13.49 0-32.62 1.93-45.56 6.74 1.65 15.28 5.37 29.87 12.94 41.44-4.13 2.75-9.36 5.5-15.28 9.5-.96 13.2 5.78 25.73 20.51 25.73 8.53 0 15.28-4.54 19.14-14.59Zm-9.5-41.7-.14-.28C59.43 59.5 53.78 53.58 49.1 45.74c9.09-4.82 19.55-9.22 30-11.43V55.1c0 24.64-2.2 41.3-8.8 41.3-5.37 0-10.87-7.58-12.25-20.1 4.4-3.86 7.16-5.92 10.74-9.5"/></svg>