<?xml version='1.0' encoding='UTF-8'?>
<svg xmlns="http://www.w3.org/2000/svg" width="141.73px" height="141.73px" x="0px" y="0px" viewBox="0 0 141.73 141.73" enable-background="new 0 0 141.73 141.73"><path fill="#fff" d="M52.27 106.41a11.1 11.1 0 0 0 9.67-5.57q1.49-2.6 1.49-5.59a11.1 11.1 0 0 0-5.59-9.67q-2.6-1.49-5.57-1.49-2.99 0-5.59 1.5a11.08 11.08 0 0 0-5.58 9.67 11.1 11.1 0 0 0 5.58 9.67q2.6 1.48 5.59 1.48m0-18.6q2.97 0 5.57-1.49 2.6-1.48 4.1-4.09t1.49-5.58a11.1 11.1 0 0 0-5.59-9.67 11.1 11.1 0 0 0-11.16 0q-2.6 1.5-4.09 4.09-1.5 2.61-1.49 5.58 0 2.98 1.49 5.58 1.5 2.6 4.1 4.1 2.6 1.48 5.58 1.48m37.2 18.6q2.97 0 5.58-1.48 2.6-1.5 4.1-4.1 1.47-2.6 1.48-5.58a11.1 11.1 0 0 0-5.58-9.67q-2.61-1.49-5.58-1.49a11.1 11.1 0 0 0-9.68 5.58q-1.48 2.61-1.48 5.58a11.1 11.1 0 0 0 5.58 9.68q2.6 1.48 5.58 1.48m0-18.6q2.97 0 5.58-1.49 2.6-1.48 4.1-4.09 1.47-2.6 1.48-5.58a11.1 11.1 0 0 0-5.58-9.67 11 11 0 0 0-5.58-1.5 11.1 11.1 0 0 0-9.68 5.59q-1.48 2.61-1.48 5.58a11 11 0 0 0 5.58 9.67q2.6 1.5 5.58 1.5m0-18.6a11 11 0 0 0 9.67-5.6q1.5-2.59 1.49-5.57a11.1 11.1 0 0 0-5.58-9.67q-2.61-1.5-5.58-1.5a11.1 11.1 0 0 0-9.68 5.59q-1.48 2.61-1.48 5.58a11 11 0 0 0 5.58 9.67q2.6 1.5 5.58 1.5M70.87 50.6a11.1 11.1 0 0 0 9.67-5.58q1.5-2.61 1.49-5.58a11.1 11.1 0 0 0-5.58-9.68q-2.61-1.48-5.58-1.48a11 11 0 0 0-9.68 5.58q-1.5 2.61-1.49 5.58 0 2.97 1.5 5.58 1.48 2.6 4.09 4.1 2.6 1.48 5.58 1.48m-18.6 0a11.1 11.1 0 0 0 9.67-5.58q1.49-2.61 1.49-5.58a11.1 11.1 0 0 0-5.59-9.68q-2.6-1.48-5.57-1.48a11 11 0 0 0-9.68 5.58q-1.5 2.61-1.49 5.58 0 2.97 1.49 5.58 1.5 2.6 4.1 4.1 2.6 1.48 5.58 1.48m18.6 37.2q2.97 0 5.58-1.49 2.6-1.48 4.09-4.09 1.5-2.6 1.49-5.58a11.1 11.1 0 0 0-5.58-9.67 11.1 11.1 0 0 0-11.16 0q-2.6 1.5-4.1 4.09-1.5 2.61-1.49 5.58 0 2.98 1.5 5.58 1.48 2.6 4.09 4.1 2.6 1.48 5.58 1.48"/></svg>