<?xml version='1.0' encoding='UTF-8'?>
<svg xmlns="http://www.w3.org/2000/svg" width="141.73px" height="141.73px" x="0px" y="0px" viewBox="0 0 141.73 141.73" enable-background="new 0 0 141.73 141.73"><path fill="#fff" d="M101.46 52.63c0-16.95-5.54-24.15-28.64-24.15-6.75 0-22.05.6-31.65 1.35-.46 10.8 0 21.3 1.35 32.1l29.25-.9v7.5l-29.25-1.05c-2.1 4.05-3.45 10.65-3.45 17.25 0 15.75 7.5 21.15 15.45 21.15 9.44 0 14.25-7.65 16.94-20.1l-.14 18.6c9.9 1.2 19.95 1.2 29.85 0 .45-21.15.3-17.25.3-51.75"/></svg>