<?xml version='1.0' encoding='UTF-8'?>
<svg xmlns="http://www.w3.org/2000/svg" width="141.73px" height="141.73px" x="0px" y="0px" viewBox="0 0 141.73 141.73" enable-background="new 0 0 141.73 141.73"><path fill="#fff" d="m70.58 26.42-13.11 7.92C47.43 40.5 44.64 46.22 44.64 51.55c0 7.79 6.97 15.02 18.69 13.66v-.96c-8.1.96-12.7-4.78-12.7-10.38 0-3.82 1.96-7.5 6-9.56 3.77 1.23 12.55 6.28 14.5 7.92.15 3 .42 6.97.42 13.39l-30.4 8.19c.56 2.46.98 5.6.98 8.06 0 5.05-1.26 7.5-4.19 9.28v.69c6.97 2.59 16.04 10.37 18.97 14.6 4.18-5.32 9.77-11.05 14.5-14.74a76 76 0 0 1 15.63 14.75l18.55-18.03-1.11-1.23-3.21 3.42c-3.21-1.78-5.44-3.83-7.81-6.42-.42-4.24-.7-12.43-.7-17.62 0-18.43 1.4-23.21 5.86-25.12v-.69c-6.84-1.36-23.16-9.7-28.04-14.34m-1.4 64.19c-1.8-.96-4.73-3.15-6-4.92 0-5.33 0-11.06.28-16.66l8.1-1.78v1.64c0 17.07-.7 20.35-2.38 21.72"/></svg>