<?xml version='1.0' encoding='UTF-8'?>
<svg xmlns="http://www.w3.org/2000/svg" width="141.73px" height="141.73px" x="0px" y="0px" viewBox="0 0 141.73 141.73" enable-background="new 0 0 141.73 141.73"><path fill="#fff" d="M77.95 72.64c-.94-3.07-2.83-6.62-10.86-6.62-15.12 0-31.66 14.65-31.66 29.06 0 6.61 3.78 13.22 9.93 13.22 12.99.24 25.27-18.66 25.27-18.66h.24s-1.42 4.02-1.42 9.45c0 5.91 3.07 9.21 7.56 9.21 9.68 0 21.02-13.22 29.29-27.87l-1.18-.7c-8.03 12.75-18.66 26.69-28.35 26.69-2.83 0-4.02-1.66-4.02-3.78 0-4.02 4.96-11.82 8.27-16.54l16.3-23.62c4.73-6.85 8.74-16.06 8.74-21.5 0-8.27-5.43-16.06-14.64-16.06-11.34 0-30.24 14.17-30.47 25.99 0 3.07 1.41 4.72 3.78 4.72 3.77 0 10.15-7.8 10.15-13.7 0-2.84-1.65-6.38-1.65-6.38s1.18-1.89 4.72-4.25c4.5-2.84 9.69-4.96 13.23-4.96 6.14 0 8.74 3.07 8.74 7.32 0 4.02-2.6 10.63-8.97 20.08l-12.52 18.9Zm-8.27-4.73c3.55 0 6.38 2.13 6.38 5.9 0 4.5-3.77 11.35-9.45 18.2-6.84 8.5-14.64 14.64-20.07 14.64-2.6 0-4.02-2.12-4.02-5.2 0-4.25 4.49-12.28 9.68-19.84 5.2-7.56 11.1-13.7 17.48-13.7"/></svg>