<?xml version='1.0' encoding='UTF-8'?>
<svg xmlns="http://www.w3.org/2000/svg" width="141.73px" height="141.73px" x="0px" y="0px" viewBox="0 0 141.73 141.73" enable-background="new 0 0 141.73 141.73"><path fill="#fff" d="M62.45 100.21c11.17 0 17.94-4.51 21.7-11.23h1.05l1.38 9.56h11.63V58.65c0-16.09-8.16-23.2-26.9-23.2-18.7 0-25.42 7.7-27.79 18.34l14 1.45c1.63-5.56 4.75-9.1 13.43-9.1 9.15 0 13.14 3.37 13.14 11.41v4.06l-21.64 2.37c-15.4 1.73-21.36 7.93-21.36 18.58 0 11.46 7.81 17.65 21.36 17.65m4.57-10.07c-7.7 0-11.35-2.95-11.35-8.62 0-5.1 2.95-8.22 11.23-9.2l17.2-2.09v5.44c0 8.57-6.6 14.47-17.08 14.47"/></svg>