<?xml version='1.0' encoding='UTF-8'?>
<svg xmlns="http://www.w3.org/2000/svg" width="141.73px" height="141.73px" x="0px" y="0px" viewBox="0 0 141.73 141.73" enable-background="new 0 0 141.73 141.73"><path fill="#fff" d="M103.05 79.34c-1.77-.6-2.07-1.63-2.07-2.96l.15-12.84c.15-10.78-2.66-22-16.98-28.94L72.5 29c-3.1-1.49-5.76-2.52-8.56-2.52a8.6 8.6 0 0 0-8.72 8.56c0 1.77.45 3.1 1.48 4.73.45.73.74 1.18.74 1.92 0 .88-.59 1.62-2.22 2.21-16.38 5.76-22.14 20.23-22.14 31.3 0 15.65 9.15 28.05 23.92 28.05 8.41 0 13.14-3.7 17.27-9.45.89-1.18 1.63-2.07 3.1-2.07 1.62 0 2.51 1.48 2.96 2.96 1.62 5.31 5.3 8.56 10.77 8.56 4.73 0 6.94-2.21 7.98-3.25l6.34-6.5c1.63-1.77 3.25-3.68 3.25-6.64 0-3.1-1.77-6.34-5.6-7.52m-35.6 5.75A16.26 16.26 0 0 1 51.09 68.7a16.3 16.3 0 0 1 16.39-16.53C76.77 52.17 84 59.4 84 68.7a16.3 16.3 0 0 1-16.54 16.4"/></svg>