<?xml version="1.0" encoding="UTF-8"?>
<svg id="Layer_1" xmlns="http://www.w3.org/2000/svg" version="1.1" viewBox="0 0 141.7 141.7">
  <!-- Generator: Adobe Illustrator 29.0.1, SVG Export Plug-In . SVG Version: 2.1.0 Build 192)  -->
  <path d="M70.5,106.4c3-1.9,5.3-4.6,6.9-8.3h-.9c.5,2.7,1.5,4.8,3,6.4,1.5,1.6,3.4,2.7,5.4,3.3,2.2.7,4.5,1,7.1,1,1.2,0,2.3,0,3.5-.2l3.7-.4v-14.9h-1.8c-1.5,0-2.4-.3-2.9-1-.5-.8-.7-1.8-.7-2.7v-40.5c0-7.2-2.3-12.9-6.8-17.1-4.5-4.2-10.5-6.2-18-6.2s-9,.9-12.6,2.8c-3.5,1.7-6.5,4.3-8.7,7.5-2.1,3-3.2,6.6-3.1,10.3,0,2.7.5,5,1.4,7,.8,1.9,2.2,3.5,3.9,4.6,1.7,1.1,3.7,1.7,5.8,1.6,1.8,0,3.4-.4,4.9-1.1,1.4-.7,2.6-1.8,3.5-3.2.8-1.4,1.3-3.1,1.3-4.7,0-1.5-.2-3-.7-4.4-.4-1.2-1-2.3-1.9-3.3.4-.9.9-1.6,1.7-2.1.8-.5,1.7-.7,2.7-.7,1.5,0,2.8.6,4,1.8,1.2,1.2,1.8,3.4,1.8,6.5s-.7,5.8-2.1,7.7c-1.5,1.9-3.3,3.5-5.5,4.7-2.3,1.3-4.7,2.5-7.2,3.7-2.6,1.2-5,2.7-7.2,4.5-2.4,1.9-4.2,4.4-5.5,7.2-1.4,3-2.2,6.9-2.2,11.8s1.6,11.8,4.7,15.6c3.2,3.7,7.3,5.6,12.6,5.6s6.9-.9,9.8-2.8M65.8,92.3c-.7-1.5-1-3.7-1-6.7s.2-4.3.8-6c.5-1.6,1.2-3.2,2-4.6.8-1.3,1.7-2.5,2.7-3.6.9-1,1.9-2,2.8-2.9v21.3c0,1.4-.4,2.5-1.1,3.4-.7.9-1.8,1.3-3,1.3-1.5,0-2.5-.7-3.2-2.2"/>
</svg>