<?xml version='1.0' encoding='UTF-8'?>
<svg xmlns="http://www.w3.org/2000/svg" width="141.73px" height="141.73px" x="0px" y="0px" viewBox="0 0 141.73 141.73" enable-background="new 0 0 141.73 141.73"><path fill="#fff" d="M55.95 104.62c9.32 0 16.84-4.56 21.34-10.83-.14 3.17.12 6.8.32 8.92H97.7l.47-2.25c-1.46-4.03-1.06-9.97.72-18.43l4.5-21.07c4.09-19.28-7.87-29.85-28.2-29.85-20.22 0-33.03 9.44-34.95 23.84h21.14c.99-5.74 5.54-9.84 12.88-9.84 6.07 0 9.77 3.17 9.77 7.8 0 5.54-4.62 6.8-10.7 7.26L58.99 61.3c-15.59 1.2-25.23 8.72-25.23 22.33 0 11.82 8.19 21 22.19 21m-1.19-22.59c0-5.94 5.15-7.99 11.56-8.78l5.95-.73q2.87-.4 4.95-.92c3.37-.8 4.89-2.12 4.89-5.15v-1.66a7.08 7.08 0 0 1 14.13 0c0 3.9-3.17 7.14-7.07 7.14h-4.55a3.4 3.4 0 0 0-3.57 2.7l-.2.73c-2.44 8.98-8.72 14.73-16.7 14.73-5.89 0-9.39-3.23-9.39-8.06"/></svg>