<?xml version='1.0' encoding='UTF-8'?>
<svg xmlns="http://www.w3.org/2000/svg" width="141.73px" height="141.73px" x="0px" y="0px" viewBox="0 0 141.73 141.73" enable-background="new 0 0 141.73 141.73"><path fill="#fff" d="M97.12 87.29V49.94c0-12.9-7.5-19.5-20.7-19.5-8.4 0-17.1 2.85-24.6 7.2-7.36 4.35-12.9 10.35-14.25 18h20.1V37.8c1.8-.6 4.04-.9 6.15-.9 7.8 0 12.45 3.3 12.45 11.55v13.35c-6.3 1.5-14.1 3.6-22.35 7.2-9.6 4.2-15.9 9.75-15.9 18.6 0 10.35 7.5 17.1 18.15 17.1s17.1-5.7 20.54-12.15c1.8 5.7 6.9 11.25 15.6 11.25h12.9v-16.5Zm-28.8 6c-6 0-9.6-4.5-9.6-12.75 0-6.15 2.1-9.3 5.7-11.4 3.45-1.95 7.35-3.3 11.85-4.5V90.6a12.3 12.3 0 0 1-7.95 2.7"/></svg>