<?xml version="1.0" encoding="UTF-8"?>
<svg id="Layer_1" xmlns="http://www.w3.org/2000/svg" version="1.1" viewBox="0 0 141.7 141.7">
  <!-- Generator: Adobe Illustrator 29.1.0, SVG Export Plug-In . SVG Version: 2.1.0 Build 142)  -->
  <path id="f" d="M31.437,68.859c.004,20.663,16.759,37.409,37.422,37.405h0c6.071,0,11.756-1.479,16.885-4.044v2.437h20.528V33.07h-20.528v2.428c-5.13-2.565-10.807-4.061-16.885-4.061-20.663-.01-37.421,16.733-37.43,37.396v.026M87.908,102.493V35.215h16.219v67.277h-16.219ZM51.973,68.859c0-9.319,7.575-16.894,16.885-16.894,9.283-.042,16.843,7.448,16.886,16.731v.163c0,9.319-7.43,16.877-16.885,16.877-9.32-.004-16.876-7.557-16.885-16.877"/>
</svg>