<?xml version="1.0" encoding="UTF-8"?>
<svg xmlns="http://www.w3.org/2000/svg" xmlns:xlink="http://www.w3.org/1999/xlink" width="141.7" height="141.7" viewBox="0 0 141.7 141.7">
<path fill-rule="evenodd" fill="rgb(0%, 0%, 0%)" fill-opacity="1" d="M 30.042969 70.777344 C 30.046875 92.882812 47.972656 110.800781 70.082031 110.796875 C 76.578125 110.796875 82.660156 109.214844 88.144531 106.46875 L 88.144531 109.078125 L 110.109375 109.078125 L 110.109375 32.488281 L 88.144531 32.488281 L 88.144531 35.085938 C 82.660156 32.339844 76.585938 30.742188 70.082031 30.742188 C 47.972656 30.730469 30.046875 48.644531 30.035156 70.75 L 30.035156 70.777344 Z M 90.460938 106.761719 L 90.460938 34.78125 L 107.8125 34.78125 L 107.8125 106.761719 Z M 52.015625 70.777344 C 52.015625 60.808594 60.121094 52.703125 70.082031 52.703125 C 80.011719 52.65625 88.101562 60.671875 88.144531 70.605469 L 88.144531 70.777344 C 88.144531 80.746094 80.199219 88.832031 70.082031 88.832031 C 60.109375 88.828125 52.027344 80.75 52.015625 70.777344 Z M 52.015625 70.777344 "/>
</svg>
