<?xml version="1.0" encoding="UTF-8"?>
<svg xmlns="http://www.w3.org/2000/svg" xmlns:xlink="http://www.w3.org/1999/xlink" width="141.7" height="141.7" viewBox="0 0 141.7 141.7">
<path fill-rule="nonzero" fill="rgb(0%, 0%, 0%)" fill-opacity="1" d="M 43.828125 92.601562 C 43.828125 96.960938 45.210938 100.289062 47.980469 102.585938 C 50.746094 104.882812 53.957031 106.03125 57.609375 106.03125 C 62.558594 106.03125 66.976562 104.679688 70.863281 101.96875 C 74.75 99.257812 78.046875 95.960938 80.757812 92.074219 C 81.464844 87.949219 82.230469 83.855469 83.054688 79.792969 C 83.878906 75.726562 84.882812 71.636719 86.058594 67.511719 C 83.347656 68.101562 80.699219 68.632812 78.109375 69.101562 C 75.515625 69.574219 72.863281 70.101562 70.15625 70.691406 C 67.210938 71.398438 64.175781 72.253906 61.058594 73.253906 C 57.933594 74.257812 55.105469 75.609375 52.574219 77.316406 C 50.039062 79.027344 47.949219 81.117188 46.300781 83.589844 C 44.648438 86.0625 43.828125 89.070312 43.828125 92.601562 M 49.128906 36.058594 C 53.605469 32.996094 58.167969 30.667969 62.824219 29.074219 C 67.476562 27.484375 72.453125 26.691406 77.753906 26.691406 C 85.175781 26.691406 91.097656 28.519531 95.515625 32.167969 C 99.933594 35.820312 102.140625 40.535156 102.140625 46.304688 C 102.140625 48.777344 101.875 51.3125 101.34375 53.902344 C 100.816406 56.496094 100.371094 58.558594 100.019531 60.089844 L 94.894531 81.644531 C 93.953125 85.417969 93.304688 88.539062 92.949219 91.011719 C 92.597656 93.488281 92.421875 95.605469 92.421875 97.375 C 92.421875 99.492188 92.976562 101.351562 94.097656 102.941406 C 95.21875 104.53125 96.953125 105.324219 99.3125 105.324219 C 100.371094 105.324219 101.285156 105.179688 102.050781 104.882812 C 102.816406 104.589844 103.492188 104.207031 104.085938 103.734375 L 104.96875 107.445312 C 102.960938 108.742188 100.902344 109.742188 98.785156 110.449219 C 96.660156 111.15625 94.367188 111.511719 91.890625 111.511719 C 88.238281 111.511719 85.441406 110.539062 83.496094 108.59375 C 81.554688 106.652344 80.464844 103.855469 80.230469 100.199219 C 76.695312 103.972656 72.65625 107.121094 68.125 109.65625 C 63.589844 112.1875 58.433594 113.453125 52.664062 113.453125 C 50.070312 113.453125 47.476562 113.101562 44.886719 112.394531 C 42.296875 111.6875 39.96875 110.539062 37.90625 108.949219 C 35.84375 107.355469 34.164062 105.355469 32.871094 102.941406 C 31.574219 100.527344 30.929688 97.789062 30.929688 94.722656 C 30.929688 89.070312 32.398438 84.472656 35.34375 80.941406 C 38.289062 77.40625 41.824219 74.609375 45.949219 72.546875 C 50.070312 70.488281 54.308594 68.953125 58.671875 67.953125 C 63.027344 66.953125 66.5625 66.15625 69.273438 65.566406 C 71.628906 65.097656 74.160156 64.65625 76.871094 64.242188 C 79.578125 63.828125 81.757812 63.269531 83.410156 62.5625 C 85.882812 61.503906 87.441406 59.675781 88.089844 57.085938 C 88.738281 54.496094 89.066406 51.960938 89.066406 49.484375 C 89.066406 44.183594 87.355469 40.269531 83.9375 37.734375 C 80.519531 35.203125 76.339844 33.9375 71.394531 33.9375 C 66.445312 33.9375 62.230469 35.027344 58.757812 37.203125 C 55.285156 39.386719 51.957031 42.183594 48.773438 45.597656 L 46.65625 45.597656 Z M 49.128906 36.058594 "/>
</svg>
