<?xml version="1.0" encoding="UTF-8"?>
<svg id="Layer_1" xmlns="http://www.w3.org/2000/svg" version="1.1" viewBox="0 0 141.7 141.7">
  <!-- Generator: Adobe Illustrator 29.2.1, SVG Export Plug-In . SVG Version: 2.1.0 Build 116)  -->
  <path d="M52.973,39.02c3.799-2.599,7.674-4.575,11.625-5.925,3.949-1.35,8.173-2.025,12.673-2.025,6.301,0,11.326,1.552,15.076,4.65,3.75,3.101,5.625,7.102,5.625,12,0,2.1-.225,4.252-.676,6.45-.449,2.201-.824,3.952-1.125,5.25l-4.35,18.299c-.801,3.202-1.35,5.851-1.65,7.95-.299,2.101-.449,3.9-.449,5.4,0,1.8.473,3.375,1.424,4.725.949,1.351,2.424,2.025,4.426,2.025.9,0,1.674-.124,2.324-.375.65-.249,1.225-.574,1.727-.976l.75,3.15c-1.703,1.102-3.451,1.95-5.25,2.55-1.801.601-3.75.9-5.852.9-3.1,0-5.475-.825-7.125-2.476-1.648-1.649-2.574-4.023-2.773-7.125-3,3.202-6.428,5.876-10.275,8.025-3.852,2.149-8.227,3.225-13.125,3.225-2.201,0-4.402-.3-6.6-.899-2.201-.601-4.177-1.575-5.925-2.925-1.75-1.351-3.176-3.05-4.275-5.101-1.102-2.048-1.65-4.373-1.65-6.975,0-4.8,1.249-8.7,3.75-11.7,2.499-3,5.499-5.374,9-7.125,3.499-1.749,7.099-3.049,10.8-3.9,3.699-.848,6.699-1.523,9-2.025,2-.398,4.148-.773,6.449-1.125,2.301-.349,4.148-.825,5.551-1.425,2.1-.9,3.424-2.449,3.975-4.65.549-2.199.826-4.35.826-6.45,0-4.5-1.451-7.823-4.352-9.975-2.9-2.149-6.449-3.225-10.648-3.225s-7.777.926-10.726,2.775c-2.949,1.852-5.773,4.226-8.474,7.125h-1.8l2.1-8.1ZM48.473,87.02c0,3.7,1.174,6.524,3.525,8.475,2.348,1.95,5.075,2.925,8.174,2.925,4.201,0,7.951-1.148,11.25-3.45,3.301-2.299,6.1-5.1,8.4-8.399.6-3.499,1.25-6.976,1.949-10.425.699-3.45,1.551-6.923,2.551-10.425-2.301.502-4.551.952-6.75,1.35-2.201.401-4.451.851-6.75,1.35-2.5.6-5.076,1.327-7.725,2.175-2.65.851-5.051,2.001-7.201,3.45-2.15,1.451-3.925,3.226-5.324,5.325-1.401,2.1-2.1,4.65-2.1,7.65Z"/>
</svg>