<?xml version="1.0" encoding="UTF-8"?>
<svg id="Layer_1" xmlns="http://www.w3.org/2000/svg" version="1.1" viewBox="0 0 141.7 141.7">
  <!-- Generator: Adobe Illustrator 29.2.1, SVG Export Plug-In . SVG Version: 2.1.0 Build 116)  -->
  <path d="M68.94,110.215c-9.381,0-16.821-.809-25.555-7.44-10.352-7.764-16.174-19.732-16.174-32.51,0-23.13,19.732-41.568,41.567-41.568,12.939,0,22.806,3.72,30.731,12.131,8.896,9.381,10.675,18.762,10.675,31.701v37.687h-13.263v-36.393c0-5.014-.161-7.925-1.617-12.777-3.396-11.16-13.587-18.924-25.393-18.924-18.277,0-29.114,13.586-29.114,27.981,0,16.175,12.454,27.819,30.568,27.819h6.309v12.293h-8.734ZM70.719,94.849c-15.527,0-26.364-10.837-26.364-25.07,0-12.293,10.19-24.1,25.232-24.1,10.674,0,19.409,6.308,22.481,16.174,1.456,4.367,1.456,6.955,1.456,11.646v36.716h-12.454v-36.393c0-10.675-4.367-16.174-12.13-16.174-8.087,0-11.807,4.69-11.807,13.748,0,5.499,5.66,10.352,13.423,10.352h7.117v13.102h-6.955Z"/>
</svg>