<?xml version="1.0" encoding="UTF-8"?>
<svg xmlns="http://www.w3.org/2000/svg" xmlns:xlink="http://www.w3.org/1999/xlink" width="141.7" height="141.7" viewBox="0 0 141.7 141.7">
<path fill-rule="nonzero" fill="rgb(0%, 0%, 0%)" fill-opacity="1" d="M 72.203125 95.039062 C 56.867188 95.039062 46.164062 84.335938 46.164062 70.277344 C 46.164062 58.136719 56.230469 46.472656 71.089844 46.472656 C 81.628906 46.472656 90.257812 52.703125 93.292969 62.449219 C 94.730469 66.761719 94.730469 69.320312 94.730469 73.949219 L 94.730469 110.214844 L 82.429688 110.214844 L 82.429688 74.269531 C 82.429688 63.726562 78.117188 58.296875 70.449219 58.296875 C 62.460938 58.296875 58.785156 62.929688 58.785156 71.875 C 58.785156 77.304688 64.375 82.097656 72.042969 82.097656 L 79.074219 82.097656 L 79.074219 95.039062 Z M 70.449219 110.214844 C 61.183594 110.214844 53.832031 109.414062 45.207031 102.867188 C 34.984375 95.199219 29.234375 83.375 29.234375 70.757812 C 29.234375 47.910156 48.722656 29.699219 70.289062 29.699219 C 83.066406 29.699219 92.8125 33.375 100.640625 41.683594 C 109.425781 50.945312 111.183594 60.210938 111.183594 72.992188 L 111.183594 110.214844 L 98.082031 110.214844 L 98.082031 74.269531 C 98.082031 69.320312 97.925781 66.445312 96.488281 61.652344 C 93.132812 50.628906 83.066406 42.960938 71.40625 42.960938 C 53.355469 42.960938 42.652344 56.378906 42.652344 70.597656 C 42.652344 86.570312 54.953125 98.074219 72.84375 98.074219 L 79.074219 98.074219 L 79.074219 110.214844 Z M 70.449219 110.214844 "/>
</svg>
