<?xml version="1.0" encoding="UTF-8"?>
<svg xmlns="http://www.w3.org/2000/svg" xmlns:xlink="http://www.w3.org/1999/xlink" width="141.7" height="141.7" viewBox="0 0 141.7 141.7">
<path fill-rule="evenodd" fill="rgb(0%, 0%, 0%)" fill-opacity="1" d="M 99.867188 33.894531 C 98.710938 30.417969 94.652344 30.417969 92.042969 30.996094 C 84.988281 31.769531 79.964844 36.695312 74.652344 41.140625 C 71.753906 43.652344 69.046875 45.488281 66.246094 47.808594 C 64.894531 48.96875 63.539062 50.128906 62.1875 51.09375 C 60.640625 52.382812 59.09375 53.605469 57.550781 54.765625 C 54.652344 57.082031 52.914062 59.789062 49.53125 61.816406 C 46.050781 63.75 43.925781 66.746094 40.929688 69.835938 C 38.226562 72.542969 35.90625 75.539062 32.71875 77.855469 C 29.433594 80.367188 27.019531 81.140625 27.019531 86.457031 C 27.148438 87.613281 27.277344 88.839844 27.40625 90.125 C 27.597656 92.445312 29.335938 92.253906 29.917969 93.992188 C 30.882812 96.308594 29.335938 100.078125 29.335938 102.78125 C 29.335938 110.417969 37.742188 113.121094 43.636719 109.449219 C 46.34375 107.902344 49.722656 106.746094 52.234375 104.523438 C 53.78125 103.363281 54.75 101.816406 56.101562 100.851562 C 57.644531 99.5 59.191406 98.917969 60.738281 97.566406 C 63.636719 95.054688 66.4375 92.445312 68.949219 89.933594 C 71.847656 87.226562 74.652344 84.714844 78.324219 83.847656 C 80.835938 89.351562 79.289062 93.023438 82.960938 97.277344 C 86.824219 101.914062 92.71875 103.171875 96.390625 102.78125 C 99.289062 102.589844 100.929688 102.398438 103.25 101.042969 C 105.761719 99.691406 107.5 96.792969 109.722656 95.539062 C 113.007812 93.796875 113.78125 91.480469 113.78125 89.257812 C 113.78125 87.035156 113.203125 84.523438 112.429688 82.203125 C 108.757812 84.714844 105.761719 86.839844 102.863281 86.457031 C 98.613281 85.683594 96.582031 81.816406 96.199219 78.4375 C 95.808594 74.570312 96.003906 72.15625 96.003906 68.292969 C 96.003906 64.425781 96.390625 60.464844 90.882812 60.464844 C 84.023438 60.273438 76.96875 69.644531 71.558594 74.378906 C 67.695312 77.46875 65.28125 79.691406 61.414062 82.398438 C 57.066406 85.488281 53.976562 88.675781 50.882812 89.0625 C 49.335938 87.710938 50.691406 86.359375 51.464844 85.390625 C 52.492188 83.976562 53.589844 82.558594 54.75 81.140625 C 57.453125 77.855469 60.640625 75.246094 62.765625 72.929688 C 68.273438 67.226562 72.71875 62.011719 78.417969 56.890625 C 84.3125 51.578125 89.722656 45.972656 94.265625 42.011719 C 97.355469 39.113281 100.542969 36.40625 99.769531 33.796875 Z M 99.867188 33.894531 "/>
</svg>
