<?xml version="1.0" encoding="UTF-8"?>
<svg xmlns="http://www.w3.org/2000/svg" xmlns:xlink="http://www.w3.org/1999/xlink" width="141.7" height="141.7" viewBox="0 0 141.7 141.7">
<path fill-rule="evenodd" fill="rgb(0%, 0%, 0%)" fill-opacity="1" d="M 41.671875 110.597656 C 42.875 110.597656 48.011719 106.113281 57.089844 99.988281 C 69.664062 91.789062 74.148438 86.429688 75.570312 86.429688 C 76.992188 86.429688 86.285156 107.972656 88.363281 109.722656 C 89.019531 110.269531 100.390625 113.21875 102.796875 113.21875 C 105.203125 113.21875 104 113.4375 104 112.019531 C 104 106.878906 99.515625 95.726562 99.515625 78.886719 C 99.515625 62.042969 103.015625 50.453125 103.015625 49.140625 C 103.015625 46.734375 86.832031 27.820312 83.550781 27.820312 C 80.269531 27.820312 77.867188 31.097656 77.207031 31.097656 C 76.222656 31.097656 73.164062 27.601562 71.523438 27.601562 C 69.882812 27.601562 68.898438 29.894531 67.695312 31.097656 C 62.992188 35.800781 59.167969 38.972656 59.167969 39.738281 C 59.167969 40.503906 59.601562 42.472656 59.601562 42.472656 C 59.601562 44.222656 35.875 70.355469 35.875 96.816406 C 35.875 123.28125 39.375 110.597656 41.78125 110.597656 Z M 62.773438 54.609375 C 63.210938 54.609375 63.757812 58.328125 64.632812 60.84375 C 64.851562 61.609375 65.835938 63.792969 65.835938 65.214844 C 65.835938 66.636719 60.152344 70.683594 50.417969 79.539062 C 49.761719 79.976562 49.542969 80.523438 49.542969 79.539062 C 49.542969 70.136719 62.554688 54.609375 62.773438 54.609375 "/>
</svg>
