<?xml version="1.0" encoding="UTF-8"?>
<svg xmlns="http://www.w3.org/2000/svg" xmlns:xlink="http://www.w3.org/1999/xlink" width="141.7" height="141.7" viewBox="0 0 141.7 141.7">
<path fill-rule="nonzero" fill="rgb(0%, 0%, 0%)" fill-opacity="1" d="M 109.222656 41.070312 C 105.71875 48.695312 103.039062 61.265625 103.039062 71.777344 C 103.039062 82.289062 107.164062 87.027344 118.703125 90.324219 L 92.53125 102.484375 C 82.226562 96.507812 81.605469 88.265625 80.988281 79.8125 C 69.449219 94.652344 57.085938 102.070312 43.484375 102.070312 C 36.890625 102.070312 26.996094 96.507812 26.996094 84.761719 C 26.996094 64.359375 54.816406 39.21875 79.753906 39.21875 C 83.257812 39.21875 87.582031 39.628906 91.085938 40.660156 L 77.691406 59.617188 C 73.777344 59 69.039062 58.175781 65.121094 58.175781 C 50.902344 58.175781 42.867188 62.503906 42.867188 68.480469 C 42.867188 75.691406 51.519531 81.667969 56.261719 81.667969 C 75.839844 81.667969 87.171875 69.511719 91.5 44.78125 Z M 109.222656 41.070312 "/>
</svg>
