<?xml version="1.0" encoding="UTF-8"?>
<svg xmlns="http://www.w3.org/2000/svg" xmlns:xlink="http://www.w3.org/1999/xlink" width="141.7" height="141.7" viewBox="0 0 141.7 141.7">
<path fill-rule="nonzero" fill="rgb(0%, 0%, 0%)" fill-opacity="1" d="M 53.78125 89.078125 C 53.78125 92.003906 54.714844 94.355469 56.578125 96.132812 C 58.441406 97.910156 60.75 98.800781 63.503906 98.800781 C 68.152344 98.800781 72.796875 96.679688 77.441406 92.433594 L 77.441406 71.265625 C 71.535156 73.277344 66.902344 75.167969 63.546875 76.945312 C 60.191406 78.726562 57.726562 80.53125 56.148438 82.367188 C 54.570312 84.203125 53.78125 86.441406 53.78125 89.078125 M 66.6875 28.675781 C 77.011719 28.675781 84.898438 30.871094 90.347656 35.257812 C 95.796875 39.648438 98.523438 45.773438 98.523438 53.628906 L 98.523438 92.949219 C 98.523438 95.992188 99.753906 97.511719 102.222656 97.511719 C 103.253906 97.511719 104.703125 97.066406 106.566406 96.175781 C 108.429688 95.285156 109.992188 94.269531 111.253906 93.121094 L 111.253906 105.339844 C 103.855469 109.871094 97.085938 112.136719 90.949219 112.136719 C 87.164062 112.136719 84.253906 111.503906 82.21875 110.242188 C 80.179688 108.980469 78.761719 106.746094 77.960938 103.53125 C 69.871094 109.269531 61.753906 112.136719 53.609375 112.136719 C 47.816406 112.136719 42.839844 110.1875 38.683594 106.285156 C 34.523438 102.386719 32.445312 97.710938 32.445312 92.261719 C 32.445312 85.320312 34.507812 79.839844 38.640625 75.828125 C 42.769531 71.816406 49.996094 68.3125 60.320312 65.332031 L 77.441406 60.339844 L 77.441406 56.640625 C 77.441406 48.785156 72.679688 44.851562 63.160156 44.851562 C 58.285156 44.851562 53.4375 45.972656 48.621094 48.210938 C 43.800781 50.445312 39.414062 53.746094 35.457031 58.105469 L 35.457031 39.089844 C 44.230469 32.148438 54.640625 28.675781 66.6875 28.675781 "/>
</svg>
