<?xml version="1.0" encoding="UTF-8"?>
<svg id="Layer_1" xmlns="http://www.w3.org/2000/svg" version="1.1" viewBox="0 0 141.7 141.7">
  <!-- Generator: Adobe Illustrator 29.2.1, SVG Export Plug-In . SVG Version: 2.1.0 Build 116)  -->
  <path d="M67.93,28.677c9.841,0,17.355,2.091,22.549,6.274,5.194,4.183,7.791,10.017,7.791,17.507v37.473c0,2.898,1.174,4.346,3.525,4.346.984,0,2.364-.423,4.141-1.271,1.775-.848,3.266-1.818,4.469-2.912v11.645c-7.052,4.318-13.503,6.476-19.351,6.476-3.608,0-6.383-.602-8.323-1.804-1.941-1.202-3.294-3.332-4.058-6.396-7.708,5.467-15.444,8.2-23.205,8.2-5.522,0-10.265-1.857-14.226-5.575-3.964-3.716-5.945-8.172-5.945-13.366,0-6.614,1.968-11.835,5.904-15.662,3.936-3.824,10.823-7.161,20.664-10.004l16.317-4.755v-3.525c0-7.49-4.538-11.235-13.611-11.235-4.648,0-9.266,1.066-13.858,3.199s-8.774,5.276-12.545,9.429v-18.121c8.363-6.614,18.285-9.923,29.764-9.923ZM55.63,86.24c0,2.788.888,5.031,2.666,6.724,1.775,1.694,3.977,2.542,6.6,2.542,4.428,0,8.856-2.022,13.283-6.069v-20.171c-5.63,1.914-10.044,3.718-13.242,5.412-3.198,1.696-5.549,3.417-7.052,5.166-1.504,1.749-2.256,3.882-2.256,6.396Z"/>
</svg>