<?xml version="1.0" encoding="UTF-8"?>
<svg id="Layer_1" xmlns="http://www.w3.org/2000/svg" version="1.1" viewBox="0 0 141.7 141.7">
  <!-- Generator: Adobe Illustrator 29.0.1, SVG Export Plug-In . SVG Version: 2.1.0 Build 192)  -->
  <path d="M33.5,83.2c-.4,2.6-.6,5.1-.6,7.4,0,7.9,4.7,12.8,11,12.8s23.2-6.1,29.2-24.9c-14.8,3.2-29,4.8-38.2,4.8s-1,0-1.4-.1ZM78,77.4c-.9,5.3-1.5,10.4-1.5,14.6,0,8.4,2.5,11.4,9.4,11.4s11.8-3.2,15.1-5.6l3.6-26.1-3.5-1.5c-7.2,2.9-15.3,5.2-23.2,7.1ZM74.9,71.1c-.5,2.7-1.1,5.1-1.9,7.4l5-1.1c.4-2.4.9-4.8,1.4-7.3-1.5.5-3,.7-4.5,1ZM28.4,77.7c0,3.5,2.4,5.2,5.1,5.6.9-5.7,2.7-11.7,5.3-17.5-6.3,4-10.4,8.2-10.4,11.9ZM79.4,70.1c12.4-4.1,25.8-18,30.3-33.9l-9.8-6-9.1.4c-.4.9-.7,2-1.2,3.4-2.5-2.2-5.8-4-10.2-4-16.3,0-32.3,17-40.6,35.7,11.9-7.6,31.6-14.3,45.7-15.8-1.7,6.2-3.6,13.3-5.1,20.1Z"/>
</svg>