<?xml version="1.0" encoding="UTF-8"?>
<svg xmlns="http://www.w3.org/2000/svg" xmlns:xlink="http://www.w3.org/1999/xlink" width="141.7" height="141.7" viewBox="0 0 141.7 141.7">
<path fill-rule="evenodd" fill="rgb(0%, 0%, 0%)" fill-opacity="1" d="M 31.492188 88.597656 C 31.058594 91.417969 30.839844 94.128906 30.839844 96.621094 C 30.839844 105.191406 35.9375 110.503906 42.773438 110.503906 C 49.605469 110.503906 67.933594 103.890625 74.441406 83.5 C 58.390625 86.96875 42.988281 88.703125 33.011719 88.703125 C 23.03125 88.703125 31.925781 88.703125 31.492188 88.597656 M 79.757812 82.304688 C 78.78125 88.054688 78.128906 93.585938 78.128906 98.140625 C 78.128906 107.25 80.84375 110.503906 88.324219 110.503906 C 95.808594 110.503906 101.125 107.035156 104.703125 104.429688 L 108.609375 76.125 L 104.8125 74.496094 C 97.003906 77.640625 88.21875 80.136719 79.648438 82.195312 Z M 76.394531 75.472656 C 75.851562 78.402344 75.203125 81.003906 74.335938 83.5 L 79.757812 82.304688 C 80.191406 79.703125 80.734375 77.097656 81.277344 74.386719 C 79.648438 74.929688 78.023438 75.148438 76.394531 75.472656 M 25.960938 82.632812 C 25.960938 86.425781 28.5625 88.269531 31.492188 88.703125 C 32.46875 82.523438 34.421875 76.015625 37.238281 69.722656 C 30.40625 74.0625 25.960938 78.617188 25.960938 82.632812 M 81.277344 74.386719 C 94.726562 69.941406 109.257812 54.863281 114.140625 37.617188 L 103.511719 31.113281 L 93.640625 31.546875 C 93.207031 32.523438 92.882812 33.714844 92.339844 35.234375 C 89.628906 32.847656 86.046875 30.894531 81.277344 30.894531 C 63.597656 30.894531 46.242188 49.332031 37.238281 69.613281 C 50.148438 61.371094 71.515625 54.105469 86.808594 52.476562 C 84.964844 59.203125 82.902344 66.902344 81.277344 74.277344 Z M 81.277344 74.386719 "/>
</svg>
