<?xml version="1.0" encoding="UTF-8"?>
<svg xmlns="http://www.w3.org/2000/svg" xmlns:xlink="http://www.w3.org/1999/xlink" width="141.7" height="141.7" viewBox="0 0 141.7 141.7">
<path fill-rule="evenodd" fill="rgb(0%, 0%, 0%)" fill-opacity="1" d="M 98.425781 27.175781 C 79.488281 27.175781 46.894531 33.125 42.269531 39.730469 C 41.386719 40.832031 40.726562 42.8125 40.285156 46.777344 C 36.761719 74.964844 41.386719 113.285156 46.453125 113.285156 C 50.195312 113.285156 54.820312 111.523438 56.804688 109.761719 C 59.445312 107.117188 68.472656 93.023438 89.394531 49.199219 C 86.53125 82.011719 83.671875 113.285156 83.671875 113.285156 C 92.480469 111.960938 93.359375 110.421875 93.359375 108.878906 L 103.488281 27.398438 C 101.289062 27.179688 99.964844 27.179688 98.425781 27.179688 Z M 53.941406 99.191406 C 50.859375 99.191406 51.519531 63.074219 54.382812 39.730469 C 63.632812 38.410156 81.910156 39.070312 90.9375 40.613281 C 69.578125 77.609375 57.246094 99.191406 53.941406 99.191406 "/>
</svg>
