<?xml version="1.0" encoding="UTF-8"?>
<svg id="Layer_1" xmlns="http://www.w3.org/2000/svg" version="1.1" viewBox="0 0 141.7 141.7">
  <!-- Generator: Adobe Illustrator 29.1.0, SVG Export Plug-In . SVG Version: 2.1.0 Build 142)  -->
  <path d="M95.497,31.82c-16.896,0-45.975,5.305-50.101,11.199-.786.982-1.375,2.751-1.768,6.287-3.144,25.149.982,59.336,5.501,59.336,3.34,0,7.466-1.572,9.234-3.144,2.358-2.358,10.413-14.932,29.078-54.03-2.554,29.275-5.108,57.174-5.108,57.174,7.859-1.179,8.645-2.554,8.645-3.929l9.038-72.695c-1.965-.196-3.144-.196-4.519-.196h0ZM55.81,96.067c-2.751,0-2.161-32.222.393-53.048,8.252-1.179,24.56-.589,32.615.786-19.058,33.008-30.061,52.262-33.008,52.262Z"/>
</svg>