<?xml version="1.0" encoding="UTF-8"?>
<svg id="Layer_1" xmlns="http://www.w3.org/2000/svg" version="1.1" viewBox="0 0 141.7 141.7">
  <!-- Generator: Adobe Illustrator 29.1.0, SVG Export Plug-In . SVG Version: 2.1.0 Build 142)  -->
  <path d="M36.468,82.543c0-8.508,1.395-13.39,11.019-16.738,9.345-3.208,21.619-5.719,33.196-8.23-1.674-3.905-5.439-4.742-14.227-4.742-5.161,0-8.09.139-11.577.279-8.787.418-11.577,2.79-12.693,10.322h-.279c-.279-9.067-.837-18.273-1.395-27.339h32.22c20.643,0,26.502,8.369,27.199,26.083.418,12.274,1.116,20.225,1.255,24.41.558,9.764,1.116,13.251,4.045,16.319v.279h-22.875c.278-5.719.558-10.461.558-17.017,0-4.184-.14-9.345-.558-15.901-8.788,1.813-16.599,3.487-22.457,5.579-4.045,1.394-5.44,2.371-5.44,7.392,0,5.998,2.511,8.09,10.182,8.09,10.74,0,13.112-3.627,13.112-9.484v-.14c-1.256,5.021-3.627,7.114-7.114,7.114-3.906,0-6.416-2.093-6.416-6.416,0-3.208,2.231-6.555,7.253-6.555,3.347,0,7.671,2.371,7.671,10.74,0,1.952-.837,10.042-2.231,16.598-4.045.279-7.812.419-16.18.419-19.946,0-24.27-7.393-24.27-21.062Z"/>
</svg>