<?xml version="1.0" encoding="UTF-8"?>
<svg id="Layer_1" xmlns="http://www.w3.org/2000/svg" version="1.1" viewBox="0 0 141.7 141.7">
  <!-- Generator: Adobe Illustrator 29.2.1, SVG Export Plug-In . SVG Version: 2.1.0 Build 116)  -->
  <path d="M55.7,93.6c0-10.1,5.4-19,19.6-28.8v-13.8c0-6.1-.1-9.9-.4-11.9-.3-1.8-.9-2.7-1.8-2.7-1.9,0-3.4,3.9-5.7,29.2l-11.5-1.9c3-35,10.1-39.3,18.7-39.3s10.9,4.4,11.9,14c.4,3.7.6,8.2.6,13s-.1,12.3-.1,19.6c-.1,12.1-.3,25.5-.1,35.6h-12c0-2.3,0-4.9.1-7.6-3.8,5.7-6.6,8-10.6,8s-8.7-4.5-8.7-13.5h0ZM75.2,76c-5.1,5.9-7.8,12-7.8,15.5s1,4,2.5,4,3-1.1,5.2-4c0-4.9.1-10.2.1-15.5h0Z"/>
</svg>