<?xml version="1.0" encoding="UTF-8"?>
<svg id="Layer_1" xmlns="http://www.w3.org/2000/svg" version="1.1" viewBox="0 0 141.7 141.7">
  <!-- Generator: Adobe Illustrator 29.1.0, SVG Export Plug-In . SVG Version: 2.1.0 Build 142)  -->
  <path d="M49.023,104.939c0-27.732,18.831-45.022,26.363-50.329,3.937-2.739,5.82-5.992,5.82-10.614,0-6.334-2.397-15.407-29.958-16.263l.856-3.766c21.228,0,32.184,10.613,32.184,30.129l-.856,58.547c0,3.252.686,4.45,1.884,4.45,3.766,0,6.676-5.307,6.676-28.417,0-3.081-.171-6.163-.171-9.758l1.883-.343c-.514,31.67-3.595,43.312-9.415,43.312-2.739,0-4.108-2.739-4.108-6.334,0-5.308,2.739-12.668,2.739-18.317,0-.856-.172-1.198-.686-1.198s-.855.342-1.026,1.198c-1.712,10.956-7.875,25.507-19.002,25.507-8.217,0-13.181-5.649-13.181-17.804ZM79.323,83.541l.856-27.561c0-1.37,0-2.739-1.027-2.739-.514,0-1.027.171-1.883.856-8.56,6.334-24.138,19.687-24.138,48.104,0,10.956,4.108,17.462,11.47,17.462,12.839,0,14.208-16.948,14.722-36.121Z"/>
</svg>