<?xml version="1.0" encoding="UTF-8"?>
<svg xmlns="http://www.w3.org/2000/svg" xmlns:xlink="http://www.w3.org/1999/xlink" width="141.7" height="141.7" viewBox="0 0 141.7 141.7">
<path fill-rule="evenodd" fill="rgb(0%, 0%, 0%)" fill-opacity="1" d="M 49.304688 100.054688 C 49.304688 73.910156 67.054688 57.613281 74.15625 52.609375 C 77.867188 50.027344 79.640625 46.960938 79.640625 42.605469 C 79.640625 36.632812 77.382812 28.082031 51.402344 27.273438 L 52.207031 23.722656 C 72.21875 23.722656 82.546875 33.726562 82.546875 52.125 L 81.738281 107.316406 C 81.738281 110.382812 82.386719 111.511719 83.515625 111.511719 C 87.066406 111.511719 89.808594 106.507812 89.808594 84.722656 C 89.808594 81.816406 89.648438 78.914062 89.648438 75.523438 L 91.421875 75.199219 C 90.9375 105.054688 88.035156 116.027344 82.546875 116.027344 C 79.964844 116.027344 78.675781 113.445312 78.675781 110.058594 C 78.675781 105.054688 81.257812 98.117188 81.257812 92.792969 C 81.257812 91.984375 81.09375 91.660156 80.609375 91.660156 C 80.125 91.660156 79.804688 91.984375 79.644531 92.792969 C 78.03125 103.117188 72.21875 116.835938 61.730469 116.835938 C 53.984375 116.835938 49.304688 111.511719 49.304688 100.054688 Z M 77.867188 79.882812 L 78.671875 53.902344 C 78.671875 52.609375 78.671875 51.320312 77.707031 51.320312 C 77.222656 51.320312 76.738281 51.480469 75.929688 52.125 C 67.859375 58.097656 53.175781 70.683594 53.175781 97.472656 C 53.175781 107.800781 57.046875 113.933594 63.988281 113.933594 C 76.09375 113.933594 77.382812 97.957031 77.867188 79.882812 Z M 77.867188 79.882812 "/>
</svg>
