<?xml version="1.0" encoding="UTF-8"?>
<svg id="Layer_1" xmlns="http://www.w3.org/2000/svg" version="1.1" viewBox="0 0 141.7 141.7">
  <!-- Generator: Adobe Illustrator 29.1.0, SVG Export Plug-In . SVG Version: 2.1.0 Build 142)  -->
  <path d="M52.249,102.719c0-12.331,6.628-23.121,23.892-35.145v-16.802c0-7.399-.153-12.023-.462-14.49-.309-2.158-1.079-3.237-2.158-3.237-2.312,0-4.162,4.778-6.937,35.607l-14.027-2.312c3.699-42.698,12.332-47.939,22.813-47.939,8.016,0,13.257,5.395,14.489,17.11.463,4.47.771,10.019.771,15.877,0,6.628-.154,14.952-.154,23.892-.154,14.798-.309,31.137-.154,43.469h-14.644c0-2.774,0-6.012.154-9.249-4.625,6.937-8.016,9.712-12.948,9.712-5.704,0-10.636-5.55-10.636-16.494ZM75.987,81.293c-6.166,7.245-9.558,14.644-9.558,18.96,0,3.545,1.233,4.933,3.083,4.933,2.004,0,3.699-1.388,6.32-4.933,0-6.012.154-12.486.154-18.96Z"/>
</svg>