<?xml version="1.0" encoding="UTF-8"?>
<svg xmlns="http://www.w3.org/2000/svg" xmlns:xlink="http://www.w3.org/1999/xlink" width="141.7" height="141.7" viewBox="0 0 141.7 141.7">
<path fill-rule="evenodd" fill="rgb(0%, 0%, 0%)" fill-opacity="1" d="M 32.714844 84.929688 C 32.714844 75.492188 34.261719 70.078125 44.9375 66.363281 C 55.300781 62.804688 68.914062 60.019531 81.757812 57.234375 C 79.898438 52.90625 75.722656 51.976562 65.976562 51.976562 C 60.253906 51.976562 57.003906 52.128906 53.136719 52.285156 C 43.390625 52.75 40.296875 55.378906 39.058594 63.734375 L 38.75 63.734375 C 38.4375 53.675781 37.820312 43.464844 37.199219 33.410156 L 72.9375 33.410156 C 95.832031 33.410156 102.332031 42.695312 103.105469 62.339844 C 103.570312 75.953125 104.34375 84.773438 104.496094 89.414062 C 105.117188 100.246094 105.734375 104.113281 108.984375 107.515625 L 108.984375 107.824219 L 83.613281 107.824219 C 83.921875 101.480469 84.230469 96.222656 84.230469 88.949219 C 84.230469 84.308594 84.074219 78.585938 83.613281 71.3125 C 73.863281 73.324219 65.203125 75.179688 58.703125 77.5 C 54.21875 79.046875 52.671875 80.132812 52.671875 85.699219 C 52.671875 92.351562 55.457031 94.671875 63.964844 94.671875 C 75.875 94.671875 78.507812 90.652344 78.507812 84.15625 L 78.507812 84 C 77.113281 89.570312 74.484375 91.890625 70.617188 91.890625 C 66.285156 91.890625 63.5 89.570312 63.5 84.773438 C 63.5 81.214844 65.972656 77.503906 71.542969 77.503906 C 75.257812 77.503906 80.050781 80.132812 80.050781 89.414062 C 80.050781 91.582031 79.125 100.554688 77.578125 107.824219 C 73.089844 108.132812 68.914062 108.289062 59.632812 108.289062 C 37.507812 108.289062 32.714844 100.089844 32.714844 84.929688 Z M 32.714844 84.929688 "/>
</svg>
