<?xml version="1.0" encoding="UTF-8"?>
<svg xmlns="http://www.w3.org/2000/svg" xmlns:xlink="http://www.w3.org/1999/xlink" width="141.7" height="141.7" viewBox="0 0 141.7 141.7">
<path fill-rule="nonzero" fill="rgb(0%, 0%, 0%)" fill-opacity="1" d="M 72.925781 74.855469 L 72.925781 69.8125 C 69.425781 72.613281 63.40625 73.3125 63.40625 77.933594 C 63.40625 79.894531 64.664062 81.152344 67.183594 81.152344 C 70.40625 81.152344 72.925781 80.453125 72.925781 74.855469 M 65.925781 66.3125 L 30.785156 66.3125 L 30.785156 32.996094 L 62.984375 32.996094 L 62.984375 64.492188 L 64.527344 64.492188 C 64.804688 37.335938 72.363281 31.59375 87.484375 31.59375 C 102.882812 31.59375 108.765625 39.433594 108.765625 59.59375 L 108.765625 76.953125 C 108.765625 80.734375 109.183594 81.292969 110.445312 81.292969 C 112.125 81.292969 112.964844 80.734375 112.683594 69.8125 L 114.644531 69.8125 C 114.925781 74.992188 115.0625 79.613281 115.0625 83.535156 C 115.0625 102.851562 112.261719 110.691406 96.023438 110.691406 C 78.945312 110.691406 75.726562 100.191406 75.726562 78.492188 L 74.042969 78.492188 C 73.765625 102.011719 67.464844 110.691406 50.105469 110.691406 C 33.585938 110.691406 27.988281 103.554688 27.988281 91.09375 C 27.988281 76.8125 36.246094 70.375 54.164062 70.375 C 71.523438 70.375 72.925781 69.675781 72.925781 65.472656 L 72.925781 63.652344 C 72.925781 61.132812 72.222656 59.734375 70.125 59.734375 C 67.464844 59.734375 66.207031 62.253906 65.925781 66.3125 "/>
</svg>
