<?xml version="1.0" encoding="UTF-8"?>
<svg id="Layer_1" xmlns="http://www.w3.org/2000/svg" version="1.1" viewBox="0 0 141.7 141.7">
  <!-- Generator: Adobe Illustrator 29.2.1, SVG Export Plug-In . SVG Version: 2.1.0 Build 116)  -->
  <path d="M67.925,64.314h-35.139V30.995h32.199v31.499h1.54c.28-27.159,7.84-32.899,22.959-32.899,15.4,0,21.28,7.84,21.28,27.999v17.36c0,3.78.419,4.34,1.68,4.34,1.68,0,2.519-.56,2.239-11.48h1.961c.28,5.179.419,9.8.419,13.72,0,19.319-2.8,27.159-19.039,27.159-17.08,0-20.299-10.5-20.299-32.2h-1.681c-.28,23.52-6.579,32.2-23.939,32.2-16.52,0-22.12-7.14-22.12-19.599,0-14.28,8.26-20.72,26.179-20.72,17.359,0,18.759-.7,18.759-4.9v-1.82c0-2.52-.7-3.92-2.799-3.92-2.66,0-3.92,2.52-4.2,6.579ZM74.924,72.854v-5.04c-3.499,2.8-9.519,3.5-9.519,8.12,0,1.96,1.26,3.219,3.78,3.219,3.22,0,5.739-.7,5.739-6.299Z"/>
</svg>