<?xml version="1.0" encoding="UTF-8"?>
<svg xmlns="http://www.w3.org/2000/svg" xmlns:xlink="http://www.w3.org/1999/xlink" width="141.7" height="141.7" viewBox="0 0 141.7 141.7">
<path fill-rule="nonzero" fill="rgb(0%, 0%, 0%)" fill-opacity="1" d="M 73.710938 81.539062 C 67.917969 88.34375 64.734375 95.292969 64.734375 99.347656 C 64.734375 102.675781 65.890625 103.980469 67.628906 103.980469 C 69.511719 103.980469 71.105469 102.675781 73.566406 99.347656 C 73.566406 93.699219 73.710938 87.617188 73.710938 81.539062 Z M 51.414062 101.660156 C 51.414062 90.078125 57.640625 79.945312 73.855469 68.652344 L 73.855469 52.871094 C 73.855469 45.921875 73.710938 41.578125 73.421875 39.261719 C 73.128906 37.234375 72.40625 36.222656 71.394531 36.222656 C 69.222656 36.222656 67.484375 40.710938 64.878906 69.664062 L 51.703125 67.492188 C 55.179688 27.390625 63.285156 22.46875 73.132812 22.46875 C 80.660156 22.46875 85.582031 27.535156 86.738281 38.539062 C 87.175781 42.734375 87.464844 47.949219 87.464844 53.449219 C 87.464844 59.675781 87.320312 67.492188 87.320312 75.890625 C 87.175781 89.789062 87.027344 105.136719 87.175781 116.71875 L 73.421875 116.71875 C 73.421875 114.113281 73.421875 111.070312 73.566406 108.03125 C 69.21875 114.546875 66.035156 117.152344 61.402344 117.152344 C 56.046875 117.152344 51.414062 111.941406 51.414062 101.660156 Z M 51.414062 101.660156 "/>
</svg>
