<?xml version="1.0" encoding="UTF-8"?>
<svg id="Layer_1" xmlns="http://www.w3.org/2000/svg" version="1.1" viewBox="0 0 141.7 141.7">
  <!-- Generator: Adobe Illustrator 29.1.0, SVG Export Plug-In . SVG Version: 2.1.0 Build 142)  -->
  <path d="M27.313,69.632c0-23.945,16.064-41.979,41.676-41.979,21.824,0,34.857,10.609,34.857,29.25,0,6.971-.758,18.944-.758,26.37,0,2.425,1.516,3.334,3.485,3.334,1.818,0,2.576-.454,5.001-.454,4.396,0,6.669,4.395,6.669,9.396,0,9.851-11.519,11.063-20.005,11.063-8.336,0-13.942-2.273-17.731-6.82-6.365,4.396-12.73,6.82-22.43,6.82-19.702,0-30.765-13.942-30.765-36.979ZM77.628,96.911l-.151-.455c-5.456,1.971-11.366,3.183-17.883,3.183-16.368,0-23.793-12.427-23.793-31.067,0-18.338,13.033-33.493,32.886-33.493,15.004,0,25.764,6.82,25.764,21.671v27.128c0,6.668,2.88,9.093,8.032,9.093,4.698,0,8.486-.909,11.063-1.667-.304-.909-1.213-1.818-1.971-2.273-1.97.304-4.092.758-5.91.758-4.547,0-6.214-2.273-6.214-6.972,0-8.486.455-20.156.455-26.066,0-18.034-12.73-25.763-31.371-25.763-22.884,0-37.888,17.428-37.888,38.039,0,21.671,10.306,34.099,27.734,34.099,7.274,0,13.943-2.729,19.247-6.214ZM114.304,95.395c0-.758,0-1.818-.304-2.425-3.637,1.061-7.881,1.818-12.427,1.818-6.668,0-8.941-4.243-8.941-10.911l-.151-27.128c0-13.791-10.457-19.853-23.945-19.853-17.428,0-30.613,13.488-30.613,31.674,0,17.276,6.82,29.4,22.126,29.4,6.365,0,12.276-2.576,16.519-5.001l-.151-.455c-4.698,1.213-8.942,1.819-13.943,1.819-13.336,0-18.944-10.154-18.944-25.612,0-15.155,8.79-27.582,24.399-27.582,11.821,0,18.338,6.517,18.338,17.125v24.854c0,9.548,4.547,15.155,13.185,15.155,6.365,0,11.67-1.364,14.853-2.88ZM113.697,99.942c.303-.606.606-1.667.606-2.729-4.092,1.819-8.79,2.88-14.853,2.88-10.76,0-15.154-6.972-15.154-17.277v-23.944c0-10.154-5.911-15.913-16.52-15.913-13.185,0-22.278,10.76-22.278,25.764,0,14.094,5.153,23.945,16.822,23.945,5.456,0,10.154-2.122,13.185-3.94l-.152-.455c-3.183.909-6.516,1.516-10.153,1.516-11.063,0-13.943-10.306-13.943-21.52,0-13.033,5.456-20.914,15.61-20.914,9.093,0,12.124,6.213,12.124,13.943v21.52c0,13.337,6.668,20.46,18.338,20.46,8.638,0,13.639-1.213,16.367-3.334ZM75.507,82.816v-19.247c0-7.274-1.819-13.033-8.942-13.033-7.729,0-11.669,6.82-11.669,17.731,0,9.245,2.122,18.186,10.457,18.186,4.698,0,7.577-1.818,10.154-3.638Z"/>
</svg>