<?xml version="1.0" encoding="UTF-8"?>
<svg xmlns="http://www.w3.org/2000/svg" xmlns:xlink="http://www.w3.org/1999/xlink" width="141.7" height="141.7" viewBox="0 0 141.7 141.7">
<path fill-rule="nonzero" fill="rgb(0%, 0%, 0%)" fill-opacity="1" d="M 75.507812 86.816406 L 75.507812 67.570312 C 75.507812 60.296875 73.6875 54.535156 66.566406 54.535156 C 58.835938 54.535156 54.894531 61.355469 54.894531 72.269531 C 54.894531 81.511719 57.019531 90.453125 65.351562 90.453125 C 70.050781 90.453125 72.929688 88.636719 75.507812 86.816406 M 113.695312 103.941406 C 114 103.335938 114.304688 102.273438 114.304688 101.214844 C 110.210938 103.035156 105.515625 104.09375 99.449219 104.09375 C 88.691406 104.09375 84.296875 97.121094 84.296875 86.816406 L 84.296875 62.871094 C 84.296875 52.71875 78.386719 46.960938 67.777344 46.960938 C 54.59375 46.960938 45.5 57.71875 45.5 72.722656 C 45.5 86.816406 50.652344 96.667969 62.320312 96.667969 C 67.777344 96.667969 72.476562 94.546875 75.507812 92.726562 L 75.355469 92.273438 C 72.171875 93.179688 68.839844 93.789062 65.199219 93.789062 C 54.136719 93.789062 51.257812 83.480469 51.257812 72.269531 C 51.257812 59.234375 56.714844 51.355469 66.867188 51.355469 C 75.960938 51.355469 78.992188 57.566406 78.992188 65.296875 L 78.992188 86.816406 C 78.992188 100.152344 85.660156 107.277344 97.328125 107.277344 C 105.96875 107.277344 110.96875 106.0625 113.695312 103.941406 M 114.304688 99.394531 C 114.304688 98.636719 114.304688 97.578125 114 96.96875 C 110.363281 98.03125 106.117188 98.789062 101.574219 98.789062 C 94.90625 98.789062 92.632812 94.546875 92.632812 87.878906 L 92.480469 60.75 C 92.480469 46.960938 82.023438 40.898438 68.535156 40.898438 C 51.105469 40.898438 37.921875 54.386719 37.921875 72.570312 C 37.921875 89.847656 44.742188 101.972656 60.046875 101.972656 C 66.414062 101.972656 72.324219 99.394531 76.566406 96.96875 L 76.414062 96.515625 C 71.71875 97.726562 67.472656 98.335938 62.472656 98.335938 C 49.136719 98.335938 43.527344 88.179688 43.527344 72.722656 C 43.527344 57.566406 52.320312 45.140625 67.929688 45.140625 C 79.75 45.140625 86.265625 51.65625 86.265625 62.265625 L 86.265625 87.121094 C 86.265625 96.667969 90.8125 102.273438 99.449219 102.273438 C 105.816406 102.273438 111.121094 100.910156 114.304688 99.394531 M 77.628906 100.910156 L 77.476562 100.457031 C 72.019531 102.425781 66.109375 103.636719 59.59375 103.636719 C 43.226562 103.636719 35.800781 91.210938 35.800781 72.570312 C 35.800781 54.234375 48.832031 39.078125 68.6875 39.078125 C 83.691406 39.078125 94.449219 45.898438 94.449219 60.75 L 94.449219 87.878906 C 94.449219 94.546875 97.328125 96.96875 102.484375 96.96875 C 107.179688 96.96875 110.96875 96.0625 113.546875 95.304688 C 113.242188 94.394531 112.332031 93.484375 111.574219 93.03125 C 109.605469 93.335938 107.484375 93.789062 105.664062 93.789062 C 101.117188 93.789062 99.449219 91.515625 99.449219 86.816406 C 99.449219 78.332031 99.90625 66.660156 99.90625 60.75 C 99.90625 42.714844 87.175781 34.984375 68.535156 34.984375 C 45.652344 34.984375 30.648438 52.414062 30.648438 73.023438 C 30.648438 94.699219 40.953125 107.125 58.382812 107.125 C 65.65625 107.125 72.324219 104.394531 77.628906 100.910156 M 27.3125 73.632812 C 27.3125 49.6875 43.378906 31.652344 68.988281 31.652344 C 90.8125 31.652344 103.847656 42.261719 103.847656 60.902344 C 103.847656 67.875 103.089844 79.84375 103.089844 87.269531 C 103.089844 89.695312 104.605469 90.605469 106.574219 90.605469 C 108.394531 90.605469 109.152344 90.152344 111.574219 90.152344 C 115.972656 90.152344 118.242188 94.546875 118.242188 99.546875 C 118.242188 109.398438 106.726562 110.609375 98.238281 110.609375 C 89.902344 110.609375 84.296875 108.335938 80.507812 103.789062 C 74.144531 108.183594 67.777344 110.609375 58.078125 110.609375 C 38.375 110.609375 27.3125 96.667969 27.3125 73.632812 "/>
</svg>
