<?xml version="1.0" encoding="UTF-8"?>
<svg xmlns="http://www.w3.org/2000/svg" xmlns:xlink="http://www.w3.org/1999/xlink" width="141.7" height="141.7" viewBox="0 0 141.7 141.7">
<path fill-rule="nonzero" fill="rgb(0%, 0%, 0%)" fill-opacity="1" d="M 81.210938 72.765625 C 84.917969 71.691406 87.867188 70.277344 90.0625 68.523438 C 92.257812 66.765625 93.355469 64.816406 93.355469 62.667969 C 93.355469 60.523438 92.257812 58.550781 90.0625 56.742188 C 87.867188 54.9375 84.917969 53.5 81.210938 52.425781 C 77.503906 51.355469 73.457031 50.816406 69.066406 50.816406 C 64.773438 50.816406 60.75 51.355469 56.996094 52.425781 C 53.238281 53.5 50.238281 54.9375 47.996094 56.742188 C 45.75 58.550781 44.628906 60.523438 44.628906 62.667969 C 44.628906 64.816406 45.75 66.765625 47.996094 68.523438 C 50.238281 70.277344 53.238281 71.691406 56.996094 72.765625 C 60.75 73.839844 64.773438 74.375 69.066406 74.375 C 73.457031 74.375 77.503906 73.839844 81.210938 72.765625 M 53.847656 110.589844 C 49.652344 107.90625 46.460938 104.25 44.265625 99.617188 C 42.070312 94.984375 40.972656 89.738281 40.972656 83.886719 L 40.972656 58.132812 C 40.972656 52.28125 42.070312 47.011719 44.265625 42.332031 C 46.460938 37.648438 49.652344 33.964844 53.847656 31.28125 C 58.042969 28.601562 63.113281 27.257812 69.066406 27.257812 L 97.160156 27.257812 L 97.160156 114.613281 L 69.066406 114.613281 C 63.113281 114.613281 58.042969 113.273438 53.847656 110.589844 "/>
</svg>
