<?xml version="1.0" encoding="UTF-8"?>
<svg id="Layer_1" xmlns="http://www.w3.org/2000/svg" version="1.1" viewBox="0 0 141.7 141.7">
  <!-- Generator: Adobe Illustrator 29.2.1, SVG Export Plug-In . SVG Version: 2.1.0 Build 116)  -->
  <path d="M52.246,114.766c-4.637-2.964-8.167-7.007-10.594-12.13-2.426-5.12-3.639-10.917-3.639-17.387v-28.465c0-6.47,1.213-12.292,3.639-17.468,2.426-5.175,5.957-9.244,10.594-12.211,4.635-2.964,10.243-4.448,16.821-4.448h31.054v96.557h-31.054c-6.578,0-12.186-1.48-16.821-4.448ZM82.49,72.958c4.097-1.185,7.359-2.75,9.785-4.69,2.426-1.94,3.64-4.096,3.64-6.469s-1.214-4.554-3.64-6.55c-2.426-1.994-5.688-3.583-9.785-4.771-4.099-1.185-8.571-1.779-13.424-1.779-4.746,0-9.194.594-13.343,1.779-4.152,1.188-7.468,2.777-9.947,4.771-2.482,1.997-3.72,4.18-3.72,6.55s1.238,4.529,3.72,6.469c2.479,1.941,5.794,3.506,9.947,4.69,4.149,1.188,8.597,1.779,13.343,1.779,4.853,0,9.325-.591,13.424-1.779Z"/>
</svg>