<?xml version="1.0" encoding="UTF-8"?>
<svg id="Layer_1" xmlns="http://www.w3.org/2000/svg" version="1.1" viewBox="0 0 141.7 141.7">
  <!-- Generator: Adobe Illustrator 29.2.1, SVG Export Plug-In . SVG Version: 2.1.0 Build 116)  -->
  <path d="M98.505,113.863h-15.934l-2.302-6.197c-4.072,3.895-11.685,7.967-20.183,7.967-16.288,0-21.423-10.446-21.423-26.557,0-19.121,7.436-25.495,24.61-25.495h15.404v-10.8c0-7.082-3.541-9.029-11.686-9.029-7.082,0-15.403,2.124-20.183,4.249l-3.187-16.111c7.967-3.718,18.59-5.489,27.796-5.489,17.882,0,27.089,5.666,27.089,22.662v64.8ZM78.676,79.339h-11.686c-6.905,0-8.498,3.01-8.498,10.092,0,7.259,1.771,10.446,8.498,10.446,4.249,0,9.207-1.593,11.686-3.01v-17.528Z"/>
</svg>