<?xml version="1.0" encoding="UTF-8"?>
<svg id="Layer_1" xmlns="http://www.w3.org/2000/svg" version="1.1" viewBox="0 0 141.7 141.7">
  <!-- Generator: Adobe Illustrator 29.2.1, SVG Export Plug-In . SVG Version: 2.1.0 Build 116)  -->
  <path d="M53.864,62.05c-10.587,0-15.327-5.056-15.327-13.747v-.474c0-14.221,13.114-21.489,34.287-21.489,21.015,0,32.549,9.322,32.549,26.861v42.978c0,8.375-5.688,15.486-15.326,15.486-6.952,0-11.535-2.687-13.905-7.111-2.844,4.266-8.69,7.742-16.907,7.742-15.011,0-22.911-9.322-22.911-24.807,0-15.959,7.584-23.227,24.807-23.227,5.688,0,9.322.79,13.273,2.212v-13.589c0-1.58-.632-2.528-2.212-2.528s-2.37.79-2.37,2.212v.158c0,5.214-4.425,9.322-15.959,9.322ZM71.403,92.228c1.264,0,2.37-.316,3.002-.632v-10.903c-.632-.316-1.58-.474-3.002-.474-3.16,0-4.266,2.054-4.266,5.846s1.264,6.162,4.266,6.162Z"/>
</svg>