<?xml version="1.0" encoding="UTF-8"?>
<svg xmlns="http://www.w3.org/2000/svg" xmlns:xlink="http://www.w3.org/1999/xlink" width="141.7" height="141.7" viewBox="0 0 141.7 141.7">
<path fill-rule="nonzero" fill="rgb(0%, 0%, 0%)" fill-opacity="1" d="M 78.675781 79.339844 L 66.988281 79.339844 C 60.085938 79.339844 58.492188 82.347656 58.492188 89.429688 C 58.492188 96.691406 60.261719 99.875 66.988281 99.875 C 71.238281 99.875 76.195312 98.285156 78.675781 96.867188 Z M 98.503906 113.863281 L 82.570312 113.863281 L 80.269531 107.667969 C 76.195312 111.5625 68.582031 115.632812 60.085938 115.632812 C 43.796875 115.632812 38.664062 105.1875 38.664062 89.078125 C 38.664062 69.957031 46.097656 63.582031 63.273438 63.582031 L 78.675781 63.582031 L 78.675781 52.78125 C 78.675781 45.699219 75.136719 43.753906 66.988281 43.753906 C 59.910156 43.753906 51.585938 45.875 46.808594 48 L 43.621094 31.890625 C 51.585938 28.171875 62.210938 26.402344 71.417969 26.402344 C 89.296875 26.402344 98.503906 32.066406 98.503906 49.0625 Z M 98.503906 113.863281 "/>
</svg>
