<?xml version="1.0" encoding="UTF-8"?>
<svg xmlns="http://www.w3.org/2000/svg" xmlns:xlink="http://www.w3.org/1999/xlink" width="141.7" height="141.7" viewBox="0 0 141.7 141.7">
<path fill-rule="nonzero" fill="rgb(0%, 0%, 0%)" fill-opacity="1" d="M 70.402344 93.226562 C 71.667969 93.226562 72.773438 92.914062 73.40625 92.597656 L 73.40625 81.695312 C 72.773438 81.378906 71.824219 81.21875 70.402344 81.21875 C 67.242188 81.21875 66.136719 83.273438 66.136719 87.066406 C 66.136719 90.859375 67.402344 93.226562 70.402344 93.226562 M 52.863281 63.050781 C 42.277344 63.050781 37.539062 57.992188 37.539062 49.300781 L 37.539062 48.828125 C 37.539062 34.609375 50.652344 27.339844 71.824219 27.339844 C 92.839844 27.339844 104.375 36.664062 104.375 54.203125 L 104.375 97.179688 C 104.375 105.554688 98.6875 112.664062 89.046875 112.664062 C 82.097656 112.664062 77.511719 109.976562 75.144531 105.554688 C 72.300781 109.820312 66.453125 113.296875 58.238281 113.296875 C 43.226562 113.296875 35.324219 103.972656 35.324219 88.488281 C 35.324219 72.53125 42.910156 65.261719 60.132812 65.261719 C 65.820312 65.261719 69.453125 66.050781 73.40625 67.472656 L 73.40625 53.886719 C 73.40625 52.304688 72.773438 51.355469 71.195312 51.355469 C 69.613281 51.355469 68.824219 52.148438 68.824219 53.566406 L 68.824219 53.726562 C 68.824219 58.941406 64.398438 63.050781 52.863281 63.050781 "/>
</svg>
