<?xml version="1.0" encoding="UTF-8"?>
<svg xmlns="http://www.w3.org/2000/svg" xmlns:xlink="http://www.w3.org/1999/xlink" width="141.7" height="141.7" viewBox="0 0 141.7 141.7">
<path fill-rule="nonzero" fill="rgb(0%, 0%, 0%)" fill-opacity="1" d="M 49.632812 90.097656 C 63.964844 86.355469 72.480469 83.449219 75.179688 81.371094 C 77.257812 79.710938 78.296875 75.347656 78.296875 68.285156 C 78.296875 48.554688 75.59375 43.570312 66.246094 43.570312 C 61.472656 43.570312 55.863281 45.441406 49.425781 49.386719 C 47.761719 50.425781 46.515625 50.839844 45.894531 50.839844 C 43.402344 50.839844 39.039062 46.269531 39.039062 43.777344 C 39.039062 42.324219 40.078125 40.664062 41.945312 38.585938 C 49.214844 30.691406 58.355469 26.746094 69.363281 26.746094 C 84.941406 26.746094 94.703125 35.46875 94.703125 49.59375 C 94.703125 52.917969 94.496094 56.863281 94.078125 61.433594 C 93.871094 64.546875 93.664062 66.832031 93.664062 68.496094 C 93.664062 80.335938 95.535156 88.226562 99.066406 92.171875 L 106.542969 100.273438 C 107.582031 101.519531 108.203125 102.765625 108.203125 103.804688 C 108.203125 105.675781 106.957031 107.957031 104.464844 110.660156 C 101.972656 113.359375 99.894531 114.605469 98.027344 114.605469 C 96.988281 114.605469 95.535156 113.980469 93.664062 112.941406 L 87.226562 108.996094 C 85.148438 107.75 83.28125 107.128906 81.410156 107.128906 C 79.539062 107.128906 77.046875 107.75 74.140625 108.996094 C 67.910156 111.695312 64.171875 113.152344 63.132812 113.566406 C 60.847656 114.191406 58.148438 114.605469 55.03125 114.605469 C 45.269531 114.605469 38.414062 108.789062 38.414062 100.480469 C 38.414062 95.496094 42.152344 91.964844 49.632812 90.097656 "/>
</svg>
