<?xml version="1.0" encoding="UTF-8"?>
<svg id="Layer_1" xmlns="http://www.w3.org/2000/svg" version="1.1" viewBox="0 0 141.7 141.7">
  <!-- Generator: Adobe Illustrator 29.2.1, SVG Export Plug-In . SVG Version: 2.1.0 Build 116)  -->
  <path d="M49.632,85.096c14.331-3.739,22.847-6.646,25.547-8.724,2.077-1.662,3.116-6.023,3.116-13.085,0-19.732-2.701-24.716-12.047-24.716-4.777,0-10.385,1.869-16.824,5.816-1.662,1.039-2.908,1.454-3.531,1.454-2.492,0-6.854-4.569-6.854-7.062,0-1.454,1.039-3.115,2.908-5.193,7.27-7.892,16.409-11.839,27.417-11.839,15.578,0,25.34,8.724,25.34,22.847,0,3.323-.208,7.269-.623,11.839-.208,3.115-.416,5.4-.416,7.062,0,11.839,1.869,19.732,5.4,23.678l7.478,8.1c1.038,1.246,1.662,2.492,1.662,3.531,0,1.869-1.247,4.154-3.739,6.854-2.493,2.7-4.569,3.946-6.439,3.946-1.039,0-2.493-.623-4.362-1.662l-6.439-3.946c-2.077-1.247-3.946-1.869-5.815-1.869s-4.362.623-7.27,1.869c-6.231,2.7-9.97,4.154-11.008,4.569-2.285.623-4.985,1.038-8.1,1.038-9.763,0-16.616-5.815-16.616-14.123,0-4.985,3.738-8.516,11.216-10.385Z"/>
</svg>