<?xml version="1.0" encoding="UTF-8"?>
<svg id="Layer_1" xmlns="http://www.w3.org/2000/svg" version="1.1" viewBox="0 0 141.7 141.7">
  <!-- Generator: Adobe Illustrator 29.0.1, SVG Export Plug-In . SVG Version: 2.1.0 Build 192)  -->
  <path d="M67.4,21.4c7.9-.2,16.4,1.8,21.7,8,7.7,8.8,4.7,20.3,4.3,30.9s.2,19.2,5,26.8c2.1,3.2,5.1,5.9,7.7,8.8s2.1,2.7,2,4.4c-.2,3.1-4.6,7.9-7.2,9.5-4.8,3-7.3-1.1-10.6-3.9s-5-3.5-8.1-2.5-8.4,3.6-12.5,5.1c-5.2,1.9-10.8,2.6-16.3,2.3-9.3-.4-15.9-6.7-16.3-16s-.1-8.1,1.1-10.9c1.9-4.3,7.6-6.5,11.7-8.2,6.7-2.7,13.5-5,20.2-7.6s4.7-1.8,6.1-3,1.4-4.6,1.4-6.5-.3-5.3-.6-7.9c-.6-5.5-1.7-11.1-8.1-12s-11.2,1-15.8,3.4-6.1,4-8.5,3.9-6.6-4.5-6.8-6.9,1.6-4.1,2.8-5.4c7-7.8,16.4-11.9,26.9-12.2ZM74.2,79.2c-2.7.2-6.6,1.6-9.3,2.5-5.7,1.9-10.4,3.8-10.1,10.8s5.7,6.9,11.1,6,11.4-3.7,12.4-10.3c.3-1.7.4-5.6-.2-7.1-.6-1.6-2.3-2-3.9-1.9Z"/>
</svg>