<?xml version="1.0" encoding="UTF-8"?>
<svg id="Layer_1" xmlns="http://www.w3.org/2000/svg" version="1.1" viewBox="0 0 141.7 141.7">
  <!-- Generator: Adobe Illustrator 29.2.1, SVG Export Plug-In . SVG Version: 2.1.0 Build 116)  -->
  <path d="M122.197,73.166v16.393c0,.263-.022.615-.067,1.054-.045.439-.175.834-.394,1.185-.219.351-.593.527-1.12.527-.571,0-.977-.208-1.217-.626-.242-.417-.384-.933-.429-1.547-.045-.614-.065-1.228-.065-1.843v-18.96c0-3.533-.165-6.962-.494-10.287s-1.274-6.408-2.832-9.25c-1.558-2.842-4.157-5.327-7.801-7.456-3.643-2.128-8.735-3.791-15.274-4.987-6.539-1.196-14.988-1.794-25.347-1.794-9.282,0-16.892.472-22.828,1.415-5.937.944-10.55,2.228-13.841,3.852-3.292,1.624-5.585,3.479-6.88,5.563-1.295,2.085-1.942,4.268-1.942,6.55,0,4.345,1.854,7.747,5.563,10.204,3.708,2.458,9.118,3.687,16.227,3.687,3.905,0,7.713-.444,11.423-1.333,3.708-.889,6.769-2.359,9.182-4.411,2.414-2.051,3.621-4.833,3.621-8.344,0-2.677-.713-4.79-2.14-6.336-1.426-1.547-3.132-2.694-5.118-3.44-1.987-.746-3.88-1.234-5.678-1.465-1.8-.23-3.084-.367-3.852-.411-.789-.066-1.558-.17-2.304-.312s-1.118-.543-1.118-1.201c0-.922.806-1.624,2.419-2.107,1.613-.482,3.746-.724,6.402-.724,3.05,0,5.541.312,7.473.938,1.93.625,3.434,1.465,4.509,2.518,1.075,1.053,1.843,2.255,2.304,3.604.462,1.35.741,2.749.841,4.197.098,1.449.147,2.875.147,4.279v8.447l-25.347,10.25c-7.286,2.94-12.876,5.442-16.771,7.505-3.896,2.062-6.573,4.021-8.032,5.875-1.459,1.855-2.189,3.934-2.189,6.238,0,5.004,2.37,8.526,7.11,10.566,4.74,2.041,10.929,3.062,18.565,3.062,5.486,0,9.963-.456,13.431-1.366,3.467-.91,6.165-2.117,8.097-3.621,1.93-1.503,3.312-3.171,4.147-5.004.834-1.832,1.339-3.675,1.514-5.53.144-1.508.213-2.902.24-4.229h3.016c.344,2.143.99,4.13,1.946,5.958,1.492,2.853,3.609,5.278,6.352,7.274,2.743,1.997,5.997,3.517,9.76,4.56,3.763,1.042,7.917,1.564,12.459,1.564,4.346,0,7.698-.428,10.057-1.284,2.359-.855,4.032-2.002,5.02-3.44.987-1.437,1.574-3.023,1.761-4.756.187-1.733.279-3.467.279-5.202v-15.997h-.789ZM71.52,85.362c-.033.713-.087,1.339-.165,1.876-.077.538-.187.999-.329,1.383-.143.384-.335.669-.576.855-.242.187-.538.28-.888.28-.9,0-1.536-.626-1.91-1.876-.374-1.251-.559-3.434-.559-6.551v-4.806c0-3.84.098-6.726.297-8.657.197-1.931.651-3.325,1.365-4.181.621-.745,1.572-1.401,2.816-1.979v21.268c0,.878-.017,1.674-.05,2.386Z"/>
</svg>