<?xml version="1.0" encoding="UTF-8"?>
<svg id="Layer_1" xmlns="http://www.w3.org/2000/svg" version="1.1" viewBox="0 0 141.7 141.7">
  <!-- Generator: Adobe Illustrator 29.2.1, SVG Export Plug-In . SVG Version: 2.1.0 Build 116)  -->
  <path d="M35.041,91.503c0-14.506,8.34-22.299,28.691-24.488l30.493-3.276v-7.486c0-14.973-7.486-20.898-23.94-20.898-15.28,0-21.045,6.399-23.7,16.534l-8.581-.934c2.802-12.944,11.703-23.086,32.281-23.086,22.072,0,32.374,8.581,32.374,28.077v55.834h-6.712l-1.254-14.039h-.614c-5.151,9.675-14.973,16.381-30.88,16.381-17.869,0-28.157-7.647-28.157-22.619ZM94.225,79.966v-9.515l-30.639,3.583c-14.746,1.715-19.964,8.114-19.964,17.155,0,10.142,6.392,15.447,19.884,15.447,18.402,0,30.72-10.763,30.72-26.669Z"/>
</svg>