<?xml version="1.0" encoding="UTF-8"?>
<svg xmlns="http://www.w3.org/2000/svg" xmlns:xlink="http://www.w3.org/1999/xlink" width="141.7" height="141.7" viewBox="0 0 141.7 141.7">
<path fill-rule="evenodd" fill="rgb(0%, 0%, 0%)" fill-opacity="1" d="M 60.007812 114.007812 C 74.914062 114.007812 83.925781 108 89.011719 98.984375 L 90.398438 98.984375 L 92.246094 111.8125 L 107.730469 111.8125 L 107.730469 58.542969 C 107.730469 37.050781 96.867188 27.578125 71.796875 27.578125 C 46.722656 27.578125 37.824219 37.863281 34.703125 52.074219 L 53.421875 54.039062 C 55.617188 46.644531 59.777344 41.90625 71.332031 41.90625 C 82.886719 41.90625 88.898438 46.410156 88.898438 57.15625 L 88.898438 62.589844 L 60.007812 65.707031 C 39.441406 68.019531 31.46875 76.339844 31.46875 90.550781 C 31.46875 104.761719 41.867188 114.121094 60.007812 114.121094 Z M 66.132812 100.488281 C 55.847656 100.488281 50.996094 96.558594 50.996094 88.933594 C 50.996094 81.304688 54.925781 77.957031 66.019531 76.683594 L 89.011719 73.910156 L 89.011719 81.191406 C 89.011719 92.628906 80.230469 100.488281 66.132812 100.488281 "/>
</svg>
