<?xml version="1.0" encoding="UTF-8"?>
<svg xmlns="http://www.w3.org/2000/svg" xmlns:xlink="http://www.w3.org/1999/xlink" width="141.7" height="141.7" viewBox="0 0 141.7 141.7">
<path fill-rule="evenodd" fill="rgb(0%, 0%, 0%)" fill-opacity="1" d="M 85.5 37.929688 L 79.324219 37.929688 L 79.324219 47.351562 L 88.746094 47.351562 L 88.746094 37.929688 Z M 71.367188 37.929688 L 65.191406 37.929688 L 65.191406 47.351562 L 74.507812 47.351562 L 74.507812 37.929688 Z M 57.238281 37.929688 L 51.058594 37.929688 L 51.058594 47.351562 L 60.480469 47.351562 L 60.480469 37.929688 Z M 99.527344 52.0625 L 93.351562 52.0625 L 93.351562 61.484375 L 102.667969 61.484375 L 102.667969 52.0625 Z M 99.527344 66.089844 L 93.351562 66.089844 L 93.351562 75.40625 L 102.667969 75.40625 L 102.667969 65.984375 L 99.527344 65.984375 Z M 85.5 66.089844 L 79.324219 66.089844 L 79.324219 75.40625 L 88.746094 75.40625 L 88.746094 65.984375 L 85.605469 65.984375 Z M 71.367188 66.089844 L 65.191406 66.089844 L 65.191406 75.40625 L 74.507812 75.40625 L 74.507812 65.984375 L 71.367188 65.984375 Z M 57.238281 66.089844 L 51.058594 66.089844 L 51.058594 75.40625 L 60.480469 75.40625 L 60.480469 65.984375 L 57.339844 65.984375 Z M 99.527344 80.21875 L 93.351562 80.21875 L 93.351562 89.539062 L 102.667969 89.539062 L 102.667969 80.21875 Z M 43.210938 80.21875 L 37.035156 80.21875 L 37.035156 89.539062 L 46.453125 89.539062 L 46.453125 80.21875 Z M 85.5 94.351562 L 79.324219 94.351562 L 79.324219 103.667969 L 88.746094 103.667969 L 88.746094 94.351562 Z M 71.367188 94.351562 L 65.191406 94.351562 L 65.191406 103.667969 L 74.507812 103.667969 L 74.507812 94.351562 Z M 57.238281 94.351562 L 51.058594 94.351562 L 51.058594 103.667969 L 60.480469 103.667969 L 60.480469 94.351562 Z M 57.238281 94.351562 "/>
</svg>
