<?xml version="1.0" encoding="UTF-8"?>
<svg id="Layer_1" xmlns="http://www.w3.org/2000/svg" version="1.1" viewBox="0 0 141.7 141.7">
  <!-- Generator: Adobe Illustrator 29.0.1, SVG Export Plug-In . SVG Version: 2.1.0 Build 192)  -->
  <path d="M82.6,104.8c19.8,0,28.8-33.5,28.8-42.4s-1.2-5.2-3.4-5.6c-3,6.6-6.3,14.4-11.2,20.3,0-16.9,2.6-30.3,7.6-39.5-3.6-3.4-9.6-5.9-15.4-5.9s-8.2,1.2-11.5,3.3c3.8,2.3,8,6.7,11,10.6l-.3.3c-10.3-10-19.2-14.1-26.7-14.1-18.7,0-28.7,24.3-28.7,45.4s5,27.7,14,27.7c13.2,0,22.7-27.2,30.2-56h.3c-2.6,12.8-5.8,26.6-10.4,37.8,1.5,9.1,5.5,18.2,15.9,18.2M61.2,74.6c4-18.1,8.1-29,11.4-30.3-3,9.9-6.9,22.1-11.1,30.3h-.3Z"/>
</svg>