<?xml version="1.0" encoding="UTF-8"?>
<svg xmlns="http://www.w3.org/2000/svg" xmlns:xlink="http://www.w3.org/1999/xlink" width="141.7" height="141.7" viewBox="0 0 141.7 141.7">
<path fill-rule="evenodd" fill="rgb(0%, 0%, 0%)" fill-opacity="1" d="M 82.167969 109.746094 C 103.035156 109.746094 112.523438 74.4375 112.523438 65.058594 C 112.523438 55.675781 111.257812 59.578125 108.9375 59.15625 C 105.777344 66.113281 102.296875 74.332031 97.132812 80.550781 C 97.132812 62.738281 99.875 48.617188 105.144531 38.917969 C 101.351562 35.335938 95.027344 32.699219 88.914062 32.699219 C 82.800781 32.699219 80.269531 33.964844 76.792969 36.179688 C 80.796875 38.601562 85.222656 43.238281 88.386719 47.351562 L 88.070312 47.667969 C 77.214844 37.125 67.832031 32.804688 59.929688 32.804688 C 40.21875 32.804688 29.679688 58.417969 29.679688 80.65625 C 29.679688 102.898438 34.949219 109.851562 44.433594 109.851562 C 58.347656 109.851562 68.359375 81.183594 76.265625 50.828125 L 76.582031 50.828125 C 73.839844 64.320312 70.46875 78.867188 65.617188 90.671875 C 67.199219 100.261719 71.414062 109.851562 82.378906 109.851562 Z M 59.609375 77.917969 C 63.828125 58.839844 68.148438 47.351562 71.628906 45.980469 C 68.464844 56.414062 64.355469 69.273438 59.929688 77.917969 Z M 59.609375 77.917969 "/>
</svg>
