<?xml version="1.0" encoding="UTF-8"?>
<svg id="Layer_1" xmlns="http://www.w3.org/2000/svg" version="1.1" viewBox="0 0 141.7 141.7">
  <!-- Generator: Adobe Illustrator 29.2.1, SVG Export Plug-In . SVG Version: 2.1.0 Build 116)  -->
  <path d="M118.178,73.91v15.103c0,.242-.021.566-.062.971-.041.404-.161.768-.363,1.091-.202.324-.547.486-1.031.486-.526,0-.9-.192-1.121-.577-.223-.384-.354-.859-.395-1.426-.041-.565-.06-1.132-.06-1.698v-17.469c0-3.255-.152-6.414-.455-9.477s-1.174-5.904-2.609-8.522c-1.436-2.618-3.83-4.908-7.187-6.869-3.357-1.961-8.048-3.492-14.072-4.595-6.025-1.102-13.809-1.653-23.353-1.653-8.552,0-15.564.435-21.032,1.304-5.47.87-9.72,2.053-12.753,3.549-3.033,1.497-5.146,3.205-6.338,5.125-1.193,1.921-1.79,3.933-1.79,6.035,0,4.003,1.708,7.138,5.126,9.402,3.417,2.265,8.401,3.397,14.951,3.397,3.598,0,7.107-.409,10.525-1.228,3.417-.819,6.236-2.174,8.46-4.064,2.224-1.89,3.336-4.453,3.336-7.688,0-2.467-.657-4.413-1.971-5.838-1.314-1.426-2.886-2.482-4.715-3.169-1.831-.687-3.575-1.137-5.232-1.35-1.659-.212-2.842-.338-3.549-.379-.727-.06-1.436-.156-2.123-.288s-1.03-.5-1.03-1.107c0-.849.742-1.496,2.229-1.941,1.486-.444,3.451-.667,5.898-.667,2.81,0,5.105.288,6.885.864,1.779.576,3.164,1.349,4.154,2.32.99.97,1.698,2.078,2.123,3.321.425,1.244.683,2.532.774,3.867.09,1.335.136,2.649.136,3.943v7.783l-23.353,9.444c-6.713,2.709-11.863,5.014-15.452,6.915-3.589,1.9-6.056,3.705-7.4,5.413-1.345,1.709-2.017,3.624-2.017,5.747,0,4.61,2.184,7.855,6.551,9.735,4.367,1.88,10.069,2.821,17.105,2.821,5.055,0,9.179-.42,12.374-1.259,3.194-.839,5.68-1.951,7.46-3.336,1.779-1.384,3.052-2.921,3.821-4.61.768-1.688,1.234-3.386,1.395-5.095.132-1.39.196-2.674.221-3.897h2.779c.317,1.974.912,3.805,1.793,5.489,1.374,2.628,3.325,4.863,5.852,6.702,2.527,1.84,5.525,3.241,8.993,4.201,3.467.96,7.294,1.441,11.479,1.441,4.004,0,7.092-.394,9.266-1.183,2.174-.788,3.715-1.845,4.625-3.169.91-1.324,1.45-2.785,1.622-4.382.172-1.597.257-3.195.257-4.792v-14.739h-.727ZM71.487,85.146c-.03.657-.081,1.234-.152,1.729-.071.496-.172.92-.303,1.274-.131.354-.308.617-.531.788-.223.172-.496.258-.818.258-.829,0-1.415-.577-1.76-1.729-.344-1.152-.515-3.164-.515-6.036v-4.428c0-3.538.09-6.197.273-7.976.182-1.779.6-3.063,1.257-3.852.572-.686,1.448-1.291,2.594-1.824v19.596c0,.809-.016,1.542-.046,2.199Z"/>
</svg>