<?xml version="1.0" encoding="UTF-8"?>
<svg id="Layer_1" xmlns="http://www.w3.org/2000/svg" version="1.1" viewBox="0 0 141.7 141.7">
  <!-- Generator: Adobe Illustrator 30.2.1, SVG Export Plug-In . SVG Version: 2.1.1 Build 1)  -->
  <path d="M122.77,74.203v16.576c0,.266-.023.622-.068,1.065-.045.444-.177.843-.399,1.198-.222.355-.6.533-1.132.533-.577,0-.988-.211-1.231-.633-.244-.421-.388-.943-.433-1.565-.045-.621-.066-1.242-.066-1.864v-19.173c0-3.573-.166-7.04-.499-10.402-.333-3.362-1.288-6.48-2.864-9.354-1.576-2.874-4.204-5.386-7.888-7.539-3.684-2.152-8.833-3.833-15.445-5.043-6.612-1.209-15.156-1.814-25.631-1.814-9.386,0-17.082.478-23.084,1.431-6.004.954-10.668,2.253-13.997,3.895-3.329,1.643-5.648,3.518-6.957,5.625-1.31,2.109-1.964,4.316-1.964,6.624,0,4.394,1.875,7.834,5.626,10.319,3.75,2.486,9.22,3.728,16.409,3.728,3.949,0,7.8-.449,11.551-1.348,3.75-.899,6.844-2.386,9.285-4.461,2.441-2.074,3.661-4.887,3.661-8.438,0-2.707-.721-4.843-2.164-6.408-1.442-1.565-3.167-2.724-5.175-3.479-2.009-.754-3.923-1.248-5.742-1.481-1.82-.233-3.119-.371-3.896-.416-.797-.066-1.576-.172-2.33-.316s-1.13-.549-1.13-1.215c0-.932.815-1.642,2.446-2.131,1.631-.488,3.788-.732,6.473-.732,3.084,0,5.603.316,7.557.949,1.952.632,3.472,1.481,4.559,2.546,1.087,1.065,1.864,2.28,2.33,3.645.467,1.365.749,2.779.85,4.244.099,1.465.149,2.907.149,4.327v8.542l-25.631,10.365c-7.368,2.973-13.021,5.503-16.959,7.589-3.939,2.086-6.646,4.066-8.122,5.941-1.476,1.876-2.213,3.978-2.213,6.308,0,5.06,2.397,8.621,7.19,10.684,4.793,2.064,11.052,3.096,18.773,3.096,5.548,0,10.074-.461,13.581-1.382,3.505-.921,6.234-2.141,8.188-3.661,1.952-1.52,3.349-3.206,4.194-5.06.843-1.852,1.354-3.716,1.531-5.592.145-1.525.215-2.935.242-4.277h3.05c.347,2.167,1.001,4.176,1.968,6.024,1.508,2.885,3.649,5.337,6.423,7.356,2.774,2.02,6.064,3.557,9.87,4.611,3.805,1.053,8.006,1.581,12.598,1.581,4.395,0,7.784-.433,10.17-1.299,2.386-.865,4.078-2.025,5.076-3.479.999-1.453,1.592-3.056,1.78-4.809.189-1.753.283-3.506.283-5.26v-16.177h-.797ZM71.524,86.535c-.033.721-.088,1.354-.166,1.898-.078.544-.189,1.01-.333,1.398-.144.388-.338.677-.583.865-.244.189-.544.283-.898.283-.91,0-1.553-.633-1.931-1.898-.378-1.265-.565-3.472-.565-6.624v-4.859c0-3.883.099-6.801.3-8.754.199-1.953.659-3.362,1.38-4.227.628-.753,1.589-1.417,2.847-2.002v21.507c0,.888-.017,1.693-.05,2.413Z"/>
</svg>