<?xml version="1.0" encoding="UTF-8"?>
<svg id="Layer_1" xmlns="http://www.w3.org/2000/svg" version="1.1" viewBox="0 0 141.7 141.7">
  <!-- Generator: Adobe Illustrator 29.1.0, SVG Export Plug-In . SVG Version: 2.1.0 Build 142)  -->
  <path d="M99.625,96.797c-2.354-.232-3.531-1.574-3.531-4.038v-33.809c0-8.527-2.081-14.919-6.228-19.176-4.147-4.257-10.595-6.392-19.341-6.392-7.063,0-13.14,1.342-18.246,4.038-5.106,2.696-8.555,6.447-10.348,11.265l3.874,3.709c2.806-2.696,5.913-4.654,9.335-5.9,3.422-1.232,6.981-1.848,10.677-1.848,4.942,0,8.61,1.149,11.019,3.449,2.409,2.3,3.613,6.364,3.613,12.196v7.94l-13.455.971c-4.367.342-8.637,1.177-12.784,2.532-4.147,1.342-7.569,3.449-10.252,6.296-2.696,2.861-4.038,6.598-4.038,11.197,0,5.489,1.875,9.746,5.64,12.784,3.75,3.025,8.542,4.53,14.372,4.53,5.489,0,10.458-1.259,14.893-3.778,2.484-1.415,4.614-3.098,6.412-5.03.802,2.478,1.997,4.386,3.593,5.7,2.245,1.848,5.161,2.779,8.746,2.779,2.245,0,4.599-.288,7.063-.849s4.366-.999,5.722-1.342v-6.557l-6.734-.67-.002.002ZM66.158,96.797c-3.149,0-5.503-.794-7.063-2.354-1.574-1.574-2.354-3.819-2.354-6.734,0-3.587,1.123-6.338,3.353-8.24,2.245-1.903,5.666-3.025,10.266-3.367l10.088-.789v16.545c-1.312,1.032-2.818,1.951-4.53,2.751-3.148,1.451-6.392,2.19-9.76,2.19h0Z"/>
</svg>