<?xml version="1.0" encoding="UTF-8"?>
<svg xmlns="http://www.w3.org/2000/svg" xmlns:xlink="http://www.w3.org/1999/xlink" width="141.7" height="141.7" viewBox="0 0 141.7 141.7">
<path fill-rule="evenodd" fill="rgb(0%, 0%, 0%)" fill-opacity="1" d="M 99.105469 92.078125 L 99.105469 50.878906 C 99.105469 36.671875 90.84375 29.398438 76.304688 29.398438 C 61.761719 29.398438 57.464844 32.484375 49.203125 37.332031 C 41.054688 42.066406 34.992188 48.675781 33.5625 57.160156 L 55.703125 57.160156 L 55.703125 37.550781 C 57.6875 36.890625 60.109375 36.5625 62.53125 36.5625 C 71.125 36.5625 76.191406 40.195312 76.191406 49.226562 L 76.191406 63.878906 C 69.253906 65.53125 60.660156 67.84375 51.628906 71.808594 C 41.054688 76.4375 34.113281 82.605469 34.113281 92.296875 C 34.113281 101.992188 42.375 111.136719 54.160156 111.136719 C 65.949219 111.136719 72.996094 104.855469 76.742188 97.695312 C 78.726562 103.976562 84.34375 110.035156 93.929688 110.035156 L 108.136719 110.035156 L 108.136719 91.859375 L 99.214844 91.859375 Z M 67.378906 98.6875 C 60.769531 98.6875 56.804688 93.730469 56.804688 84.585938 C 56.804688 75.445312 59.117188 74.34375 63.082031 72.03125 C 66.828125 69.9375 71.125 68.394531 76.082031 67.074219 L 76.082031 95.714844 C 73.550781 97.695312 70.464844 98.796875 67.378906 98.6875 "/>
</svg>
