<?xml version="1.0" encoding="UTF-8"?>
<svg xmlns="http://www.w3.org/2000/svg" xmlns:xlink="http://www.w3.org/1999/xlink" width="141.7" height="141.7" viewBox="0 0 141.7 141.7">
<path fill-rule="nonzero" fill="rgb(0%, 0%, 0%)" fill-opacity="1" d="M 77.378906 35.058594 C 76.269531 31.234375 72.695312 28.398438 68.503906 28.398438 C 64.3125 28.398438 60.734375 31.234375 59.625 35.179688 C 62.585938 34.8125 65.789062 34.566406 69.367188 34.566406 C 72.203125 34.566406 74.914062 34.8125 77.378906 35.058594 M 53.089844 58.113281 L 53.089844 42.699219 C 41.625 45.90625 38.667969 52.6875 38.667969 58.113281 C 38.667969 62.179688 41.996094 65.386719 45.941406 65.386719 C 49.886719 65.386719 53.089844 62.058594 53.089844 58.113281 M 50.011719 81.78125 C 41.011719 81.78125 36.324219 87.699219 36.324219 94.109375 C 36.324219 101.632812 43.597656 108.535156 54.078125 108.535156 C 68.132812 108.535156 77.75 98.671875 77.75 84.863281 L 77.75 41.46875 C 75.160156 40.976562 72.449219 40.730469 69.367188 40.730469 C 65.542969 40.730469 62.214844 40.976562 59.257812 41.34375 L 59.257812 58.113281 C 59.257812 65.507812 53.339844 71.550781 45.941406 71.550781 C 38.542969 71.550781 32.503906 65.632812 32.503906 58.113281 C 32.503906 50.222656 36.449219 40.113281 53.089844 36.289062 C 53.832031 28.398438 60.488281 22.234375 68.503906 22.234375 C 76.515625 22.234375 83.171875 28.523438 83.789062 36.414062 C 98.953125 40.605469 104.5 52.195312 104.5 66.371094 L 104.5 101.632812 C 104.5 104.46875 106.722656 106.6875 109.554688 106.6875 C 111.28125 106.6875 112.640625 108.042969 112.640625 109.769531 C 112.640625 111.492188 111.28125 112.851562 109.554688 112.851562 C 103.269531 112.851562 98.335938 107.917969 98.335938 101.632812 L 98.335938 66.371094 C 98.335938 55.644531 94.390625 47.015625 83.914062 43.070312 L 83.914062 84.863281 C 83.914062 102.371094 71.832031 114.699219 54.078125 114.699219 C 39.902344 114.699219 30.160156 104.835938 30.160156 94.109375 C 30.160156 84.496094 36.820312 75.617188 50.011719 75.617188 L 69.734375 75.617188 C 71.460938 75.617188 72.816406 76.976562 72.816406 78.699219 C 72.816406 80.425781 71.460938 81.78125 69.734375 81.78125 Z M 50.011719 81.78125 "/>
</svg>
