<?xml version="1.0" encoding="UTF-8"?>
<svg id="Layer_1" xmlns="http://www.w3.org/2000/svg" version="1.1" viewBox="0 0 141.7 141.7">
  <!-- Generator: Adobe Illustrator 29.2.1, SVG Export Plug-In . SVG Version: 2.1.0 Build 116)  -->
  <path d="M49.109,80.395c-9.379,0-14.261,6.167-14.261,12.848,0,7.838,7.58,15.033,18.501,15.033,14.647,0,24.668-10.279,24.668-24.668v-45.225c-2.698-.514-5.524-.771-8.736-.771-3.983,0-7.452.257-10.535.642v17.474c0,7.709-6.167,14.004-13.876,14.004s-14.005-6.167-14.005-14.004c0-8.223,4.111-18.758,21.456-22.741.771-8.223,7.709-14.647,16.06-14.647s15.289,6.553,15.932,14.775c15.803,4.368,21.584,16.446,21.584,31.221v36.746c0,2.955,2.313,5.267,5.268,5.267,1.798,0,3.212,1.414,3.212,3.212s-1.414,3.212-3.212,3.212c-6.553,0-11.692-5.139-11.692-11.692v-36.746c0-11.178-4.111-20.171-15.033-24.283v43.555c0,18.244-12.591,31.093-31.092,31.093-14.775,0-24.925-10.279-24.925-21.457,0-10.021,6.938-19.272,20.685-19.272h20.557c1.798,0,3.212,1.413,3.212,3.212s-1.414,3.212-3.212,3.212h-20.557ZM52.32,55.727v-16.06c-11.949,3.341-15.032,10.407-15.032,16.06,0,4.24,3.469,7.58,7.581,7.58s7.452-3.469,7.452-7.58ZM77.631,31.701c-1.157-3.983-4.883-6.938-9.251-6.938s-8.094,2.955-9.251,7.067c3.083-.386,6.424-.642,10.15-.642,2.955,0,5.782.257,8.352.514Z"/>
</svg>