<?xml version="1.0" encoding="UTF-8"?>
<svg xmlns="http://www.w3.org/2000/svg" xmlns:xlink="http://www.w3.org/1999/xlink" width="141.7" height="141.7" viewBox="0 0 141.7 141.7">
<path fill-rule="evenodd" fill="rgb(0%, 0%, 0%)" fill-opacity="1" d="M 105.34375 78.515625 L 104.707031 78.160156 C 98.929688 89.878906 90.585938 105.699219 85.515625 105.699219 C 83.300781 105.699219 82.449219 102.964844 82.449219 100.085938 C 82.449219 96.691406 83.628906 91.105469 86.035156 82.59375 L 93.320312 56.28125 C 97.75 40.15625 99.753906 35.582031 101.972656 29.289062 L 101.640625 29.148438 C 99.945312 31.503906 98.246094 32.351562 96.382812 32.351562 C 92.660156 32.351562 89.074219 29.289062 82.636719 29.289062 C 67.171875 29.289062 55.644531 43.550781 55.644531 56.09375 C 55.644531 61.234375 57.320312 65.125 59.203125 68 C 49.703125 75.472656 38.316406 87.519531 38.316406 99.261719 C 38.316406 106.710938 42.417969 112.136719 48.476562 112.136719 C 58.6875 112.136719 69.554688 98.390625 76.535156 81.933594 C 73.800781 91.105469 72.101562 98.203125 72.101562 102.09375 C 72.101562 106.6875 73.988281 112.109375 79.246094 112.109375 C 87.542969 112.109375 97.398438 95.984375 105.367188 78.515625 Z M 48.171875 95.488281 C 48.171875 81.742188 56.683594 69.695312 67.03125 62.410156 C 64.09375 58.152344 62.449219 53.132812 62.292969 47.957031 C 62.292969 38.128906 68.730469 32.515625 76.886719 32.515625 C 83.179688 32.515625 87.074219 36.101562 87.074219 41.191406 C 87.074219 43.386719 87.074219 46.121094 84.007812 56.28125 L 77.902344 77.167969 C 69.910156 95.324219 61.964844 105.34375 55.667969 105.34375 C 50.386719 105.34375 48.171875 100.414062 48.171875 95.488281 Z M 48.171875 95.488281 "/>
</svg>
