<?xml version="1.0" encoding="UTF-8"?>
<svg xmlns="http://www.w3.org/2000/svg" xmlns:xlink="http://www.w3.org/1999/xlink" width="141.7" height="141.7" viewBox="0 0 141.7 141.7">
<path fill-rule="evenodd" fill="rgb(0%, 0%, 0%)" fill-opacity="1" d="M 105.785156 102.691406 L 105.785156 102.023438 C 95.984375 101.5 93.417969 98.265625 93.417969 90.535156 L 93.417969 52.1875 C 93.417969 37.128906 88.96875 29.589844 77.8125 29.589844 C 67.890625 29.589844 62.113281 35.371094 52.644531 35.371094 C 47.527344 35.371094 43.390625 32.660156 40.820312 27.878906 L 40.320312 28.019531 L 57.117188 72.21875 C 51.265625 76.667969 39.632812 85.066406 39.632812 96.722656 C 39.65625 105.738281 45.839844 112.445312 56.070312 112.445312 C 67.011719 112.445312 77.667969 104.359375 83.304688 94.296875 L 83.304688 113.136719 L 83.828125 113.136719 C 87.921875 107.164062 97.171875 103.738281 105.761719 102.691406 Z M 47.835938 90.011719 C 47.835938 81.804688 52.621094 76.6875 58.613281 72.550781 C 55.519531 64.84375 53.808594 57.636719 53.808594 50.996094 C 53.808594 39.699219 58.96875 34.035156 69.03125 34.035156 C 77.976562 34.035156 83.304688 40.695312 83.304688 55.921875 L 83.304688 92.960938 C 78.441406 99.550781 70.730469 103.433594 62.535156 103.402344 C 52.308594 103.402344 47.835938 97.21875 47.835938 90.011719 Z M 47.835938 90.011719 "/>
</svg>
