<?xml version="1.0" encoding="UTF-8"?>
<svg id="Layer_1" xmlns="http://www.w3.org/2000/svg" version="1.1" viewBox="0 0 141.7 141.7">
  <!-- Generator: Adobe Illustrator 29.1.0, SVG Export Plug-In . SVG Version: 2.1.0 Build 142)  -->
  <path id="T" d="M105.959,99.818v-.649c-9.556-.51-12.06-3.664-12.06-11.202v-37.387c0-14.682-4.337-22.033-15.215-22.033-9.672,0-15.307,5.636-24.538,5.636-4.987,0-9.022-2.644-11.527-7.305l-.487.139,16.374,43.093c-5.705,4.337-17.047,12.524-17.047,23.889.023,8.79,6.054,15.331,16.026,15.331,10.669,0,21.059-7.886,26.556-17.697v18.369h.51c3.989-5.822,13.011-9.161,21.384-10.181M49.46,87.456c0-8.002,4.662-12.988,10.506-17.024-3.015-7.514-4.685-14.542-4.685-21.013,0-11.016,5.033-16.537,14.843-16.537,8.721,0,13.915,6.494,13.915,21.338v36.111c-4.74,6.428-12.261,10.21-20.248,10.181-9.973,0-14.333-6.03-14.333-13.057"/>
</svg>