<?xml version="1.0" encoding="UTF-8"?>
<svg id="Layer_1" xmlns="http://www.w3.org/2000/svg" version="1.1" viewBox="0 0 141.7 141.7">
  <!-- Generator: Adobe Illustrator 29.1.0, SVG Export Plug-In . SVG Version: 2.1.0 Build 142)  -->
  <path id="ae" d="M106.058,77.093l-.631-.35c-5.727,11.618-14.002,27.302-19.028,27.302-2.197,0-3.039-2.711-3.039-5.563,0-3.366,1.169-8.906,3.553-17.344l7.223-26.087c4.395-15.989,6.381-20.524,8.579-26.764l-.327-.14c-1.683,2.337-3.366,3.179-5.213,3.179-3.694,0-7.247-3.039-13.628-3.039-15.334,0-26.764,14.142-26.764,26.577,0,5.096,1.66,8.953,3.529,11.805-9.42,7.41-20.71,19.354-20.71,30.996,0,7.386,4.068,12.763,10.075,12.763,10.121,0,20.897-13.628,27.817-29.943-2.711,9.093-4.395,16.129-4.395,19.985,0,4.558,1.87,9.934,7.083,9.934,8.228,0,17.999-15.989,25.9-33.31M49.373,93.923c0-13.628,8.439-25.572,18.7-32.795-2.913-4.224-4.544-9.2-4.699-14.329,0-9.747,6.381-15.311,14.47-15.311,6.241,0,10.099,3.553,10.099,8.602,0,2.174,0,4.886-3.039,14.96l-6.054,20.71c-7.924,17.999-15.802,27.933-22.043,27.933-5.236,0-7.434-4.886-7.434-9.771"/>
</svg>