<?xml version="1.0" encoding="UTF-8"?>
<svg id="Layer_1" xmlns="http://www.w3.org/2000/svg" version="1.1" viewBox="0 0 141.7 141.7">
  <!-- Generator: Adobe Illustrator 29.2.1, SVG Export Plug-In . SVG Version: 2.1.0 Build 116)  -->
  <path d="M79.487,60.455c0-15.149-4.236-17.918-10.913-17.918-7.005,0-12.705,5.539-14.334,12.869-.978,3.91-3.584,5.538-6.353,5.538-3.421,0-5.701-2.769-5.701-6.678,0-9.448,10.425-22.642,27.366-22.642,17.592,0,22.479,11.728,22.479,25.411,0,9.773-1.956,20.687-1.956,28.668,0,7.005,3.258,9.774,7.656,9.774,4.561,0,8.308-2.443,9.285-4.724l1.792,1.302c-1.792,4.236-6.679,15.475-16.452,15.475-8.634,0-12.054-7.656-12.217-17.267h-.814c-2.932,8.307-11.728,18.407-21.826,18.407-8.959,0-13.032-4.561-13.032-11.24,0-14.66,17.103-23.457,34.858-32.252.163-1.792.163-3.421.163-4.724ZM56.845,92.382c0,3.257,2.281,5.538,6.027,5.538,6.19,0,15.148-6.516,16.452-28.506-14.985,7.33-22.479,15.8-22.479,22.968Z"/>
</svg>