<?xml version="1.0" encoding="UTF-8"?>
<svg xmlns="http://www.w3.org/2000/svg" xmlns:xlink="http://www.w3.org/1999/xlink" width="141.7" height="141.7" viewBox="0 0 141.7 141.7">
<path fill-rule="nonzero" fill="rgb(0%, 0%, 0%)" fill-opacity="1" d="M 53.4375 94.617188 C 53.4375 98.121094 55.890625 100.574219 59.917969 100.574219 C 66.574219 100.574219 76.210938 93.5625 77.613281 69.914062 C 61.496094 77.796875 53.4375 86.90625 53.4375 94.617188 M 77.789062 60.277344 C 77.789062 43.984375 73.234375 41.003906 66.050781 41.003906 C 58.515625 41.003906 52.386719 46.960938 50.632812 54.847656 C 49.582031 59.050781 46.777344 60.804688 43.800781 60.804688 C 40.121094 60.804688 37.667969 57.824219 37.667969 53.621094 C 37.667969 43.457031 48.882812 29.269531 67.101562 29.269531 C 86.023438 29.269531 91.277344 41.882812 91.277344 56.597656 C 91.277344 67.109375 89.175781 78.847656 89.175781 87.433594 C 89.175781 94.964844 92.679688 97.945312 97.410156 97.945312 C 102.316406 97.945312 106.347656 95.316406 107.394531 92.863281 L 109.324219 94.265625 C 107.394531 98.820312 102.140625 110.910156 91.628906 110.910156 C 82.34375 110.910156 78.664062 102.675781 78.488281 92.339844 L 77.613281 92.339844 C 74.460938 101.273438 65 112.136719 54.136719 112.136719 C 44.5 112.136719 40.121094 107.230469 40.121094 100.046875 C 40.121094 84.28125 58.515625 74.816406 77.613281 65.359375 C 77.789062 63.429688 77.789062 61.679688 77.789062 60.277344 "/>
</svg>
