<?xml version="1.0" encoding="UTF-8"?>
<svg xmlns="http://www.w3.org/2000/svg" xmlns:xlink="http://www.w3.org/1999/xlink" width="141.7" height="141.7" viewBox="0 0 141.7 141.7">
<path fill-rule="evenodd" fill="rgb(0%, 0%, 0%)" fill-opacity="1" d="M 46.660156 30.476562 L 46.660156 37.566406 C 48.273438 36.707031 50.207031 36.601562 52.25 36.601562 L 80.292969 36.601562 C 85.449219 36.601562 88.671875 39.609375 88.671875 45.625 L 88.671875 61.3125 L 59.339844 61.3125 C 49.671875 61.3125 44.835938 67.222656 44.835938 75.925781 L 44.835938 96.230469 C 44.835938 104.933594 49.671875 111.058594 59.339844 111.058594 L 95.765625 111.058594 L 95.765625 45.195312 C 95.765625 36.601562 91.144531 30.582031 81.042969 30.582031 L 46.554688 30.582031 Z M 51.925781 75.710938 C 51.925781 69.90625 55.148438 66.683594 60.523438 66.683594 L 88.78125 66.683594 L 88.78125 105.042969 L 60.628906 105.042969 C 55.257812 105.042969 52.035156 101.605469 52.035156 95.800781 L 52.035156 75.601562 Z M 51.925781 75.710938 "/>
</svg>
