<?xml version="1.0" encoding="UTF-8"?>
<svg id="Layer_1" xmlns="http://www.w3.org/2000/svg" version="1.1" viewBox="0 0 141.7 141.7">
  <!-- Generator: Adobe Illustrator 29.2.1, SVG Export Plug-In . SVG Version: 2.1.0 Build 116)  -->
  <path d="M99.449,40.071v.746c-4.773,2.088-6.264,7.308-6.264,27.443,0,5.667.298,14.615.746,19.239,2.536,2.834,4.922,5.07,8.352,7.009l3.43-3.729,1.193,1.343-19.837,19.687c-4.325-5.668-9.992-11.186-16.704-16.108-5.07,4.027-11.036,10.291-15.51,16.108-3.132-4.623-12.826-13.125-20.284-15.958v-.746c3.132-1.939,4.474-4.623,4.474-10.142,0-2.684-.447-6.115-1.044-8.799l32.513-8.949c0-7.009-.298-11.335-.448-14.616-2.088-1.79-11.484-7.308-15.51-8.65-4.325,2.237-6.414,6.264-6.414,10.44,0,6.115,4.922,12.379,13.572,11.335v1.044c-12.528,1.492-19.985-6.413-19.985-14.914,0-5.816,2.983-12.08,13.721-18.792l14.019-8.65c5.22,5.071,22.67,14.169,29.978,15.66ZM62.312,100.622c-3.878-2.386-7.457-5.22-10.589-8.202,0-4.475.149-12.827.597-18.345l-3.878.894c1.044,5.966.895,15.511-1.491,18.792,4.623,2.089,9.098,6.414,12.826,9.695l2.535-2.834ZM85.28,44.097c-5.966-2.088-18.345-8.65-23.565-12.677l-4.027,2.386c3.878,1.194,17.897,9.098,22.968,12.826.298,9.247,1.044,35.347-.597,46.681,4.772,2.834,9.097,6.563,12.379,9.992l2.684-2.535c-1.939-1.343-8.65-6.712-11.036-8.949-.448-13.722-.298-42.207,1.193-47.726ZM70.515,70.794v-1.79l-8.65,1.939c-.298,6.114-.298,12.377-.298,18.194,1.342,1.939,4.474,4.325,6.413,5.37,1.79-1.491,2.536-5.071,2.536-23.713Z"/>
</svg>