<?xml version="1.0" encoding="UTF-8"?>
<svg id="Layer_1" xmlns="http://www.w3.org/2000/svg" version="1.1" viewBox="0 0 141.7 141.7">
  <!-- Generator: Adobe Illustrator 29.0.1, SVG Export Plug-In . SVG Version: 2.1.0 Build 192)  -->
  <path d="M70.6,26.4l-13.1,7.9c-10,6.2-12.8,11.9-12.8,17.2,0,7.8,7,15,18.7,13.7v-1c-8.1,1-12.7-4.8-12.7-10.4s2-7.5,6-9.6c3.8,1.2,12.5,6.3,14.5,7.9.2,3,.4,7,.4,13.4l-30.4,8.2c.6,2.5,1,5.6,1,8.1,0,5.1-1.3,7.5-4.2,9.3v.7c7,2.6,16,10.4,19,14.6,4.2-5.3,9.8-11.1,14.5-14.7,5.9,4.2,11.1,9.1,15.6,14.8l18.5-18-1.1-1.2-3.2,3.4c-3.2-1.8-5.4-3.8-7.8-6.4-.4-4.2-.7-12.4-.7-17.6,0-18.4,1.4-23.2,5.9-25.1v-.7c-6.8-1.4-23.2-9.7-28-14.3M69.2,90.6c-1.8-1-4.7-3.2-6-4.9,0-5.3,0-11.1.3-16.7l8.1-1.8v1.6c0,17.1-.7,20.3-2.4,21.7"/>
</svg>