<?xml version="1.0" encoding="UTF-8"?>
<svg xmlns="http://www.w3.org/2000/svg" xmlns:xlink="http://www.w3.org/1999/xlink" width="141.7" height="141.7" viewBox="0 0 141.7 141.7">
<path fill-rule="nonzero" fill="rgb(0%, 0%, 0%)" fill-opacity="1" d="M 70.515625 72.792969 L 70.515625 71.003906 L 61.867188 72.945312 C 61.566406 79.058594 61.566406 85.320312 61.566406 91.136719 C 62.910156 93.078125 66.042969 95.464844 67.980469 96.507812 C 69.769531 95.015625 70.515625 91.4375 70.515625 72.792969 M 85.28125 46.097656 C 79.3125 44.007812 66.933594 37.445312 61.714844 33.421875 L 57.6875 35.804688 C 61.566406 37 75.585938 44.902344 80.65625 48.632812 C 80.957031 57.878906 81.703125 83.980469 80.058594 95.3125 C 84.832031 98.148438 89.15625 101.878906 92.4375 105.304688 L 95.125 102.773438 C 93.183594 101.429688 86.472656 96.058594 84.085938 93.824219 C 83.640625 80.101562 83.789062 51.617188 85.28125 46.097656 M 62.3125 102.621094 C 58.433594 100.234375 54.855469 97.402344 51.722656 94.417969 C 51.722656 89.945312 51.871094 81.59375 52.320312 76.074219 L 48.441406 76.96875 C 49.484375 82.933594 49.335938 92.480469 46.949219 95.761719 C 51.574219 97.851562 56.046875 102.175781 59.777344 105.457031 Z M 99.449219 42.070312 L 99.449219 42.816406 C 94.675781 44.902344 93.183594 50.125 93.183594 70.257812 C 93.183594 75.925781 93.484375 84.875 93.929688 89.5 C 96.464844 92.332031 98.851562 94.566406 102.285156 96.507812 L 105.714844 92.777344 L 106.90625 94.121094 L 87.070312 113.808594 C 82.746094 108.140625 77.078125 102.621094 70.367188 97.699219 C 65.296875 101.726562 59.328125 107.992188 54.855469 113.808594 C 51.722656 109.183594 42.03125 100.683594 34.570312 97.851562 L 34.570312 97.105469 C 37.703125 95.164062 39.046875 92.480469 39.046875 86.960938 C 39.046875 84.277344 38.597656 80.847656 38.003906 78.164062 L 70.515625 69.214844 C 70.515625 62.207031 70.21875 57.878906 70.066406 54.597656 C 67.980469 52.808594 58.582031 47.292969 54.558594 45.949219 C 50.230469 48.183594 48.144531 52.210938 48.144531 56.386719 C 48.144531 62.503906 53.066406 68.765625 61.714844 67.722656 L 61.714844 68.765625 C 49.1875 70.257812 41.730469 62.355469 41.730469 53.851562 C 41.730469 48.035156 44.714844 41.773438 55.453125 35.0625 L 69.472656 26.410156 C 74.691406 31.480469 92.140625 40.578125 99.449219 42.070312 "/>
</svg>
