<?xml version="1.0" encoding="UTF-8"?>
<svg id="Layer_1" xmlns="http://www.w3.org/2000/svg" version="1.1" viewBox="0 0 141.7 141.7">
  <!-- Generator: Adobe Illustrator 29.1.0, SVG Export Plug-In . SVG Version: 2.1.0 Build 142)  -->
  <path d="M57.309,87.478c0-2.092,0-4.104.161-5.713l.241-1.046h-.081l-.643.885c-1.771,1.851-2.817,4.909-2.817,8.529,0,3.943.805,7.484,1.931,9.415.403.563.403,1.046-.161,1.609-.483.563-1.046.563-1.609.08-4.829-4.506-7.403-9.334-7.403-14.162,0-3.139,1.207-6.277,3.379-9.013l.644-.805-.081-.081-.805.644c-4.184,3.219-6.679,6.84-6.679,10.622,0,3.621,1.69,7.805,4.265,10.863.644.805.403,1.207.161,1.689-.241.644-.644.885-1.288.805-6.679-.643-11.185-6.115-11.185-13.841,0-12.151,12.955-21.324,37.498-26.635h.241c.644,0,1.127.483,1.127,1.127,0,.563-.402.965-.885,1.126-23.417,5.07-35.729,13.52-35.729,24.382,0,5.553,2.656,9.657,6.679,11.185l.965.483.081-.08-.805-.725c-2.092-3.138-3.38-7.001-3.38-10.38,0-7.243,7.403-14.163,18.669-17.623.644-.161,1.207.08,1.368.805.241.724,0,1.207-.724,1.448-6.518,2.495-11.265,8.369-11.265,14.002,0,2.736,1.046,5.633,2.977,8.449l.563.885h.08l-.322-1.046c-.402-1.609-.563-3.379-.563-5.231,0-5.311,2.093-9.737,5.472-11.587.725-.483,1.288-.08,1.609.161.483.402.725.805.725,1.448-.081,1.69-.161,4.345-.161,7.323,0,7.484,2.897,12.955,6.679,12.955,2.897,0,5.311-1.851,7.323-3.379,1.529-1.127,2.494-1.931,4.023-1.931-.322-1.69-.483-3.863-.483-5.955v-38.947c0-2.012-.322-3.782-.725-4.667-.241-.885-.241-1.127,0-1.771.322-.643.805-.965,1.449-.643,4.184,1.529,6.92,5.793,6.92,10.783l-.08,38.223c0,3.138,1.529,5.713,4.023,7.242l.885.644.08-.081-.563-.885c-.885-2.093-1.368-4.667-1.368-6.921l.161-40.637c0-5.794-5.633-11.105-14.404-13.438-.885-.242-.966-.966-.966-1.449.081-.724.403-1.127,1.127-1.127,1.127-.161,2.334-.241,3.461-.241,11.024,0,18.347,6.115,18.347,15.45l-.161,41.441c0,4.587,1.61,7.483,4.024,7.483,1.368,0,3.782-1.368,6.357-3.46l.885-.563v-.08l-1.046.321c-4.345.885-7.162-2.011-7.162-5.874l.241-40.476c.081-10.621-9.575-17.623-24.462-17.623-18.347,0-37.418,10.461-37.418,20.279,0,4.023,3.219,7.081,7.483,7.081s7.001-3.219,7.242-8.771c.161-2.334.483-4.667,1.771-8.047l.563-.885-.081-.081-.885.644c-6.759,3.701-10.541,7.161-10.541,9.737,0,1.127.805,2.011,1.771,2.011,1.126,0,2.253-1.609,2.253-3.46,0-.644.483-1.127,1.127-1.127s1.127.483,1.127,1.127c0,3.058-2.012,5.713-4.506,5.713-2.253,0-4.024-1.851-4.024-4.265,0-3.943,4.989-8.449,14.163-12.795.644-.322,1.127-.241,1.609.241.563.563.644.966.403,1.69-2.012,4.587-2.334,6.92-2.495,9.656-.241,6.679-3.943,10.863-9.495,10.863-5.472,0-9.737-4.104-9.737-9.334,0-11.347,20.037-22.531,39.671-22.531,16.093,0,26.796,7.966,26.715,19.875l-.241,40.476c0,2.173,1.449,3.863,3.299,3.863,1.609-.081,3.299-.483,4.989-1.287.644-.242,1.127-.161,1.529.402.483.563.724.965.08,1.69-3.862,4.104-8.529,7.242-11.185,7.242-3.782,0-6.277-3.943-6.277-9.737l.161-41.441c0-7.323-5.391-12.392-13.841-13.197l-1.046-.161-.081.161,1.047.321c6.679,3.139,10.863,8.047,10.863,13.68l-.161,40.637c0,2.655.724,5.794,1.931,8.047.322.563.322.966-.081,1.529-.402.563-.965.885-1.609.724-4.747-1.449-7.805-5.391-7.805-10.3l.081-38.223c0-2.977-1.207-5.633-3.139-7.403l-.643-.805-.161.081.403.965c.241,1.047.402,2.173.402,3.461v38.947c0,2.333.241,4.587.563,6.196.161.644,0,1.127-.563,1.609-.483.483-.885.483-1.448.483-.161-.08-.403-.08-.725-.08-.241,0-.724.322-2.253,1.448-2.012,1.529-4.989,3.863-8.691,3.863-5.231,0-8.932-6.437-8.932-15.209Z"/>
</svg>