<?xml version="1.0" encoding="UTF-8"?>
<svg id="Layer_1" xmlns="http://www.w3.org/2000/svg" version="1.1" viewBox="0 0 141.7 141.7">
  <!-- Generator: Adobe Illustrator 29.1.0, SVG Export Plug-In . SVG Version: 2.1.0 Build 142)  -->
  <path d="M56.831,84.891c0-1.486,0-2.834.073-4.026l.155-.964-.073-.082-.449.898c-1.134,2.025-1.699,4.319-1.633,6.639,0,3.266.523,6.263,1.413,8.052.539.684.421,1.675-.263,2.213-.01.008-.021.016-.031.024-.466.598-1.328.704-1.925.239-.089-.069-.169-.15-.239-.239-4.402-4.181-6.639-8.648-6.639-13.123.015-2.113.553-4.189,1.568-6.043l.523-.89-.073-.082-.67.751c-2.384,2.384-3.658,4.9-3.658,7.529.116,3.428,1.346,6.724,3.503,9.391.621.615.717,1.586.229,2.311-.198.794-.987,1.291-1.788,1.127-6.263-.751-10.363-6.043-10.363-13.278,0-11.555,12.151-20.129,35.041-25.127.147,0,.22-.073.376-.073.848.038,1.527.719,1.56,1.568-.03.727-.552,1.341-1.266,1.486-21.469,4.622-32.664,12.38-32.664,22.146,0,4.328,1.715,7.611,4.475,9.326l.817.596.073-.082-.596-.743c-1.526-2.633-2.368-5.606-2.45-8.648,0-6.86,6.786-13.343,17.149-16.626.72-.302,1.547.037,1.849.757.039.093.068.19.086.289.283.756-.101,1.598-.857,1.881-.059.022-.119.04-.18.054-5.594,2.384-9.62,7.456-9.62,12.38.023,1.989.506,3.946,1.413,5.716l.449.89.073-.073-.22-.972c-.131-.911-.183-1.832-.155-2.752,0-4.9,1.87-9.097,4.998-11.041.676-.37,1.511-.278,2.091.229.686.396,1.09,1.145,1.045,1.935-.073,1.568-.073,3.879-.073,6.41,0,6.639,2.531,11.482,5.667,11.482,2.531,0,4.622-1.56,6.484-2.981,1.494-1.119,2.45-1.788,3.43-1.862-.219-1.681-.32-3.376-.302-5.071v-36.061c0-1.206-.147-2.407-.441-3.577-.289-.802-.236-1.688.147-2.45.449-.89,1.119-1.266,2.009-.817,3.973,1.863,6.464,5.903,6.345,10.289l-.082,35.416c-.05,2.102.824,4.12,2.393,5.52l.67.743.073-.073-.449-.898c-.561-1.707-.837-3.495-.817-5.292l.147-37.654c0-4.998-4.9-9.693-12.527-11.857-.886-.192-1.472-1.038-1.339-1.935-.063-.809.541-1.517,1.351-1.58.051-.004.101-.005.152-.004.94-.12,1.887-.169,2.834-.147,10.518,0,17.524,5.814,17.524,14.764l-.147,38.381c0,3.952,1.339,6.41,3.201,6.41.898,0,2.45-.817,4.255-2.009l.89-.449-.073-.073-.964.147c-3.43-.147-5.447-2.907-5.447-6.043l.22-37.499c0-9.546-8.721-15.883-22.22-15.883-16.626,0-34.151,9.538-34.151,18.341,0,3.43,2.76,6.035,6.419,6.035s6.035-2.752,6.263-7.603c.039-2.195.459-4.367,1.241-6.419l.523-.817-.073-.073-.817.596c-5.439,3.062-8.427,5.969-8.427,7.978,0,.817.449,1.347,1.119,1.347s1.633-1.266,1.633-2.687c0-.838.657-1.529,1.494-1.568.852.033,1.534.716,1.568,1.568,0,2.981-2.091,5.716-4.704,5.716-2.332-.025-4.201-1.935-4.176-4.267,0-.045.002-.09.004-.135,0-3.871,4.549-8.052,12.976-12.151.718-.41,1.626-.253,2.164.376.817.817.964,1.339.596,2.311-1.267,2.611-2.003,5.448-2.164,8.346-.22,6.419-3.805,10.518-9.244,10.518s-9.473-3.912-9.473-9.056c0-10.812,18.717-21.403,37.205-21.403,15.213,0,25.356,7.611,25.315,18.945l-.229,37.499c0,1.797,1.119,3.062,2.54,3.136,1.388-.092,2.749-.42,4.026-.972.712-.391,1.602-.199,2.091.449.743.972.743,1.633.073,2.384-3.585,3.732-7.905,6.533-10.444,6.533-3.797,0-6.263-3.879-6.263-9.546l.155-38.381c0-5.716-3.732-9.848-9.693-11.335l-1.004-.212v.073l.817.449c4.998,2.907,7.978,7.235,7.978,11.784l-.147,37.654c-.01,2.345.5,4.662,1.494,6.786.434.764.343,1.717-.229,2.384-.415.686-1.266.97-2.009.67-4.34-1.269-7.3-5.278-7.235-9.799l.065-35.457c.015-1.962-.613-3.875-1.788-5.447l-.449-.89-.073.073.229.972c.088.617.138,1.239.147,1.862v36.086c-.004,1.746.119,3.49.367,5.218.247.862-.118,1.781-.89,2.238-.596.596-.972.751-1.421.67-.147,0-.367-.073-.596-.073-.618.389-1.215.812-1.788,1.266-1.862,1.494-4.769,3.732-8.346,3.732-5.136,0-8.721-6.19-8.721-14.617Z"/>
</svg>