<?xml version="1.0" encoding="UTF-8"?>
<svg id="Layer_1" xmlns="http://www.w3.org/2000/svg" version="1.1" viewBox="0 0 141.7 141.7">
  <!-- Generator: Adobe Illustrator 29.2.1, SVG Export Plug-In . SVG Version: 2.1.0 Build 116)  -->
  <defs>
    <style>
      .st0 {
        fill-rule: evenodd;
      }
    </style>
  </defs>
  <path class="st0" d="M110.866,44.389l-1.171-.234c-1.871-.351-2.456-1.989-1.52-4.561l.468-.819c1.17-2.924,3.041-3.743,5.147-2.222l1.638,1.17c1.989,1.404,2.339,2.924,1.171,4.093l-1.989,1.872c-.819.702-2.223.936-3.743.702ZM109.695,46.494l1.171-.118c2.457-.35,4.094-.234,4.561.351l1.521,1.754c.701.936.233,2.69-1.521,4.796l-1.17,1.287c-1.286,1.404-2.924.936-4.562-1.404l-1.17-1.754c-1.754-2.69-1.404-4.445,1.17-4.913h0ZM104.08,58.543l-1.286-.818c-1.404-.818-1.404-2.456-.118-4.913l.585-1.053c.936-1.989,2.573-2.223,5.029-.818l1.871,1.404c1.286.936.936,2.456-1.052,4.679l-.702.818c-1.404,1.404-2.924,1.638-4.328.702ZM103.028,61.35l1.754-1.052c1.404-.819,2.573-.468,3.392,1.052l1.287,2.105c.936,1.638.35,2.925-1.755,3.977l-1.52.818c-2.807,1.404-4.327.936-4.444-1.404l-.234-2.339c-.234-1.404.351-2.456,1.52-3.159h0ZM108.526,45.091l-.585,1.754c-.35,1.871-1.286,3.041-2.338,3.275l-1.287.118c-2.572.468-3.977-.702-3.977-3.158l-.118-1.638c-.116-1.754.936-2.925,2.925-3.509l.936-.818c4.094-2.573,5.614-1.053,4.445,3.977h0ZM98.466,46.144l-1.286-.818c-1.404-.819-1.404-2.457-.118-4.913l.585-1.053c.936-1.989,2.572-2.223,5.029-.818l1.871,1.404c1.287.936.936,2.457-1.052,4.679l-.702.818c-1.404,1.404-2.924,1.638-4.328.702ZM97.647,95.037l1.404-.701c2.573-1.405,4.328-1.405,5.147,0l1.171,1.988c.584,1.053,0,2.457-1.405,4.094l-.936,1.053c-.936,1.17-2.573,1.052-4.328-.468l-1.404-1.17c-1.871-1.754-1.754-3.393.351-4.796h0ZM97.414,48.951l1.754-1.053c1.404-.818,2.573-.468,3.392,1.053l1.287,2.105c.936,1.638.35,2.925-1.754,3.977l-1.521.818c-2.807,1.404-4.327.936-4.444-1.404l-.234-2.339c-.234-1.404.351-2.456,1.52-3.158ZM98.7,92.58l-1.404-.467c-1.989-.585-2.69-1.989-2.223-3.743l.468-1.989c.351-1.171,1.871-1.754,4.445-1.638h1.754c1.17.118,1.638,1.754,1.404,4.561l-.118,1.171c-.118,2.104-1.638,2.807-4.328,2.104h.002ZM96.245,70.473l1.404-.702c2.572-1.404,4.328-1.404,5.147,0l1.17,1.989c.585,1.053,0,2.456-1.404,4.094l-.936,1.052c-.936,1.17-2.573,1.052-4.328-.468l-1.404-1.17c-1.871-1.755-1.754-3.393.351-4.796ZM102.443,58.309l-.936,2.222c-.819,1.754-1.871,2.573-3.158,2.339l-1.873-.234c-1.988-.468-2.924-1.638-2.924-3.509l.351-1.521c.468-2.807,1.754-3.861,3.861-3.158l1.286.468c3.042.936,4.094,2.105,3.392,3.393ZM97.297,68.016l-1.404-.468c-1.989-.585-2.691-1.989-2.223-3.743l.468-1.989c.351-1.17,1.871-1.754,4.444-1.638h1.754c1.171.118,1.639,1.754,1.405,4.561l-.118,1.17c-.118,2.105-1.638,2.807-4.328,2.105h.002ZM91.799,57.957l1.404-.702c2.573-1.404,4.328-1.404,5.148,0l1.17,1.989c.585,1.053,0,2.456-1.404,4.093l-.936,1.053c-.936,1.17-2.572,1.053-4.328-.468l-1.404-1.17c-1.871-1.754-1.754-3.393.351-4.796h-.001ZM92.851,55.501l-1.404-.468c-1.989-.584-2.69-1.989-2.223-3.743l.468-1.989c.351-1.17,1.871-1.754,4.445-1.638h1.754c1.17.118,1.638,1.754,1.404,4.561l-.118,1.17c-.118,2.105-1.638,2.807-4.328,2.105h.002ZM91.683,81.351l-1.17-.233c-1.871-.351-2.457-1.989-1.521-4.562l.468-.818c1.171-2.925,3.042-3.744,5.148-2.224l1.638,1.171c1.989,1.405,2.338,2.924,1.17,4.094l-1.989,1.871c-.818.701-2.223.936-3.743.701ZM90.513,83.456l1.17-.118c2.457-.35,4.094-.233,4.562.351l1.52,1.754c.701.936.234,2.691-1.52,4.796l-1.171,1.286c-1.286,1.404-2.924.936-4.561-1.404l-1.171-1.754c-1.754-2.691-1.404-4.445,1.171-4.914h0ZM96.828,45.91l-.936,2.222c-.819,1.755-1.871,2.573-3.159,2.339l-1.87-.234c-1.989-.468-2.925-1.638-2.925-3.509l.351-1.52c.468-2.807,1.754-3.861,3.861-3.159l1.286.468c3.041.936,4.094,2.105,3.392,3.393ZM96.245,93.283l.118,1.989c.116,1.404-.819,2.691-2.573,3.392l-1.17.936c-2.339,1.871-3.977,1.052-4.445-2.339l-.234-2.223c-.585-3.977.585-5.614,3.041-4.561l1.521.701c2.456.936,3.743,1.638,3.743,2.105h-.001ZM94.84,68.718l.118,1.989c.118,1.404-.818,2.691-2.572,3.392l-1.171.936c-2.338,1.871-3.977,1.053-4.444-2.339l-.234-2.222c-.585-3.977.585-5.614,3.041-4.561l1.52.702c2.457.936,3.743,1.638,3.743,2.105h-.001ZM86.302,93.517l-1.286-.819c-1.405-.818-1.405-2.456-.118-4.913l.584-1.052c.936-1.989,2.573-2.223,5.03-.819l1.871,1.404c1.286.936.936,2.457-1.053,4.68l-.701.818c-1.405,1.405-2.925,1.639-4.328.702ZM86.886,45.792l-1.171-.234c-1.871-.35-2.456-1.989-1.52-4.561l.468-.818c1.17-2.925,3.041-3.743,5.147-2.223l1.638,1.17c1.989,1.404,2.339,2.925,1.171,4.094l-1.989,1.871c-.819.702-2.223.936-3.743.702h0ZM85.249,96.323l1.755-1.052c1.404-.818,2.572-.468,3.392,1.052l1.286,2.105c.936,1.638.351,2.925-1.754,3.977l-1.52.819c-2.808,1.404-4.328.936-4.445-1.404l-.234-2.339c-.234-1.404.351-2.457,1.52-3.159ZM85.717,47.898l1.171-.118c2.456-.351,4.093-.234,4.561.35l1.52,1.755c.702.936.234,2.69-1.52,4.796l-1.17,1.286c-1.287,1.404-2.925.936-4.562-1.404l-1.17-1.754c-1.754-2.691-1.404-4.445,1.17-4.913ZM86.418,69.655l-1.171-.234c-1.87-.351-2.456-1.989-1.52-4.561l.468-.818c1.17-2.925,3.041-3.743,5.147-2.223l1.638,1.17c1.989,1.404,2.339,2.925,1.171,4.093l-1.989,1.871c-.819.702-2.223.936-3.743.702ZM85.249,71.759l1.171-.118c2.457-.35,4.094-.234,4.561.351l1.521,1.754c.701.936.233,2.691-1.521,4.796l-1.17,1.286c-1.286,1.405-2.924.936-4.562-1.404l-1.17-1.754c-1.754-2.691-1.404-4.445,1.17-4.913ZM90.395,56.203l.118,1.989c.118,1.404-.819,2.69-2.573,3.392l-1.17.936c-2.339,1.871-3.977,1.053-4.445-2.339l-.234-2.223c-.585-3.977.585-5.614,3.042-4.561l1.52.702c2.456.936,3.743,1.638,3.743,2.105h-.001ZM89.342,82.053l-.584,1.754c-.351,1.871-1.287,3.042-2.339,3.275l-1.286.118c-2.573.468-3.977-.701-3.977-3.158l-.118-1.638c-.118-1.754.936-2.924,2.924-3.509l.936-.819c4.093-2.572,5.614-1.052,4.444,3.977h.001ZM80.804,80.884l-1.286-.819c-1.405-.818-1.405-2.457-.118-4.913l.584-1.053c.936-1.988,2.573-2.222,5.03-.818l1.871,1.404c1.286.936.936,2.457-1.053,4.68l-.701.818c-1.405,1.404-2.925,1.638-4.328.702ZM79.751,83.69l1.754-1.052c1.405-.819,2.573-.468,3.393,1.052l1.286,2.105c.936,1.638.351,2.925-1.754,3.977l-1.52.819c-2.808,1.404-4.328.936-4.445-1.405l-.234-2.338c-.234-1.405.351-2.457,1.52-3.159ZM84.547,46.494l-.585,1.754c-.351,1.872-1.286,3.041-2.339,3.275l-1.286.118c-2.573.468-3.977-.702-3.977-3.159l-.118-1.638c-.118-1.754.936-2.925,2.925-3.509l.936-.819c4.094-2.573,5.614-1.052,4.445,3.977h0ZM84.665,93.283l-.936,2.223c-.818,1.754-1.871,2.573-3.158,2.339l-1.871-.234c-1.989-.468-2.924-1.638-2.924-3.509l.35-1.521c.468-2.807,1.754-3.859,3.861-3.158l1.287.468c3.041.936,4.093,2.105,3.392,3.392h-.001ZM84.079,70.356l-.585,1.754c-.35,1.871-1.286,3.041-2.338,3.275l-1.287.118c-2.572.468-3.976-.702-3.976-3.159l-.118-1.638c-.118-1.754.936-2.924,2.924-3.509l.936-.818c4.093-2.573,5.613-1.053,4.444,3.977h.001ZM74.136,45.091l-1.286-.818c-1.404-.818-1.404-2.457-.118-4.913l.585-1.053c.936-1.989,2.573-2.223,5.029-.818l1.871,1.404c1.286.936.936,2.457-1.052,4.679l-.702.818c-1.404,1.404-2.924,1.638-4.328.702ZM73.084,47.898l1.754-1.053c1.404-.818,2.573-.468,3.392,1.053l1.287,2.105c.936,1.638.35,2.925-1.755,3.977l-1.52.818c-2.807,1.404-4.327.936-4.445-1.404l-.234-2.339c-.234-1.404.35-2.456,1.52-3.158h.001ZM79.166,80.65l-.936,2.223c-.818,1.754-1.871,2.572-3.158,2.338l-1.871-.233c-1.989-.468-2.925-1.639-2.925-3.51l.351-1.52c.468-2.807,1.754-3.859,3.859-3.158l1.287.468c3.041.936,4.093,2.105,3.392,3.392ZM69.107,81.001l-1.17-.234c-1.871-.351-2.457-1.989-1.521-4.562l.468-.818c1.17-2.925,3.041-3.744,5.147-2.223l1.638,1.17c1.989,1.405,2.338,2.925,1.17,4.094l-1.989,1.871c-.818.702-2.222.936-3.743.702h.001ZM67.937,83.106l1.17-.118c2.457-.351,4.094-.234,4.562.35l1.52,1.754c.702.936.234,2.691-1.52,4.796l-1.171,1.286c-1.286,1.404-2.924.936-4.561-1.404l-1.17-1.754c-1.754-2.691-1.404-4.445,1.17-4.913h0ZM72.499,44.857l-.936,2.223c-.819,1.754-1.871,2.573-3.159,2.339l-1.871-.234c-1.989-.468-2.925-1.638-2.925-3.509l.351-1.52c.468-2.807,1.754-3.861,3.861-3.159l1.286.468c3.041.936,4.094,2.105,3.392,3.392h.001ZM64.077,44.272l-1.17-.234c-1.871-.351-2.456-1.989-1.521-4.561l.468-.818c1.17-2.925,3.041-3.743,5.147-2.223l1.638,1.17c1.989,1.404,2.339,2.925,1.17,4.093l-1.989,1.872c-.819.702-2.223.936-3.743.702h.001ZM62.907,46.377l1.17-.118c2.456-.35,4.093-.234,4.561.351l1.52,1.754c.702.936.234,2.69-1.52,4.796l-1.17,1.287c-1.287,1.404-2.925.936-4.561-1.404l-1.17-1.754c-1.754-2.69-1.404-4.445,1.17-4.913h0ZM61.855,91.762l-1.287-.819c-1.404-.818-1.404-2.456-.116-4.913l.584-1.052c.936-1.989,2.573-2.223,5.03-.819l1.871,1.404c1.286.936.936,2.457-1.053,4.68l-.702.818c-1.404,1.405-2.925,1.638-4.327.702ZM60.802,94.569l1.754-1.052c1.404-.819,2.573-.468,3.393,1.052l1.286,2.105c.936,1.638.351,2.925-1.754,3.977l-1.52.819c-2.807,1.404-4.328.936-4.445-1.405l-.234-2.338c-.234-1.405.35-2.457,1.52-3.159ZM66.768,81.702l-.585,1.754c-.35,1.871-1.286,3.042-2.339,3.276l-1.287.118c-2.573.467-3.977-.702-3.977-3.159l-.118-1.638c-.118-1.754.936-2.924,2.924-3.509l.936-.819c4.093-2.572,5.614-1.052,4.445,3.977h.002ZM57.761,56.437l-1.286-.819c-1.404-.818-1.404-2.456-.118-4.913l.584-1.053c.936-1.989,2.573-2.223,5.03-.818l1.871,1.404c1.286.936.936,2.457-1.053,4.679l-.702.818c-1.404,1.404-2.925,1.638-4.328.702h.001ZM56.708,59.244l1.754-1.053c1.404-.818,2.573-.468,3.392,1.053l1.287,2.105c.936,1.638.35,2.925-1.755,3.977l-1.52.818c-2.807,1.404-4.327.936-4.445-1.404l-.234-2.339c-.234-1.404.351-2.456,1.521-3.158ZM61.738,44.974l-.584,1.754c-.351,1.872-1.287,3.041-2.339,3.275l-1.286.118c-2.573.468-3.977-.702-3.977-3.158l-.118-1.638c-.118-1.755.936-2.925,2.925-3.509l.936-.818c4.093-2.573,5.614-1.053,4.445,3.977h-.001ZM60.217,91.528l-.936,2.223c-.818,1.754-1.871,2.572-3.159,2.339l-1.871-.234c-1.989-.468-2.925-1.638-2.925-3.509l.351-1.521c.468-2.807,1.754-3.859,3.861-3.158l1.286.468c3.041.936,4.094,2.105,3.393,3.392ZM51.21,70.824l1.404-.702c2.573-1.404,4.327-1.404,5.147,0l1.17,1.989c.584,1.053,0,2.456-1.404,4.093l-.936,1.053c-.936,1.17-2.573,1.052-4.328-.468l-1.404-1.17c-1.871-1.755-1.754-3.393.35-4.796h.001ZM52.264,68.368l-1.404-.468c-1.989-.584-2.69-1.988-2.223-3.743l.468-1.988c.35-1.17,1.871-1.755,4.445-1.638h1.754c1.17.118,1.638,1.754,1.404,4.561l-.118,1.17c-.118,2.105-1.638,2.807-4.328,2.105h.002ZM49.924,95.154l1.404-.701c2.573-1.405,4.328-1.405,5.147,0l1.17,1.988c.585,1.053,0,2.457-1.404,4.094l-.936,1.053c-.936,1.17-2.573,1.052-4.327-.468l-1.404-1.17c-1.871-1.754-1.754-3.393.351-4.796h-.001ZM56.123,56.203l-.936,2.223c-.818,1.754-1.871,2.573-3.159,2.339l-1.871-.234c-1.988-.468-2.924-1.638-2.924-3.509l.35-1.52c.468-2.807,1.754-3.861,3.861-3.159l1.287.468c3.041.936,4.093,2.105,3.392,3.392ZM50.976,92.697l-1.404-.467c-1.989-.585-2.69-1.989-2.222-3.743l.468-1.989c.351-1.171,1.871-1.754,4.445-1.638h1.754c1.17.118,1.638,1.754,1.404,4.561l-.118,1.171c-.118,2.104-1.638,2.807-4.327,2.104ZM45.947,80.415l-1.17-.234c-1.871-.351-2.456-1.989-1.52-4.561l.468-.819c1.17-2.925,3.041-3.743,5.147-2.223l1.638,1.17c1.989,1.405,2.339,2.925,1.17,4.094l-1.989,1.871c-.818.702-2.223.936-3.743.702ZM44.776,82.522l1.17-.118c2.456-.351,4.094-.234,4.561.351l1.52,1.754c.702.936.234,2.69-1.52,4.795l-1.17,1.287c-1.286,1.404-2.925.936-4.561-1.405l-1.17-1.754c-1.755-2.69-1.404-4.444,1.17-4.913h0ZM44.076,57.841l1.404-.702c2.573-1.404,4.327-1.404,5.147,0l1.17,1.989c.584,1.053,0,2.456-1.404,4.093l-.936,1.053c-.936,1.17-2.573,1.053-4.327-.468l-1.404-1.17c-1.871-1.754-1.754-3.392.351-4.796h-.001ZM45.128,55.384l-1.404-.468c-1.988-.584-2.69-1.989-2.222-3.743l.468-1.989c.351-1.17,1.871-1.754,4.445-1.638h1.755c1.17.118,1.638,1.754,1.404,4.561l-.118,1.17c-.118,2.105-1.638,2.807-4.327,2.105h-.001ZM49.807,69.07l.118,1.989c.118,1.404-.818,2.69-2.573,3.392l-1.17.936c-2.339,1.871-3.977,1.052-4.445-2.339l-.234-2.223c-.585-3.977.584-5.614,3.041-4.561l1.521.702c2.456.936,3.743,1.638,3.743,2.105h-.001ZM48.519,93.399l.118,1.989c.118,1.404-.818,2.691-2.573,3.392l-1.17.936c-2.339,1.871-3.977,1.052-4.445-2.339l-.234-2.223c-.584-3.977.584-5.614,3.041-4.561l1.52.701c2.457.936,3.743,1.638,3.743,2.105h0ZM39.046,93.165l-1.286-.818c-1.404-.819-1.404-2.457-.118-4.914l.584-1.052c.936-1.989,2.573-2.223,5.03-.819l1.871,1.405c1.286.936.936,2.456-1.053,4.679l-.702.819c-1.404,1.404-2.925,1.638-4.328.701h.001ZM37.993,95.973l1.754-1.053c1.404-.818,2.573-.467,3.392,1.053l1.287,2.105c.936,1.638.35,2.924-1.755,3.976l-1.52.819c-2.807,1.404-4.327.936-4.445-1.404l-.234-2.339c-.234-1.404.351-2.457,1.521-3.158ZM39.046,67.784l-1.17-.234c-1.871-.351-2.457-1.989-1.521-4.561l.468-.818c1.17-2.925,3.041-3.743,5.147-2.223l1.638,1.17c1.988,1.404,2.339,2.925,1.17,4.093l-1.989,1.871c-.818.702-2.222.936-3.743.702h.001ZM37.876,69.888l1.17-.118c2.457-.35,4.094-.234,4.562.351l1.52,1.754c.702.936.234,2.69-1.52,4.796l-1.17,1.286c-1.287,1.405-2.925.936-4.561-1.404l-1.17-1.754c-1.754-2.69-1.404-4.445,1.17-4.913h-.001ZM43.608,81.118l-.585,1.754c-.351,1.871-1.286,3.041-2.339,3.275l-1.287.118c-2.573.468-3.977-.702-3.977-3.158l-.118-1.639c-.118-1.754.936-2.924,2.925-3.509l.936-.818c4.094-2.573,5.614-1.052,4.445,3.977h.001ZM42.671,56.086l.118,1.989c.118,1.404-.818,2.69-2.573,3.392l-1.17.936c-2.339,1.871-3.977,1.053-4.445-2.339l-.234-2.223c-.584-3.977.585-5.614,3.041-4.561l1.52.702c2.457.936,3.743,1.638,3.743,2.105ZM32.963,80.299l-1.287-.818c-1.404-.819-1.404-2.457-.118-4.914l.585-1.053c.936-1.988,2.573-2.222,5.029-.818l1.871,1.404c1.287.936.936,2.457-1.052,4.68l-.702.818c-1.404,1.405-2.925,1.639-4.327.702ZM31.91,83.106l1.754-1.053c1.404-.818,2.573-.468,3.392,1.053l1.287,2.104c.936,1.639.351,2.925-1.754,3.977l-1.52.819c-2.807,1.404-4.328.936-4.445-1.404l-.234-2.339c-.234-1.404.35-2.457,1.52-3.158ZM37.408,92.931l-.936,2.223c-.818,1.754-1.871,2.573-3.159,2.339l-1.871-.234c-1.988-.468-2.924-1.638-2.924-3.509l.35-1.52c.468-2.808,1.754-3.861,3.861-3.159l1.287.468c3.041.936,4.093,2.105,3.392,3.392ZM36.706,68.484l-.584,1.754c-.351,1.871-1.287,3.041-2.339,3.274l-1.287.118c-2.573.468-3.977-.701-3.977-3.158l-.118-1.638c-.118-1.754.936-2.924,2.925-3.509l.936-.818c4.093-2.573,5.614-1.053,4.445,3.977ZM31.326,80.065l-.936,2.223c-.819,1.754-1.871,2.573-3.159,2.339l-1.871-.234c-1.989-.468-2.925-1.638-2.925-3.509l.351-1.52c.468-2.808,1.754-3.861,3.861-3.159l1.286.468c3.041.936,4.094,2.105,3.393,3.392Z"/>
</svg>