<?xml version="1.0" encoding="UTF-8"?>
<svg xmlns="http://www.w3.org/2000/svg" xmlns:xlink="http://www.w3.org/1999/xlink" width="141.7" height="141.7" viewBox="0 0 141.7 141.7">
<path fill-rule="evenodd" fill="rgb(0%, 0%, 0%)" fill-opacity="1" d="M 55.714844 93.476562 C 55.714844 91.167969 55.714844 88.949219 55.894531 87.171875 L 56.160156 86.015625 L 56.070312 86.015625 L 55.363281 86.992188 C 53.40625 89.035156 52.253906 92.410156 52.253906 96.40625 C 52.253906 100.757812 53.140625 104.667969 54.382812 106.796875 C 54.828125 107.417969 54.828125 107.953125 54.207031 108.574219 C 53.671875 109.195312 53.050781 109.195312 52.429688 108.660156 C 47.101562 103.6875 44.257812 98.359375 44.257812 93.03125 C 44.257812 89.566406 45.589844 86.105469 47.988281 83.085938 L 48.699219 82.195312 L 48.609375 82.105469 L 47.722656 82.816406 C 43.101562 86.371094 40.351562 90.367188 40.351562 94.539062 C 40.351562 98.535156 42.214844 103.15625 45.058594 106.53125 C 45.769531 107.417969 45.503906 107.863281 45.234375 108.394531 C 44.96875 109.105469 44.523438 109.371094 43.8125 109.28125 C 36.441406 108.574219 31.46875 102.535156 31.46875 94.007812 C 31.46875 80.59375 45.765625 70.472656 72.855469 64.609375 L 73.121094 64.609375 C 73.832031 64.609375 74.363281 65.144531 74.363281 65.851562 C 74.363281 66.476562 73.921875 66.917969 73.386719 67.097656 C 47.542969 72.691406 33.953125 82.019531 33.953125 94.007812 C 33.953125 100.132812 36.886719 104.664062 41.324219 106.351562 L 42.390625 106.882812 L 42.480469 106.796875 L 41.589844 105.996094 C 39.28125 102.53125 37.863281 98.269531 37.863281 94.539062 C 37.863281 86.546875 46.03125 78.910156 58.464844 75.089844 C 59.175781 74.910156 59.796875 75.175781 59.976562 75.976562 C 60.242188 76.777344 59.976562 77.308594 59.175781 77.574219 C 51.984375 80.328125 46.742188 86.8125 46.742188 93.03125 C 46.742188 96.050781 47.898438 99.246094 50.03125 102.355469 L 50.652344 103.332031 L 50.738281 103.332031 L 50.382812 102.175781 C 49.941406 100.402344 49.761719 98.449219 49.761719 96.402344 C 49.761719 90.542969 52.074219 85.65625 55.800781 83.617188 C 56.601562 83.082031 57.222656 83.527344 57.578125 83.792969 C 58.109375 84.238281 58.378906 84.679688 58.378906 85.390625 C 58.289062 87.257812 58.199219 90.1875 58.199219 93.472656 C 58.199219 101.734375 61.398438 107.773438 65.570312 107.773438 C 68.769531 107.773438 71.433594 105.726562 73.652344 104.042969 C 75.339844 102.796875 76.40625 101.910156 78.09375 101.910156 C 77.738281 100.046875 77.558594 97.648438 77.558594 95.339844 L 77.558594 52.351562 C 77.558594 50.132812 77.203125 48.179688 76.761719 47.203125 C 76.496094 46.226562 76.496094 45.960938 76.761719 45.25 C 77.117188 44.539062 77.648438 44.183594 78.359375 44.539062 C 82.976562 46.226562 85.996094 50.933594 85.996094 56.441406 L 85.910156 98.625 C 85.910156 102.089844 87.59375 104.929688 90.347656 106.617188 L 91.324219 107.328125 L 91.414062 107.238281 L 90.792969 106.261719 C 89.816406 103.953125 89.28125 101.113281 89.28125 98.625 L 89.460938 53.773438 C 89.460938 47.378906 83.242188 41.519531 73.5625 38.945312 C 72.585938 38.675781 72.496094 37.878906 72.496094 37.34375 C 72.585938 36.542969 72.941406 36.101562 73.742188 36.101562 C 74.984375 35.921875 76.316406 35.835938 77.558594 35.835938 C 89.726562 35.835938 97.808594 42.582031 97.808594 52.886719 L 97.632812 98.621094 C 97.632812 103.683594 99.410156 106.882812 102.074219 106.882812 C 103.582031 106.882812 106.246094 105.371094 109.089844 103.0625 L 110.066406 102.441406 L 110.066406 102.351562 L 108.910156 102.707031 C 104.117188 103.683594 101.007812 100.488281 101.007812 96.222656 L 101.273438 51.550781 C 101.363281 39.832031 90.703125 32.101562 74.273438 32.101562 C 54.027344 32.101562 32.976562 43.648438 32.976562 54.484375 C 32.976562 58.921875 36.53125 62.300781 41.238281 62.300781 C 45.941406 62.300781 48.964844 58.746094 49.230469 52.617188 C 49.40625 50.042969 49.761719 47.46875 51.183594 43.738281 L 51.804688 42.761719 L 51.714844 42.671875 L 50.738281 43.382812 C 43.28125 47.464844 39.105469 51.285156 39.105469 54.128906 C 39.105469 55.371094 39.992188 56.347656 41.058594 56.347656 C 42.300781 56.347656 43.546875 54.574219 43.546875 52.53125 C 43.546875 51.820312 44.078125 51.285156 44.789062 51.285156 C 45.5 51.285156 46.035156 51.820312 46.035156 52.53125 C 46.035156 55.90625 43.8125 58.835938 41.058594 58.835938 C 38.574219 58.835938 36.621094 56.792969 36.621094 54.128906 C 36.621094 49.777344 42.125 44.800781 52.25 40.007812 C 52.960938 39.652344 53.496094 39.742188 54.027344 40.273438 C 54.648438 40.894531 54.738281 41.339844 54.472656 42.136719 C 52.25 47.199219 51.894531 49.773438 51.71875 52.792969 C 51.453125 60.164062 47.367188 64.785156 41.238281 64.785156 C 35.199219 64.785156 30.492188 60.253906 30.492188 54.480469 C 30.492188 41.957031 52.605469 29.613281 74.277344 29.613281 C 92.039062 29.613281 103.847656 38.40625 103.761719 51.550781 L 103.496094 96.222656 C 103.496094 98.621094 105.09375 100.484375 107.136719 100.484375 C 108.910156 100.398438 110.777344 99.953125 112.640625 99.066406 C 113.351562 98.796875 113.886719 98.886719 114.328125 99.507812 C 114.863281 100.128906 115.128906 100.574219 114.417969 101.375 C 110.15625 105.902344 105.003906 109.367188 102.074219 109.367188 C 97.898438 109.367188 95.144531 105.015625 95.144531 98.621094 L 95.324219 52.882812 C 95.324219 44.800781 89.371094 39.207031 80.046875 38.320312 L 78.890625 38.140625 L 78.804688 38.320312 L 79.957031 38.671875 C 87.328125 42.136719 91.949219 47.554688 91.949219 53.769531 L 91.769531 98.621094 C 91.769531 101.550781 92.570312 105.015625 93.902344 107.5 C 94.257812 108.125 94.257812 108.570312 93.8125 109.191406 C 93.367188 109.808594 92.746094 110.167969 92.035156 109.988281 C 86.796875 108.390625 83.421875 104.039062 83.421875 98.621094 L 83.511719 56.433594 C 83.511719 53.148438 82.179688 50.21875 80.046875 48.265625 L 79.335938 47.375 L 79.160156 47.464844 L 79.605469 48.53125 C 79.871094 49.6875 80.046875 50.929688 80.046875 52.351562 L 80.046875 95.335938 C 80.046875 97.910156 80.3125 100.398438 80.667969 102.171875 C 80.847656 102.882812 80.667969 103.417969 80.046875 103.949219 C 79.515625 104.484375 79.070312 104.484375 78.449219 104.484375 C 78.273438 104.394531 78.003906 104.394531 77.648438 104.394531 C 77.382812 104.394531 76.851562 104.75 75.164062 105.992188 C 72.941406 107.679688 69.65625 110.253906 65.570312 110.253906 C 59.796875 110.253906 55.714844 103.152344 55.714844 93.46875 Z M 55.714844 93.476562 "/>
</svg>
