<?xml version="1.0" encoding="UTF-8"?>
<svg id="Layer_1" xmlns="http://www.w3.org/2000/svg" version="1.1" viewBox="0 0 141.7 141.7">
  <!-- Generator: Adobe Illustrator 29.1.0, SVG Export Plug-In . SVG Version: 2.1.0 Build 142)  -->
  <path d="M36.42,77.714l-.812,1.929c-.711,1.522-1.624,2.233-2.741,2.03l-1.624-.203c-1.726-.406-2.538-1.421-2.538-3.045l.305-1.319c.406-2.437,1.522-3.35,3.35-2.741l1.116.406c2.639.812,3.553,1.827,2.944,2.943ZM41.089,67.665l-.507,1.522c-.305,1.624-1.117,2.639-2.03,2.841l-1.117.102c-2.233.406-3.451-.608-3.451-2.74l-.102-1.421c-.102-1.522.812-2.537,2.538-3.045l.812-.71c3.552-2.233,4.872-.914,3.857,3.451ZM41.698,88.879l-.812,1.929c-.71,1.522-1.624,2.233-2.741,2.03l-1.624-.203c-1.725-.406-2.537-1.421-2.537-3.045l.304-1.319c.406-2.437,1.522-3.35,3.35-2.741l1.117.406c2.639.812,3.552,1.827,2.943,2.943ZM36.927,80.353l1.522-.914c1.218-.71,2.233-.406,2.943.914l1.117,1.826c.812,1.422.305,2.538-1.522,3.451l-1.319.711c-2.436,1.218-3.756.812-3.857-1.218l-.203-2.03c-.203-1.218.304-2.132,1.319-2.74ZM37.841,77.917l-1.117-.71c-1.218-.711-1.218-2.132-.102-4.264l.508-.914c.812-1.725,2.233-1.928,4.364-.71l1.624,1.218c1.117.812.812,2.132-.913,4.061l-.609.71c-1.218,1.219-2.538,1.422-3.755.609ZM46.265,56.906l.102,1.726c.102,1.218-.71,2.334-2.233,2.943l-1.015.812c-2.03,1.624-3.451.914-3.857-2.03l-.203-1.929c-.507-3.451.508-4.872,2.639-3.958l1.319.609c2.132.812,3.248,1.421,3.248,1.827ZM47.078,78.628l-.508,1.522c-.305,1.624-1.116,2.639-2.03,2.842l-1.117.102c-2.233.406-3.451-.609-3.451-2.74l-.102-1.422c-.102-1.522.812-2.537,2.538-3.045l.812-.71c3.553-2.233,4.872-.913,3.857,3.451ZM42.104,68.883l1.015-.102c2.132-.304,3.553-.203,3.959.305l1.319,1.522c.609.812.203,2.334-1.319,4.162l-1.015,1.116c-1.117,1.219-2.538.812-3.958-1.218l-1.015-1.522c-1.522-2.334-1.218-3.857,1.015-4.263ZM43.119,67.057l-1.015-.203c-1.624-.305-2.132-1.726-1.32-3.958l.406-.71c1.015-2.538,2.639-3.248,4.466-1.929l1.421,1.015c1.725,1.218,2.03,2.538,1.015,3.552l-1.726,1.624c-.71.609-1.928.812-3.248.609ZM42.206,91.518l1.522-.914c1.218-.71,2.233-.405,2.943.914l1.117,1.827c.812,1.421.304,2.537-1.523,3.45l-1.319.711c-2.436,1.218-3.755.812-3.857-1.218l-.203-2.03c-.203-1.218.305-2.132,1.32-2.74ZM43.119,89.082l-1.116-.71c-1.218-.711-1.218-2.132-.102-4.264l.507-.913c.812-1.726,2.233-1.929,4.365-.711l1.624,1.219c1.116.812.812,2.131-.914,4.06l-.609.711c-1.218,1.218-2.538,1.421-3.756.608ZM51.34,89.285l.102,1.726c.102,1.218-.71,2.335-2.233,2.943l-1.015.812c-2.03,1.624-3.451.913-3.857-2.03l-.203-1.929c-.507-3.451.507-4.872,2.639-3.958l1.319.608c2.132.812,3.248,1.421,3.248,1.827ZM52.457,68.173l.102,1.726c.102,1.218-.71,2.334-2.233,2.943l-1.015.812c-2.03,1.624-3.451.913-3.857-2.03l-.203-1.929c-.508-3.451.507-4.872,2.639-3.958l1.32.609c2.131.812,3.248,1.421,3.248,1.827ZM48.397,56.297l-1.218-.406c-1.725-.507-2.334-1.726-1.928-3.248l.406-1.726c.305-1.015,1.624-1.522,3.857-1.421h1.523c1.015.102,1.421,1.522,1.218,3.958l-.102,1.015c-.102,1.827-1.421,2.436-3.755,1.827ZM47.484,58.429l1.218-.609c2.233-1.218,3.755-1.218,4.466,0l1.015,1.726c.507.914,0,2.131-1.218,3.552l-.812.914c-.812,1.015-2.233.914-3.755-.406l-1.218-1.015c-1.624-1.522-1.522-2.943.305-4.162ZM48.092,79.846l1.015-.102c2.131-.305,3.553-.203,3.958.305l1.319,1.522c.609.812.203,2.334-1.319,4.161l-1.015,1.117c-1.116,1.218-2.538.812-3.958-1.219l-1.015-1.522c-1.523-2.334-1.218-3.856,1.015-4.263ZM49.108,78.018l-1.015-.203c-1.624-.305-2.131-1.726-1.319-3.958l.406-.711c1.015-2.538,2.639-3.248,4.466-1.929l1.421,1.015c1.726,1.219,2.03,2.538,1.015,3.553l-1.726,1.624c-.71.609-1.929.812-3.248.609ZM53.472,88.676l-1.218-.405c-1.726-.508-2.334-1.726-1.928-3.248l.406-1.726c.305-1.016,1.624-1.522,3.857-1.421h1.522c1.015.102,1.421,1.522,1.218,3.958l-.102,1.016c-.102,1.826-1.421,2.436-3.755,1.826ZM57.938,57.008l-.812,1.929c-.71,1.522-1.624,2.233-2.741,2.03l-1.624-.203c-1.725-.406-2.537-1.421-2.537-3.045l.304-1.319c.406-2.436,1.522-3.35,3.35-2.741l1.117.406c2.639.812,3.552,1.827,2.943,2.943ZM52.559,90.808l1.218-.608c2.233-1.219,3.756-1.219,4.466,0l1.015,1.725c.508.914,0,2.132-1.218,3.553l-.812.914c-.812,1.015-2.233.913-3.755-.406l-1.218-1.015c-1.624-1.522-1.522-2.944.305-4.162ZM54.589,67.564l-1.218-.406c-1.726-.507-2.334-1.725-1.929-3.248l.406-1.725c.304-1.015,1.624-1.523,3.857-1.421h1.522c1.015.102,1.421,1.522,1.218,3.958l-.102,1.015c-.102,1.827-1.421,2.436-3.756,1.827ZM53.675,69.695l1.218-.609c2.233-1.218,3.755-1.218,4.466,0l1.015,1.726c.507.914,0,2.131-1.218,3.552l-.812.914c-.812,1.015-2.233.913-3.756-.406l-1.218-1.015c-1.624-1.523-1.522-2.944.304-4.162ZM61.491,87.661l-.812,1.929c-.71,1.522-1.624,2.232-2.741,2.03l-1.624-.203c-1.726-.406-2.538-1.421-2.538-3.045l.305-1.32c.406-2.436,1.522-3.349,3.35-2.74l1.116.406c2.639.812,3.553,1.827,2.944,2.943ZM62.81,47.264l-.507,1.522c-.305,1.624-1.117,2.639-2.03,2.842l-1.116.102c-2.233.406-3.451-.609-3.451-2.74l-.102-1.421c-.102-1.523.812-2.538,2.538-3.045l.812-.71c3.552-2.233,4.872-.914,3.857,3.451ZM58.446,59.647l1.522-.914c1.218-.71,2.233-.406,2.943.914l1.117,1.827c.812,1.421.304,2.538-1.523,3.451l-1.319.71c-2.436,1.218-3.755.812-3.857-1.218l-.203-2.03c-.203-1.218.305-2.131,1.32-2.74ZM59.359,57.211l-1.116-.711c-1.218-.71-1.218-2.131-.102-4.263l.507-.914c.812-1.726,2.233-1.929,4.365-.71l1.624,1.218c1.116.812.812,2.132-.914,4.06l-.609.71c-1.218,1.218-2.538,1.421-3.756.609ZM67.175,79.135l-.508,1.522c-.304,1.624-1.116,2.64-2.03,2.843l-1.117.102c-2.233.405-3.451-.609-3.451-2.741l-.102-1.421c-.102-1.522.812-2.537,2.537-3.045l.812-.711c3.552-2.232,4.872-.913,3.857,3.451ZM61.998,90.3l1.522-.913c1.218-.711,2.233-.406,2.944.913l1.116,1.827c.812,1.421.305,2.538-1.522,3.451l-1.319.711c-2.436,1.218-3.756.812-3.857-1.219l-.203-2.029c-.203-1.219.304-2.132,1.319-2.741ZM62.912,87.864l-1.117-.711c-1.218-.71-1.218-2.131-.101-4.263l.507-.913c.812-1.726,2.233-1.929,4.365-.711l1.624,1.218c1.116.812.812,2.132-.914,4.061l-.609.71c-1.218,1.219-2.538,1.421-3.755.609ZM63.825,48.481l1.015-.102c2.131-.304,3.552-.203,3.958.305l1.319,1.522c.609.812.203,2.334-1.319,4.162l-1.015,1.117c-1.117,1.218-2.538.812-3.958-1.218l-1.015-1.522c-1.522-2.334-1.218-3.857,1.015-4.263ZM64.84,46.655l-1.015-.203c-1.624-.305-2.131-1.726-1.32-3.958l.406-.71c1.015-2.538,2.639-3.248,4.466-1.929l1.421,1.015c1.726,1.218,2.03,2.538,1.015,3.552l-1.726,1.624c-.711.609-1.929.812-3.248.609ZM72.148,47.162l-.812,1.929c-.711,1.522-1.624,2.233-2.741,2.03l-1.624-.203c-1.726-.406-2.538-1.421-2.538-3.045l.305-1.319c.406-2.436,1.522-3.35,3.35-2.741l1.116.406c2.639.812,3.553,1.827,2.943,2.943ZM68.19,80.353l1.015-.102c2.132-.305,3.553-.203,3.959.304l1.319,1.522c.609.812.203,2.335-1.319,4.162l-1.016,1.116c-1.116,1.218-2.537.812-3.958-1.218l-1.015-1.522c-1.522-2.335-1.218-3.857,1.015-4.263ZM69.205,78.526l-1.015-.203c-1.624-.305-2.132-1.726-1.32-3.959l.406-.71c1.015-2.538,2.639-3.249,4.466-1.929l1.421,1.015c1.726,1.219,2.029,2.538,1.015,3.553l-1.726,1.624c-.71.609-1.928.812-3.248.609ZM77.934,78.222l-.812,1.929c-.71,1.522-1.624,2.232-2.74,2.029l-1.624-.202c-1.726-.406-2.538-1.422-2.538-3.046l.305-1.319c.406-2.436,1.522-3.349,3.349-2.74l1.117.406c2.639.812,3.552,1.827,2.943,2.943ZM72.656,49.801l1.522-.914c1.218-.71,2.233-.406,2.943.914l1.117,1.827c.812,1.421.304,2.538-1.523,3.451l-1.319.71c-2.436,1.218-3.755.812-3.857-1.218l-.203-2.03c-.203-1.218.304-2.131,1.319-2.74ZM73.569,47.365l-1.116-.71c-1.218-.71-1.218-2.132-.102-4.263l.508-.914c.812-1.726,2.233-1.929,4.364-.71l1.624,1.218c1.116.812.812,2.132-.913,4.06l-.609.71c-1.218,1.218-2.537,1.421-3.756.609ZM82.197,69.289l-.508,1.522c-.304,1.624-1.116,2.639-2.029,2.842l-1.117.102c-2.232.406-3.45-.609-3.45-2.741l-.102-1.421c-.102-1.522.812-2.537,2.537-3.045l.812-.71c3.552-2.233,4.871-.914,3.856,3.451ZM82.705,89.184l-.812,1.929c-.71,1.522-1.624,2.233-2.74,2.03l-1.624-.203c-1.726-.406-2.537-1.421-2.537-3.045l.304-1.32c.406-2.436,1.522-3.349,3.35-2.74l1.117.406c2.639.812,3.552,1.827,2.943,2.943ZM82.603,48.583l-.508,1.522c-.305,1.624-1.116,2.639-2.03,2.842l-1.116.102c-2.233.406-3.451-.609-3.451-2.741l-.102-1.421c-.102-1.522.812-2.538,2.538-3.045l.812-.711c3.553-2.233,4.872-.913,3.857,3.451ZM78.441,80.86l1.522-.913c1.219-.711,2.233-.406,2.944.913l1.116,1.827c.812,1.421.305,2.538-1.522,3.451l-1.319.711c-2.437,1.218-3.756.812-3.857-1.219l-.203-2.029c-.203-1.219.305-2.132,1.319-2.741ZM79.355,78.425l-1.116-.711c-1.219-.71-1.219-2.132-.102-4.263l.507-.914c.812-1.725,2.233-1.928,4.365-.71l1.624,1.218c1.116.812.812,2.132-.914,4.061l-.608.71c-1.219,1.218-2.538,1.421-3.756.609ZM86.764,79.439l-.507,1.522c-.305,1.624-1.117,2.64-2.03,2.842l-1.116.102c-2.233.406-3.451-.608-3.451-2.74l-.102-1.421c-.102-1.522.812-2.537,2.537-3.045l.812-.711c3.552-2.232,4.872-.913,3.856,3.451ZM87.678,57.008l.102,1.726c.102,1.218-.711,2.334-2.233,2.943l-1.015.812c-2.03,1.624-3.451.914-3.857-2.03l-.203-1.929c-.508-3.451.508-4.872,2.64-3.958l1.319.609c2.131.812,3.248,1.421,3.248,1.827ZM83.212,70.507l1.016-.102c2.132-.304,3.553-.203,3.958.305l1.32,1.522c.608.812.202,2.335-1.32,4.162l-1.015,1.116c-1.116,1.219-2.537.812-3.959-1.218l-1.015-1.522c-1.522-2.335-1.218-3.857,1.015-4.263ZM84.227,68.681l-1.016-.203c-1.623-.305-2.131-1.726-1.319-3.958l.406-.71c1.015-2.538,2.639-3.248,4.466-1.929l1.421,1.015c1.726,1.218,2.03,2.538,1.016,3.552l-1.726,1.624c-.711.609-1.929.812-3.248.609ZM83.618,49.801l1.016-.102c2.131-.305,3.552-.203,3.958.304l1.319,1.523c.609.812.203,2.334-1.319,4.162l-1.015,1.116c-1.117,1.218-2.538.812-3.959-1.218l-1.015-1.522c-1.522-2.335-1.218-3.857,1.015-4.263ZM83.212,91.822l1.523-.913c1.218-.71,2.232-.406,2.943.913l1.116,1.827c.812,1.421.305,2.538-1.522,3.451l-1.319.711c-2.437,1.218-3.756.812-3.857-1.218l-.203-2.03c-.203-1.218.305-2.132,1.319-2.741ZM84.633,47.974l-1.016-.203c-1.624-.304-2.131-1.726-1.319-3.958l.406-.71c1.015-2.538,2.639-3.248,4.466-1.929l1.421,1.015c1.726,1.218,2.03,2.538,1.016,3.553l-1.726,1.624c-.711.609-1.929.812-3.248.609ZM84.126,89.387l-1.116-.711c-1.219-.71-1.219-2.131-.102-4.263l.507-.913c.812-1.726,2.233-1.929,4.365-.711l1.624,1.218c1.116.812.812,2.132-.914,4.061l-.608.71c-1.219,1.219-2.538,1.422-3.756.609ZM91.535,67.868l.102,1.726c.102,1.218-.71,2.335-2.232,2.943l-1.016.812c-2.029,1.624-3.451.914-3.856-2.03l-.203-1.928c-.508-3.451.508-4.872,2.639-3.958l1.319.609c2.132.812,3.248,1.421,3.248,1.827ZM92.754,89.184l.102,1.726c.101,1.218-.711,2.335-2.233,2.943l-1.015.812c-2.03,1.624-3.451.913-3.857-2.03l-.203-1.929c-.508-3.451.508-4.872,2.639-3.958l1.32.608c2.131.812,3.248,1.421,3.248,1.827ZM93.26,48.076l-.812,1.928c-.711,1.523-1.624,2.233-2.741,2.03l-1.623-.203c-1.726-.406-2.538-1.421-2.538-3.045l.305-1.319c.406-2.436,1.522-3.35,3.35-2.741l1.116.406c2.639.812,3.553,1.827,2.943,2.944ZM87.78,80.657l1.015-.102c2.132-.304,3.553-.202,3.959.305l1.319,1.522c.608.812.203,2.335-1.319,4.162l-1.016,1.116c-1.116,1.218-2.537.812-3.958-1.218l-1.016-1.522c-1.522-2.335-1.218-3.857,1.016-4.264ZM88.795,78.83l-1.015-.202c-1.624-.305-2.132-1.726-1.32-3.959l.406-.71c1.016-2.538,2.64-3.249,4.467-1.93l1.421,1.016c1.726,1.219,2.029,2.537,1.015,3.553l-1.726,1.624c-.71.608-1.929.812-3.248.608ZM89.809,56.399l-1.218-.406c-1.726-.507-2.334-1.726-1.929-3.248l.406-1.726c.305-1.015,1.624-1.522,3.857-1.421h1.522c1.015.102,1.421,1.522,1.218,3.958l-.102,1.015c-.102,1.827-1.421,2.436-3.756,1.827ZM88.896,58.53l1.218-.609c2.233-1.218,3.756-1.218,4.467,0l1.015,1.726c.508.914,0,2.131-1.218,3.552l-.812.914c-.812,1.015-2.232.914-3.756-.406l-1.218-1.015c-1.624-1.522-1.522-2.944.305-4.162ZM93.667,67.259l-1.218-.406c-1.726-.508-2.335-1.726-1.929-3.248l.406-1.726c.305-1.015,1.624-1.522,3.856-1.421h1.522c1.016.102,1.422,1.522,1.219,3.958l-.102,1.015c-.102,1.827-1.421,2.436-3.756,1.827ZM98.132,58.835l-.812,1.928c-.711,1.522-1.624,2.233-2.74,2.03l-1.625-.203c-1.725-.406-2.537-1.421-2.537-3.045l.305-1.32c.406-2.436,1.522-3.35,3.35-2.74l1.116.406c2.64.812,3.553,1.827,2.943,2.944ZM92.754,69.391l1.218-.609c2.232-1.218,3.756-1.218,4.466,0l1.015,1.726c.508.914,0,2.131-1.218,3.553l-.812.913c-.812,1.015-2.233.913-3.756-.406l-1.218-1.015c-1.624-1.523-1.522-2.944.305-4.162ZM94.884,88.574l-1.218-.405c-1.726-.508-2.334-1.726-1.929-3.248l.406-1.726c.305-1.016,1.624-1.522,3.857-1.421h1.522c1.015.102,1.421,1.522,1.218,3.958l-.102,1.016c-.102,1.826-1.421,2.436-3.756,1.826ZM93.768,50.715l1.522-.914c1.218-.71,2.233-.406,2.943.914l1.117,1.827c.812,1.421.304,2.538-1.522,3.451l-1.32.71c-2.436,1.218-3.755.812-3.856-1.218l-.203-2.03c-.203-1.218.305-2.131,1.319-2.74ZM93.971,90.706l1.218-.608c2.233-1.219,3.756-1.219,4.466,0l1.016,1.725c.507.914,0,2.132-1.219,3.553l-.812.914c-.812,1.015-2.233.913-3.756-.406l-1.218-1.015c-1.624-1.522-1.522-2.944.305-4.162ZM94.681,48.279l-1.116-.71c-1.218-.711-1.218-2.132-.102-4.263l.508-.914c.812-1.726,2.232-1.929,4.364-.71l1.624,1.218c1.117.812.812,2.132-.913,4.06l-.609.71c-1.218,1.218-2.537,1.421-3.756.609ZM103.411,47.365l-.508,1.522c-.304,1.624-1.116,2.639-2.029,2.842l-1.117.102c-2.232.406-3.451-.609-3.451-2.74l-.102-1.421c-.101-1.522.812-2.538,2.538-3.045l.812-.71c3.553-2.233,4.872-.914,3.857,3.451ZM98.64,61.474l1.522-.913c1.218-.711,2.233-.406,2.943.913l1.117,1.827c.812,1.421.304,2.538-1.523,3.451l-1.319.71c-2.436,1.218-3.755.812-3.856-1.218l-.203-2.03c-.203-1.218.305-2.131,1.319-2.741ZM99.553,59.038l-1.116-.71c-1.218-.71-1.218-2.131-.102-4.263l.508-.914c.812-1.726,2.233-1.929,4.364-.71l1.624,1.218c1.116.812.812,2.131-.913,4.06l-.609.71c-1.218,1.218-2.537,1.421-3.756.609ZM104.425,48.583l1.016-.102c2.132-.304,3.553-.203,3.958.305l1.32,1.522c.608.812.202,2.334-1.32,4.162l-1.015,1.117c-1.116,1.218-2.537.812-3.959-1.218l-1.015-1.522c-1.522-2.334-1.218-3.857,1.015-4.263ZM105.441,46.756l-1.016-.203c-1.624-.305-2.131-1.726-1.319-3.958l.406-.711c1.015-2.537,2.639-3.248,4.466-1.928l1.421,1.015c1.726,1.218,2.03,2.537,1.016,3.552l-1.726,1.624c-.711.609-1.929.812-3.248.609Z"/>
</svg>