<?xml version="1.0" encoding="UTF-8"?>
<svg xmlns="http://www.w3.org/2000/svg" xmlns:xlink="http://www.w3.org/1999/xlink" width="141.7" height="141.7" viewBox="0 0 141.7 141.7">
<path fill-rule="evenodd" fill="rgb(0%, 0%, 0%)" fill-opacity="1" d="M 30.324219 81.066406 L 29.390625 83.289062 C 28.570312 85.042969 27.519531 85.859375 26.230469 85.625 L 24.359375 85.394531 C 22.371094 84.925781 21.433594 83.753906 21.433594 81.882812 L 21.785156 80.363281 C 22.253906 77.554688 23.539062 76.503906 25.648438 77.207031 L 26.933594 77.671875 C 29.972656 78.609375 31.027344 79.777344 30.324219 81.066406 M 35.707031 69.484375 L 35.121094 71.238281 C 34.769531 73.109375 33.835938 74.28125 32.78125 74.511719 L 31.496094 74.628906 C 28.921875 75.097656 27.519531 73.929688 27.519531 71.472656 L 27.402344 69.835938 C 27.285156 68.082031 28.335938 66.910156 30.324219 66.324219 L 31.261719 65.507812 C 35.355469 62.933594 36.875 64.453125 35.707031 69.484375 M 36.40625 93.933594 L 35.472656 96.15625 C 34.652344 97.90625 33.601562 98.726562 32.3125 98.492188 L 30.441406 98.261719 C 28.453125 97.792969 27.519531 96.621094 27.519531 94.75 L 27.867188 93.230469 C 28.335938 90.421875 29.621094 89.371094 31.730469 90.070312 L 33.015625 90.539062 C 36.058594 91.476562 37.109375 92.644531 36.40625 93.933594 M 30.910156 84.105469 L 32.664062 83.054688 C 34.066406 82.234375 35.238281 82.585938 36.054688 84.105469 L 37.34375 86.210938 C 38.277344 87.847656 37.695312 89.136719 35.589844 90.1875 L 34.070312 91.007812 C 31.261719 92.410156 29.742188 91.941406 29.625 89.601562 L 29.390625 87.265625 C 29.15625 85.859375 29.742188 84.808594 30.910156 84.105469 M 31.964844 81.296875 L 30.675781 80.480469 C 29.273438 79.660156 29.273438 78.023438 30.558594 75.566406 L 31.144531 74.515625 C 32.078125 72.527344 33.71875 72.292969 36.171875 73.695312 L 38.042969 75.097656 C 39.332031 76.035156 38.980469 77.554688 36.992188 79.777344 L 36.289062 80.597656 C 34.886719 82 33.367188 82.234375 31.964844 81.296875 M 41.671875 57.085938 L 41.789062 59.074219 C 41.90625 60.480469 40.96875 61.765625 39.214844 62.464844 L 38.046875 63.402344 C 35.707031 65.273438 34.070312 64.453125 33.601562 61.0625 L 33.367188 58.839844 C 32.78125 54.863281 33.953125 53.226562 36.40625 54.277344 L 37.925781 54.980469 C 40.382812 55.914062 41.671875 56.617188 41.671875 57.085938 M 42.609375 82.117188 L 42.023438 83.871094 C 41.671875 85.742188 40.738281 86.914062 39.683594 87.148438 L 38.394531 87.265625 C 35.824219 87.734375 34.417969 86.5625 34.417969 84.105469 L 34.300781 82.46875 C 34.183594 80.714844 35.238281 79.542969 37.226562 78.960938 L 38.160156 78.140625 C 42.257812 75.566406 43.777344 77.089844 42.605469 82.117188 Z M 36.875 70.886719 L 38.046875 70.769531 C 40.503906 70.417969 42.140625 70.535156 42.609375 71.121094 L 44.128906 72.875 C 44.828125 73.8125 44.363281 75.566406 42.609375 77.671875 L 41.4375 78.957031 C 40.152344 80.363281 38.511719 79.894531 36.875 77.554688 L 35.707031 75.800781 C 33.953125 73.109375 34.304688 71.355469 36.875 70.886719 Z M 38.046875 68.785156 L 36.875 68.550781 C 35.003906 68.199219 34.417969 66.5625 35.355469 63.988281 L 35.824219 63.171875 C 36.992188 60.246094 38.863281 59.429688 40.96875 60.949219 L 42.605469 62.117188 C 44.59375 63.519531 44.945312 65.042969 43.777344 66.210938 L 41.789062 68.082031 C 40.96875 68.785156 39.566406 69.019531 38.042969 68.785156 Z M 36.992188 96.972656 L 38.746094 95.917969 C 40.152344 95.101562 41.320312 95.453125 42.136719 96.972656 L 43.425781 99.078125 C 44.363281 100.714844 43.777344 102 41.671875 103.054688 L 40.152344 103.871094 C 37.34375 105.277344 35.824219 104.808594 35.707031 102.46875 L 35.472656 100.128906 C 35.238281 98.726562 35.824219 97.671875 36.992188 96.972656 M 38.046875 94.164062 L 36.757812 93.347656 C 35.355469 92.527344 35.355469 90.890625 36.640625 88.433594 L 37.226562 87.378906 C 38.160156 85.390625 39.800781 85.15625 42.257812 86.5625 L 44.128906 87.96875 C 45.414062 88.902344 45.0625 90.421875 43.074219 92.644531 L 42.371094 93.464844 C 40.96875 94.867188 39.449219 95.101562 38.042969 94.164062 Z M 47.519531 94.398438 L 47.636719 96.386719 C 47.753906 97.792969 46.820312 99.078125 45.0625 99.78125 L 43.894531 100.714844 C 41.554688 102.585938 39.917969 101.769531 39.449219 98.375 L 39.214844 96.152344 C 38.628906 92.175781 39.800781 90.539062 42.257812 91.59375 L 43.777344 92.292969 C 46.234375 93.230469 47.519531 93.929688 47.519531 94.398438 Z M 48.804688 70.070312 L 48.925781 72.058594 C 49.042969 73.460938 48.105469 74.75 46.351562 75.449219 L 45.179688 76.386719 C 42.839844 78.257812 41.203125 77.4375 40.738281 74.046875 L 40.503906 71.824219 C 39.917969 67.847656 41.085938 66.207031 43.542969 67.261719 L 45.066406 67.964844 C 47.519531 68.898438 48.808594 69.601562 48.808594 70.070312 Z M 44.128906 56.382812 L 42.722656 55.914062 C 40.738281 55.332031 40.035156 53.925781 40.503906 52.171875 L 40.96875 50.183594 C 41.320312 49.015625 42.839844 48.429688 45.414062 48.546875 L 47.171875 48.546875 C 48.339844 48.664062 48.808594 50.300781 48.574219 53.109375 L 48.457031 54.277344 C 48.339844 56.382812 46.820312 57.085938 44.128906 56.382812 Z M 43.074219 58.839844 L 44.480469 58.140625 C 47.050781 56.734375 48.804688 56.734375 49.625 58.140625 L 50.796875 60.128906 C 51.378906 61.179688 50.796875 62.582031 49.390625 64.222656 L 48.457031 65.273438 C 47.519531 66.445312 45.882812 66.328125 44.128906 64.808594 L 42.726562 63.636719 C 40.855469 61.882812 40.972656 60.246094 43.078125 58.839844 Z M 43.777344 83.523438 L 44.945312 83.402344 C 47.402344 83.054688 49.039062 83.167969 49.507812 83.753906 L 51.027344 85.511719 C 51.730469 86.445312 51.261719 88.199219 49.507812 90.304688 L 48.335938 91.59375 C 47.050781 92.996094 45.414062 92.527344 43.777344 90.1875 L 42.605469 88.433594 C 40.851562 85.742188 41.203125 83.988281 43.777344 83.519531 Z M 44.949219 81.414062 L 43.777344 81.179688 C 41.90625 80.828125 41.320312 79.191406 42.257812 76.621094 L 42.726562 75.800781 C 43.894531 72.875 45.765625 72.058594 47.871094 73.578125 L 49.507812 74.746094 C 51.5 76.152344 51.847656 77.671875 50.679688 78.84375 L 48.691406 80.714844 C 47.871094 81.414062 46.46875 81.648438 44.949219 81.414062 M 49.976562 93.699219 L 48.574219 93.230469 C 46.582031 92.644531 45.882812 91.242188 46.351562 89.488281 L 46.820312 87.5 C 47.171875 86.328125 48.691406 85.746094 51.261719 85.859375 L 53.019531 85.859375 C 54.1875 85.980469 54.65625 87.613281 54.421875 90.421875 L 54.304688 91.59375 C 54.1875 93.699219 52.664062 94.402344 49.976562 93.699219 M 55.121094 57.203125 L 54.1875 59.425781 C 53.367188 61.179688 52.316406 62 51.027344 61.765625 L 49.15625 61.53125 C 47.167969 61.0625 46.234375 59.894531 46.234375 58.023438 L 46.582031 56.503906 C 47.050781 53.695312 48.335938 52.640625 50.445312 53.34375 L 51.730469 53.8125 C 54.773438 54.746094 55.824219 55.917969 55.121094 57.203125 M 48.925781 96.15625 L 50.328125 95.453125 C 52.902344 94.046875 54.65625 94.046875 55.472656 95.453125 L 56.644531 97.441406 C 57.230469 98.496094 56.644531 99.898438 55.242188 101.535156 L 54.304688 102.589844 C 53.367188 103.757812 51.730469 103.640625 49.976562 102.121094 L 48.574219 100.953125 C 46.703125 99.199219 46.820312 97.558594 48.925781 96.15625 Z M 51.261719 69.367188 L 49.859375 68.898438 C 47.871094 68.316406 47.171875 66.910156 47.636719 65.15625 L 48.105469 63.167969 C 48.457031 62 49.976562 61.414062 52.550781 61.53125 L 54.304688 61.53125 C 55.472656 61.648438 55.941406 63.285156 55.707031 66.09375 L 55.589844 67.261719 C 55.472656 69.367188 53.953125 70.070312 51.261719 69.367188 Z M 50.210938 71.824219 L 51.613281 71.121094 C 54.1875 69.71875 55.941406 69.71875 56.761719 71.121094 L 57.929688 73.109375 C 58.515625 74.164062 57.929688 75.566406 56.527344 77.203125 L 55.589844 78.257812 C 54.65625 79.425781 53.019531 79.308594 51.261719 77.789062 L 49.859375 76.621094 C 47.988281 74.863281 48.105469 73.226562 50.210938 71.824219 Z M 59.21875 92.527344 L 58.28125 94.75 C 57.464844 96.503906 56.410156 97.324219 55.121094 97.089844 L 53.25 96.855469 C 51.261719 96.386719 50.328125 95.21875 50.328125 93.347656 L 50.679688 91.824219 C 51.144531 89.019531 52.433594 87.96875 54.539062 88.667969 L 55.824219 89.136719 C 58.867188 90.070312 59.917969 91.242188 59.21875 92.527344 M 60.738281 45.972656 L 60.152344 47.726562 C 59.800781 49.601562 58.867188 50.769531 57.8125 51.003906 L 56.527344 51.121094 C 53.953125 51.589844 52.550781 50.417969 52.550781 47.960938 L 52.433594 46.324219 C 52.316406 44.570312 53.367188 43.402344 55.359375 42.816406 L 56.292969 42 C 60.386719 39.425781 61.910156 40.945312 60.738281 45.976562 Z M 55.707031 60.246094 L 57.460938 59.191406 C 58.867188 58.371094 60.035156 58.722656 60.855469 60.246094 L 62.140625 62.351562 C 63.078125 63.988281 62.492188 65.273438 60.386719 66.328125 L 58.867188 67.144531 C 56.058594 68.546875 54.539062 68.082031 54.421875 65.742188 L 54.1875 63.402344 C 53.953125 62 54.539062 60.945312 55.707031 60.246094 M 56.761719 57.4375 L 55.472656 56.617188 C 54.070312 55.800781 54.070312 54.160156 55.355469 51.703125 L 55.941406 50.652344 C 56.875 48.664062 58.515625 48.429688 60.972656 49.832031 L 62.84375 51.238281 C 64.128906 52.171875 63.777344 53.695312 61.789062 55.914062 L 61.085938 56.734375 C 59.683594 58.136719 58.164062 58.371094 56.757812 57.4375 Z M 65.769531 82.703125 L 65.183594 84.457031 C 64.832031 86.328125 63.898438 87.5 62.84375 87.734375 L 61.554688 87.851562 C 58.984375 88.316406 57.578125 87.148438 57.578125 84.691406 L 57.460938 83.054688 C 57.34375 81.300781 58.398438 80.128906 60.382812 79.542969 L 61.320312 78.726562 C 65.414062 76.152344 66.933594 77.671875 65.765625 82.703125 Z M 59.800781 95.570312 L 61.554688 94.515625 C 62.960938 93.699219 64.128906 94.046875 64.949219 95.570312 L 66.234375 97.675781 C 67.171875 99.3125 66.585938 100.597656 64.480469 101.652344 L 62.960938 102.472656 C 60.152344 103.875 58.632812 103.40625 58.515625 101.066406 L 58.28125 98.726562 C 58.046875 97.324219 58.632812 96.269531 59.800781 95.570312 M 60.855469 92.761719 L 59.566406 91.941406 C 58.164062 91.125 58.164062 89.488281 59.453125 87.03125 L 60.035156 85.976562 C 60.972656 83.988281 62.609375 83.753906 65.066406 85.15625 L 66.9375 86.5625 C 68.222656 87.496094 67.875 89.019531 65.882812 91.242188 L 65.183594 92.058594 C 63.777344 93.464844 62.257812 93.699219 60.855469 92.761719 M 61.90625 47.375 L 63.078125 47.257812 C 65.53125 46.910156 67.171875 47.023438 67.636719 47.609375 L 69.15625 49.363281 C 69.859375 50.300781 69.390625 52.054688 67.636719 54.160156 L 66.46875 55.449219 C 65.179688 56.851562 63.542969 56.382812 61.90625 54.042969 L 60.738281 52.289062 C 58.984375 49.601562 59.332031 47.847656 61.90625 47.378906 Z M 63.078125 45.273438 L 61.90625 45.039062 C 60.035156 44.6875 59.453125 43.050781 60.386719 40.476562 L 60.855469 39.660156 C 62.023438 36.734375 63.894531 35.914062 66 37.4375 L 67.636719 38.605469 C 69.625 40.011719 69.976562 41.53125 68.808594 42.699219 L 66.820312 44.570312 C 66 45.273438 64.59375 45.507812 63.074219 45.273438 Z M 71.5 45.855469 L 70.5625 48.078125 C 69.742188 49.832031 68.691406 50.652344 67.40625 50.417969 L 65.53125 50.183594 C 63.542969 49.71875 62.609375 48.546875 62.609375 46.675781 L 62.960938 45.15625 C 63.425781 42.347656 64.714844 41.296875 66.820312 41.996094 L 68.105469 42.464844 C 71.148438 43.402344 72.199219 44.570312 71.496094 45.855469 Z M 66.9375 84.105469 L 68.105469 83.988281 C 70.5625 83.636719 72.203125 83.753906 72.667969 84.339844 L 74.191406 86.09375 C 74.890625 87.027344 74.421875 88.785156 72.667969 90.890625 L 71.5 92.175781 C 70.210938 93.578125 68.574219 93.109375 66.9375 90.773438 L 65.769531 89.019531 C 64.011719 86.328125 64.363281 84.574219 66.9375 84.105469 Z M 68.105469 82 L 66.9375 81.765625 C 65.066406 81.414062 64.480469 79.777344 65.417969 77.203125 L 65.882812 76.386719 C 67.054688 73.460938 68.925781 72.640625 71.03125 74.164062 L 72.667969 75.332031 C 74.65625 76.738281 75.007812 78.257812 73.835938 79.425781 L 71.847656 81.296875 C 71.03125 82 69.625 82.234375 68.105469 82 Z M 78.167969 81.648438 L 77.230469 83.871094 C 76.414062 85.625 75.359375 86.445312 74.074219 86.210938 L 72.203125 85.980469 C 70.210938 85.511719 69.277344 84.339844 69.277344 82.46875 L 69.628906 80.949219 C 70.097656 78.140625 71.382812 77.089844 73.488281 77.789062 L 74.773438 78.257812 C 77.816406 79.195312 78.867188 80.363281 78.167969 81.648438 M 72.082031 48.898438 L 73.835938 47.84375 C 75.242188 47.027344 76.410156 47.375 77.230469 48.898438 L 78.515625 51.003906 C 79.453125 52.640625 78.867188 53.929688 76.761719 54.980469 L 75.242188 55.796875 C 72.433594 57.203125 70.914062 56.734375 70.796875 54.394531 L 70.5625 52.054688 C 70.328125 50.652344 70.914062 49.601562 72.082031 48.898438 Z M 73.136719 46.089844 L 71.847656 45.273438 C 70.445312 44.453125 70.445312 42.816406 71.734375 40.359375 L 72.316406 39.308594 C 73.253906 37.316406 74.890625 37.082031 77.347656 38.488281 L 79.21875 39.890625 C 80.503906 40.828125 80.15625 42.347656 78.167969 44.570312 L 77.464844 45.390625 C 76.0625 46.792969 74.539062 47.027344 73.136719 46.089844 M 83.078125 71.355469 L 82.492188 73.109375 C 82.144531 74.980469 81.207031 76.152344 80.15625 76.386719 L 78.867188 76.503906 C 76.296875 76.972656 74.894531 75.800781 74.894531 73.34375 L 74.773438 71.707031 C 74.65625 69.953125 75.710938 68.78125 77.699219 68.195312 L 78.632812 67.378906 C 82.726562 64.804688 84.246094 66.324219 83.078125 71.355469 Z M 83.664062 94.28125 L 82.730469 96.503906 C 81.910156 98.261719 80.859375 99.078125 79.570312 98.84375 L 77.699219 98.609375 C 75.710938 98.144531 74.777344 96.972656 74.777344 95.101562 L 75.125 93.582031 C 75.59375 90.773438 76.878906 89.722656 78.988281 90.421875 L 80.273438 90.890625 C 83.316406 91.828125 84.367188 92.996094 83.664062 94.28125 Z M 83.546875 47.492188 L 82.960938 49.246094 C 82.609375 51.121094 81.675781 52.289062 80.621094 52.523438 L 79.335938 52.640625 C 76.761719 53.109375 75.359375 51.9375 75.359375 49.480469 L 75.242188 47.84375 C 75.125 46.089844 76.175781 44.917969 78.167969 44.335938 L 79.101562 43.515625 C 83.195312 40.941406 84.714844 42.464844 83.546875 47.492188 Z M 78.75 84.691406 L 80.503906 83.636719 C 81.910156 82.820312 83.078125 83.167969 83.898438 84.691406 L 85.183594 86.796875 C 86.117188 88.433594 85.535156 89.722656 83.429688 90.773438 L 81.910156 91.59375 C 79.101562 92.996094 77.582031 92.527344 77.464844 90.1875 L 77.230469 87.847656 C 76.996094 86.445312 77.582031 85.390625 78.75 84.691406 M 79.804688 81.882812 L 78.519531 81.066406 C 77.113281 80.246094 77.113281 78.609375 78.402344 76.152344 L 78.984375 75.097656 C 79.921875 73.109375 81.558594 72.875 84.015625 74.28125 L 85.886719 75.683594 C 87.171875 76.621094 86.820312 78.140625 84.832031 80.363281 L 84.132812 81.183594 C 82.726562 82.585938 81.207031 82.820312 79.804688 81.882812 M 88.339844 83.054688 L 87.757812 84.808594 C 87.40625 86.679688 86.46875 87.847656 85.417969 88.082031 L 84.132812 88.199219 C 81.558594 88.667969 80.15625 87.5 80.15625 85.042969 L 80.039062 83.402344 C 79.921875 81.648438 80.972656 80.480469 82.960938 79.894531 L 83.898438 79.074219 C 87.992188 76.503906 89.511719 78.023438 88.339844 83.054688 Z M 89.394531 57.203125 L 89.511719 59.191406 C 89.628906 60.597656 88.695312 61.882812 86.941406 62.582031 L 85.769531 63.519531 C 83.429688 65.390625 81.792969 64.574219 81.324219 61.179688 L 81.089844 58.957031 C 80.503906 54.980469 81.675781 53.34375 84.132812 54.394531 L 85.652344 55.097656 C 88.109375 56.035156 89.398438 56.734375 89.398438 57.203125 Z M 84.25 72.761719 L 85.417969 72.640625 C 87.875 72.292969 89.511719 72.40625 89.980469 72.992188 L 91.5 74.746094 C 92.203125 75.683594 91.734375 77.4375 89.980469 79.542969 L 88.8125 80.828125 C 87.523438 82.234375 85.886719 81.765625 84.25 79.425781 L 83.078125 77.671875 C 81.324219 74.980469 81.675781 73.226562 84.25 72.761719 M 85.417969 70.65625 L 84.246094 70.421875 C 82.378906 70.070312 81.792969 68.433594 82.726562 65.859375 L 83.195312 65.042969 C 84.367188 62.117188 86.238281 61.296875 88.339844 62.820312 L 89.980469 63.988281 C 91.96875 65.390625 92.320312 66.914062 91.152344 68.082031 L 89.160156 69.953125 C 88.339844 70.65625 86.9375 70.890625 85.417969 70.65625 M 84.714844 48.898438 L 85.886719 48.78125 C 88.34375 48.429688 89.980469 48.546875 90.449219 49.128906 L 91.96875 50.886719 C 92.671875 51.820312 92.203125 53.574219 90.449219 55.683594 L 89.277344 56.96875 C 87.992188 58.371094 86.355469 57.902344 84.714844 55.566406 L 83.546875 53.8125 C 81.792969 51.121094 82.144531 49.367188 84.714844 48.898438 M 84.25 97.324219 L 86.003906 96.269531 C 87.40625 95.453125 88.574219 95.804688 89.394531 97.324219 L 90.679688 99.429688 C 91.617188 101.066406 91.03125 102.351562 88.925781 103.40625 L 87.40625 104.226562 C 84.597656 105.628906 83.078125 105.160156 82.960938 102.820312 L 82.730469 100.480469 C 82.496094 99.078125 83.082031 98.023438 84.25 97.324219 M 85.886719 46.792969 L 84.714844 46.558594 C 82.84375 46.207031 82.257812 44.570312 83.195312 41.996094 L 83.664062 41.179688 C 84.832031 38.253906 86.703125 37.4375 88.808594 38.957031 L 90.449219 40.125 C 92.4375 41.53125 92.785156 43.050781 91.617188 44.21875 L 89.628906 46.09375 C 88.808594 46.792969 87.40625 47.027344 85.886719 46.792969 Z M 85.300781 94.515625 L 84.015625 93.699219 C 82.613281 92.878906 82.613281 91.242188 83.898438 88.785156 L 84.484375 87.734375 C 85.417969 85.742188 87.054688 85.511719 89.511719 86.914062 L 91.382812 88.316406 C 92.671875 89.253906 92.320312 90.773438 90.332031 92.996094 L 89.628906 93.816406 C 88.226562 95.21875 86.707031 95.453125 85.300781 94.515625 M 93.839844 69.71875 L 93.957031 71.707031 C 94.074219 73.109375 93.140625 74.398438 91.386719 75.097656 L 90.214844 76.035156 C 87.875 77.90625 86.238281 77.085938 85.769531 73.695312 L 85.539062 71.472656 C 84.953125 67.496094 86.121094 65.859375 88.578125 66.910156 L 90.097656 67.613281 C 92.554688 68.550781 93.839844 69.25 93.839844 69.71875 Z M 95.246094 94.28125 L 95.363281 96.273438 C 95.480469 97.675781 94.542969 98.960938 92.789062 99.664062 L 91.621094 100.597656 C 89.28125 102.472656 87.644531 101.652344 87.175781 98.261719 L 86.941406 96.035156 C 86.355469 92.058594 87.527344 90.421875 89.980469 91.476562 L 91.503906 92.175781 C 93.957031 93.113281 95.246094 93.8125 95.246094 94.28125 Z M 95.828125 46.910156 L 94.894531 49.132812 C 94.074219 50.886719 93.019531 51.703125 91.734375 51.472656 L 89.863281 51.238281 C 87.875 50.769531 86.9375 49.601562 86.9375 47.726562 L 87.289062 46.207031 C 87.757812 43.402344 89.042969 42.347656 91.152344 43.050781 L 92.4375 43.515625 C 95.476562 44.453125 96.53125 45.621094 95.828125 46.910156 M 89.511719 84.457031 L 90.683594 84.339844 C 93.140625 83.988281 94.777344 84.105469 95.246094 84.691406 L 96.765625 86.445312 C 97.464844 87.378906 97 89.136719 95.246094 91.242188 L 94.074219 92.527344 C 92.789062 93.929688 91.152344 93.460938 89.511719 91.121094 L 88.339844 89.367188 C 86.589844 86.679688 86.9375 84.921875 89.511719 84.453125 Z M 90.683594 82.351562 L 89.511719 82.117188 C 87.640625 81.765625 87.054688 80.128906 87.992188 77.554688 L 88.460938 76.738281 C 89.628906 73.8125 91.5 72.992188 93.609375 74.515625 L 95.246094 75.683594 C 97.234375 77.089844 97.582031 78.609375 96.414062 79.777344 L 94.425781 81.648438 C 93.609375 82.351562 92.203125 82.585938 90.683594 82.351562 M 91.851562 56.5 L 90.449219 56.035156 C 88.457031 55.449219 87.757812 54.042969 88.222656 52.289062 L 88.691406 50.300781 C 89.042969 49.132812 90.5625 48.546875 93.136719 48.664062 L 94.890625 48.664062 C 96.0625 48.78125 96.527344 50.417969 96.292969 53.226562 L 96.175781 54.394531 C 96.058594 56.5 94.539062 57.203125 91.847656 56.5 Z M 90.796875 58.957031 L 92.203125 58.253906 C 94.777344 56.851562 96.53125 56.851562 97.351562 58.253906 L 98.519531 60.246094 C 99.105469 61.296875 98.519531 62.699219 97.117188 64.335938 L 96.179688 65.390625 C 95.246094 66.5625 93.609375 66.445312 91.851562 64.921875 L 90.449219 63.753906 C 88.578125 62 88.695312 60.359375 90.800781 58.957031 Z M 96.296875 69.015625 L 94.894531 68.546875 C 92.90625 67.960938 92.203125 66.558594 92.671875 64.804688 L 93.136719 62.816406 C 93.488281 61.648438 95.007812 61.0625 97.582031 61.179688 L 99.335938 61.179688 C 100.507812 61.296875 100.972656 62.933594 100.742188 65.738281 L 100.625 66.910156 C 100.503906 69.015625 98.984375 69.71875 96.292969 69.015625 Z M 101.441406 59.308594 L 100.507812 61.53125 C 99.6875 63.285156 98.636719 64.105469 97.347656 63.871094 L 95.476562 63.636719 C 93.488281 63.167969 92.550781 62 92.550781 60.125 L 92.90625 58.605469 C 93.371094 55.796875 94.660156 54.746094 96.765625 55.449219 L 98.050781 55.914062 C 101.09375 56.851562 102.144531 58.023438 101.441406 59.308594 M 95.246094 71.472656 L 96.648438 70.773438 C 99.21875 69.367188 100.976562 69.367188 101.796875 70.773438 L 102.964844 72.761719 C 103.550781 73.8125 102.964844 75.21875 101.5625 76.855469 L 100.625 77.90625 C 99.691406 79.078125 98.050781 78.960938 96.296875 77.441406 L 94.894531 76.269531 C 93.023438 74.515625 93.140625 72.875 95.246094 71.472656 M 97.699219 93.578125 L 96.296875 93.113281 C 94.304688 92.527344 93.605469 91.125 94.074219 89.371094 L 94.539062 87.378906 C 94.894531 86.210938 96.414062 85.625 98.984375 85.742188 L 100.738281 85.742188 C 101.910156 85.859375 102.378906 87.496094 102.144531 90.304688 L 102.027344 91.476562 C 101.910156 93.578125 100.386719 94.28125 97.699219 93.578125 Z M 96.414062 49.949219 L 98.167969 48.898438 C 99.570312 48.078125 100.742188 48.429688 101.558594 49.949219 L 102.847656 52.058594 C 103.78125 53.695312 103.195312 54.980469 101.09375 56.035156 L 99.570312 56.851562 C 96.761719 58.253906 95.242188 57.789062 95.128906 55.449219 L 94.894531 53.109375 C 94.660156 51.703125 95.246094 50.652344 96.414062 49.949219 M 96.648438 96.035156 L 98.050781 95.335938 C 100.625 93.933594 102.378906 93.933594 103.199219 95.335938 L 104.367188 97.324219 C 104.953125 98.378906 104.367188 99.78125 102.964844 101.417969 L 102.027344 102.472656 C 101.09375 103.640625 99.453125 103.523438 97.699219 102.003906 L 96.296875 100.832031 C 94.425781 99.078125 94.542969 97.441406 96.648438 96.039062 Z M 97.464844 47.144531 L 96.179688 46.324219 C 94.777344 45.507812 94.777344 43.867188 96.0625 41.414062 L 96.648438 40.359375 C 97.582031 38.371094 99.21875 38.136719 101.675781 39.542969 L 103.546875 40.945312 C 104.835938 41.878906 104.484375 43.402344 102.496094 45.625 L 101.792969 46.441406 C 100.390625 47.847656 98.871094 48.078125 97.464844 47.144531 M 107.527344 46.089844 L 106.941406 47.84375 C 106.589844 49.714844 105.65625 50.886719 104.601562 51.121094 L 103.316406 51.238281 C 100.742188 51.703125 99.339844 50.535156 99.339844 48.078125 L 99.21875 46.441406 C 99.105469 44.6875 100.15625 43.515625 102.144531 42.933594 L 103.082031 42.113281 C 107.175781 39.542969 108.695312 41.0625 107.527344 46.09375 Z M 102.027344 62.351562 L 103.78125 61.296875 C 105.1875 60.480469 106.355469 60.828125 107.171875 62.351562 L 108.460938 64.453125 C 109.398438 66.09375 108.8125 67.378906 106.707031 68.433594 L 105.1875 69.25 C 102.378906 70.652344 100.859375 70.1875 100.742188 67.847656 L 100.507812 65.507812 C 100.273438 64.105469 100.859375 63.050781 102.027344 62.347656 Z M 103.082031 59.542969 L 101.792969 58.726562 C 100.390625 57.90625 100.390625 56.269531 101.675781 53.8125 L 102.261719 52.757812 C 103.199219 50.769531 104.835938 50.535156 107.289062 51.941406 L 109.164062 53.34375 C 110.449219 54.28125 110.097656 55.800781 108.109375 58.023438 L 107.410156 58.839844 C 106.003906 60.246094 104.484375 60.480469 103.082031 59.542969 M 108.695312 47.492188 L 109.867188 47.375 C 112.324219 47.027344 113.960938 47.144531 114.425781 47.726562 L 115.949219 49.480469 C 116.648438 50.417969 116.179688 52.171875 114.425781 54.277344 L 113.257812 55.566406 C 111.96875 56.96875 110.332031 56.5 108.695312 54.160156 L 107.523438 52.40625 C 105.769531 49.71875 106.121094 47.960938 108.695312 47.496094 Z M 109.867188 45.390625 L 108.695312 45.15625 C 106.824219 44.804688 106.238281 43.164062 107.175781 40.59375 L 107.644531 39.773438 C 108.8125 36.851562 110.683594 36.03125 112.789062 37.554688 L 114.425781 38.722656 C 116.414062 40.125 116.765625 41.644531 115.597656 42.816406 L 113.609375 44.6875 C 112.789062 45.390625 111.386719 45.621094 109.867188 45.390625 "/>
</svg>
