<?xml version="1.0" encoding="UTF-8"?>
<svg id="Layer_1" xmlns="http://www.w3.org/2000/svg" version="1.1" viewBox="0 0 141.7 141.7">
  <!-- Generator: Adobe Illustrator 30.2.1, SVG Export Plug-In . SVG Version: 2.1.1 Build 1)  -->
  <path d="M106.554,107.486c.108.361.361.578.83.578h2.816c.469,0,.722.253.722.722v1.697c0,.469-.253.722-.722.722h-37.583c-.469,0-.722-.217-.722-.722v-1.697c0-.469.217-.722.722-.722h6.065c.469,0,.614-.217.433-.722l-11.264-28.305c-.289-.578-.758-.758-1.408-.578-1.516.758-3.033,1.372-4.585,1.913-1.552.505-2.96,1.372-4.224,2.527-1.264,1.191-2.311,2.852-3.105,5.054s-1.191,5.379-1.191,9.495.433,5.632,1.264,7.618,1.841,2.599,2.96,1.841c.361-.181.65-.036.83.433l.433,1.697c.108.469-.036.758-.433.83-1.047.361-2.13.758-3.249,1.119-1.047.289-2.202.505-3.502.686s-2.672.289-4.044.289c-2.708,0-5.343-.253-7.907-.722s-4.838-1.264-6.787-2.383c-1.95-1.119-3.538-2.599-4.693-4.441-1.155-1.841-1.769-4.116-1.769-6.823,0-4.116.686-7.509,2.022-10.145s3.141-4.693,5.307-6.21c2.202-1.516,4.657-2.599,7.437-3.321,2.744-.722,5.56-1.228,8.412-1.552,2.852-.325,5.596-.65,8.304-.903,2.672-.289,4.982-.758,6.968-1.408.469-.181.614-.505.433-.975l-9.856-26.175h-3.502c-.469,0-.614-.217-.433-.722l7.329-19.135c.181-.469.505-.686.975-.686h14.08c.469,0,.794.253.975.686l31.699,80.402-.036.036Z"/>
</svg>