<?xml version="1.0" encoding="UTF-8"?>
<svg id="Calque_1" xmlns="http://www.w3.org/2000/svg" version="1.1" viewBox="0 0 141.7 141.7">
  <!-- Generator: Adobe Illustrator 30.2.1, SVG Export Plug-In . SVG Version: 2.1.1 Build 1)  -->
  <path d="M127.79,72.904c-6.107,7.94-13.436,15.879-18.933,21.376l.611,2.443c5.497-5.039,14.047-14.658,19.543-21.986l-1.221-1.832ZM42.287,105.883c-6.107-2.443-8.55-10.382-8.55-18.322,0-24.429,17.711-48.859,35.422-54.355v-1.832c-25.04,2.443-47.026,27.483-47.026,54.355,0,13.436,6.718,21.986,20.154,22.597v-2.443ZM75.267,33.817c10.993,1.832,10.84,17.864,7.329,28.704l-3.97,11.909c-7.939,13.894-19.085,27.025-30.231,31.453v2.443c9.924-3.359,19.391-13.283,26.719-23.666-1.069,3.817-1.985,7.787-1.985,11.451,0,6.718,3.664,12.215,13.741,12.215,7.329,0,12.825-3.664,15.268-6.107l-.611-2.443c-3.054,2.443-7.329,4.58-10.993,4.58-4.886,0-6.718-2.138-6.718-7.023,0-4.275,2.748-11.757,4.275-16.49l15.879-47.637h-10.993l-2.138,6.26c-3.359-4.58-8.856-7.481-15.574-8.092v2.443Z"/>
</svg>