<?xml version="1.0" encoding="UTF-8"?>
<svg id="Calque_1" xmlns="http://www.w3.org/2000/svg" version="1.1" viewBox="0 0 141.7 141.7">
  <!-- Generator: Adobe Illustrator 30.2.1, SVG Export Plug-In . SVG Version: 2.1.1 Build 1)  -->
  <path d="M57.567,31.359c-9.383.159-22.743,5.089-22.743,16.858,0,4.93,3.658,7.316,10.497,7.316h11.451l.795-24.174ZM51.046,73.346c-12.087,0-27.355,5.248-27.355,20.357,0,7.316,5.566,13.996,14.791,13.996,8.588,0,16.699-5.885,17.017-16.54l.636-17.813h-5.089ZM124.205,93.068h-21.63c1.113-34.512,1.113-35.148,1.113-35.784,0-19.403-10.497-25.924-28.946-25.924l-2.545,76.34h51.53l.477-14.632Z"/>
</svg>