<?xml version="1.0" encoding="UTF-8"?>
<svg id="Layer_1" xmlns="http://www.w3.org/2000/svg" version="1.1" viewBox="0 0 141.7 141.7">
  <!-- Generator: Adobe Illustrator 29.1.0, SVG Export Plug-In . SVG Version: 2.1.0 Build 142)  -->
  <path d="M42.48,91.911c0-11.39,12.425-17.258,34.17-24.334l.173.691c-17.085,8.802-24.333,13.806-24.333,21.744,0,5.868,3.797,10.527,12.08,10.527,3.279,0,8.284-.69,13.116-2.933l.345.345c-5.867,5.178-13.288,7.766-19.673,7.766-9.147,0-15.877-5.178-15.877-13.806ZM44.206,47.904c0-5.35,8.974-11.735,20.709-15.532l.173.345c-7.421,5.522-11.045,8.801-11.045,13.116,0,2.244,1.035,3.969,2.416,5.177v.345c-2.071.691-4.142,1.208-5.868,1.208-3.624,0-6.385-1.898-6.385-4.659ZM85.279,95.363c0-2.589.691-5.868,1.553-9.319-3.107,3.107-5.522,4.142-7.938,5.004l-.345-.345c5.522-6.386,6.04-12.253,6.04-43.662,0-7.075-2.761-10.182-7.766-10.7-1.725-.173-3.624,0-5.868.173l-.172-.345c3.624-2.934,8.974-5.695,13.116-5.695,6.903,0,10.01,5.35,10.01,16.222v43.662c0,6.73,2.071,10.01,8.284,10.01,1.726,0,3.797-.173,4.832-.691l.345.345c-2.416,3.107-7.593,5.695-12.771,5.695-5.867,0-9.319-3.797-9.319-10.355Z"/>
</svg>