<?xml version="1.0" encoding="UTF-8"?>
<svg id="Calque_1" xmlns="http://www.w3.org/2000/svg" version="1.1" viewBox="0 0 141.7 141.7">
  <!-- Generator: Adobe Illustrator 30.2.1, SVG Export Plug-In . SVG Version: 2.1.1 Build 1)  -->
  <path d="M74.36,76.111c-4.773,5.756-11.372,11.512-17.549,11.512-1.685,0-2.387-.983-2.387-2.667,0-18.812,11.933-28.078,21.901-28.078.421,0,.983.14,1.544.14-1.544,6.318-2.527,12.635-3.51,19.093ZM47.264,107.98c8.845,0,18.672-5.335,25.832-11.512.281,2.948.983,6.739,2.246,9.266,4.212,2.808,23.586,4.352,31.729,4.352-2.246-3.229-3.791-11.091-3.791-15.864,0-20.918,7.16-49.418,14.18-64.721-8.704,0-28.5,1.685-32.711,3.229-.562,1.825-1.264,3.51-1.825,5.335-2.948-.562-6.177-.842-8.143-.842-26.955,0-50.541,17.689-50.541,52.647,0,11.372,14.32,18.111,23.024,18.111Z"/>
</svg>