<?xml version="1.0" encoding="UTF-8"?>
<svg id="Calque_1" xmlns="http://www.w3.org/2000/svg" version="1.1" viewBox="0 0 141.7 141.7">
  <!-- Generator: Adobe Illustrator 30.2.1, SVG Export Plug-In . SVG Version: 2.1.1 Build 1)  -->
  <path d="M47.178,75.961c0-5.231,4.387-6.412,19.404-6.412h25.816c0,9.28-10.124,14.511-24.972,14.511-13.33,0-20.248-2.868-20.248-8.099ZM43.804,99.752c0,10.292,12.992,15.354,25.984,15.354,8.943,0,18.054-2.362,22.61-7.762v5.737h3.375V37.322c0-10.292-12.992-15.354-25.984-15.354s-25.984,5.062-25.984,15.354v24.803h2.362c4.049-6.243,13.836-9.111,23.453-9.111,13.33,0,22.441,5.062,22.778,12.823v.337h-25.984c-17.379,0-22.61,2.193-22.61,9.786v23.791Z"/>
</svg>