<?xml version="1.0" encoding="UTF-8"?>
<svg xmlns="http://www.w3.org/2000/svg" xmlns:xlink="http://www.w3.org/1999/xlink" width="141.7" height="141.7" viewBox="0 0 141.7 141.7">
<path fill-rule="evenodd" fill="rgb(0%, 0%, 0%)" fill-opacity="1" d="M 39.59375 97.03125 C 39.59375 84.625 53.125 78.238281 76.804688 70.53125 L 76.992188 71.285156 C 58.386719 80.867188 50.492188 86.316406 50.492188 94.960938 C 50.492188 101.351562 54.628906 106.425781 63.648438 106.425781 C 67.21875 106.425781 72.667969 105.675781 77.929688 103.234375 L 78.308594 103.609375 C 71.917969 109.246094 63.835938 112.066406 56.882812 112.066406 C 46.921875 112.066406 39.59375 106.425781 39.59375 97.03125 Z M 41.472656 49.105469 C 41.472656 43.28125 51.246094 36.328125 64.023438 32.191406 L 64.210938 32.566406 C 56.132812 38.582031 52.183594 42.152344 52.183594 46.851562 C 52.183594 49.296875 53.3125 51.171875 54.816406 52.488281 L 54.816406 52.863281 C 52.558594 53.617188 50.304688 54.179688 48.425781 54.179688 C 44.476562 54.179688 41.472656 52.113281 41.472656 49.105469 M 86.199219 100.789062 C 86.199219 97.96875 86.953125 94.398438 87.890625 90.640625 C 84.507812 94.023438 81.878906 95.152344 79.246094 96.089844 L 78.871094 95.714844 C 84.886719 88.761719 85.449219 82.371094 85.449219 48.167969 C 85.449219 40.460938 82.441406 37.078125 76.992188 36.515625 C 75.113281 36.328125 73.046875 36.515625 70.601562 36.703125 L 70.414062 36.328125 C 74.359375 33.132812 80.1875 30.125 84.699219 30.125 C 92.214844 30.125 95.597656 35.953125 95.597656 47.792969 L 95.597656 95.339844 C 95.597656 102.667969 97.855469 106.242188 104.621094 106.242188 C 106.5 106.242188 108.753906 106.050781 109.882812 105.488281 L 110.257812 105.863281 C 107.625 109.246094 101.988281 112.066406 96.351562 112.066406 C 89.960938 112.066406 86.203125 107.929688 86.203125 100.789062 Z M 86.199219 100.789062 "/>
</svg>
