<?xml version="1.0" encoding="UTF-8"?>
<svg xmlns="http://www.w3.org/2000/svg" xmlns:xlink="http://www.w3.org/1999/xlink" width="141.7" height="141.7" viewBox="0 0 141.7 141.7">
<path fill-rule="evenodd" fill="rgb(0%, 0%, 0%)" fill-opacity="1" d="M 29.691406 84.441406 C 29.691406 76.480469 33.425781 70.261719 40.515625 66.28125 L 31.3125 42.527344 C 39.148438 36.675781 54.820312 32.824219 70.742188 32.824219 C 97.113281 32.824219 111.292969 44.886719 111.292969 67.152344 L 111.292969 108.699219 L 74.972656 108.699219 L 74.972656 99.121094 L 74.722656 99.121094 C 71.117188 106.335938 64.277344 109.945312 55.070312 109.945312 C 40.140625 109.945312 29.691406 99.492188 29.691406 84.441406 Z M 75.84375 76.359375 C 75.84375 72.003906 72.855469 69.019531 68.257812 69.019531 C 63.660156 69.019531 60.542969 71.875 60.542969 76.359375 C 60.542969 80.839844 63.652344 83.699219 68.257812 83.699219 C 72.859375 83.699219 75.84375 80.710938 75.84375 76.359375 "/>
</svg>
