<?xml version="1.0" encoding="UTF-8"?>
<svg id="Calque_1" xmlns="http://www.w3.org/2000/svg" version="1.1" viewBox="0 0 141.7 141.7">
  <!-- Generator: Adobe Illustrator 30.2.1, SVG Export Plug-In . SVG Version: 2.1.1 Build 1)  -->
  <path d="M115.379,105.109v4.547h-40.609v-4.547s3.292,0,3.292-20.853c0-22.108-2.352-30.731-10.348-30.731-12.073,0-20.696,18.031-20.696,29.321,0,5.801,2.822,15.052,8.623,15.052,9.565,0,12.387-15.837,12.387-21.794h6.272c0,21.323-6.272,35.749-23.832,35.749-15.366,0-24.146-15.052-24.146-29.007,0-32.456,24.146-52.997,44.843-52.997,12.699,0,31.359,7.369,31.359,37.944v10.976c0,26.34,12.857,26.34,12.857,26.34Z"/>
</svg>