<?xml version="1.0" encoding="UTF-8"?>
<svg xmlns="http://www.w3.org/2000/svg" xmlns:xlink="http://www.w3.org/1999/xlink" width="141.7" height="141.7" viewBox="0 0 141.7 141.7">
<path fill-rule="evenodd" fill="rgb(0%, 0%, 0%)" fill-opacity="1" d="M 62.882812 114.429688 C 57.507812 114.429688 54.722656 111.183594 54.722656 104.414062 L 54.722656 94.679688 C 54.722656 83.273438 60.660156 78.730469 71.785156 68.34375 L 71.785156 42.289062 C 71.785156 37.746094 70.671875 36.632812 66.039062 36.632812 C 58.710938 36.632812 56.859375 39.785156 56.859375 44.699219 C 56.859375 49.613281 59.269531 55.828125 70.765625 67.511719 L 57.230469 67.511719 C 54.445312 60.742188 53.519531 52.675781 53.519531 46.183594 C 53.519531 39.691406 60.472656 26.988281 69.28125 26.988281 C 78.089844 26.988281 81.523438 31.347656 81.523438 38.582031 L 81.523438 96.347656 C 81.523438 103.949219 82.914062 104.785156 84.488281 104.785156 C 86.066406 104.785156 86.714844 103.949219 86.898438 99.3125 L 87.363281 74.648438 L 89.3125 74.648438 L 89.679688 98.757812 C 89.867188 107.660156 88.382812 114.429688 81.800781 114.429688 C 75.214844 114.429688 73.453125 110.347656 75.125 90.320312 L 73.734375 90.042969 C 71.601562 111.089844 68.078125 114.429688 62.699219 114.429688 Z M 66.964844 104.136719 C 70.023438 104.136719 71.785156 95.511719 71.785156 82.53125 L 71.785156 71.21875 C 65.574219 77.152344 64.554688 80.675781 64.554688 86.609375 L 64.554688 100.707031 C 64.554688 103.300781 65.574219 104.136719 66.964844 104.136719 "/>
</svg>
