<?xml version="1.0" encoding="UTF-8"?>
<svg xmlns="http://www.w3.org/2000/svg" xmlns:xlink="http://www.w3.org/1999/xlink" width="141.7" height="141.7" viewBox="0 0 141.7 141.7">
<path fill-rule="evenodd" fill="rgb(0%, 0%, 0%)" fill-opacity="1" d="M 51.300781 110.398438 C 55.300781 110.398438 59 108.300781 61 104.800781 C 62 103.101562 62.5 101.199219 62.5 99.199219 C 62.5 95.199219 60.398438 91.5 56.898438 89.5 C 55.199219 88.5 53.300781 88 51.300781 88 C 49.300781 88 47.398438 88.5 45.699219 89.5 C 42.199219 91.5 40.101562 95.199219 40.101562 99.199219 C 40.101562 103.199219 42.199219 106.898438 45.699219 108.898438 C 47.398438 109.898438 49.300781 110.398438 51.300781 110.398438 M 51.300781 91.800781 C 53.300781 91.800781 55.101562 91.300781 56.898438 90.300781 C 58.601562 89.300781 60 88 61 86.199219 C 62 84.398438 62.5 82.601562 62.5 80.601562 C 62.5 76.601562 60.398438 72.898438 56.898438 70.898438 C 53.5 68.898438 49.199219 68.898438 45.699219 70.898438 C 44 71.898438 42.601562 73.300781 41.601562 75 C 40.601562 76.699219 40.101562 78.601562 40.101562 80.601562 C 40.101562 82.601562 40.601562 84.398438 41.601562 86.199219 C 42.601562 87.898438 44 89.300781 45.699219 90.300781 C 47.398438 91.300781 49.300781 91.800781 51.300781 91.800781 M 88.5 110.398438 C 90.5 110.398438 92.300781 109.898438 94.101562 108.898438 C 95.800781 107.898438 97.199219 106.5 98.199219 104.800781 C 99.199219 103.101562 99.699219 101.199219 99.699219 99.199219 C 99.699219 95.199219 97.601562 91.5 94.101562 89.5 C 92.398438 88.5 90.5 88 88.5 88 C 84.5 88 80.800781 90.101562 78.800781 93.601562 C 77.800781 95.300781 77.300781 97.199219 77.300781 99.199219 C 77.300781 103.199219 79.398438 106.898438 82.898438 108.898438 C 84.601562 109.898438 86.5 110.398438 88.5 110.398438 M 88.5 91.800781 C 90.5 91.800781 92.300781 91.300781 94.101562 90.300781 C 95.800781 89.300781 97.199219 88 98.199219 86.199219 C 99.199219 84.5 99.699219 82.601562 99.699219 80.601562 C 99.699219 76.601562 97.601562 72.898438 94.101562 70.898438 C 92.398438 69.898438 90.5 69.398438 88.5 69.398438 C 84.5 69.398438 80.800781 71.5 78.800781 75 C 77.800781 76.699219 77.300781 78.601562 77.300781 80.601562 C 77.300781 84.601562 79.398438 88.300781 82.898438 90.300781 C 84.601562 91.300781 86.5 91.800781 88.5 91.800781 M 88.5 73.199219 C 92.5 73.199219 96.199219 71.101562 98.199219 67.601562 C 99.199219 65.898438 99.699219 64 99.699219 62 C 99.699219 58 97.601562 54.300781 94.101562 52.300781 C 92.398438 51.300781 90.5 50.800781 88.5 50.800781 C 84.5 50.800781 80.800781 52.898438 78.800781 56.398438 C 77.800781 58.101562 77.300781 60 77.300781 62 C 77.300781 66 79.398438 69.699219 82.898438 71.699219 C 84.601562 72.699219 86.5 73.199219 88.5 73.199219 M 69.898438 54.601562 C 73.898438 54.601562 77.601562 52.5 79.601562 49 C 80.601562 47.300781 81.101562 45.398438 81.101562 43.398438 C 81.101562 39.398438 79 35.699219 75.5 33.699219 C 73.800781 32.699219 71.898438 32.199219 69.898438 32.199219 C 65.898438 32.199219 62.199219 34.300781 60.199219 37.800781 C 59.199219 39.5 58.699219 41.398438 58.699219 43.398438 C 58.699219 45.398438 59.199219 47.199219 60.199219 49 C 61.199219 50.699219 62.5 52.101562 64.300781 53.101562 C 66 54.101562 67.898438 54.601562 69.898438 54.601562 M 51.300781 54.601562 C 55.300781 54.601562 59 52.5 61 49 C 62 47.300781 62.5 45.398438 62.5 43.398438 C 62.5 39.398438 60.398438 35.699219 56.898438 33.699219 C 55.199219 32.699219 53.300781 32.199219 51.300781 32.199219 C 47.300781 32.199219 43.601562 34.300781 41.601562 37.800781 C 40.601562 39.5 40.101562 41.398438 40.101562 43.398438 C 40.101562 45.398438 40.601562 47.199219 41.601562 49 C 42.601562 50.699219 44 52.101562 45.699219 53.101562 C 47.398438 54.101562 49.300781 54.601562 51.300781 54.601562 M 69.898438 91.800781 C 71.898438 91.800781 73.699219 91.300781 75.5 90.300781 C 77.199219 89.300781 78.601562 88 79.601562 86.199219 C 80.601562 84.5 81.101562 82.601562 81.101562 80.601562 C 81.101562 76.601562 79 72.898438 75.5 70.898438 C 72.101562 68.898438 67.800781 68.898438 64.300781 70.898438 C 62.601562 71.898438 61.199219 73.300781 60.199219 75 C 59.199219 76.699219 58.699219 78.601562 58.699219 80.601562 C 58.699219 82.601562 59.199219 84.398438 60.199219 86.199219 C 61.199219 87.898438 62.5 89.300781 64.300781 90.300781 C 66 91.300781 67.898438 91.800781 69.898438 91.800781 "/>
</svg>
