<?xml version="1.0" encoding="UTF-8"?>
<svg id="Layer_1" xmlns="http://www.w3.org/2000/svg" version="1.1" viewBox="0 0 141.7 141.7">
  <!-- Generator: Adobe Illustrator 29.0.1, SVG Export Plug-In . SVG Version: 2.1.0 Build 192)  -->
  <path d="M67.7,40.2c4.3-4.3.9-13.4,8.3-14.9,5.9-1.2,5.7,3.7,10.5,5,4,1.1,7.9-4,13.2-1.7,3.9,1.7,4.3,6.9,2.7,9.8-2,3.4-5.5,6.8-6,11.4-.5,4.3,2.1,6.9.7,11.4-2,6.3-10.9,8.8-11.8,14.1-1.1,6.1,3.2,12.5,8.6,12.9,6.1.5,8.2-5,13.6-8.2,4.6-2.7,10.7,1.4,8,8-2.8,6.8-8.9,6.4-13.4,11.4-5,5.4-7.7,16.3-16.3,14.6-6.4-1.2-6.9-10.5-4.1-18,2.7-7.1-6.8-9.3-9.8-2.7-2.8,6-4,15.4-11.6,15.9-5.5.3-8.3-5.4-11.6-6.1-3.1-.7-10.2.5-13.7-.9-11.2-4.5-7.2-22.2,2.1-23.8,5-.9,7.4,1.6,11.4-.6,3.7-2,2.3-9.7,8.3-11.2,5.9-1.6,9.3,1.8,15.4,1.6,14.5-.7,18.2-29.3,12.9-30.9-5-1.6-11.4,20-23.1,22-10.7,1.8-17-8.2-8.6-13.7,4-2.5,10.5-1.4,14.3-5.2h0ZM42.3,90c-.2,1.6.7,3.4,5,3.9,9.3,1.1,17.2-3.7,18.4-8.3,1.1-4.1-.6-6.1-3.4-6.4-3.4-.3-5,5.4-10.9,7.5-4.1,1.6-8.8.3-9.1,3.4Z"/>
</svg>