<?xml version="1.0" encoding="UTF-8"?>
<svg xmlns="http://www.w3.org/2000/svg" xmlns:xlink="http://www.w3.org/1999/xlink" width="141.7" height="141.7" viewBox="0 0 141.7 141.7">
<path fill-rule="evenodd" fill="rgb(0%, 0%, 0%)" fill-opacity="1" d="M 76.300781 112.5 L 99.101562 111 L 96.5 88.398438 C 96.800781 81 97.300781 68.699219 97.300781 58.699219 C 97.300781 48.699219 96.898438 37.898438 96.101562 29.898438 C 92.300781 29.398438 88.398438 29.199219 84.5 29.199219 C 71 29.199219 51.898438 31.101562 38.898438 35.898438 C 40.601562 51.199219 44.300781 65.800781 51.800781 77.300781 C 47.699219 80.101562 42.398438 82.800781 36.5 86.800781 C 35.5 100 42.300781 112.5 57 112.5 C 71.699219 112.5 72.300781 108 76.101562 97.898438 L 76.101562 112.300781 Z M 66.800781 70.800781 L 66.800781 70.5 C 57.398438 63.5 51.800781 57.601562 47.101562 49.699219 C 56.199219 44.898438 66.601562 40.5 77.101562 38.300781 L 77.101562 59.101562 C 77.101562 83.699219 74.898438 100.398438 68.300781 100.398438 C 61.699219 100.398438 57.398438 92.800781 56.101562 80.300781 C 60.5 76.398438 63.300781 74.398438 66.800781 70.800781 "/>
</svg>
