<?xml version="1.0" encoding="UTF-8"?>
<svg id="Layer_1" xmlns="http://www.w3.org/2000/svg" version="1.1" viewBox="0 0 141.7 141.7">
  <!-- Generator: Adobe Illustrator 29.0.1, SVG Export Plug-In . SVG Version: 2.1.0 Build 192)  -->
  <path d="M76.2,83.6l-29.7.7c-10.2.2-18.4,4-18.4,13.2s7.5,14.7,14.2,14.7,18-8.5,23.3-13.1l11.3-9.7c4-3.5,7.4-2.7,7.4,3.6v5.9c0,7,4.5,13.1,14,13.1s15.8-9.9,13.3-22.8l-10.5-55.6c-1.5-7.9-6.2-12.8-13.1-12.8s-11.7,3-21.7,10.9l-23.2,18.4c-5.3,4.3-8.8,8.7-8.8,13.7,0,7.2,5.6,12.8,12.4,12.8s10.7-1.5,14.4-9.1l14-28.6c1.7-3.6,5.9-12.4,10.7-13.2,4.8-1,8,3.1,7.1,9.5l-5,40.9c-.7,5.9-5.1,7.2-11.6,7.3"/>
</svg>