<?xml version="1.0" encoding="UTF-8"?>
<svg xmlns="http://www.w3.org/2000/svg" xmlns:xlink="http://www.w3.org/1999/xlink" width="141.7" height="141.7" viewBox="0 0 141.7 141.7">
<path fill-rule="evenodd" fill="rgb(0%, 0%, 0%)" fill-opacity="1" d="M 66.839844 42.117188 C 71.003906 37.949219 67.710938 29.132812 74.882812 27.679688 C 80.597656 26.515625 80.402344 31.265625 85.054688 32.523438 C 88.929688 33.589844 92.707031 28.648438 97.84375 30.878906 C 101.621094 32.523438 102.011719 37.5625 100.460938 40.371094 C 98.523438 43.664062 95.132812 46.960938 94.644531 51.417969 C 94.164062 55.585938 96.679688 58.101562 95.324219 62.464844 C 93.386719 68.566406 84.761719 70.988281 83.890625 76.125 C 82.828125 82.035156 86.992188 88.234375 92.222656 88.621094 C 98.132812 89.105469 100.167969 83.777344 105.402344 80.679688 C 109.859375 78.0625 115.769531 82.035156 113.152344 88.429688 C 110.4375 95.015625 104.53125 94.628906 100.167969 99.472656 C 95.324219 104.707031 92.707031 115.265625 84.375 113.621094 C 78.175781 112.457031 77.691406 103.445312 80.402344 96.179688 C 83.019531 89.300781 73.816406 87.167969 70.910156 93.5625 C 68.195312 99.378906 67.035156 108.484375 59.667969 108.96875 C 54.339844 109.261719 51.628906 103.738281 48.429688 103.058594 C 45.425781 102.382812 38.546875 103.542969 35.15625 102.1875 C 24.304688 97.828125 28.179688 80.679688 37.191406 79.128906 C 42.035156 78.257812 44.363281 80.679688 48.238281 78.546875 C 51.820312 76.609375 50.464844 69.148438 56.277344 67.695312 C 61.996094 66.144531 65.289062 69.4375 71.199219 69.246094 C 85.25 68.566406 88.832031 40.855469 83.699219 39.304688 C 78.851562 37.757812 72.652344 58.683594 61.316406 60.621094 C 50.949219 62.367188 44.84375 52.675781 52.984375 47.347656 C 56.859375 44.925781 63.15625 45.992188 66.839844 42.308594 Z M 42.230469 90.367188 C 42.035156 91.917969 42.90625 93.660156 47.074219 94.144531 C 56.085938 95.210938 63.738281 90.5625 64.902344 86.105469 C 65.96875 82.132812 64.320312 80.191406 61.605469 79.902344 C 58.3125 79.613281 56.761719 85.136719 51.046875 87.167969 C 47.074219 88.71875 42.519531 87.460938 42.230469 90.464844 Z M 42.230469 90.367188 "/>
</svg>
