<?xml version="1.0" encoding="UTF-8"?>
<svg xmlns="http://www.w3.org/2000/svg" xmlns:xlink="http://www.w3.org/1999/xlink" width="141.7" height="141.7" viewBox="0 0 141.7 141.7">
<path fill-rule="evenodd" fill="rgb(0%, 0%, 0%)" fill-opacity="1" d="M 75.882812 85.96875 L 47.734375 86.632812 C 38.070312 86.824219 30.296875 90.425781 30.296875 99.144531 C 30.296875 107.859375 37.40625 113.074219 43.757812 113.074219 C 50.105469 113.074219 60.8125 105.019531 65.835938 100.660156 L 76.546875 91.46875 C 80.335938 88.148438 83.558594 88.90625 83.558594 94.878906 L 83.558594 100.46875 C 83.558594 107.101562 87.824219 112.882812 96.828125 112.882812 C 105.828125 112.882812 111.800781 103.5 109.429688 91.277344 L 99.480469 38.585938 C 98.058594 31.097656 93.605469 26.453125 87.066406 26.453125 C 80.527344 26.453125 75.976562 29.296875 66.5 36.785156 L 44.515625 54.222656 C 39.492188 58.296875 36.175781 62.46875 36.175781 67.207031 C 36.175781 74.027344 41.480469 79.335938 47.925781 79.335938 C 54.371094 79.335938 58.066406 77.914062 61.570312 70.710938 L 74.839844 43.609375 C 76.453125 40.195312 80.429688 31.855469 84.980469 31.097656 C 89.527344 30.152344 92.5625 34.035156 91.707031 40.101562 L 86.96875 78.863281 C 86.308594 84.453125 82.136719 85.6875 75.976562 85.78125 Z M 75.882812 85.96875 "/>
</svg>
