<?xml version="1.0" encoding="UTF-8"?>
<svg id="Layer_1" xmlns="http://www.w3.org/2000/svg" version="1.1" viewBox="0 0 141.7 141.7">
  <!-- Generator: Adobe Illustrator 29.0.1, SVG Export Plug-In . SVG Version: 2.1.0 Build 192)  -->
  <path d="M52.3,106.4c4,0,7.7-2.1,9.7-5.6,1-1.7,1.5-3.6,1.5-5.6,0-4-2.1-7.7-5.6-9.7-1.7-1-3.6-1.5-5.6-1.5s-3.9.5-5.6,1.5c-3.5,2-5.6,5.7-5.6,9.7,0,4,2.1,7.7,5.6,9.7,1.7,1,3.6,1.5,5.6,1.5M52.3,87.8c2,0,3.8-.5,5.6-1.5,1.7-1,3.1-2.3,4.1-4.1s1.5-3.6,1.5-5.6c0-4-2.1-7.7-5.6-9.7-3.4-2-7.7-2-11.2,0-1.7,1-3.1,2.4-4.1,4.1-1,1.7-1.5,3.6-1.5,5.6,0,2,.5,3.8,1.5,5.6,1,1.7,2.4,3.1,4.1,4.1,1.7,1,3.6,1.5,5.6,1.5M89.5,106.4c2,0,3.8-.5,5.6-1.5,1.7-1,3.1-2.4,4.1-4.1,1-1.7,1.5-3.6,1.5-5.6,0-4-2.1-7.7-5.6-9.7-1.7-1-3.6-1.5-5.6-1.5-4,0-7.7,2.1-9.7,5.6-1,1.7-1.5,3.6-1.5,5.6,0,4,2.1,7.7,5.6,9.7,1.7,1,3.6,1.5,5.6,1.5M89.5,87.8c2,0,3.8-.5,5.6-1.5,1.7-1,3.1-2.3,4.1-4.1,1-1.7,1.5-3.6,1.5-5.6,0-4-2.1-7.7-5.6-9.7-1.7-1-3.6-1.5-5.6-1.5-4,0-7.7,2.1-9.7,5.6-1,1.7-1.5,3.6-1.5,5.6,0,4,2.1,7.7,5.6,9.7,1.7,1,3.6,1.5,5.6,1.5M89.5,69.2c4,0,7.7-2.1,9.7-5.6,1-1.7,1.5-3.6,1.5-5.6,0-4-2.1-7.7-5.6-9.7-1.7-1-3.6-1.5-5.6-1.5-4,0-7.7,2.1-9.7,5.6-1,1.7-1.5,3.6-1.5,5.6,0,4,2.1,7.7,5.6,9.7,1.7,1,3.6,1.5,5.6,1.5M70.9,50.6c4,0,7.7-2.1,9.7-5.6,1-1.7,1.5-3.6,1.5-5.6,0-4-2.1-7.7-5.6-9.7-1.7-1-3.6-1.5-5.6-1.5-4,0-7.7,2.1-9.7,5.6-1,1.7-1.5,3.6-1.5,5.6,0,2,.5,3.8,1.5,5.6,1,1.7,2.3,3.1,4.1,4.1,1.7,1,3.6,1.5,5.6,1.5M52.3,50.6c4,0,7.7-2.1,9.7-5.6,1-1.7,1.5-3.6,1.5-5.6,0-4-2.1-7.7-5.6-9.7-1.7-1-3.6-1.5-5.6-1.5-4,0-7.7,2.1-9.7,5.6-1,1.7-1.5,3.6-1.5,5.6,0,2,.5,3.8,1.5,5.6,1,1.7,2.4,3.1,4.1,4.1,1.7,1,3.6,1.5,5.6,1.5M70.9,87.8c2,0,3.8-.5,5.6-1.5,1.7-1,3.1-2.3,4.1-4.1,1-1.7,1.5-3.6,1.5-5.6,0-4-2.1-7.7-5.6-9.7-3.4-2-7.7-2-11.2,0-1.7,1-3.1,2.4-4.1,4.1-1,1.7-1.5,3.6-1.5,5.6,0,2,.5,3.8,1.5,5.6,1,1.7,2.3,3.1,4.1,4.1,1.7,1,3.6,1.5,5.6,1.5"/>
</svg>