<?xml version="1.0" encoding="UTF-8"?>
<svg id="Layer_1" xmlns="http://www.w3.org/2000/svg" version="1.1" viewBox="0 0 141.7 141.7">
  <!-- Generator: Adobe Illustrator 29.0.1, SVG Export Plug-In . SVG Version: 2.1.0 Build 192)  -->
  <path d="M75.4,32.2h-34.7v12.8h34.7c9.3,0,16.9,7.7,16.9,17.1v8.7h-4.1c-3-11.7-13.8-20.7-26.6-20.7s-27.4,12.5-27.4,27.1c0,15.2,12.3,27.5,27.4,27.6,12.9,0,23.7-9,26.6-21.3h4.1v21.3h12.9v-42.8c0-16.5-13.5-29.8-29.8-29.8M61.6,92.2c-7.8,0-14.5-6.6-14.5-15s6.8-14.4,14.5-14.4,14.9,6.8,14.9,14.4-6.6,15-14.8,15"/>
</svg>