<?xml version="1.0" encoding="UTF-8"?>
<svg id="Layer_1" xmlns="http://www.w3.org/2000/svg" version="1.1" viewBox="0 0 141.7 141.7">
  <!-- Generator: Adobe Illustrator 29.0.1, SVG Export Plug-In . SVG Version: 2.1.0 Build 192)  -->
  <path d="M62.2,111.8c-5.8,0-8.8-3.5-8.8-10.8v-10.5c0-12.3,6.4-17.2,18.4-28.4v-28.1c0-4.9-1.2-6.1-6.2-6.1-7.9,0-9.9,3.4-9.9,8.7s2.6,12,15,24.6h-14.6c-3-7.3-4-16-4-23s7.5-20.7,17-20.7,13.2,4.7,13.2,12.5v62.3c0,8.2,1.5,9.1,3.2,9.1s2.4-.9,2.6-5.9l.5-26.6h2.1l.4,26c.2,9.6-1.4,16.9-8.5,16.9s-9-4.4-7.2-26l-1.5-.3c-2.3,22.7-6.1,26.3-11.9,26.3M66.6,100.7c3.3,0,5.2-9.3,5.2-23.3v-12.2c-6.7,6.4-7.8,10.2-7.8,16.6v15.2c0,2.8,1.1,3.7,2.6,3.7"/>
</svg>