<?xml version="1.0" encoding="UTF-8"?>
<svg xmlns="http://www.w3.org/2000/svg" xmlns:xlink="http://www.w3.org/1999/xlink" width="141.7" height="141.7" viewBox="0 0 141.7 141.7">
<path fill-rule="evenodd" fill="rgb(0%, 0%, 0%)" fill-opacity="1" d="M 75.96875 30.570312 L 37.800781 30.570312 L 37.800781 44.652344 L 75.96875 44.652344 C 86.199219 44.652344 94.558594 53.121094 94.558594 63.460938 L 94.558594 73.03125 L 90.050781 73.03125 C 86.75 60.160156 74.871094 50.261719 60.789062 50.261719 C 46.710938 50.261719 30.652344 64.011719 30.652344 80.070312 C 30.652344 96.789062 44.179688 110.320312 60.789062 110.429688 C 74.980469 110.429688 86.859375 100.53125 90.050781 87 L 94.558594 87 L 94.558594 110.429688 L 108.75 110.429688 L 108.75 63.351562 C 108.75 45.199219 93.898438 30.570312 75.96875 30.570312 M 60.789062 96.570312 C 52.210938 96.570312 44.839844 89.308594 44.839844 80.070312 C 44.839844 70.828125 52.320312 64.230469 60.789062 64.230469 C 69.261719 64.230469 77.179688 71.710938 77.179688 80.070312 C 77.179688 88.429688 69.917969 96.570312 60.898438 96.570312 Z M 60.789062 96.570312 "/>
</svg>
