<?xml version="1.0" encoding="UTF-8"?>
<svg id="Layer_1" xmlns="http://www.w3.org/2000/svg" version="1.1" viewBox="0 0 141.7 141.7">
  <!-- Generator: Adobe Illustrator 29.0.1, SVG Export Plug-In . SVG Version: 2.1.0 Build 192)  -->
  <path d="M78.3,108.5l22.8-1.5-2.6-22.6c.3-7.4.8-19.7.8-29.7s-.4-20.8-1.2-28.8c-3.8-.5-7.7-.7-11.6-.7-13.5,0-32.6,1.9-45.6,6.7,1.7,15.3,5.4,29.9,12.9,41.4-4.1,2.8-9.4,5.5-15.3,9.5-1,13.2,5.8,25.7,20.5,25.7s15.3-4.5,19.1-14.6v14.4ZM68.8,66.8v-.3c-9.4-7-15-12.9-19.7-20.8,9.1-4.8,19.5-9.2,30-11.4v20.8c0,24.6-2.2,41.3-8.8,41.3s-10.9-7.6-12.2-20.1c4.4-3.9,7.2-5.9,10.7-9.5"/>
</svg>