<?xml version="1.0" encoding="UTF-8"?>
<svg xmlns="http://www.w3.org/2000/svg" xmlns:xlink="http://www.w3.org/1999/xlink" width="141.7" height="141.7" viewBox="0 0 141.7 141.7">
<path fill-rule="evenodd" fill="rgb(0%, 0%, 0%)" fill-opacity="1" d="M 101.703125 109.316406 C 107.519531 109.316406 112.835938 103.898438 112.835938 99.488281 C 112.835938 95.074219 104.613281 88.65625 98.792969 75.214844 C 93.679688 63.277344 92.878906 57.660156 97.289062 50.339844 C 101.90625 42.917969 107.621094 39.007812 103.105469 34.492188 C 100 31.382812 91.171875 33.992188 82.644531 38.105469 C 76.027344 33.089844 69.105469 30.480469 58.675781 30.480469 C 43.429688 30.480469 34.101562 36.199219 33.199219 40.8125 C 32.496094 44.222656 34.804688 46.730469 40.519531 46.628906 C 46.839844 46.328125 55.96875 45.726562 63.691406 48.835938 C 34.90625 64.683594 22.265625 97.980469 35.707031 108.011719 C 44.632812 114.632812 67.902344 105.203125 79.738281 86.949219 C 83.949219 101.992188 92.976562 109.414062 101.804688 109.414062 Z M 56.367188 86.347656 C 52.558594 83.640625 54.363281 76.71875 60.582031 68.996094 C 65.296875 63.078125 69.105469 59.667969 73.117188 56.960938 C 76.730469 63.578125 75.828125 72.507812 71.113281 79.125 C 65.695312 86.546875 59.980469 88.855469 56.367188 86.246094 Z M 56.367188 86.347656 "/>
</svg>
