<?xml version="1.0" encoding="UTF-8"?>
<svg xmlns="http://www.w3.org/2000/svg" xmlns:xlink="http://www.w3.org/1999/xlink" width="141.7" height="141.7" viewBox="0 0 141.7 141.7">
<path fill-rule="evenodd" fill="rgb(0%, 0%, 0%)" fill-opacity="1" d="M 68.761719 27.945312 C 57.835938 27.945312 43.386719 33.230469 36.691406 48.03125 L 52.667969 55.082031 C 56.894531 45.683594 63.003906 43.804688 68.761719 43.804688 C 77.335938 43.804688 83.328125 49.324219 83.328125 57.546875 L 83.328125 64.832031 C 78.863281 62.011719 73.695312 60.71875 68.292969 60.71875 C 52.667969 60.71875 39.394531 71.644531 39.394531 89.148438 L 39.394531 112.054688 L 100.007812 112.054688 L 100.007812 60.367188 C 100.007812 38.046875 86.617188 27.945312 68.644531 27.945312 Z M 56.191406 90.441406 C 56.191406 82.335938 60.1875 75.992188 69.703125 75.992188 C 79.214844 75.992188 83.328125 79.75 83.328125 90.441406 L 83.328125 96.078125 L 56.191406 96.078125 Z M 56.191406 90.441406 "/>
</svg>
